<svg width="52" height="17" viewBox="0 0 52 17" fill="none" xmlns="http://www.w3.org/2000/svg">
<path fill-rule="evenodd" clip-rule="evenodd" d="M25.0541 0.640015C25.3341 0.700015 25.6137 0.720049 25.8837 0.800049C26.3137 0.920049 26.7041 1.11003 27.0341 1.41003C27.4641 1.80003 27.6538 2.29999 27.7138 2.85999C27.7538 3.14999 27.744 3.42997 27.744 3.71997C27.744 4.64997 27.754 5.58001 27.744 6.51001C27.734 7.04001 27.9038 7.50003 28.2338 7.91003C28.3138 8.00003 28.384 8.08997 28.414 8.21997C28.444 8.32997 28.4139 8.42 28.3339 8.5C27.9939 8.78 27.6639 9.06998 27.3339 9.34998C27.2639 9.41998 27.1937 9.49004 27.1137 9.54004C26.9737 9.65004 26.8137 9.64002 26.6737 9.52002C26.3737 9.28002 26.1337 8.99004 25.9237 8.67004C25.8437 8.53004 25.844 8.54002 25.724 8.65002C25.364 8.99002 24.9841 9.29998 24.5141 9.47998C24.1841 9.60998 23.834 9.65004 23.474 9.67004C23.024 9.69004 22.584 9.63996 22.164 9.45996C21.644 9.22996 21.2739 8.84996 21.0639 8.32996C20.7739 7.55996 20.7837 6.79003 21.0937 6.03003C21.3837 5.32003 21.9339 4.86996 22.6239 4.57996C23.1739 4.35996 23.7537 4.26994 24.3437 4.18994C24.6937 4.14994 25.0537 4.11996 25.4037 4.07996C25.4737 4.06996 25.5141 4.04998 25.5141 3.97998C25.5141 3.68998 25.524 3.39999 25.474 3.10999C25.394 2.69999 25.1038 2.41999 24.6938 2.35999C24.2838 2.29999 23.9041 2.36 23.5741 2.62C23.3941 2.77 23.2838 2.96005 23.2138 3.18005C23.2038 3.23005 23.1937 3.28997 23.1737 3.33997C23.1137 3.50997 22.9939 3.58006 22.8139 3.56006C22.3639 3.51006 21.9138 3.46003 21.4638 3.41003C21.1838 3.39003 21.0839 3.24998 21.1439 2.97998C21.2639 2.45998 21.4737 2 21.8437 1.62C22.2137 1.25 22.664 0.999976 23.164 0.849976C23.494 0.749976 23.824 0.690034 24.164 0.660034C24.184 0.660034 24.204 0.650015 24.224 0.640015H25.0541ZM25.5141 5.77002C25.5141 5.67002 25.5141 5.57998 25.5141 5.47998C25.5141 5.39998 25.4837 5.37 25.4037 5.37C25.0437 5.37 24.6839 5.38999 24.3339 5.48999C23.7139 5.65999 23.284 6.01994 23.204 6.68994C23.164 7.02994 23.1939 7.36003 23.3739 7.66003C23.6439 8.09003 24.2139 8.14994 24.6239 7.93994C25.0739 7.69994 25.2937 7.29996 25.4237 6.82996C25.5237 6.48996 25.5041 6.13002 25.5141 5.77002Z" fill="white"/>
<path fill-rule="evenodd" clip-rule="evenodd" d="M4.38375 0.640015C4.65375 0.690015 4.92381 0.720049 5.19381 0.800049C5.64381 0.930049 6.05377 1.11994 6.40377 1.43994C6.77377 1.80994 6.96414 2.26002 7.03414 2.77002C7.07414 3.12002 7.09395 3.46996 7.08395 3.82996C7.04395 4.71996 7.07393 5.62001 7.06393 6.51001C7.06393 6.85001 7.11389 7.17998 7.27389 7.47998C7.38389 7.67998 7.514 7.85002 7.644 8.02002C7.764 8.18002 7.81371 8.38006 7.59371 8.56006C7.22371 8.85006 6.87412 9.17999 6.51412 9.48999C6.32412 9.65999 6.16383 9.64999 5.96383 9.48999C5.67383 9.24999 5.4441 8.97002 5.2441 8.65002C5.1741 8.53002 5.16393 8.53 5.06393 8.63C4.72393 8.96 4.36379 9.25994 3.92379 9.43994C3.40379 9.65994 2.85391 9.70003 2.29391 9.66003C1.86391 9.63003 1.45396 9.48999 1.10396 9.23999C0.623965 8.89999 0.353867 8.41998 0.253867 7.84998C0.123867 7.14998 0.174121 6.46996 0.514121 5.82996C0.884121 5.13996 1.47381 4.73 2.19381 4.5C2.75381 4.31 3.33379 4.23004 3.92379 4.17004C4.19379 4.14004 4.46385 4.10996 4.73385 4.07996C4.79385 4.06996 4.83395 4.05999 4.83395 3.98999C4.83395 3.69999 4.85416 3.41 4.80416 3.12C4.72416 2.71 4.47393 2.46 4.06393 2.37C3.66393 2.29 3.28406 2.33997 2.95406 2.58997C2.72406 2.74997 2.58389 2.99001 2.52389 3.26001C2.46389 3.50001 2.30371 3.59006 2.09371 3.56006C1.65371 3.50006 1.20387 3.46003 0.753867 3.41003C0.523867 3.39003 0.413828 3.24001 0.463828 3.01001C0.603828 2.33001 0.934102 1.75998 1.4941 1.34998C1.9641 0.989976 2.50395 0.809961 3.08395 0.709961C3.23395 0.679961 3.39416 0.660015 3.55416 0.640015H4.38375ZM4.83395 5.83997C4.83395 5.71997 4.83395 5.59998 4.83395 5.47998C4.84395 5.40998 4.81385 5.37 4.73385 5.37C4.36385 5.37 3.99375 5.38999 3.63375 5.48999C3.31375 5.58999 3.00416 5.73002 2.80416 6.02002C2.46416 6.48002 2.43375 7.00002 2.63375 7.52002C2.83375 8.03002 3.36418 8.15999 3.82418 7.98999C4.33418 7.80999 4.58385 7.39002 4.73385 6.90002C4.84385 6.56002 4.83395 6.19997 4.83395 5.83997Z" fill="white"/>
<path d="M10.9941 2.16004C11.3741 1.22004 12.0439 0.719971 13.0439 0.709971C14.0739 0.699971 14.7038 1.26006 15.0938 2.18006C15.1838 2.01006 15.254 1.84997 15.354 1.70997C15.694 1.17997 16.1839 0.880019 16.7939 0.760019C17.4239 0.640019 18.0142 0.739966 18.5542 1.07997C19.1042 1.41997 19.3941 1.93007 19.4741 2.56007C19.5441 3.07007 19.5339 3.56997 19.5039 4.07997C19.5039 4.12997 19.5039 4.16998 19.5039 4.21998C19.5039 5.87998 19.5039 7.52995 19.5039 9.18995C19.5039 9.44995 19.404 9.56007 19.144 9.56007C18.664 9.56007 18.1841 9.56007 17.7041 9.56007C17.4341 9.56007 17.3242 9.45006 17.3242 9.18006C17.3242 7.77006 17.3242 6.35995 17.3242 4.93995C17.3242 4.55995 17.3342 4.17004 17.3242 3.78004C17.3142 3.54004 17.2738 3.29999 17.1338 3.09999C16.9838 2.86999 16.7639 2.80003 16.5039 2.77003C15.9439 2.71003 15.4438 3.10001 15.3438 3.75001C15.3038 4.05001 15.2842 4.36004 15.2842 4.66004C15.2742 6.17004 15.2842 7.67995 15.2842 9.18995C15.2842 9.44995 15.1838 9.56007 14.9238 9.56007C14.4438 9.56007 13.9641 9.56007 13.4941 9.56007C13.2041 9.56007 13.104 9.45005 13.104 9.17005C13.104 7.52005 13.104 5.86999 13.104 4.22999C13.104 3.92999 13.0839 3.62998 12.9839 3.33998C12.8239 2.88998 12.4842 2.72001 12.0342 2.75001C11.5142 2.80001 11.2638 3.14002 11.1538 3.64002C11.0738 3.95002 11.0742 4.27999 11.0742 4.59999C11.0742 6.09999 11.0742 7.60999 11.0742 9.10999C11.0742 9.16999 11.074 9.22004 11.064 9.28004C11.044 9.44004 10.9339 9.55006 10.7739 9.55006C10.2339 9.56006 9.70406 9.56006 9.16406 9.55006C9.01406 9.55006 8.90379 9.44005 8.88379 9.29005C8.87379 9.24005 8.87402 9.20003 8.87402 9.15003C8.87402 6.54003 8.87402 3.92996 8.87402 1.31996C8.87402 1.25996 8.87379 1.19001 8.88379 1.13001C8.91379 0.990015 9.02383 0.890024 9.17383 0.890024C9.67383 0.890024 10.1738 0.890024 10.6738 0.890024C10.8438 0.890024 10.9539 1.01996 10.9639 1.19996C10.9639 1.46996 10.9639 1.74002 10.9639 2.01002C10.9639 2.05002 10.9541 2.09004 10.9941 2.16004Z" fill="white"/>
<path d="M46.7739 2.28999C46.8539 2.10999 46.9342 1.92997 47.0342 1.76997C47.5142 0.919975 48.3139 0.619945 49.2339 0.739945C49.7639 0.799945 50.224 1.01001 50.584 1.43001C50.884 1.79001 51.0237 2.22 51.0938 2.67C51.1438 3.04 51.1641 3.39997 51.1641 3.76997C51.1641 5.56997 51.1641 7.3799 51.1641 9.1899C51.1641 9.4599 51.0639 9.56001 50.7939 9.56001C50.3139 9.56001 49.8237 9.56001 49.3438 9.56001C49.0938 9.56001 48.9839 9.44991 48.9839 9.19991C48.9839 7.54991 48.9839 5.89996 48.9839 4.24996C48.9839 3.91996 48.954 3.58998 48.834 3.27998C48.584 2.61998 47.7342 2.58999 47.3242 3.03999C47.0442 3.35999 46.954 3.75999 46.894 4.15999C46.854 4.48999 46.854 4.81997 46.854 5.13997C46.854 6.48997 46.854 7.83001 46.854 9.18001C46.854 9.45001 46.7441 9.56001 46.4741 9.56001C45.9941 9.56001 45.5142 9.56001 45.0342 9.56001C44.7842 9.56001 44.6738 9.4399 44.6738 9.1899C44.6738 6.5399 44.6738 3.88995 44.6738 1.23995C44.6738 1.00995 44.7842 0.88997 45.0142 0.88997C45.4742 0.88997 45.9338 0.88997 46.4038 0.88997C46.6338 0.88997 46.7339 0.989936 46.7339 1.22994C46.7339 1.53994 46.7339 1.83998 46.7339 2.14998C46.7339 2.18998 46.7239 2.23999 46.7739 2.28999Z" fill="white"/>
<path d="M20.834 16.01C20.014 16.02 19.2642 15.97 18.5142 15.88C17.8642 15.8 17.2142 15.6999 16.5742 15.5699C15.8942 15.4199 15.2242 15.23 14.5542 15.03C13.9842 14.85 13.424 14.62 12.874 14.39C12.474 14.22 12.0838 14.0299 11.6938 13.8399C11.2638 13.6199 10.8538 13.38 10.4438 13.13C10.0338 12.89 9.63414 12.6299 9.24414 12.3499C8.91414 12.1199 8.59393 11.86 8.27393 11.61C7.99393 11.39 7.7141 11.15 7.4541 10.9C7.3941 10.84 7.354 10.77 7.354 10.68C7.364 10.5 7.49406 10.3799 7.66406 10.4499C7.83406 10.5099 8.00406 10.6 8.16406 10.68C8.49406 10.87 8.82406 11.0499 9.16406 11.2299C9.63406 11.4599 10.1138 11.67 10.5938 11.88C11.2038 12.14 11.8239 12.3799 12.4639 12.5899C13.1639 12.8299 13.864 13.0399 14.584 13.2199C15.244 13.3799 15.914 13.52 16.584 13.64C17.014 13.72 17.444 13.7799 17.874 13.8299C18.314 13.8899 18.7541 13.9199 19.1841 13.9599C19.6841 14.0099 20.1841 14.01 20.6841 14.04C20.8841 14.05 21.0839 14.03 21.2939 14.03C22.0239 14.04 22.7641 13.99 23.4941 13.93C24.0941 13.88 24.6939 13.7899 25.2939 13.6899C25.9439 13.5899 26.5939 13.46 27.2339 13.31C27.6639 13.2 28.0939 13.0899 28.5239 12.9599C28.9839 12.8199 29.444 12.68 29.894 12.52C30.324 12.37 30.7541 12.22 31.1641 12.03C31.3141 11.96 31.474 11.9 31.644 11.9C31.964 11.91 32.1539 12.22 32.0039 12.5C31.9539 12.58 31.884 12.6499 31.814 12.6999C31.374 13.0099 30.9339 13.3 30.4639 13.56C30.0339 13.81 29.5838 14.04 29.1338 14.24C28.5938 14.49 28.0541 14.71 27.4941 14.89C27.0941 15.03 26.6839 15.16 26.2739 15.27C25.7839 15.41 25.2939 15.52 24.7939 15.62C24.3739 15.71 23.9439 15.7799 23.5239 15.8399C23.0439 15.8999 22.5737 15.9499 22.0938 15.9699C21.6538 15.9999 21.214 16.02 20.834 16.01Z" fill="white"/>
<path fill-rule="evenodd" clip-rule="evenodd" d="M36.334 5.29003C36.334 4.39003 36.4642 3.58995 36.7842 2.82995C37.0842 2.13995 37.5238 1.57004 38.1738 1.17004C38.5938 0.910036 39.0642 0.769973 39.5542 0.729973C40.4642 0.649973 41.2942 0.859933 42.0142 1.43993C42.4142 1.74993 42.7041 2.15998 42.9341 2.60998C43.2241 3.16998 43.3841 3.77002 43.4541 4.40002C43.5041 4.83002 43.5339 5.25993 43.5039 5.68993C43.4339 6.59993 43.2041 7.46998 42.6841 8.23998C42.1541 9.01998 41.4239 9.53005 40.4839 9.68005C39.6239 9.81005 38.8142 9.68994 38.0742 9.19994C37.5842 8.87994 37.2241 8.44005 36.9541 7.93005C36.6441 7.35005 36.4738 6.71994 36.3838 6.06994C36.3538 5.78994 36.334 5.50003 36.334 5.29003ZM41.144 5.30004C41.144 5.01004 41.1538 4.72005 41.1338 4.43005C41.1138 3.98005 41.0538 3.53998 40.9038 3.10998C40.7038 2.50998 40.2641 2.33003 39.7041 2.41003C39.3141 2.47003 39.0938 2.74997 38.9438 3.09997C38.8238 3.37997 38.7639 3.66997 38.7339 3.97997C38.6739 4.51997 38.6741 5.06999 38.6841 5.61999C38.6941 5.92999 38.7239 6.24004 38.7739 6.55004C38.8339 6.93004 38.9238 7.31001 39.1538 7.64001C39.5138 8.17001 40.254 8.12 40.604 7.76C40.854 7.49 40.9639 7.16994 41.0439 6.81994C41.1539 6.31994 41.154 5.81004 41.144 5.30004Z" fill="white"/>
<path d="M32.5439 0.869995C33.3939 0.869995 34.2342 0.869995 35.0742 0.869995C35.3442 0.869995 35.4438 0.96999 35.4438 1.23999C35.4438 1.46999 35.4341 1.70994 35.4541 1.93994C35.4741 2.24994 35.3438 2.48997 35.1738 2.71997C34.8238 3.21997 34.474 3.72998 34.124 4.22998C33.794 4.70998 33.4538 5.19004 33.1138 5.67004C32.8938 5.98004 32.6741 6.29999 32.4541 6.60999C32.4341 6.62999 32.4138 6.65005 32.4238 6.68005C32.4438 6.72005 32.4839 6.70996 32.5239 6.70996C32.9639 6.69996 33.4038 6.73995 33.8438 6.81995C34.3438 6.90995 34.8242 7.07995 35.2842 7.31995C35.4942 7.42995 35.604 7.60998 35.604 7.84998C35.604 8.22998 35.594 8.59998 35.604 8.97998C35.614 9.22998 35.394 9.42003 35.124 9.28003C34.194 8.80003 33.1838 8.61003 32.1338 8.66003C31.4038 8.70003 30.6939 8.87005 30.0239 9.18005C29.9539 9.22005 29.8742 9.25004 29.8042 9.29004C29.5542 9.46004 29.3438 9.23002 29.3438 9.02002C29.3438 8.72002 29.3438 8.40999 29.3438 8.10999C29.3438 7.95999 29.344 7.80002 29.354 7.65002C29.374 7.36002 29.5038 7.11 29.6738 6.88C30.1138 6.26 30.5541 5.63 30.9941 5C31.5141 4.25 32.0342 3.5 32.5542 2.75C32.5742 2.72 32.6137 2.69002 32.5938 2.65002C32.5738 2.62002 32.5239 2.63 32.4839 2.63C31.6839 2.63 30.884 2.63 30.084 2.63C30.044 2.63 30.0039 2.63 29.9639 2.63C29.7639 2.62 29.654 2.50995 29.644 2.31995C29.644 1.93995 29.644 1.56005 29.644 1.18005C29.654 0.980054 29.7741 0.869995 29.9741 0.869995C30.8341 0.869995 31.6939 0.869995 32.5439 0.869995Z" fill="white"/>
<path d="M32.574 9.9201C32.974 9.8901 33.3739 9.94009 33.7839 10.0301C33.9139 10.0601 34.0436 10.1101 34.1736 10.1601C34.3136 10.2301 34.3836 10.3401 34.4036 10.5001C34.4536 10.8801 34.4235 11.2701 34.3435 11.6501C34.2535 12.1401 34.1038 12.62 33.8938 13.08C33.7038 13.51 33.4836 13.9201 33.1736 14.2901C33.0136 14.4801 32.8436 14.67 32.6536 14.82C32.5736 14.88 32.4936 14.9301 32.3836 14.9301C32.2736 14.9201 32.2039 14.84 32.2239 14.72C32.2639 14.52 32.3638 14.3301 32.4338 14.1401C32.6738 13.5201 32.904 12.9001 33.054 12.2501C33.114 11.9701 33.1735 11.7001 33.0935 11.4101C33.0635 11.2901 32.9836 11.2201 32.8836 11.1601C32.6736 11.0501 32.4439 11.0301 32.2239 11.0101C31.6339 10.9501 31.0536 11.02 30.4636 11.07C30.1636 11.09 29.8738 11.1301 29.5838 11.1601C29.4838 11.1701 29.3735 11.1601 29.3435 11.0501C29.3035 10.9401 29.3536 10.8401 29.4436 10.7701C29.7636 10.5301 30.1137 10.36 30.4837 10.23C30.8737 10.09 31.2738 10.01 31.6838 9.95001C31.9738 9.92001 32.264 9.9101 32.574 9.9201Z" fill="white"/>
</svg>
