<svg width="115" height="89" viewBox="0 0 115 89" fill="none" xmlns="http://www.w3.org/2000/svg">
<path d="M0.0839844 0.5H114.084V88.25H0.0839844V0.5Z" fill="url(#paint0_linear)"/>
<path d="M57.1641 82.96C36.9141 82.96 20.5439 80.5999 20.5439 77.6799C20.5439 74.7699 36.9141 72.4099 57.1641 72.4099C77.4241 72.4099 93.7939 74.7699 93.7939 77.6799C93.7939 80.5999 77.4241 82.96 57.1641 82.96Z" fill="url(#paint1_radial)"/>
<path d="M83.7842 44.5901C83.7842 30.5901 72.4341 19.24 58.4341 19.24C44.4341 19.24 33.084 30.5901 33.084 44.5901C33.084 57.1201 42.1738 67.5101 54.1138 69.5601L58.4341 75.3101L62.7539 69.5601C74.7039 67.5101 83.7842 57.1201 83.7842 44.5901Z" fill="white"/>
<path fill-rule="evenodd" clip-rule="evenodd" d="M57.1938 77.1899L52.7739 71.3201C40.5439 69.1801 31.6738 58.6199 31.6738 46.1799C31.6738 32.1099 43.1238 20.6599 57.1938 20.6599C71.2738 20.6599 82.7241 32.1099 82.7241 46.1799C82.7241 58.6199 73.8438 69.1801 61.6138 71.3201L57.1938 77.1899ZM57.1938 21.01C43.3138 21.01 32.0142 32.2999 32.0142 46.1799C32.0142 58.4799 40.8038 68.91 52.9038 70.99L52.9741 71L57.1938 76.6201L61.4141 71L61.4839 70.99C73.5839 68.91 82.374 58.4799 82.374 46.1799C82.374 32.2999 71.0738 21.01 57.1938 21.01Z" fill="#33B5FF"/>
<path d="M37.5742 39.0801C37.5742 38.6501 37.654 38.2301 37.814 37.8201C37.974 37.4101 38.2142 37.04 38.5142 36.71C38.8242 36.39 39.1938 36.1199 39.6338 35.9199C40.0738 35.7199 40.5738 35.6101 41.1338 35.6101C41.8138 35.6101 42.3938 35.75 42.8838 36.03C43.3838 36.31 43.7541 36.6799 43.9941 37.1399L42.5342 38.1699C42.4642 38.0099 42.3739 37.86 42.2739 37.75C42.1639 37.64 42.0441 37.55 41.9141 37.49C41.7841 37.42 41.6439 37.3801 41.5039 37.3501C41.3639 37.3201 41.2237 37.3101 41.0938 37.3101C40.8237 37.3101 40.5838 37.37 40.3838 37.47C40.1838 37.58 40.024 37.7199 39.894 37.8999C39.764 38.0699 39.6738 38.26 39.6138 38.48C39.5438 38.7 39.5142 38.9199 39.5142 39.1399C39.5142 39.3799 39.554 39.6101 39.624 39.8301C39.694 40.0601 39.8038 40.2499 39.9438 40.4199C40.0738 40.5899 40.2438 40.7301 40.4438 40.8301C40.6438 40.9301 40.8638 40.98 41.1138 40.98C41.2438 40.98 41.3839 40.9699 41.5239 40.9399C41.6539 40.9099 41.7841 40.86 41.9141 40.79C42.0441 40.72 42.1542 40.63 42.2642 40.52C42.3642 40.42 42.4439 40.2799 42.5039 40.1299L44.064 41.0601C43.954 41.3101 43.794 41.54 43.584 41.75C43.374 41.95 43.134 42.12 42.854 42.26C42.584 42.39 42.2939 42.5001 41.9839 42.5701C41.6739 42.6401 41.3742 42.6799 41.0742 42.6799C40.5642 42.6799 40.0841 42.5801 39.6641 42.3701C39.2341 42.1601 38.8642 41.89 38.5542 41.55C38.2442 41.21 38.004 40.8199 37.834 40.3899C37.664 39.9599 37.5742 39.5201 37.5742 39.0801Z" fill="black"/>
<path fill-rule="evenodd" clip-rule="evenodd" d="M47.7642 42.6799C47.2342 42.6799 46.7542 42.5801 46.3242 42.3701C45.8942 42.1701 45.5239 41.9001 45.2139 41.5701C44.9139 41.2401 44.6739 40.8699 44.5039 40.4399C44.3339 40.0199 44.2441 39.5799 44.2441 39.1299C44.2441 38.6699 44.3342 38.23 44.5142 37.8C44.6842 37.38 44.9339 36.9999 45.2539 36.6799C45.5739 36.3599 45.9438 36.0999 46.3838 35.8999C46.8138 35.7099 47.2942 35.6101 47.8042 35.6101C48.3342 35.6101 48.8139 35.7199 49.2539 35.9199C49.6839 36.1199 50.054 36.39 50.354 36.72C50.664 37.06 50.9042 37.4401 51.0742 37.8601C51.2342 38.2901 51.3242 38.7199 51.3242 39.1699C51.3242 39.6199 51.2342 40.06 51.0542 40.49C50.8742 40.91 50.6342 41.2801 50.3242 41.6001C50.0042 41.9301 49.6338 42.1899 49.1938 42.3799C48.7638 42.5799 48.2842 42.6799 47.7642 42.6799ZM46.1938 39.1499C46.1938 39.3799 46.2242 39.6101 46.2842 39.8301C46.3542 40.0501 46.454 40.2399 46.584 40.4099C46.714 40.5799 46.8742 40.7201 47.0742 40.8201C47.2742 40.9301 47.5142 40.98 47.7842 40.98C48.0642 40.98 48.3039 40.9301 48.5039 40.8201C48.7039 40.7101 48.8739 40.5699 49.0039 40.3999C49.1239 40.2199 49.2242 40.03 49.2842 39.8C49.3442 39.58 49.374 39.3599 49.374 39.1299C49.374 38.8899 49.3442 38.6599 49.2842 38.4399C49.2142 38.2299 49.1139 38.0301 48.9839 37.8701C48.8439 37.7001 48.6839 37.57 48.4839 37.46C48.2839 37.36 48.0439 37.3101 47.7739 37.3101C47.5039 37.3101 47.264 37.36 47.064 37.47C46.864 37.57 46.7042 37.7099 46.5742 37.8899C46.4442 38.0599 46.3442 38.26 46.2842 38.47C46.2242 38.69 46.1938 38.9199 46.1938 39.1499Z" fill="black"/>
<path d="M57.4038 42.6201V38.95L56.2339 41.53H55.2139L54.0439 38.95V42.6201H52.1338V35.6499H54.2241L55.7241 38.9299L57.2339 35.6499H59.314V42.6201H57.4038Z" fill="black"/>
<path d="M60.5142 42.6201V35.6499H62.4238V42.6201H60.5142Z" fill="black"/>
<path d="M65.5342 39.2V42.6201H63.624V35.6499H65.1138L67.9141 39.2V35.6499H69.8242V42.6201H68.3042L65.5342 39.2Z" fill="black"/>
<path d="M75.7441 42.04C75.2541 42.46 74.6742 42.6699 74.0342 42.6699C73.5842 42.6699 73.1439 42.5899 72.7339 42.4299C72.3239 42.2699 71.9638 42.03 71.6538 41.73C71.3538 41.42 71.1038 41.0401 70.9238 40.6001C70.7338 40.1501 70.644 39.6501 70.644 39.0801C70.644 38.5901 70.7338 38.13 70.9238 37.71C71.1038 37.29 71.3538 36.9201 71.6738 36.6101C71.9938 36.3001 72.374 36.0501 72.814 35.8701C73.244 35.6901 73.7139 35.6001 74.2139 35.6001C74.5339 35.6001 74.834 35.64 75.124 35.71C75.404 35.78 75.6738 35.88 75.9238 36.01C76.1638 36.15 76.384 36.31 76.584 36.49C76.774 36.68 76.934 36.8899 77.064 37.1299L75.644 38.21C75.504 37.94 75.2939 37.72 75.0239 37.55C74.7439 37.39 74.454 37.3 74.144 37.3C73.924 37.3 73.7139 37.3499 73.5239 37.4399C73.3339 37.5299 73.1642 37.6601 73.0342 37.8201C72.8942 37.9901 72.7841 38.1799 72.7041 38.4099C72.6241 38.6299 72.584 38.8799 72.584 39.1499C72.584 39.4199 72.6241 39.6699 72.7041 39.8899C72.7841 40.1099 72.8942 40.31 73.0342 40.47C73.1742 40.63 73.3439 40.7501 73.5439 40.8401C73.7339 40.9301 73.9538 40.97 74.1938 40.97C74.7538 40.97 75.2438 40.74 75.6738 40.28H74.4639V38.9099H77.3242V42.6201H75.7441V42.04Z" fill="black"/>
<path d="M43.394 46.8101C43.104 46.6301 42.8039 46.4801 42.5039 46.3401C42.2439 46.2301 41.954 46.12 41.624 46.02C41.304 45.92 40.9841 45.8701 40.6841 45.8701C40.4341 45.8701 40.234 45.9 40.084 45.98C39.934 46.06 39.854 46.1901 39.854 46.3701C39.854 46.5101 39.9039 46.62 39.9839 46.7C40.0739 46.79 40.1938 46.8699 40.3638 46.9399C40.5238 47.0099 40.7239 47.0799 40.9639 47.1499C41.1939 47.2199 41.4642 47.2999 41.7642 47.3999C42.2342 47.5399 42.6639 47.7001 43.0439 47.8701C43.4239 48.0501 43.7442 48.25 44.0142 48.49C44.2842 48.72 44.4938 49.0101 44.6338 49.3501C44.7838 49.6901 44.854 50.0901 44.854 50.5801C44.854 51.1901 44.7442 51.7099 44.5142 52.1299C44.2942 52.5499 43.994 52.8799 43.624 53.1299C43.254 53.3799 42.8338 53.5599 42.3638 53.6699C41.8938 53.7799 41.4241 53.8401 40.9541 53.8401C40.5841 53.8401 40.1942 53.81 39.8042 53.75C39.4042 53.7 39.014 53.61 38.624 53.51C38.234 53.4 37.8541 53.2799 37.4941 53.1299C37.1341 52.9899 36.8041 52.8199 36.4941 52.6399L37.7041 50.1699C38.0441 50.3799 38.3942 50.57 38.7642 50.73C39.0642 50.88 39.4142 51.0101 39.8042 51.1201C40.1942 51.2401 40.5941 51.3 40.9941 51.3C41.3041 51.3 41.524 51.2599 41.644 51.1799C41.764 51.0899 41.8242 50.9901 41.8242 50.8501C41.8242 50.7101 41.764 50.58 41.644 50.48C41.524 50.38 41.354 50.29 41.144 50.21C40.934 50.14 40.6841 50.06 40.4141 49.98C40.1341 49.91 39.8439 49.81 39.5439 49.71C39.0839 49.55 38.694 49.39 38.374 49.21C38.044 49.03 37.774 48.8301 37.564 48.6001C37.344 48.3801 37.1938 48.1201 37.0938 47.8301C36.9937 47.5401 36.9341 47.2101 36.9341 46.8301C36.9341 46.2701 37.0439 45.7601 37.2539 45.3301C37.4539 44.9001 37.7337 44.54 38.0938 44.25C38.4538 43.96 38.854 43.7401 39.314 43.5901C39.774 43.4401 40.2542 43.3701 40.7642 43.3701C41.1442 43.3701 41.5038 43.4 41.8638 43.48C42.2238 43.55 42.564 43.64 42.894 43.75C43.234 43.86 43.544 43.9801 43.834 44.1101C44.114 44.2401 44.3738 44.36 44.6138 44.48L43.394 46.8101Z" fill="#33B5FF"/>
<path fill-rule="evenodd" clip-rule="evenodd" d="M50.7241 53.8C49.9441 53.8 49.2337 53.6501 48.5938 53.3501C47.9638 53.0501 47.4139 52.6599 46.9639 52.1699C46.5139 51.6899 46.1641 51.13 45.9141 50.5C45.6641 49.88 45.5342 49.2301 45.5342 48.5701C45.5342 47.8901 45.6638 47.2401 45.9238 46.6201C46.1838 45.9901 46.5442 45.44 47.0142 44.96C47.4842 44.49 48.0338 44.1101 48.6738 43.8201C49.3138 43.5401 50.0139 43.3999 50.7739 43.3999C51.5539 43.3999 52.2638 43.5501 52.9038 43.8401C53.5338 44.1401 54.0842 44.54 54.5342 45.03C54.9842 45.52 55.334 46.08 55.584 46.7C55.824 47.33 55.9541 47.9699 55.9541 48.6299C55.9541 49.2999 55.824 49.9501 55.564 50.5701C55.304 51.1901 54.9341 51.74 54.4741 52.22C54.0141 52.69 53.4642 53.0801 52.8242 53.3601C52.1842 53.6501 51.4841 53.8 50.7241 53.8ZM48.394 48.6001C48.394 48.9401 48.4439 49.2801 48.5439 49.6001C48.6339 49.9201 48.7841 50.21 48.9741 50.46C49.1641 50.71 49.4041 50.9101 49.7041 51.0701C49.9941 51.2201 50.3439 51.3 50.7539 51.3C51.1539 51.3 51.5042 51.2201 51.8042 51.0601C52.1042 50.9001 52.3442 50.6899 52.5342 50.4399C52.7242 50.1799 52.8641 49.8901 52.9541 49.5601C53.0441 49.2401 53.0938 48.9001 53.0938 48.5701C53.0938 48.2201 53.0438 47.8901 52.9438 47.5601C52.8438 47.2401 52.7039 46.96 52.5039 46.71C52.3039 46.47 52.0642 46.2701 51.7642 46.1201C51.4742 45.9701 51.1339 45.8899 50.7339 45.8899C50.3339 45.8899 49.9841 45.9699 49.6841 46.1299C49.3941 46.2799 49.1541 46.48 48.9541 46.74C48.7641 47 48.6242 47.2801 48.5342 47.6101C48.4442 47.9301 48.394 48.2601 48.394 48.6001Z" fill="#33B5FF"/>
<path fill-rule="evenodd" clip-rule="evenodd" d="M61.7739 53.8C60.9939 53.8 60.284 53.6501 59.644 53.3501C59.014 53.0501 58.4642 52.6599 58.0142 52.1699C57.5642 51.6899 57.2139 51.13 56.9639 50.5C56.7139 49.88 56.584 49.2301 56.584 48.5701C56.584 47.8901 56.7141 47.2401 56.9741 46.6201C57.2341 45.9901 57.604 45.44 58.064 44.96C58.534 44.49 59.0841 44.1101 59.7241 43.8201C60.3641 43.5401 61.064 43.3999 61.834 43.3999C62.614 43.3999 63.3141 43.5501 63.9541 43.8401C64.5941 44.1401 65.134 44.54 65.584 45.03C66.034 45.52 66.3838 46.08 66.6338 46.7C66.8738 47.33 67.0039 47.9699 67.0039 48.6299C67.0039 49.2999 66.8738 49.9501 66.6138 50.5701C66.3538 51.1901 65.9939 51.74 65.5239 52.22C65.0639 52.69 64.514 53.0801 63.874 53.3601C63.234 53.6501 62.5339 53.8 61.7739 53.8ZM59.4438 48.6001C59.4438 48.9401 59.4937 49.2801 59.5938 49.6001C59.6838 49.9201 59.8339 50.21 60.0239 50.46C60.2139 50.71 60.4639 50.9101 60.7539 51.0701C61.0439 51.2201 61.3942 51.3 61.8042 51.3C62.2042 51.3 62.554 51.2201 62.854 51.0601C63.154 50.9001 63.394 50.6899 63.584 50.4399C63.774 50.1799 63.9139 49.8901 64.0039 49.5601C64.0939 49.2401 64.144 48.9001 64.144 48.5701C64.144 48.2201 64.0941 47.8901 63.9941 47.5601C63.9041 47.2401 63.7542 46.96 63.5542 46.71C63.3542 46.47 63.1142 46.2701 62.8242 46.1201C62.5242 45.9701 62.1842 45.8899 61.7842 45.8899C61.3842 45.8899 61.0339 45.9699 60.7339 46.1299C60.4439 46.2799 60.2042 46.48 60.0142 46.74C59.8142 47 59.674 47.2801 59.584 47.6101C59.494 47.9301 59.4438 48.2601 59.4438 48.6001Z" fill="#33B5FF"/>
<path d="M71.0142 48.6699V53.71H68.2041V43.45H70.394L74.5142 48.6699V43.45H77.334V53.71H75.0938L71.0142 48.6699Z" fill="#33B5FF"/>
<path d="M43.8242 59.74C43.6842 59.59 43.604 59.3801 43.604 59.1101V58.0901H44.1138V59.0901C44.1138 59.3801 44.2241 59.53 44.4541 59.53C44.6741 59.53 44.7842 59.3801 44.7842 59.0901V58.0901H45.2842V59.1101C45.2842 59.3801 45.214 59.59 45.064 59.74C44.914 59.89 44.7138 59.96 44.4438 59.96C44.1838 59.96 43.9742 59.89 43.8242 59.74Z" fill="black"/>
<path d="M47.0142 58.6399C47.1242 58.7399 47.1738 58.9001 47.1738 59.1101V59.9299H46.6938V59.1899C46.6938 58.9999 46.6139 58.8999 46.4639 58.8999C46.3839 58.8999 46.3142 58.93 46.2642 58.98C46.2142 59.04 46.1938 59.12 46.1938 59.24V59.9299H45.7041V58.5H46.1641V58.6599C46.2241 58.5999 46.2838 58.55 46.3638 58.52C46.4338 58.49 46.514 58.48 46.604 58.48C46.774 58.48 46.9142 58.5299 47.0142 58.6399Z" fill="black"/>
<path fill-rule="evenodd" clip-rule="evenodd" d="M49.064 57.98V59.9299H48.604V59.78C48.514 59.89 48.3841 59.95 48.2041 59.95C48.0741 59.95 47.964 59.9201 47.854 59.8601C47.754 59.8001 47.6738 59.7101 47.6138 59.6001C47.5538 59.4901 47.5239 59.36 47.5239 59.21C47.5239 59.06 47.5538 58.9301 47.6138 58.8201C47.6738 58.7101 47.754 58.6301 47.854 58.5701C47.964 58.5101 48.0741 58.48 48.2041 58.48C48.3641 58.48 48.494 58.5299 48.584 58.6299V57.98H49.064ZM48.5142 59.46C48.5642 59.4 48.5938 59.32 48.5938 59.21C48.5938 59.11 48.5642 59.02 48.5142 58.96C48.4542 58.9 48.3942 58.8701 48.3042 58.8701C48.2242 58.8701 48.1537 58.9 48.0938 58.96C48.0437 59.02 48.0142 59.11 48.0142 59.21C48.0142 59.32 48.0437 59.4 48.0938 59.46C48.1537 59.52 48.2242 59.55 48.3042 59.55C48.3842 59.55 48.4542 59.52 48.5142 59.46Z" fill="black"/>
<path fill-rule="evenodd" clip-rule="evenodd" d="M50.8838 59.3401H49.8838C49.9038 59.4101 49.9439 59.47 50.0039 59.51C50.0639 59.55 50.1341 59.5701 50.2241 59.5701C50.2841 59.5701 50.344 59.56 50.394 59.54C50.444 59.52 50.4939 59.4899 50.5439 59.4399L50.7939 59.72C50.6639 59.87 50.4641 59.95 50.2041 59.95C50.0441 59.95 49.9042 59.9201 49.7842 59.8501C49.6542 59.7901 49.5641 59.7001 49.4941 59.5901C49.4241 59.4801 49.394 59.35 49.394 59.21C49.394 59.07 49.4241 58.9501 49.4941 58.8301C49.5541 58.7201 49.6442 58.6401 49.7642 58.5701C49.8842 58.5101 50.0138 58.48 50.1538 58.48C50.2938 58.48 50.4139 58.5101 50.5239 58.5701C50.6439 58.6201 50.7339 58.7101 50.7939 58.8201C50.8639 58.9301 50.894 59.06 50.894 59.22C50.894 59.22 50.8938 59.2601 50.8838 59.3401ZM49.9741 58.8999C49.9241 58.9399 49.884 59.0001 49.874 59.0801H50.4438C50.4238 59.0001 50.3938 58.9399 50.3438 58.8999C50.2937 58.8499 50.2338 58.8301 50.1538 58.8301C50.0838 58.8301 50.0241 58.8499 49.9741 58.8999Z" fill="black"/>
<path d="M51.874 58.53C51.954 58.49 52.044 58.48 52.144 58.48V58.9299C52.104 58.9199 52.0642 58.9199 52.0342 58.9199C51.9342 58.9199 51.8539 58.95 51.7939 59.01C51.7339 59.06 51.7041 59.15 51.7041 59.27V59.9299H51.2241V58.5H51.6841V58.6699C51.7341 58.6099 51.794 58.56 51.874 58.53Z" fill="black"/>
<path d="M53.7041 59.8401C53.5541 59.7601 53.434 59.65 53.354 59.5C53.264 59.35 53.2241 59.19 53.2241 59.01C53.2241 58.82 53.264 58.66 53.354 58.51C53.434 58.37 53.5541 58.2499 53.7041 58.1699C53.8541 58.0899 54.0241 58.05 54.2041 58.05C54.3741 58.05 54.514 58.0799 54.644 58.1399C54.774 58.1999 54.8841 58.2799 54.9741 58.3999L54.6538 58.7C54.5338 58.55 54.3939 58.48 54.2339 58.48C54.1339 58.48 54.0441 58.5 53.9741 58.55C53.8941 58.59 53.8439 58.65 53.7939 58.73C53.7539 58.81 53.7339 58.9 53.7339 59.01C53.7339 59.11 53.7539 59.2 53.7939 59.28C53.8439 59.36 53.8941 59.42 53.9741 59.47C54.0441 59.51 54.1339 59.53 54.2339 59.53C54.3939 59.53 54.5338 59.4601 54.6538 59.3201L54.9741 59.6201C54.8841 59.7301 54.774 59.8101 54.644 59.8701C54.514 59.9301 54.3741 59.96 54.2041 59.96C54.0241 59.96 53.8541 59.9201 53.7041 59.8401Z" fill="black"/>
<path fill-rule="evenodd" clip-rule="evenodd" d="M55.5239 59.8501C55.4039 59.7901 55.3141 59.7001 55.2441 59.5901C55.1841 59.4801 55.144 59.35 55.144 59.21C55.144 59.07 55.1841 58.9401 55.2441 58.8301C55.3141 58.7201 55.4039 58.6301 55.5239 58.5701C55.6439 58.5101 55.7738 58.48 55.9238 58.48C56.0738 58.48 56.214 58.5101 56.334 58.5701C56.444 58.6301 56.544 58.7201 56.604 58.8301C56.674 58.9401 56.7041 59.07 56.7041 59.21C56.7041 59.35 56.674 59.4801 56.604 59.5901C56.544 59.7001 56.444 59.7901 56.334 59.8501C56.214 59.9201 56.0738 59.95 55.9238 59.95C55.7738 59.95 55.6439 59.9201 55.5239 59.8501ZM56.1338 59.46C56.1938 59.4 56.2139 59.32 56.2139 59.21C56.2139 59.11 56.1938 59.02 56.1338 58.96C56.0838 58.9 56.0138 58.8701 55.9238 58.8701C55.8438 58.8701 55.7739 58.9 55.7139 58.96C55.6639 59.02 55.6338 59.11 55.6338 59.21C55.6338 59.32 55.6639 59.4 55.7139 59.46C55.7739 59.52 55.8438 59.55 55.9238 59.55C56.0138 59.55 56.0838 59.52 56.1338 59.46Z" fill="black"/>
<path d="M58.3438 58.6399C58.4537 58.7399 58.5039 58.9001 58.5039 59.1101V59.9299H58.0142V59.1899C58.0142 58.9999 57.9439 58.8999 57.7939 58.8999C57.7039 58.8999 57.6438 58.93 57.5938 58.98C57.5437 59.04 57.5142 59.12 57.5142 59.24V59.9299H57.0342V58.5H57.4941V58.6599C57.5441 58.5999 57.6141 58.55 57.6841 58.52C57.7641 58.49 57.8441 58.48 57.9341 58.48C58.1041 58.48 58.2437 58.5299 58.3438 58.6399Z" fill="black"/>
<path d="M59.064 59.9099C58.954 59.8799 58.8639 59.85 58.7939 59.8L58.9438 59.46C59.0038 59.5 59.0841 59.5301 59.1641 59.5601C59.2541 59.5801 59.3438 59.5901 59.4238 59.5901C59.5038 59.5901 59.5638 59.5801 59.5938 59.5701C59.6237 59.5501 59.644 59.53 59.644 59.49C59.644 59.46 59.624 59.4399 59.584 59.4299C59.544 59.4099 59.474 59.3999 59.394 59.3899C59.284 59.3799 59.1838 59.3601 59.1138 59.3301C59.0338 59.3101 58.9641 59.27 58.9141 59.21C58.8541 59.15 58.8242 59.06 58.8242 58.95C58.8242 58.86 58.8538 58.78 58.9038 58.71C58.9538 58.64 59.0338 58.58 59.1338 58.54C59.2338 58.5 59.3539 58.48 59.5039 58.48C59.6039 58.48 59.7039 58.49 59.7939 58.51C59.8939 58.53 59.9739 58.5601 60.0439 58.6001L59.9038 58.9399C59.7738 58.8699 59.6439 58.8301 59.5039 58.8301C59.4239 58.8301 59.374 58.8401 59.334 58.8601C59.294 58.8801 59.2842 58.8999 59.2842 58.9299C59.2842 58.9699 59.304 58.99 59.334 59C59.374 59.02 59.4442 59.03 59.5342 59.04C59.6442 59.06 59.744 59.0801 59.814 59.1001C59.894 59.1301 59.9542 59.17 60.0142 59.23C60.0642 59.29 60.0938 59.37 60.0938 59.48C60.0938 59.57 60.0642 59.65 60.0142 59.72C59.9642 59.79 59.8842 59.8499 59.7842 59.8899C59.6742 59.9299 59.5541 59.95 59.4141 59.95C59.2941 59.95 59.184 59.9399 59.064 59.9099Z" fill="black"/>
<path d="M61.354 59.8701C61.314 59.8901 61.2641 59.9099 61.2041 59.9299C61.1541 59.9399 61.0839 59.95 61.0239 59.95C60.8439 59.95 60.704 59.9001 60.604 59.8101C60.504 59.7201 60.4639 59.5899 60.4639 59.4099V58.9299H60.2539V58.55H60.4639V58.1799H60.9438V58.55H61.2642V58.9299H60.9438V59.3999C60.9438 59.4499 60.9539 59.49 60.9839 59.52C61.0139 59.55 61.0437 59.5601 61.0938 59.5601C61.1438 59.5601 61.1939 59.55 61.2339 59.52L61.354 59.8701Z" fill="black"/>
<path d="M62.2939 58.53C62.3739 58.49 62.4642 58.48 62.5742 58.48V58.9299C62.5242 58.9199 62.4939 58.9199 62.4639 58.9199C62.3539 58.9199 62.2739 58.95 62.2139 59.01C62.1539 59.06 62.1338 59.15 62.1338 59.27V59.9299H61.644V58.5H62.104V58.6699C62.154 58.6099 62.2239 58.56 62.2939 58.53Z" fill="black"/>
<path d="M64.3242 58.5V59.9299H63.8638V59.77C63.8138 59.83 63.7541 59.8699 63.6841 59.8999C63.6141 59.9299 63.5341 59.95 63.4541 59.95C63.2741 59.95 63.1342 59.89 63.0342 59.79C62.9242 59.68 62.874 59.51 62.874 59.3V58.5H63.354V59.22C63.354 59.32 63.3741 59.4 63.4141 59.45C63.4541 59.5 63.514 59.52 63.584 59.52C63.664 59.52 63.7239 59.4999 63.7739 59.4399C63.8239 59.3899 63.8438 59.2999 63.8438 59.1899V58.5H64.3242Z" fill="black"/>
<path d="M65.0342 59.8501C64.9142 59.7901 64.8239 59.7001 64.7539 59.5901C64.6839 59.4801 64.6538 59.35 64.6538 59.21C64.6538 59.07 64.6839 58.9401 64.7539 58.8301C64.8239 58.7201 64.9142 58.6301 65.0342 58.5701C65.1542 58.5101 65.2938 58.48 65.4438 58.48C65.6038 58.48 65.734 58.5101 65.854 58.5801C65.964 58.6501 66.0437 58.7501 66.0938 58.8701L65.7241 59.0701C65.6541 58.9401 65.5638 58.8701 65.4438 58.8701C65.3538 58.8701 65.2839 58.9 65.2339 58.96C65.1739 59.02 65.144 59.11 65.144 59.21C65.144 59.32 65.1739 59.4 65.2339 59.46C65.2839 59.52 65.3538 59.55 65.4438 59.55C65.5638 59.55 65.6541 59.4901 65.7241 59.3601L66.0938 59.5601C66.0437 59.6801 65.964 59.7801 65.854 59.8501C65.734 59.9101 65.6038 59.95 65.4438 59.95C65.2938 59.95 65.1542 59.9201 65.0342 59.8501Z" fill="black"/>
<path d="M67.354 59.8701C67.314 59.8901 67.2641 59.9099 67.2041 59.9299C67.1441 59.9399 67.0839 59.95 67.0239 59.95C66.8439 59.95 66.704 59.9001 66.604 59.8101C66.504 59.7201 66.4639 59.5899 66.4639 59.4099V58.9299H66.2539V58.55H66.4639V58.1799H66.9438V58.55H67.2539V58.9299H66.9438V59.3999C66.9438 59.4499 66.9539 59.49 66.9839 59.52C67.0139 59.55 67.044 59.5601 67.084 59.5601C67.144 59.5601 67.1939 59.55 67.2339 59.52L67.354 59.8701Z" fill="black"/>
<path d="M67.6738 58.27C67.6138 58.22 67.5938 58.1501 67.5938 58.0801C67.5938 58.0001 67.6138 57.9399 67.6738 57.8899C67.7238 57.8399 67.7938 57.8101 67.8838 57.8101C67.9738 57.8101 68.044 57.8399 68.104 57.8899C68.154 57.9299 68.1841 58.0001 68.1841 58.0701C68.1841 58.1501 68.154 58.21 68.104 58.27C68.044 58.32 67.9738 58.3401 67.8838 58.3401C67.7938 58.3401 67.7238 58.32 67.6738 58.27ZM67.644 58.5H68.124V59.9299H67.644V58.5Z" fill="black"/>
<path fill-rule="evenodd" clip-rule="evenodd" d="M68.834 59.8501C68.714 59.7901 68.6242 59.7001 68.5542 59.5901C68.4942 59.4801 68.4541 59.35 68.4541 59.21C68.4541 59.07 68.4942 58.9401 68.5542 58.8301C68.6242 58.7201 68.714 58.6301 68.834 58.5701C68.954 58.5101 69.0839 58.48 69.2339 58.48C69.3839 58.48 69.524 58.5101 69.644 58.5701C69.754 58.6301 69.8541 58.7201 69.9141 58.8301C69.9841 58.9401 70.0142 59.07 70.0142 59.21C70.0142 59.35 69.9841 59.4801 69.9141 59.5901C69.8541 59.7001 69.754 59.7901 69.644 59.8501C69.524 59.9201 69.3839 59.95 69.2339 59.95C69.0839 59.95 68.954 59.9201 68.834 59.8501ZM69.4438 59.46C69.5038 59.4 69.5239 59.32 69.5239 59.21C69.5239 59.11 69.5038 59.02 69.4438 58.96C69.3938 58.9 69.3239 58.8701 69.2339 58.8701C69.1539 58.8701 69.0839 58.9 69.0239 58.96C68.9739 59.02 68.9438 59.11 68.9438 59.21C68.9438 59.32 68.9739 59.4 69.0239 59.46C69.0839 59.52 69.1539 59.55 69.2339 59.55C69.3239 59.55 69.3938 59.52 69.4438 59.46Z" fill="black"/>
<path d="M71.6538 58.6399C71.7638 58.7399 71.814 58.9001 71.814 59.1101V59.9299H71.3242V59.1899C71.3242 58.9999 71.254 58.8999 71.104 58.8999C71.014 58.8999 70.9538 58.93 70.9038 58.98C70.8538 59.04 70.8242 59.12 70.8242 59.24V59.9299H70.3438V58.5H70.8042V58.6599C70.8542 58.5999 70.9241 58.55 70.9941 58.52C71.0741 58.49 71.1541 58.48 71.2441 58.48C71.4141 58.48 71.5538 58.5299 71.6538 58.6399Z" fill="black"/>
<path d="M48.834 56.1299H68.0439V56.46H48.834V56.1299Z" fill="#033EFF"/>
<path d="M77.5439 23.4099L87.644 14.3899L87.874 14.6499L77.7739 23.6699L77.5439 23.4099Z" fill="black"/>
<path d="M84.604 23.21L95.4141 16.54L95.5938 16.8301L84.7842 23.51L84.604 23.21Z" fill="#33B5FF"/>
<path d="M18.2539 68.1001L31.5938 60.53L31.7642 60.8301L18.4238 68.3999L18.2539 68.1001Z" fill="black"/>
<path d="M27.4238 67.75L33.9238 62.71L34.1338 62.98L27.644 68.03L27.4238 67.75Z" fill="#33B5FF"/>
<path d="M18.084 22.25L18.2339 21.9399L33.564 29.51L33.4141 29.8201L18.084 22.25Z" fill="#33B5FF"/>
<path d="M25.2441 11.04L25.5039 10.8L33.9741 19.8101L33.7241 20.05L25.2441 11.04Z" fill="black"/>
<path d="M82.604 61.54L82.814 61.26L95.9741 71.72L95.7642 71.99L82.604 61.54Z" fill="#33B5FF"/>
<path d="M80.0439 64.9299L80.3242 64.72L85.9038 71.75L85.6338 71.96L80.0439 64.9299Z" fill="black"/>
<path d="M84.644 30.4099L95.8242 27.1499L95.9141 27.49L84.7441 30.74L84.644 30.4099Z" fill="white"/>
<path d="M21.5742 34.3501L21.5938 34L31.1538 34.54L31.1338 34.8899L21.5742 34.3501Z" fill="white"/>
<path d="M45.9438 6.1001L46.2739 6L49.5239 17.1799L49.1841 17.28L45.9438 6.1001Z" fill="white"/>
<path d="M74.9741 69.5901L75.2939 69.4399L79.0742 77.3701L78.7642 77.52L74.9741 69.5901Z" fill="white"/>
<path fill-rule="evenodd" clip-rule="evenodd" d="M25.2842 41.74C24.4442 41.74 23.7539 41.06 23.7539 40.21C23.7539 39.37 24.4442 38.6899 25.2842 38.6899C26.1242 38.6899 26.8042 39.37 26.8042 40.21C26.8042 41.06 26.1242 41.74 25.2842 41.74ZM25.2842 39.04C24.6342 39.04 24.104 39.56 24.104 40.21C24.104 40.86 24.6342 41.3899 25.2842 41.3899C25.9342 41.3899 26.4639 40.86 26.4639 40.21C26.4639 39.56 25.9342 39.04 25.2842 39.04Z" fill="black"/>
<path fill-rule="evenodd" clip-rule="evenodd" d="M74.0542 15.0601C73.0642 15.0601 72.2539 14.25 72.2539 13.26C72.2539 12.27 73.0642 11.46 74.0542 11.46C75.0442 11.46 75.854 12.27 75.854 13.26C75.854 14.25 75.0442 15.0601 74.0542 15.0601ZM74.0542 11.8101C73.2542 11.8101 72.604 12.46 72.604 13.26C72.604 14.06 73.2542 14.71 74.0542 14.71C74.8542 14.71 75.5039 14.06 75.5039 13.26C75.5039 12.46 74.8542 11.8101 74.0542 11.8101Z" fill="black"/>
<path fill-rule="evenodd" clip-rule="evenodd" d="M90.104 45.8899C88.914 45.8899 87.9438 44.92 87.9438 43.73C87.9438 42.54 88.914 41.5701 90.104 41.5701C91.284 41.5701 92.2539 42.54 92.2539 43.73C92.2539 44.92 91.284 45.8899 90.104 45.8899ZM90.104 41.9199C89.104 41.9199 88.2939 42.73 88.2939 43.73C88.2939 44.73 89.104 45.54 90.104 45.54C91.094 45.54 91.9141 44.73 91.9141 43.73C91.9141 42.73 91.094 41.9199 90.104 41.9199Z" fill="white"/>
<path fill-rule="evenodd" clip-rule="evenodd" d="M37.0938 75.46C35.9037 75.46 34.9341 74.49 34.9341 73.3C34.9341 72.11 35.9037 71.1399 37.0938 71.1399C38.2838 71.1399 39.2441 72.11 39.2441 73.3C39.2441 74.49 38.2838 75.46 37.0938 75.46ZM37.0938 71.49C36.0938 71.49 35.2842 72.3 35.2842 73.3C35.2842 74.3 36.0938 75.1101 37.0938 75.1101C38.0938 75.1101 38.9038 74.3 38.9038 73.3C38.9038 72.3 38.0938 71.49 37.0938 71.49Z" fill="white"/>
<path fill-rule="evenodd" clip-rule="evenodd" d="M38.8042 12.1699C37.6642 12.1699 36.7339 11.2401 36.7339 10.1101C36.7339 8.97011 37.6642 8.04004 38.8042 8.04004C39.9442 8.04004 40.874 8.97011 40.874 10.1101C40.874 11.2401 39.9442 12.1699 38.8042 12.1699ZM38.8042 8.38989C37.8542 8.38989 37.084 9.16011 37.084 10.1101C37.084 11.0501 37.8542 11.8201 38.8042 11.8201C39.7542 11.8201 40.5239 11.0501 40.5239 10.1101C40.5239 9.16011 39.7542 8.38989 38.8042 8.38989Z" fill="#33B5FF"/>
<path fill-rule="evenodd" clip-rule="evenodd" d="M91.0039 76.3601C90.2139 76.3601 89.564 75.7099 89.564 74.9199C89.564 74.1299 90.2139 73.49 91.0039 73.49C91.7939 73.49 92.4341 74.1299 92.4341 74.9199C92.4341 75.7099 91.7939 76.3601 91.0039 76.3601ZM91.0039 73.8301C90.4039 73.8301 89.9141 74.3199 89.9141 74.9199C89.9141 75.5199 90.4039 76.01 91.0039 76.01C91.6039 76.01 92.0938 75.5199 92.0938 74.9199C92.0938 74.3199 91.6039 73.8301 91.0039 73.8301Z" fill="#33B5FF"/>
<defs>
<linearGradient id="paint0_linear" x1="114.084" y1="94.36" x2="17.229" y2="10.176" gradientUnits="userSpaceOnUse">
<stop stop-color="#033EFF"/>
<stop offset="1" stop-color="#33B5FF"/>
</linearGradient>
<radialGradient id="paint1_radial" cx="0" cy="0" r="1" gradientUnits="userSpaceOnUse" gradientTransform="translate(25.1159 106.614) scale(36.63 36.6302)">
<stop stop-color="#FFBB00"/>
<stop offset="0.071" stop-color="#FFCA38"/>
<stop offset="0.141" stop-color="#FFD76B"/>
<stop offset="0.176" stop-color="#FFDD7F"/>
<stop offset="0.178" stop-color="#FFDD7F"/>
<stop offset="0.3" stop-color="#FFE7A6"/>
<stop offset="0.424" stop-color="#FFEFC6"/>
<stop offset="0.554" stop-color="#FFF6DF"/>
<stop offset="0.689" stop-color="#FFFBF1"/>
<stop offset="0.833" stop-color="#FFFEFB"/>
<stop offset="1" stop-color="white"/>
</radialGradient>
</defs>
</svg>
