<svg width="68" height="30" viewBox="0 0 68 30" fill="none" xmlns="http://www.w3.org/2000/svg">
<path fill-rule="evenodd" clip-rule="evenodd" d="M28.5899 16.86C28.5899 17.26 28.2599 17.59 27.8499 17.59C27.7999 17.59 27.7499 17.59 27.7099 17.58L26.5199 21.31C26.5799 21.39 26.6099 21.4899 26.6099 21.5999C26.6099 21.8899 26.3799 22.1199 26.0999 22.1199C26.0999 22.1199 26.0899 22.12 26.0899 22.11L24.6599 24.0299C24.6699 24.0699 24.6799 24.11 24.6799 24.16C24.6799 24.38 24.4999 24.56 24.2799 24.56C24.2499 24.56 24.2199 24.5499 24.1899 24.5499L20.8799 26.97C20.8899 27.01 20.8999 27.05 20.8999 27.09C20.8999 27.38 20.6699 27.61 20.3899 27.61C20.2299 27.61 20.0999 27.54 19.9999 27.43L16.6899 28.5C16.6999 28.52 16.6999 28.5299 16.6999 28.5499C16.6999 28.8299 16.4699 29.06 16.1899 29.06C15.9399 29.06 15.7399 28.8899 15.6899 28.6699H13.2299C13.1799 29.0299 12.8699 29.2999 12.4999 29.2999C12.0999 29.2999 11.7699 28.97 11.7699 28.57C11.7699 28.52 11.7699 28.47 11.7799 28.43L8.69988 27.43C8.59988 27.54 8.46989 27.61 8.30989 27.61C8.02989 27.61 7.79988 27.38 7.79988 27.09C7.79988 27.05 7.79989 27.01 7.80989 26.97L4.43988 24.49C4.42988 24.49 4.42988 24.49 4.41988 24.49C4.22988 24.49 4.07989 24.34 4.07989 24.16C4.07989 24.14 4.07988 24.1199 4.08988 24.0999L2.60988 22.11L2.59988 22.1199C2.31988 22.1199 2.08988 21.8899 2.08988 21.5999C2.08988 21.4899 2.11988 21.39 2.17988 21.31L0.969883 17.51C0.929883 17.51 0.899884 17.52 0.859884 17.52C0.459884 17.52 0.129883 17.19 0.129883 16.78C0.129883 16.41 0.409884 16.1 0.769884 16.05L0.999884 11.99C0.769884 11.94 0.599884 11.73 0.599884 11.49C0.599884 11.21 0.829884 10.98 1.11988 10.98C1.12988 10.98 1.12988 10.98 1.13988 10.98L2.06988 9.04995C1.98988 8.98995 1.93988 8.89995 1.93988 8.78995C1.93988 8.59995 2.08988 8.44995 2.26988 8.44995C2.31988 8.44995 2.35989 8.45995 2.39989 8.47995L3.73989 6.41995C3.62989 6.31995 3.54988 6.17995 3.54988 6.01995C3.54988 5.72995 3.77989 5.49995 4.05989 5.49995C4.19989 5.49995 4.31988 5.54995 4.40988 5.63995L6.36988 3.97995C6.33988 3.92995 6.31988 3.86995 6.31988 3.80995C6.31988 3.61995 6.46988 3.46995 6.65988 3.46995C6.76988 3.46995 6.85988 3.51995 6.91988 3.59995L9.87988 2.10995C9.85988 2.06995 9.84988 2.01995 9.84988 1.96995C9.84988 1.77995 9.99988 1.62995 10.1799 1.62995C10.3399 1.62995 10.4699 1.73995 10.5099 1.88995L13.2599 1.35995C13.2999 0.989951 13.6099 0.699951 13.9899 0.699951C14.3999 0.699951 14.7299 1.01995 14.7299 1.42995L18.1799 1.90995C18.2099 1.74995 18.3499 1.62995 18.5099 1.62995C18.6999 1.62995 18.8499 1.77995 18.8499 1.96995C18.8499 2.01995 18.8399 2.06995 18.8199 2.10995L21.7699 3.60995C21.8299 3.51995 21.9299 3.46995 22.0399 3.46995C22.2299 3.46995 22.3799 3.61995 22.3799 3.80995C22.3799 3.86995 22.3599 3.92995 22.3299 3.97995L24.2799 5.63995C24.3699 5.55995 24.4999 5.49995 24.6299 5.49995C24.9199 5.49995 25.1499 5.72995 25.1499 6.01995C25.1499 6.17995 25.0699 6.31995 24.9599 6.40995L26.2999 8.47995C26.3399 8.45995 26.3799 8.44995 26.4299 8.44995C26.6099 8.44995 26.7599 8.59995 26.7599 8.78995C26.7599 8.89995 26.7099 8.98995 26.6299 9.04995L27.5499 10.98C27.5599 10.98 27.5699 10.98 27.5799 10.98C27.8599 10.98 28.0899 11.21 28.0899 11.49C28.0899 11.73 27.9299 11.93 27.6999 11.99L27.9299 16.13C28.2999 16.16 28.5899 16.47 28.5899 16.86ZM25.5299 10.81C26.1299 10.97 26.7299 11.12 27.1399 11.23C27.1699 11.18 27.2099 11.13 27.2599 11.09L26.4099 9.11995C26.3999 9.11995 26.3999 9.11995 26.3899 9.11995C26.2199 9.44995 25.8899 10.11 25.5299 10.81ZM25.5799 21.5999C25.5799 21.5399 25.5999 21.47 25.6199 21.41L23.5699 19.86L23.9399 21.81L25.5899 21.6199C25.5899 21.6099 25.5799 21.6099 25.5799 21.5999ZM21.2199 21.72C21.3099 21.72 21.3999 21.75 21.4699 21.79L22.9999 19.7299C22.9499 19.6599 22.9199 19.58 22.9199 19.5C22.9199 19.28 23.0999 19.11 23.3099 19.11L24.1299 16.42C24.0099 16.35 23.9199 16.23 23.9199 16.08C23.9199 15.9 24.0399 15.76 24.1999 15.71L24.0799 13.48C23.9399 13.44 23.8299 13.31 23.8299 13.15C23.8299 13.04 23.8899 12.94 23.9699 12.88L23.3299 10.77C23.2899 10.78 23.2499 10.78 23.2199 10.78C22.9299 10.78 22.6999 10.56 22.6999 10.27C22.6999 10.13 22.7599 10.01 22.8399 9.91995L20.7099 7.38995C20.6899 7.39995 20.6599 7.39995 20.6399 7.39995C20.4599 7.39995 20.3099 7.24995 20.3099 7.05995L16.0199 5.23995C15.9499 5.32995 15.8399 5.38995 15.7099 5.38995C15.5399 5.38995 15.3999 5.27995 15.3399 5.12995H13.3599C13.2999 5.27995 13.1499 5.38995 12.9799 5.38995C12.8599 5.38995 12.7499 5.32995 12.6699 5.23995L8.52988 6.99995C8.52988 7.02995 8.52988 7.04995 8.52988 7.07995C8.52988 7.35995 8.29988 7.58995 8.01988 7.58995C7.95988 7.58995 7.89988 7.57995 7.84988 7.55995L5.65988 10.15C5.66988 10.19 5.67988 10.24 5.67988 10.28C5.67988 10.44 5.56988 10.58 5.41988 10.61L4.77988 12.7C4.91988 12.8 5.00988 12.95 5.00988 13.14C5.00988 13.38 4.83988 13.59 4.60988 13.64L4.49988 15.71C4.65988 15.76 4.76988 15.9 4.76988 16.08C4.76988 16.23 4.68988 16.35 4.56988 16.42L5.37988 19.11H5.38988C5.59988 19.11 5.76988 19.28 5.76988 19.5C5.76988 19.58 5.73988 19.6599 5.68988 19.7299L7.21988 21.79C7.29988 21.75 7.37988 21.72 7.46988 21.72C7.75988 21.72 7.98989 21.95 7.98989 22.24C7.98989 22.32 7.96988 22.4 7.92988 22.47L10.2399 23.9399C10.2999 23.8599 10.3999 23.7999 10.5099 23.7999C10.6999 23.7999 10.8499 23.9499 10.8499 24.1399C10.8499 24.1499 10.8499 24.17 10.8399 24.18L13.5699 24.74C13.6099 24.49 13.8199 24.2999 14.0799 24.2999C14.3299 24.2999 14.5499 24.49 14.5799 24.74L17.8499 24.1699C17.8499 24.1599 17.8499 24.1499 17.8499 24.1399C17.8499 23.9499 17.9999 23.7999 18.1899 23.7999C18.2999 23.7999 18.3899 23.8599 18.4599 23.9399L20.7599 22.47C20.7299 22.4 20.7099 22.32 20.7099 22.24C20.7099 21.95 20.9399 21.72 21.2199 21.72ZM20.8999 22.6399L18.5799 24.11H20.7999L21.0499 22.72C20.9999 22.7 20.9499 22.6699 20.8999 22.6399ZM17.9499 24.38L14.5699 24.9599C14.5599 24.9699 14.5599 24.9799 14.5599 24.9799L17.2699 25.93L17.9999 24.4199C17.9799 24.4099 17.9599 24.39 17.9499 24.38ZM10.7499 24.38C10.7299 24.39 10.7099 24.4099 10.6999 24.4199L11.3799 25.83L13.5799 24.9599L10.7499 24.38ZM7.79988 22.63C7.74988 22.67 7.69989 22.7 7.64989 22.72L7.89989 24.11H10.0999L7.79988 22.63ZM3.10988 21.5999C3.10988 21.6099 3.10988 21.6099 3.10988 21.6199L4.74988 21.81L5.12988 19.86L3.07989 21.41C3.09989 21.47 3.10988 21.5399 3.10988 21.5999ZM1.62988 11.49C1.62988 11.6 1.58988 11.71 1.52988 11.79L3.24988 14.27L4.07989 13.43C4.01989 13.34 3.98989 13.24 3.98989 13.14C3.98989 12.98 4.05988 12.84 4.15988 12.75C3.92988 12.3 3.59988 11.65 3.26988 11.01C2.68988 11.16 2.08988 11.32 1.62988 11.44C1.62988 11.46 1.62988 11.47 1.62988 11.49ZM4.49988 12.62C4.52988 12.62 4.54988 12.63 4.56988 12.63L5.19988 10.58C5.16988 10.57 5.13988 10.55 5.11988 10.52C4.75988 10.62 4.13988 10.78 3.47988 10.95C3.79988 11.58 4.12988 12.21 4.35988 12.65C4.39988 12.63 4.44988 12.62 4.49988 12.62ZM4.23989 13.58L3.36988 14.45L4.24988 15.72C4.25988 15.71 4.26988 15.71 4.27988 15.71L4.38988 13.64C4.33988 13.63 4.28989 13.6 4.23989 13.58ZM3.21988 14.61L1.46988 16.37C1.51988 16.44 1.54988 16.52 1.56988 16.6L3.99988 16.09V16.08C3.99988 15.99 4.02989 15.91 4.07989 15.85L3.21988 14.61ZM1.50988 17.13L3.51988 18.33L4.15988 16.39C4.12988 16.37 4.09988 16.34 4.06988 16.3L1.59988 16.82C1.58988 16.93 1.55988 17.04 1.50988 17.13ZM3.70988 18.45L5.07989 19.27C5.09989 19.23 5.13988 19.2 5.17988 19.17L4.35988 16.49L3.70988 18.45ZM4.96988 21.84L6.98989 22.08C7.00989 22.02 7.02989 21.9799 7.05989 21.9399L5.51988 19.86C5.47988 19.87 5.43988 19.88 5.38988 19.88C5.36988 19.88 5.35988 19.88 5.34988 19.88L4.96988 21.84ZM5.42988 9.95995C5.45988 9.95995 5.48988 9.97995 5.50988 9.98995L7.65988 7.44995C7.64988 7.43995 7.63988 7.41995 7.62988 7.40995L4.88988 8.17995L5.42988 9.95995ZM8.44988 6.78995L12.5199 5.06995L9.26988 4.44995L8.32989 6.66995C8.37989 6.70995 8.41988 6.74995 8.44988 6.78995ZM20.3799 6.84995C20.3899 6.82995 20.4099 6.81995 20.4199 6.80995L19.4299 4.44995L16.1799 5.06995L20.3799 6.84995ZM23.0199 9.79995C23.0799 9.76995 23.1399 9.75995 23.2199 9.75995C23.2499 9.75995 23.2899 9.75995 23.3199 9.76995L23.8099 8.17995L20.9899 7.38995L23.0199 9.79995ZM25.2099 10.95C24.5899 10.79 24.0199 10.64 23.6499 10.54C23.6199 10.59 23.5799 10.64 23.5299 10.68L24.1799 12.82C24.1999 12.82 24.2299 12.82 24.2499 12.83C24.4699 12.4 24.8499 11.67 25.2099 10.95ZM24.2999 13.47L24.4199 15.71C24.4299 15.71 24.4399 15.71 24.4399 15.72L25.3199 14.45L24.3299 13.45C24.3199 13.45 24.3099 13.46 24.2999 13.47ZM21.6299 21.93C21.6699 21.97 21.6899 22.02 21.7099 22.08L23.7299 21.84L23.3499 19.88C23.3399 19.88 23.3199 19.88 23.3099 19.88C23.2599 19.88 23.2199 19.87 23.1799 19.86L21.6299 21.93ZM23.6199 19.27L24.9899 18.45L24.3399 16.49L23.5199 19.17C23.5599 19.2 23.5899 19.23 23.6199 19.27ZM25.1799 18.33L27.1699 17.1399C27.1399 17.0499 27.1199 16.96 27.1199 16.86C27.1199 16.84 27.1199 16.83 27.1199 16.82L24.6299 16.3C24.5999 16.34 24.5699 16.37 24.5399 16.39L25.1799 18.33ZM27.2699 16.42L25.4799 14.61L24.6199 15.85C24.6699 15.91 24.6999 15.99 24.6999 16.08V16.09L27.1599 16.61C27.1899 16.54 27.2199 16.47 27.2699 16.42ZM27.1699 11.79C27.0999 11.71 27.0699 11.6 27.0699 11.49C27.0699 11.47 27.0699 11.46 27.0699 11.44C26.6099 11.32 26.0099 11.16 25.4299 11.01C25.0499 11.75 24.6599 12.51 24.4299 12.95C24.4799 13 24.5099 13.07 24.5099 13.15C24.5099 13.2 24.4999 13.24 24.4799 13.28L25.4499 14.27L27.1699 11.79ZM26.1899 9.02995C26.1399 8.97995 26.0999 8.89995 26.0899 8.81995L24.0199 8.23995L23.5199 9.85995C23.6499 9.94995 23.7299 10.1 23.7299 10.27C23.7299 10.29 23.7299 10.31 23.7199 10.34C24.1099 10.43 24.6999 10.59 25.3199 10.75C25.6799 10.04 26.0199 9.36995 26.1899 9.02995ZM24.5499 6.51995L24.0899 8.02995L26.1199 8.59995L24.7599 6.50995C24.7199 6.51995 24.6799 6.52995 24.6299 6.52995C24.6099 6.52995 24.5799 6.52995 24.5499 6.51995ZM24.1699 6.21995L20.9999 7.16995L23.8799 7.96995L24.3499 6.43995C24.2699 6.38995 24.2099 6.30995 24.1699 6.21995ZM20.8399 6.78995C20.8899 6.82995 20.9399 6.88995 20.9599 6.94995L24.1199 6.00995C24.1199 5.93995 24.1399 5.87995 24.1599 5.81995L22.1599 4.11995C22.1299 4.12995 22.0899 4.13995 22.0399 4.13995C22.0299 4.13995 22.0099 4.13995 21.9999 4.13995L20.8399 6.78995ZM21.7699 3.99995L19.6499 4.39995L20.6299 6.72995L21.7999 4.03995C21.7899 4.02995 21.7799 4.00995 21.7699 3.99995ZM18.7799 2.33995L19.5599 4.19995L21.6699 3.78995L18.7799 2.33995ZM16.0399 4.75995C16.0599 4.78995 16.0799 4.82995 16.0899 4.85995L19.3399 4.23995L18.5299 2.29995C18.5199 2.29995 18.5199 2.30995 18.5099 2.30995C18.4699 2.30995 18.4299 2.29995 18.3899 2.27995C17.8899 2.79995 16.6499 4.11995 16.0399 4.75995ZM14.4399 2.01995C14.7599 2.76995 15.2799 3.92995 15.6299 4.59995C15.6599 4.58995 15.6799 4.58995 15.7099 4.58995C15.7699 4.58995 15.8299 4.59995 15.8799 4.61995C16.4699 3.98995 17.7199 2.65995 18.2199 2.13995V2.12995L14.6999 1.64995C14.6499 1.78995 14.5599 1.91995 14.4399 2.01995ZM13.8999 2.15995C13.6999 2.84995 13.3899 3.93995 13.1899 4.64995C13.2899 4.69995 13.3599 4.79995 13.3799 4.90995H15.3199C15.3399 4.82995 15.3799 4.75995 15.4399 4.69995C15.0899 4.02995 14.5699 2.86995 14.2499 2.11995C14.1699 2.14995 14.0799 2.16995 13.9899 2.16995C13.9599 2.16995 13.9299 2.15995 13.8999 2.15995ZM10.4699 2.13995C10.9699 2.65995 12.2299 3.98995 12.8199 4.61995C12.8699 4.59995 12.9199 4.58995 12.9799 4.58995C13.1799 3.88995 13.4899 2.79995 13.6899 2.09995C13.4799 1.99995 13.3199 1.80995 13.2699 1.57995L10.4899 2.11995C10.4799 2.11995 10.4799 2.12995 10.4699 2.13995ZM9.34988 4.23995L12.6099 4.85995C12.6199 4.82995 12.6299 4.78995 12.6499 4.75995C12.0499 4.11995 10.8099 2.79995 10.3099 2.27995C10.2699 2.29995 10.2299 2.30995 10.1799 2.30995L10.1699 2.29995L9.34988 4.23995ZM7.02988 3.78995L9.13988 4.19995L9.91988 2.33995L7.02988 3.78995ZM6.89989 4.03995L7.99988 6.56995C8.00988 6.56995 8.00988 6.56995 8.01988 6.56995C8.05988 6.56995 8.09988 6.56995 8.12988 6.57995L9.04988 4.39995L6.92988 3.99995C6.91988 4.00995 6.90989 4.02995 6.89989 4.03995ZM4.53988 5.81995C4.55988 5.87995 4.57989 5.93995 4.57989 6.00995L7.53988 6.88995C7.58988 6.77995 7.67988 6.67995 7.78988 6.61995L6.69988 4.13995C6.68988 4.13995 6.66988 4.13995 6.65988 4.13995C6.60988 4.13995 6.56988 4.12995 6.53988 4.11995L4.53988 5.81995ZM4.34988 6.43995L4.81988 7.96995L7.52988 7.21995C7.51988 7.17995 7.50988 7.14995 7.50988 7.10995L4.52988 6.21995C4.48988 6.30995 4.42988 6.38995 4.34988 6.43995ZM2.57989 8.59995L4.60988 8.02995L4.13988 6.51995C4.11988 6.52995 4.08989 6.52995 4.05989 6.52995C4.01989 6.52995 3.97988 6.51995 3.93988 6.50995L2.57989 8.59995ZM2.50988 9.02995C2.67988 9.36995 3.01988 10.04 3.37988 10.75C4.01988 10.58 4.62988 10.42 5.00988 10.33C5.00988 10.31 5.00988 10.3 5.00988 10.28C5.00988 10.14 5.08988 10.02 5.20988 9.96995L4.67988 8.23995L2.60988 8.81995C2.59988 8.89995 2.55988 8.97995 2.50988 9.02995ZM1.43988 11.09C1.48988 11.13 1.52988 11.18 1.55988 11.23C1.96988 11.12 2.56988 10.97 3.16988 10.81C2.80988 10.11 2.47989 9.44995 2.30989 9.11995C2.29989 9.11995 2.28988 9.11995 2.28988 9.11995L1.43988 11.09ZM0.989883 16.06C1.11988 16.08 1.22988 16.14 1.32988 16.21L3.08988 14.42L1.35988 11.94C1.31988 11.96 1.26988 11.98 1.21988 11.99L0.989883 16.06ZM3.44988 18.5499L1.37988 17.31C1.31988 17.36 1.24988 17.41 1.17988 17.45L2.35988 21.15C2.42988 21.11 2.50988 21.09 2.59988 21.09H2.60988L3.44988 18.5499ZM2.81988 21.1399C2.86988 21.1599 2.91988 21.1999 2.95988 21.2299L5.03988 19.66C5.00988 19.61 4.99988 19.56 4.99988 19.5C4.99988 19.49 4.99988 19.4799 4.99988 19.4799L3.63988 18.66L2.81988 21.1399ZM4.70988 22.0299L3.05989 21.83C3.00989 21.93 2.92988 22.01 2.83988 22.06L4.20988 23.9C4.24988 23.86 4.30988 23.84 4.36988 23.83L4.70988 22.0299ZM4.74988 24.11H7.67988L7.42988 22.75C7.17988 22.73 6.98988 22.54 6.96988 22.29L4.92988 22.0499L4.57989 23.86C4.66989 23.91 4.72988 24 4.74988 24.11ZM8.12988 26.61L7.71988 24.33H4.70988C4.69988 24.35 4.67988 24.3699 4.65988 24.3899L7.90988 26.77C7.96988 26.7 8.04988 26.65 8.12988 26.61ZM8.49988 26.6199L10.2599 24.36C10.2499 24.35 10.2399 24.34 10.2299 24.33H7.93988L8.34988 26.59C8.39988 26.59 8.44988 26.5999 8.49988 26.6199ZM8.75988 26.8499L11.1699 25.91L10.4799 24.47C10.4699 24.47 10.4599 24.47 10.4499 24.47L8.67988 26.74C8.70988 26.77 8.73988 26.8099 8.75988 26.8499ZM12.1499 27.9199L11.2699 26.0999L8.81988 27.06C8.81988 27.07 8.81988 27.08 8.81988 27.09C8.81988 27.15 8.80988 27.19 8.79988 27.24L11.8599 28.22C11.9199 28.1 12.0299 27.9899 12.1499 27.9199ZM12.6899 27.86L13.7799 25.2299C13.7499 25.2099 13.7199 25.18 13.6999 25.15L11.4699 26.02L12.3599 27.8499C12.4099 27.8399 12.4499 27.83 12.4999 27.83C12.5699 27.83 12.6299 27.84 12.6899 27.86ZM15.8399 28.1699L14.2199 25.2999C14.1699 25.3199 14.1299 25.33 14.0799 25.33C14.0499 25.33 14.0199 25.32 13.9899 25.32L12.8899 27.9399C13.0699 28.0599 13.1999 28.2399 13.2299 28.4599L15.6799 28.45C15.6999 28.34 15.7599 28.2399 15.8399 28.1699ZM16.2399 28.04L17.1699 26.13L14.4399 25.1699C14.4299 25.1799 14.4199 25.19 14.4099 25.2L16.0299 28.06C16.0799 28.05 16.1299 28.04 16.1899 28.04C16.2099 28.04 16.2199 28.04 16.2399 28.04ZM19.8999 27.24C19.8799 27.19 19.8699 27.15 19.8699 27.09L19.8799 27.08L17.3799 26.2L16.4499 28.11C16.5299 28.16 16.5899 28.22 16.6299 28.29L19.8999 27.24ZM20.0199 26.74L18.2499 24.47C18.2399 24.47 18.2299 24.47 18.2199 24.47L17.4799 26.0099L19.9299 26.8699C19.9499 26.8199 19.9799 26.78 20.0199 26.74ZM20.7599 24.33H18.4699C18.4599 24.34 18.4499 24.35 18.4399 24.36L20.1999 26.6199C20.2399 26.5999 20.2999 26.59 20.3499 26.59L20.7599 24.33ZM23.9899 24.43C23.9599 24.4 23.9299 24.36 23.9199 24.33H20.9799L20.5599 26.61C20.6499 26.65 20.7299 26.6999 20.7899 26.7799L23.9899 24.43ZM24.0999 23.7999L23.7699 22.0499L21.7299 22.29C21.7099 22.54 21.5099 22.73 21.2699 22.75L21.0199 24.11H23.8799C23.8999 23.97 23.9899 23.8599 24.0999 23.7999ZM25.8599 22.06C25.7699 22.01 25.6899 21.93 25.6399 21.83L23.9799 22.0299L24.3199 23.7599C24.3999 23.7699 24.4699 23.7999 24.5299 23.8499L25.8599 22.06ZM25.8799 21.1399L25.0599 18.66L23.6999 19.4799C23.6999 19.4799 23.6999 19.49 23.6999 19.5C23.6999 19.56 23.6799 19.61 23.6599 19.66L25.7399 21.2299C25.7799 21.1999 25.8299 21.1599 25.8799 21.1399ZM27.4999 17.5C27.4199 17.45 27.3499 17.4 27.2899 17.32L25.2499 18.5499L26.0899 21.09H26.0999C26.1899 21.09 26.2699 21.11 26.3399 21.15L27.4999 17.5ZM27.7099 16.13L27.4799 11.99C27.4299 11.98 27.3799 11.96 27.3299 11.94L25.6099 14.42L27.4199 16.26C27.5099 16.2 27.5999 16.15 27.7099 16.13Z" fill="white"/>
<path d="M19.27 16.1799C19.27 16.9699 19.28 17.7499 19.27 18.5399C19.27 19.0499 19.05 19.3299 18.69 19.3199C18.33 19.3199 18.11 19.0299 18.11 18.5299C18.1 16.9899 18.12 15.4499 18.1 13.9099C18.09 12.5799 17.12 11.6799 15.81 11.7399C14.73 11.7899 13.85 12.6699 13.81 13.8299C13.77 15.0799 13.8 16.3299 13.8 17.5799C13.8 17.9399 13.95 18.2399 14.35 18.2399C14.77 18.2499 14.92 17.9499 14.92 17.5699C14.93 16.3299 14.92 15.0999 14.93 13.8599C14.93 13.6999 14.92 13.5399 14.94 13.3799C14.98 13.0799 15.14 12.8699 15.46 12.8499C15.8 12.8299 16.01 13.0299 16.07 13.3499C16.11 13.5999 16.1 13.8599 16.1 14.1199C16.1 15.2699 16.1 16.4299 16.09 17.5799C16.09 18.6199 15.41 19.3599 14.44 19.4299C13.56 19.4899 12.71 18.7799 12.66 17.7699C12.59 16.3199 12.52 14.8499 12.71 13.3999C12.93 11.6499 14.41 10.4899 16.2 10.5699C17.83 10.6499 19.22 12.0899 19.27 13.7699C19.29 14.5799 19.27 15.3799 19.27 16.1799Z" fill="white"/>
<path d="M9.45 15.9899C9.5 15.1899 9.35 14.2099 9.53 13.2399C9.74 12.1499 10.38 11.3899 11.35 10.8899C11.53 10.7899 11.73 10.7199 11.93 10.6799C12.27 10.6099 12.55 10.7099 12.66 11.0699C12.76 11.3999 12.58 11.6499 12.28 11.7499C10.99 12.1999 10.55 13.1399 10.6 14.4499C10.66 15.7899 10.62 17.1399 10.62 18.4899C10.61 19.0399 10.41 19.3299 10.04 19.3199C9.69 19.3199 9.45 18.9799 9.45 18.4699C9.44 17.6999 9.45 16.9299 9.45 15.9899Z" fill="white"/>
<path d="M31.7998 19.9999V12.1599H33.3798L35.3798 17.4999L37.3998 12.1599H38.9698V19.9999H37.9398V13.1199L35.9198 18.4899H34.8498L32.8298 13.1199V19.9999H31.7998ZM45.1398 17.1099L43.6998 13.2099L42.2598 17.1099H45.1398ZM40.1098 19.9999L43.0998 12.1599H44.2998L47.2898 19.9999H46.1898L45.4698 17.9899H41.9398L41.2298 19.9999H40.1098ZM52.1498 16.3299C52.3765 16.4032 52.5965 16.5666 52.8098 16.8199C53.0298 17.0732 53.2465 17.4199 53.4598 17.8599L54.5398 19.9999H53.3998L52.3998 17.9899C52.1398 17.4632 51.8865 17.1166 51.6398 16.9499C51.3998 16.7766 51.0698 16.6899 50.6498 16.6899H49.4898V19.9999H48.4298V12.1599H50.8298C51.7231 12.1599 52.3898 12.3466 52.8298 12.7199C53.2698 13.0999 53.4898 13.6666 53.4898 14.4199C53.4898 14.9132 53.3765 15.3232 53.1498 15.6499C52.9231 15.9766 52.5898 16.2032 52.1498 16.3299ZM50.8298 13.0299H49.4898V15.8199H50.8298C51.3365 15.8199 51.7198 15.6999 51.9798 15.4599C52.2465 15.2266 52.3798 14.8799 52.3798 14.4199C52.3798 13.9599 52.2465 13.6166 51.9798 13.3899C51.7198 13.1499 51.3365 13.0299 50.8298 13.0299ZM55.8998 19.9999V12.1599H56.9598V15.4799L60.4798 12.1599H61.8398L57.9598 15.8199L62.1198 19.9999H60.7298L56.9598 16.2299V19.9999H55.8998ZM61.0298 13.0599V12.1599H67.6598V13.0599H64.8798V19.9999H63.8098V13.0599H61.0298Z" fill="white"/>
</svg>
