<svg width="103" height="23" viewBox="0 0 103 23" fill="none" xmlns="http://www.w3.org/2000/svg">
<path fill-rule="evenodd" clip-rule="evenodd" d="M21.88 13.1799C21.88 13.4899 21.63 13.75 21.31 13.75C21.28 13.75 21.24 13.74 21.2 13.73L20.29 16.6001C20.33 16.6701 20.36 16.7401 20.36 16.8301C20.36 17.0501 20.18 17.22 19.96 17.22L18.86 18.7C18.87 18.73 18.87 18.76 18.87 18.79C18.87 18.96 18.74 19.1001 18.57 19.1001C18.54 19.1001 18.52 19.1001 18.5 19.0901L15.96 20.95C15.96 20.99 15.97 21.02 15.97 21.05C15.97 21.27 15.79 21.45 15.57 21.45C15.46 21.45 15.35 21.3901 15.28 21.3101L12.74 22.1299C12.74 22.1399 12.74 22.1599 12.74 22.1699C12.74 22.3899 12.56 22.5601 12.35 22.5601C12.16 22.5601 12 22.43 11.96 22.26L10.07 22.27C10.03 22.54 9.8 22.75 9.51 22.75C9.2 22.75 8.95 22.4999 8.95 22.1799C8.95 22.1499 8.95 22.1101 8.96 22.0801L6.59 21.3101C6.52 21.3901 6.41 21.45 6.29 21.45C6.07 21.45 5.9 21.27 5.9 21.05C5.9 21.02 5.9 20.99 5.91 20.96L3.32 19.05C3.31 19.05 3.31 19.05 3.3 19.05C3.16 19.05 3.04 18.94 3.04 18.79C3.04 18.78 3.04 18.76 3.05 18.75L1.91 17.22C1.91 17.22 1.91 17.22 1.9 17.22C1.68 17.22 1.51 17.0501 1.51 16.8301C1.51 16.7501 1.53 16.6701 1.58 16.6101L0.650002 13.6799C0.620002 13.6899 0.59 13.6899 0.57 13.6899C0.25 13.6899 0 13.4401 0 13.1201C0 12.8301 0.22 12.6001 0.5 12.5601L0.669998 9.43994C0.499998 9.39994 0.370003 9.24006 0.370003 9.06006C0.370003 8.84006 0.540002 8.65991 0.760002 8.65991C0.770002 8.65991 0.779999 8.65991 0.779999 8.65991L1.49 7.17993C1.43 7.13993 1.39 7.05998 1.39 6.97998C1.39 6.83998 1.51 6.71997 1.65 6.71997C1.68 6.71997 1.72 6.72999 1.75 6.73999L2.78 5.1499C2.69 5.0799 2.63 4.9701 2.63 4.8501C2.63 4.6301 2.81 4.44995 3.03 4.44995C3.13 4.44995 3.22 4.49006 3.29 4.56006L4.8 3.28003C4.77 3.24003 4.76 3.1999 4.76 3.1499C4.76 3.0099 4.88 2.88989 5.02 2.88989C5.1 2.88989 5.18 2.92999 5.22 2.98999L7.5 1.8501C7.48 1.8101 7.47 1.77999 7.47 1.73999C7.47 1.58999 7.59 1.47998 7.73 1.47998C7.85 1.47998 7.95 1.55992 7.98 1.66992L10.1 1.27002C10.13 0.98002 10.37 0.76001 10.66 0.76001C10.97 0.76001 11.23 1.01007 11.23 1.32007L13.88 1.68994C13.9 1.56994 14.01 1.47998 14.13 1.47998C14.28 1.47998 14.39 1.58999 14.39 1.73999C14.39 1.77999 14.38 1.8101 14.37 1.8501L16.64 2.98999C16.69 2.92999 16.76 2.88989 16.85 2.88989C16.99 2.88989 17.11 3.0099 17.11 3.1499C17.11 3.1999 17.09 3.24003 17.07 3.28003L18.57 4.56006C18.64 4.49006 18.73 4.44995 18.84 4.44995C19.06 4.44995 19.23 4.6301 19.23 4.8501C19.23 4.9701 19.18 5.0799 19.09 5.1499L20.12 6.73999C20.15 6.72999 20.18 6.71997 20.22 6.71997C20.36 6.71997 20.48 6.83998 20.48 6.97998C20.48 7.05998 20.43 7.13993 20.37 7.17993L21.08 8.65991C21.09 8.65991 21.1 8.65991 21.1 8.65991C21.32 8.65991 21.5 8.84006 21.5 9.06006C21.5 9.24006 21.37 9.39994 21.2 9.43994L21.37 12.6201C21.66 12.6501 21.88 12.8899 21.88 13.1799ZM19.53 8.53003C19.99 8.65003 20.45 8.77011 20.76 8.86011C20.79 8.82011 20.82 8.78 20.85 8.75L20.2 7.23999H20.19C20.06 7.48999 19.8 7.99003 19.53 8.53003ZM19.57 16.8301C19.57 16.7801 19.58 16.7299 19.6 16.6799L18.02 15.49L18.31 16.99L19.57 16.8401V16.8301ZM16.22 16.9199C16.29 16.9199 16.35 16.94 16.41 16.97L17.59 15.3899C17.55 15.3399 17.53 15.28 17.53 15.21C17.53 15.05 17.66 14.9099 17.82 14.9099L18.45 12.8401C18.36 12.7901 18.29 12.7001 18.29 12.5801C18.29 12.4501 18.38 12.34 18.51 12.3L18.41 10.5801C18.3 10.5501 18.22 10.4501 18.22 10.3301C18.22 10.2501 18.27 10.1699 18.33 10.1299L17.84 8.5C17.81 8.51 17.78 8.51001 17.75 8.51001C17.53 8.51001 17.35 8.34012 17.35 8.12012C17.35 8.01012 17.4 7.9201 17.46 7.8501L15.82 5.8999C15.8 5.9099 15.79 5.90991 15.77 5.90991C15.63 5.90991 15.51 5.7899 15.51 5.6499L12.22 4.25C12.16 4.32 12.08 4.36011 11.98 4.36011C11.85 4.36011 11.74 4.27992 11.7 4.16992H10.17C10.13 4.27992 10.01 4.36011 9.88 4.36011C9.79 4.36011 9.7 4.32 9.65 4.25L6.46 5.6001C6.46 5.6201 6.46 5.63992 6.46 5.66992C6.46 5.87992 6.29 6.06006 6.07 6.06006C6.02 6.06006 5.98 6.05004 5.94 6.04004L4.25 8.03003C4.26 8.06003 4.27 8.08988 4.27 8.12988C4.27 8.24988 4.18 8.34988 4.07 8.37988L3.58 9.98999C3.69 10.06 3.76 10.1801 3.76 10.3201C3.76 10.5101 3.62 10.67 3.45 10.71L3.36 12.3C3.48 12.34 3.57 12.4501 3.57 12.5801C3.57 12.7001 3.51 12.7901 3.41 12.8401L4.04 14.9099C4.21 14.9099 4.34 15.05 4.34 15.21C4.34 15.28 4.32 15.3399 4.28 15.3899L5.46 16.97C5.51 16.94 5.58 16.9199 5.65 16.9199C5.87 16.9199 6.04 17.1001 6.04 17.3201C6.04 17.3801 6.03 17.44 6 17.49L7.78 18.6299C7.82 18.5599 7.9 18.52 7.98 18.52C8.13 18.52 8.24 18.64 8.24 18.78C8.24 18.79 8.24 18.8001 8.24 18.8101L10.33 19.24C10.36 19.05 10.52 18.8999 10.72 18.8999C10.92 18.8999 11.08 19.05 11.11 19.24L13.63 18.8C13.63 18.79 13.62 18.79 13.62 18.78C13.62 18.64 13.74 18.52 13.88 18.52C13.97 18.52 14.04 18.5599 14.09 18.6299L15.87 17.49C15.84 17.44 15.82 17.3801 15.82 17.3201C15.82 17.1001 16 16.9199 16.22 16.9199ZM15.97 17.6201L14.19 18.75H15.89L16.09 17.6899C16.04 17.6699 16 17.6501 15.97 17.6201ZM13.7 18.96L11.1 19.4099C11.1 19.4199 11.1 19.4199 11.09 19.4299L13.18 20.1599L13.74 19C13.73 18.99 13.71 18.97 13.7 18.96ZM8.17 18.96C8.15 18.97 8.14 18.99 8.12 19L8.65 20.0801L10.35 19.4099L8.17 18.96ZM5.9 17.6201C5.86 17.6501 5.82 17.6699 5.78 17.6899L5.97 18.75H7.67L5.9 17.6201ZM2.3 16.8301C2.3 16.8301 2.3 16.8401 2.29 16.8401L3.56 16.99L3.85 15.49L2.27 16.6799C2.29 16.7299 2.3 16.7801 2.3 16.8301ZM1.16 9.06006C1.16 9.14006 1.13 9.22004 1.08 9.29004L2.4 11.1899L3.04 10.54C2.99 10.48 2.97 10.4001 2.97 10.3201C2.97 10.2001 3.02 10.1 3.1 10.02C2.92 9.68002 2.67 9.17993 2.42 8.67993C1.97 8.79993 1.51 8.92002 1.15 9.02002C1.15 9.03002 1.16 9.04006 1.16 9.06006ZM3.36 9.92993C3.38 9.92993 3.4 9.92993 3.42 9.92993L3.9 8.36011C3.88 8.35011 3.86 8.33006 3.84 8.31006C3.56 8.38006 3.09 8.50989 2.58 8.63989C2.83 9.11989 3.08 9.60994 3.25 9.93994C3.29 9.92994 3.32 9.92993 3.36 9.92993ZM3.16 10.6599L2.5 11.3301L3.17 12.3C3.18 12.3 3.19 12.3 3.19 12.3L3.28 10.71C3.24 10.7 3.2 10.6799 3.16 10.6599ZM2.38 11.45L1.04 12.8101C1.07 12.8601 1.1 12.92 1.11 12.98L2.98 12.5901C2.98 12.5901 2.98 12.5901 2.98 12.5801C2.98 12.5201 3 12.4499 3.04 12.3999L2.38 11.45ZM1.06 13.3899L2.61 14.3201L3.1 12.8201C3.08 12.8001 3.05 12.78 3.03 12.75L1.13 13.1499C1.13 13.2399 1.1 13.3199 1.06 13.3899ZM2.76 14.4099L3.81 15.03C3.83 15.01 3.85 14.98 3.88 14.96L3.25 12.8999L2.76 14.4099ZM3.72 17.01L5.28 17.1899C5.29 17.1499 5.31 17.1201 5.33 17.0901L4.15 15.49C4.12 15.5 4.08 15.51 4.04 15.51C4.03 15.51 4.02 15.51 4.02 15.5L3.72 17.01ZM4.08 7.87988C4.1 7.87988 4.12 7.8899 4.14 7.8999L5.79 5.94995C5.78 5.93995 5.78 5.92992 5.77 5.91992L3.66 6.51001L4.08 7.87988ZM6.4 5.44995L9.52 4.12012L7.03 3.63989L6.31 5.3501C6.34 5.3801 6.37 5.40995 6.4 5.44995ZM15.57 5.48999C15.58 5.47999 15.59 5.46996 15.6 5.45996L14.84 3.63989L12.34 4.12012L15.57 5.48999ZM17.59 7.75C17.64 7.73 17.69 7.71997 17.75 7.71997C17.78 7.71997 17.8 7.72998 17.83 7.72998L18.21 6.51001L16.04 5.90991L17.59 7.75ZM19.28 8.63989C18.81 8.51989 18.36 8.40008 18.08 8.33008C18.06 8.37008 18.03 8.39993 17.99 8.42993L18.49 10.0801C18.51 10.0801 18.53 10.0801 18.54 10.0801C18.72 9.75008 19 9.19989 19.28 8.63989ZM18.58 10.5701L18.67 12.3C18.68 12.3 18.69 12.3 18.69 12.3L19.37 11.3301L18.61 10.5601C18.6 10.5601 18.59 10.5701 18.58 10.5701ZM16.53 17.0801C16.56 17.1201 16.58 17.1499 16.59 17.1899L18.14 17.01L17.85 15.5C17.84 15.51 17.83 15.51 17.82 15.51C17.79 15.51 17.75 15.5 17.72 15.49L16.53 17.0801ZM18.06 15.03L19.11 14.4099L18.61 12.8999L17.98 14.96C18.01 14.98 18.04 15.01 18.06 15.03ZM19.26 14.3201L20.79 13.3999C20.76 13.3299 20.75 13.2599 20.75 13.1799C20.75 13.1699 20.75 13.1599 20.75 13.1599L18.83 12.75C18.81 12.78 18.79 12.8001 18.76 12.8201L19.26 14.3201ZM20.86 12.8401L19.49 11.45L18.83 12.3999C18.87 12.4499 18.89 12.5201 18.89 12.5801C18.89 12.5901 18.89 12.5901 18.89 12.5901L20.78 12.99C20.8 12.94 20.83 12.8901 20.86 12.8401ZM20.79 9.29004C20.74 9.22004 20.71 9.14006 20.71 9.06006C20.71 9.04006 20.71 9.03002 20.71 9.02002C20.35 8.92002 19.9 8.79993 19.45 8.67993C19.16 9.25993 18.86 9.83992 18.68 10.1699C18.72 10.2199 18.74 10.2701 18.74 10.3301C18.74 10.3701 18.73 10.3999 18.72 10.4399L19.47 11.1899L20.79 9.29004ZM20.04 7.15991C19.99 7.11991 19.97 7.07 19.96 7L18.37 6.56006L17.98 7.80005C18.08 7.88005 18.14 7.99012 18.14 8.12012C18.14 8.14012 18.14 8.14992 18.14 8.16992C18.43 8.23992 18.89 8.35999 19.36 8.48999C19.64 7.93999 19.9 7.42991 20.04 7.15991ZM18.78 5.23999L18.42 6.3999L19.98 6.84009L18.94 5.22998C18.91 5.23998 18.87 5.23999 18.84 5.23999C18.82 5.23999 18.8 5.23999 18.78 5.23999ZM18.48 5.01001L16.05 5.72998L18.26 6.3501L18.62 5.17993C18.56 5.12993 18.51 5.08001 18.48 5.01001ZM15.92 5.43994C15.96 5.46994 16 5.52007 16.01 5.57007L18.44 4.84009C18.45 4.79009 18.46 4.73995 18.47 4.69995L16.94 3.38989C16.91 3.39989 16.88 3.40991 16.85 3.40991C16.83 3.40991 16.82 3.4099 16.81 3.3999L15.92 5.43994ZM16.64 3.30005L15.01 3.61011L15.76 5.38989L16.66 3.33008C16.65 3.32008 16.64 3.31005 16.64 3.30005ZM14.34 2.02002L14.94 3.44995L16.56 3.13989L14.34 2.02002ZM12.24 3.87988C12.25 3.90988 12.26 3.92996 12.27 3.95996L14.77 3.47998L14.15 1.98999C14.14 1.98999 14.14 2 14.13 2C14.1 2 14.07 1.98998 14.04 1.97998C13.66 2.37998 12.7 3.38988 12.24 3.87988ZM11 1.77002C11.25 2.35002 11.65 3.25001 11.92 3.76001C11.94 3.75001 11.96 3.75 11.98 3.75C12.03 3.75 12.07 3.76003 12.11 3.78003C12.56 3.29003 13.53 2.27011 13.91 1.86011L11.2 1.48999C11.16 1.59999 11.1 1.70002 11 1.77002ZM10.59 1.87988C10.44 2.41988 10.2 3.26004 10.04 3.79004C10.12 3.84004 10.17 3.91 10.19 4H11.68C11.69 3.94 11.72 3.88009 11.77 3.84009C11.5 3.32009 11.11 2.4301 10.85 1.8501C10.79 1.8801 10.73 1.88989 10.66 1.88989C10.64 1.88989 10.61 1.88988 10.59 1.87988ZM7.95 1.86011C8.34 2.27011 9.3 3.29003 9.76 3.78003C9.8 3.76003 9.84 3.75 9.88 3.75C10.03 3.21 10.27 2.37009 10.43 1.84009C10.26 1.76009 10.14 1.61994 10.11 1.43994L7.96 1.8501C7.96 1.8501 7.96 1.86011 7.95 1.86011ZM7.09 3.47998L9.59 3.95996C9.6 3.92996 9.61 3.90988 9.63 3.87988C9.17 3.38988 8.21 2.37998 7.83 1.97998C7.8 1.98998 7.77 2 7.73 2L7.72 1.98999L7.09 3.47998ZM5.31 3.13989L6.93 3.44995L7.53 2.02002L5.31 3.13989ZM5.21 3.33008L6.06 5.27002C6.06 5.27002 6.06 5.27002 6.07 5.27002C6.1 5.27002 6.13 5.27003 6.16 5.28003L6.86 3.61011L5.23 3.30005C5.22 3.31005 5.21 3.32008 5.21 3.33008ZM3.39 4.69995C3.41 4.73995 3.42 4.79009 3.42 4.84009L5.7 5.52002C5.74 5.43002 5.8 5.36006 5.89 5.31006L5.05 3.3999C5.04 3.4099 5.03 3.40991 5.02 3.40991C4.99 3.40991 4.96 3.39989 4.93 3.38989L3.39 4.69995ZM3.25 5.17993L3.61 6.3501L5.69 5.77002C5.68 5.74002 5.68 5.71994 5.68 5.68994L3.39 5.01001C3.36 5.08001 3.31 5.12993 3.25 5.17993ZM1.88 6.84009L3.45 6.3999L3.09 5.23999C3.07 5.23999 3.05 5.23999 3.03 5.23999C2.99 5.23999 2.96 5.23998 2.93 5.22998L1.88 6.84009ZM1.83 7.15991C1.96 7.42991 2.23 7.93999 2.5 8.48999C2.99 8.35999 3.46 8.23991 3.76 8.15991C3.76 8.14991 3.75 8.13988 3.75 8.12988C3.75 8.01988 3.82 7.92989 3.91 7.88989L3.5 6.56006L1.91 7C1.9 7.07 1.87 7.11991 1.83 7.15991ZM1.01 8.75C1.05 8.78 1.08 8.82011 1.1 8.86011C1.42 8.77011 1.88 8.65003 2.34 8.53003C2.06 7.99003 1.81 7.48999 1.68 7.23999C1.67 7.23999 1.67 7.23999 1.66 7.23999L1.01 8.75ZM0.669998 12.5701C0.759998 12.5801 0.849998 12.6299 0.919998 12.6899L2.28 11.3101L0.949997 9.3999C0.919997 9.4199 0.879996 9.42994 0.839996 9.43994L0.669998 12.5701ZM2.55 14.48L0.959999 13.53C0.919999 13.57 0.869998 13.6099 0.809998 13.6299L1.71 16.48C1.77 16.45 1.83 16.4299 1.9 16.4299H1.91L2.55 14.48ZM2.07 16.47C2.11 16.49 2.14 16.52 2.18 16.54L3.78 15.3401C3.76 15.3001 3.75 15.26 3.75 15.21V15.2L2.7 14.5701L2.07 16.47ZM3.53 17.1599L2.25 17.01C2.21 17.08 2.16 17.1399 2.08 17.1799L3.14 18.5901C3.17 18.5701 3.21 18.55 3.26 18.54L3.53 17.1599ZM3.55 18.75H5.8L5.61 17.71C5.43 17.69 5.28 17.5501 5.26 17.3601L3.69 17.1799L3.42 18.5701C3.49 18.6101 3.54 18.67 3.55 18.75ZM6.16 20.6799L5.83 18.9199H3.52C3.51 18.9399 3.5 18.96 3.49 18.97L5.98 20.8101C6.03 20.7501 6.09 20.7099 6.16 20.6799ZM6.44 20.6799L7.79 18.95C7.78 18.94 7.77 18.9299 7.77 18.9199H6.01L6.32 20.6599C6.36 20.6599 6.4 20.6699 6.44 20.6799ZM6.64 20.8601L8.49 20.1399L7.96 19.04C7.95 19.03 7.94 19.03 7.93 19.03L6.58 20.78C6.6 20.8 6.62 20.8301 6.64 20.8601ZM9.25 21.6899L8.57 20.29L6.68 21.03C6.68 21.03 6.69 21.04 6.69 21.05C6.69 21.09 6.68 21.1299 6.67 21.1599L9.02 21.9199C9.07 21.8199 9.15 21.7399 9.25 21.6899ZM9.66 21.6399L10.5 19.6201C10.47 19.6001 10.45 19.5801 10.43 19.5601L8.72 20.23L9.4 21.6299C9.44 21.6199 9.48 21.6201 9.51 21.6201C9.56 21.6201 9.61 21.6299 9.66 21.6399ZM12.08 21.8799L10.83 19.6699C10.8 19.6799 10.76 19.6899 10.72 19.6899C10.7 19.6899 10.68 19.6899 10.65 19.6799L9.81 21.7C9.95 21.79 10.05 21.9301 10.07 22.1001L11.96 22.0901C11.98 22.0101 12.02 21.9299 12.08 21.8799ZM12.39 21.78L13.1 20.3101L11 19.5701C11 19.5801 10.99 19.5901 10.98 19.5901L12.23 21.79C12.27 21.78 12.3 21.77 12.35 21.77C12.36 21.77 12.38 21.78 12.39 21.78ZM15.2 21.1599C15.19 21.1299 15.18 21.09 15.18 21.05V21.04L13.26 20.3701L12.55 21.8301C12.61 21.8701 12.65 21.92 12.69 21.97L15.2 21.1599ZM15.29 20.78L13.93 19.03C13.92 19.03 13.92 19.03 13.91 19.04L13.34 20.21L15.22 20.8701C15.24 20.8401 15.26 20.81 15.29 20.78ZM15.86 18.9199H14.1C14.09 18.9299 14.08 18.94 14.08 18.95L15.43 20.6799C15.47 20.6699 15.5 20.6599 15.54 20.6599L15.86 18.9199ZM18.34 19C18.32 18.98 18.3 18.9499 18.29 18.9199H16.03L15.71 20.6799C15.78 20.7099 15.84 20.7501 15.88 20.8101L18.34 19ZM18.43 18.52L18.17 17.1799L16.61 17.3601C16.59 17.5501 16.44 17.69 16.25 17.71L16.06 18.75H18.26C18.28 18.65 18.34 18.56 18.43 18.52ZM19.78 17.1799C19.71 17.1399 19.65 17.08 19.61 17.01L18.34 17.1599L18.6 18.49C18.66 18.49 18.71 18.52 18.76 18.55L19.78 17.1799ZM19.79 16.47L19.16 14.5701L18.12 15.2V15.21C18.12 15.26 18.11 15.3001 18.09 15.3401L19.69 16.54C19.72 16.52 19.76 16.49 19.79 16.47ZM21.04 13.6699C20.98 13.6399 20.93 13.6 20.88 13.54L19.31 14.48L19.96 16.4299C20.03 16.4299 20.1 16.45 20.15 16.48L21.04 13.6699ZM21.2 12.6201L21.03 9.43994C20.99 9.42994 20.95 9.4199 20.91 9.3999L19.59 11.3101L20.98 12.72C21.05 12.68 21.12 12.6401 21.2 12.6201Z" fill="url(#paint0_linear)"/>
<path d="M14.7198 12.6598C14.7198 13.2698 14.7198 13.8699 14.7198 14.4699C14.7098 14.8599 14.5398 15.08 14.2698 15.08C13.9898 15.07 13.8198 14.8599 13.8198 14.4699C13.8198 13.2799 13.8298 12.0998 13.8198 10.9198C13.8098 9.88983 13.0698 9.19991 12.0498 9.24991C11.2298 9.27991 10.5498 9.96002 10.5198 10.86C10.4898 11.82 10.5098 12.7799 10.5098 13.7399C10.5098 14.0199 10.6298 14.2399 10.9298 14.2499C11.2598 14.2499 11.3698 14.0199 11.3698 13.7299C11.3798 12.7799 11.3798 11.8298 11.3798 10.8798C11.3798 10.7598 11.3698 10.6299 11.3898 10.5099C11.4198 10.2799 11.5398 10.11 11.7898 10.1C12.0498 10.09 12.2098 10.2399 12.2498 10.4799C12.2898 10.6799 12.2798 10.88 12.2798 11.07C12.2798 11.96 12.2798 12.8499 12.2698 13.7399C12.2698 14.5299 11.7498 15.1098 11.0098 15.1598C10.3298 15.1998 9.67978 14.6598 9.63978 13.8798C9.57978 12.7698 9.52977 11.6399 9.66977 10.5199C9.83977 9.17993 10.9798 8.28001 12.3498 8.35001C13.6098 8.41001 14.6798 9.51997 14.7098 10.81C14.7298 11.43 14.7198 12.0398 14.7198 12.6598Z" fill="url(#paint1_linear)"/>
<path d="M7.15999 12.5101C7.19999 11.9001 7.08999 11.14 7.22999 10.4C7.38999 9.57 7.87999 8.98019 8.61999 8.59019C8.75999 8.52019 8.91999 8.47003 9.07999 8.43003C9.33999 8.38003 9.54998 8.46008 9.63998 8.73008C9.70998 8.99008 9.56998 9.18011 9.34998 9.26011C8.34998 9.60011 8.01998 10.3202 8.05998 11.3302C8.08998 12.3602 8.06998 13.4 8.05998 14.44C8.05998 14.86 7.89999 15.0802 7.61999 15.0802C7.34999 15.0702 7.16998 14.82 7.16998 14.42C7.15998 13.83 7.15999 13.2401 7.15999 12.5101Z" fill="url(#paint2_linear)"/>
<path d="M24.3301 15V9.16992H25.5001L26.9901 13.1399L28.4901 9.16992H29.6601V15H28.8901V9.87988L27.3901 13.8799H26.6001L25.0901 9.87988V15H24.3301ZM34.2501 12.8501L33.1801 9.94995L32.1101 12.8501H34.2501ZM30.5101 15L32.7301 9.16992H33.6301L35.8501 15H35.0301L34.5001 13.5H31.8701L31.3401 15H30.5101ZM39.4701 12.27C39.6367 12.3234 39.8001 12.4432 39.9601 12.6299C40.1201 12.8165 40.2801 13.0766 40.4401 13.4099L41.2401 15H40.4001L39.6501 13.5C39.4567 13.1133 39.2701 12.8566 39.0901 12.73C38.9101 12.6033 38.6634 12.54 38.3501 12.54H37.4901V15H36.7001V9.16992H38.4801C39.1467 9.16992 39.6434 9.31009 39.9701 9.59009C40.3034 9.86342 40.4701 10.2834 40.4701 10.8501C40.4701 11.2168 40.3834 11.52 40.2101 11.76C40.0367 12.0067 39.7901 12.1767 39.4701 12.27ZM38.4801 9.82007H37.4901V11.8899H38.4801C38.8601 11.8899 39.1467 11.8032 39.3401 11.6299C39.5334 11.4499 39.6301 11.1901 39.6301 10.8501C39.6301 10.5101 39.5334 10.2534 39.3401 10.0801C39.1467 9.90674 38.8601 9.82007 38.4801 9.82007ZM42.2601 15V9.16992H43.0501V11.6299L45.6701 9.16992H46.6801L43.7901 11.8899L46.8901 15H45.8501L43.0501 12.1899V15H42.2601ZM46.0801 9.83008V9.16992H51.0101V9.83008H48.9401V15H48.1501V9.83008H46.0801Z" fill="#33B5FF"/>
<path d="M53.5601 11.75H102.44H53.5601Z" stroke="#33B5FF" stroke-width="2"/>
<defs>
<linearGradient id="paint0_linear" x1="-1.5151e-07" y1="3.75201" x2="20.924" y2="18.531" gradientUnits="userSpaceOnUse">
<stop stop-color="#033EFF"/>
<stop offset="1" stop-color="#33B5FF"/>
</linearGradient>
<linearGradient id="paint1_linear" x1="9.58077" y1="9.27498" x2="14.4987" y2="13.854" gradientUnits="userSpaceOnUse">
<stop stop-color="#033EFF"/>
<stop offset="1" stop-color="#33B5FF"/>
</linearGradient>
<linearGradient id="paint2_linear" x1="7.15599" y1="9.32506" x2="9.54707" y2="13.8001" gradientUnits="userSpaceOnUse">
<stop stop-color="#033EFF"/>
<stop offset="1" stop-color="#33B5FF"/>
</linearGradient>
</defs>
</svg>
