<svg width="251" height="129" viewBox="0 0 251 129" fill="none" xmlns="http://www.w3.org/2000/svg">
<path d="M190.584 7.84996C190.764 6.58996 188.974 5.53992 187.634 5.43992C186.994 5.38992 186.324 5.48 185.724 5.27C184.404 4.81 183.884 3.11993 182.594 2.56993C181.644 2.16993 180.534 2.52998 179.604 2.99998C178.674 3.46998 177.754 4.04998 176.724 4.11998C175.814 4.17998 174.834 3.84001 174.044 4.28001C173.454 4.61001 173.144 5.28992 172.604 5.68992C172.074 6.07992 171.384 6.16993 170.724 6.19993C170.064 6.23993 169.384 6.25 168.784 6.52C168.184 6.79 167.684 7.42994 167.814 8.07994L190.584 7.84996Z" fill="#F5F5F5"/>
<path d="M21.5342 30.4H46.7739V110.37H21.5342V30.4Z" fill="#F5F5F5"/>
<path d="M34.1538 30.4H46.7739V110.15H34.1538V30.4Z" fill="#EBEBEB"/>
<path d="M24.4141 22.55H33.3242V30.4H24.4141V22.55Z" fill="#F5F5F5"/>
<path d="M31.2041 22.55H33.3242V30.4H31.2041V22.55Z" fill="#EBEBEB"/>
<path d="M19.4341 30.4V29.9399H47.5039V30.4" fill="#E0E0E0"/>
<path d="M26.5142 33.83H28.6538V38.33H26.5142V33.83Z" fill="#FAFAFA"/>
<path d="M34.1538 40.1C34.1538 40.14 31.3238 40.1801 27.8438 40.1801C24.3637 40.1801 21.5342 40.14 21.5342 40.1C21.5342 40.05 24.3637 40.01 27.8438 40.01C31.3238 40.01 34.1538 40.05 34.1538 40.1Z" fill="#E0E0E0"/>
<path d="M39.2441 33.83H41.3838V38.33H39.2441V33.83Z" fill="#E0E0E0"/>
<path d="M46.8838 40.1C46.8838 40.14 44.0542 40.1801 40.5742 40.1801C37.0842 40.1801 34.2642 40.14 34.2642 40.1C34.2642 40.05 37.0842 40.01 40.5742 40.01C44.0542 40.01 46.8838 40.05 46.8838 40.1Z" fill="#E0E0E0"/>
<path d="M39.2441 42.77H41.3838V47.27H39.2441V42.77Z" fill="#E0E0E0"/>
<path d="M46.8838 49.04C46.8838 49.09 44.0542 49.13 40.5742 49.13C37.0842 49.13 34.2642 49.09 34.2642 49.04C34.2642 48.99 37.0842 48.95 40.5742 48.95C44.0542 48.95 46.8838 48.99 46.8838 49.04Z" fill="#E0E0E0"/>
<path d="M39.2441 51.98H41.3838V56.48H39.2441V51.98Z" fill="#E0E0E0"/>
<path d="M46.8838 58.25C46.8838 58.3 44.0542 58.34 40.5742 58.34C37.0842 58.34 34.2642 58.3 34.2642 58.25C34.2642 58.2 37.0842 58.16 40.5742 58.16C44.0542 58.16 46.8838 58.2 46.8838 58.25Z" fill="#E0E0E0"/>
<path d="M39.2441 61.1899H41.3838V65.7H39.2441V61.1899Z" fill="#E0E0E0"/>
<path d="M46.8838 67.46C46.8838 67.51 44.0542 67.55 40.5742 67.55C37.0842 67.55 34.2642 67.51 34.2642 67.46C34.2642 67.42 37.0842 67.38 40.5742 67.38C44.0542 67.38 46.8838 67.42 46.8838 67.46Z" fill="#E0E0E0"/>
<path d="M39.2441 70.14H41.3838V74.64H39.2441V70.14Z" fill="#E0E0E0"/>
<path d="M46.8838 76.41C46.8838 76.46 44.0542 76.5 40.5742 76.5C37.0842 76.5 34.2642 76.46 34.2642 76.41C34.2642 76.36 37.0842 76.3199 40.5742 76.3199C44.0542 76.3199 46.8838 76.36 46.8838 76.41Z" fill="#E0E0E0"/>
<path d="M39.2441 79.12H41.3838V83.63H39.2441V79.12Z" fill="#E0E0E0"/>
<path d="M39.2441 88.23H41.3838V92.73H39.2441V88.23Z" fill="#E0E0E0"/>
<path d="M46.8838 85.4C46.8838 85.44 44.0542 85.48 40.5742 85.48C37.0842 85.48 34.2642 85.44 34.2642 85.4C34.2642 85.35 37.0842 85.3101 40.5742 85.3101C44.0542 85.3101 46.8838 85.35 46.8838 85.4Z" fill="#E0E0E0"/>
<path d="M26.5142 42.9H28.6538V47.41H26.5142V42.9Z" fill="#FAFAFA"/>
<path d="M34.1538 49.1801C34.1538 49.2201 31.3238 49.26 27.8438 49.26C24.3637 49.26 21.5342 49.2201 21.5342 49.1801C21.5342 49.1301 24.3637 49.09 27.8438 49.09C31.3238 49.09 34.1538 49.1301 34.1538 49.1801Z" fill="#E0E0E0"/>
<path d="M26.5142 51.98H28.6538V56.49H26.5142V51.98Z" fill="#FAFAFA"/>
<path d="M34.1538 58.25C34.1538 58.3 31.3238 58.34 27.8438 58.34C24.3637 58.34 21.5342 58.3 21.5342 58.25C21.5342 58.21 24.3637 58.17 27.8438 58.17C31.3238 58.17 34.1538 58.21 34.1538 58.25Z" fill="#E0E0E0"/>
<path d="M26.5142 61.0601H28.6538V65.5601H26.5142V61.0601Z" fill="#FAFAFA"/>
<path d="M34.1538 67.33C34.1538 67.38 31.3238 67.42 27.8438 67.42C24.3637 67.42 21.5342 67.38 21.5342 67.33C21.5342 67.28 24.3637 67.25 27.8438 67.25C31.3238 67.25 34.1538 67.28 34.1538 67.33Z" fill="#E0E0E0"/>
<path d="M26.5142 70.14H28.6538V74.64H26.5142V70.14Z" fill="#FAFAFA"/>
<path d="M34.1538 76.41C34.1538 76.46 31.3238 76.5 27.8438 76.5C24.3637 76.5 21.5342 76.46 21.5342 76.41C21.5342 76.36 24.3637 76.3199 27.8438 76.3199C31.3238 76.3199 34.1538 76.36 34.1538 76.41Z" fill="#E0E0E0"/>
<path d="M26.5142 79.22H28.6538V83.72H26.5142V79.22Z" fill="#FAFAFA"/>
<path d="M34.1538 85.49C34.1538 85.54 31.3238 85.58 27.8438 85.58C24.3637 85.58 21.5342 85.54 21.5342 85.49C21.5342 85.44 24.3637 85.4 27.8438 85.4C31.3238 85.4 34.1538 85.44 34.1538 85.49Z" fill="#E0E0E0"/>
<path d="M26.5142 88.3H28.6538V92.8H26.5142V88.3Z" fill="#FAFAFA"/>
<path d="M109.964 12.16H146.344V127.44H109.964V12.16Z" fill="#F5F5F5"/>
<path d="M128.154 12.16H146.344V127.12H128.154V12.16Z" fill="#EBEBEB"/>
<path d="M114.124 0.849976H126.964V12.16H114.124V0.849976Z" fill="#F5F5F5"/>
<path d="M123.904 0.849976H126.964V12.16H123.904V0.849976Z" fill="#EBEBEB"/>
<path d="M106.934 12.16V11.5H147.404V12.16" fill="#E0E0E0"/>
<path d="M117.144 17.1H120.224V23.59H117.144V17.1Z" fill="#FAFAFA"/>
<path d="M128.154 26.14C128.154 26.21 124.084 26.26 119.064 26.26C114.034 26.26 109.964 26.21 109.964 26.14C109.964 26.07 114.034 26.02 119.064 26.02C124.084 26.02 128.154 26.07 128.154 26.14Z" fill="#E0E0E0"/>
<path d="M135.494 17.1H138.574V23.59H135.494V17.1Z" fill="#E0E0E0"/>
<path d="M146.504 26.14C146.504 26.21 142.424 26.26 137.404 26.26C132.384 26.26 128.314 26.21 128.314 26.14C128.314 26.07 132.384 26.02 137.404 26.02C142.424 26.02 146.504 26.07 146.504 26.14Z" fill="#E0E0E0"/>
<path d="M135.494 29.99H138.574V36.48H135.494V29.99Z" fill="#E0E0E0"/>
<path d="M146.504 39.03C146.504 39.1 142.424 39.15 137.404 39.15C132.384 39.15 128.314 39.1 128.314 39.03C128.314 38.96 132.384 38.9 137.404 38.9C142.424 38.9 146.504 38.96 146.504 39.03Z" fill="#E0E0E0"/>
<path d="M135.494 43.27H138.574V49.76H135.494V43.27Z" fill="#E0E0E0"/>
<path d="M146.504 52.3101C146.504 52.3801 142.424 52.4301 137.404 52.4301C132.384 52.4301 128.314 52.3801 128.314 52.3101C128.314 52.2401 132.384 52.1801 137.404 52.1801C142.424 52.1801 146.504 52.2401 146.504 52.3101Z" fill="#E0E0E0"/>
<path d="M135.494 56.55H138.574V63.04H135.494V56.55Z" fill="#E0E0E0"/>
<path d="M146.504 65.59C146.504 65.65 142.424 65.71 137.404 65.71C132.384 65.71 128.314 65.65 128.314 65.59C128.314 65.52 132.384 65.46 137.404 65.46C142.424 65.46 146.504 65.52 146.504 65.59Z" fill="#E0E0E0"/>
<path d="M135.494 69.4399H138.574V75.9399H135.494V69.4399Z" fill="#E0E0E0"/>
<path d="M146.504 78.48C146.504 78.55 142.424 78.61 137.404 78.61C132.384 78.61 128.314 78.55 128.314 78.48C128.314 78.42 132.384 78.36 137.404 78.36C142.424 78.36 146.504 78.42 146.504 78.48Z" fill="#E0E0E0"/>
<path d="M135.494 82.39H138.574V88.89H135.494V82.39Z" fill="#E0E0E0"/>
<path d="M135.494 95.51H138.574V102.01H135.494V95.51Z" fill="#E0E0E0"/>
<path d="M146.504 91.4301C146.504 91.5001 142.424 91.5601 137.404 91.5601C132.384 91.5601 128.314 91.5001 128.314 91.4301C128.314 91.3701 132.384 91.3101 137.404 91.3101C142.424 91.3101 146.504 91.3701 146.504 91.4301Z" fill="#E0E0E0"/>
<path d="M117.144 30.1899H120.224V36.6801H117.144V30.1899Z" fill="#FAFAFA"/>
<path d="M128.154 39.23C128.154 39.29 124.084 39.35 119.064 39.35C114.034 39.35 109.964 39.29 109.964 39.23C109.964 39.16 114.034 39.1 119.064 39.1C124.084 39.1 128.154 39.16 128.154 39.23Z" fill="#E0E0E0"/>
<path d="M117.144 43.27H120.224V49.76H117.144V43.27Z" fill="#FAFAFA"/>
<path d="M128.154 52.3101C128.154 52.3801 124.084 52.4399 119.064 52.4399C114.034 52.4399 109.964 52.3801 109.964 52.3101C109.964 52.2401 114.034 52.1899 119.064 52.1899C124.084 52.1899 128.154 52.2401 128.154 52.3101Z" fill="#E0E0E0"/>
<path d="M117.144 56.36H120.224V62.85H117.144V56.36Z" fill="#FAFAFA"/>
<path d="M128.154 65.4C128.154 65.47 124.084 65.52 119.064 65.52C114.034 65.52 109.964 65.47 109.964 65.4C109.964 65.33 114.034 65.27 119.064 65.27C124.084 65.27 128.154 65.33 128.154 65.4Z" fill="#E0E0E0"/>
<path d="M117.144 69.4399H120.224V75.9399H117.144V69.4399Z" fill="#FAFAFA"/>
<path d="M128.154 78.48C128.154 78.55 124.084 78.61 119.064 78.61C114.034 78.61 109.964 78.55 109.964 78.48C109.964 78.42 114.034 78.36 119.064 78.36C124.084 78.36 128.154 78.42 128.154 78.48Z" fill="#E0E0E0"/>
<path d="M117.144 82.53H120.224V89.02H117.144V82.53Z" fill="#FAFAFA"/>
<path d="M128.154 91.5699C128.154 91.6399 124.084 91.6899 119.064 91.6899C114.034 91.6899 109.964 91.6399 109.964 91.5699C109.964 91.4999 114.034 91.45 119.064 91.45C124.084 91.45 128.154 91.4999 128.154 91.5699Z" fill="#E0E0E0"/>
<path d="M117.144 95.62H120.224V102.11H117.144V95.62Z" fill="#FAFAFA"/>
<path d="M139.304 64.46H159.174V127.44H139.304V64.46Z" fill="#F5F5F5"/>
<path d="M149.244 64.46H159.174V127.26H149.244V64.46Z" fill="#EBEBEB"/>
<path d="M141.574 58.27H148.594V64.46H141.574V58.27Z" fill="#F5F5F5"/>
<path d="M146.914 58.27H148.594V64.46H146.914V58.27Z" fill="#EBEBEB"/>
<path d="M137.644 64.46V64.1H159.754V64.46" fill="#E0E0E0"/>
<path d="M143.224 67.15H144.914V70.7H143.224V67.15Z" fill="#FAFAFA"/>
<path d="M149.244 72.09C149.244 72.13 147.014 72.16 144.274 72.16C141.524 72.16 139.304 72.13 139.304 72.09C139.304 72.05 141.524 72.02 144.274 72.02C147.014 72.02 149.244 72.05 149.244 72.09Z" fill="#E0E0E0"/>
<path d="M153.254 67.15H154.934V70.7H153.254V67.15Z" fill="#E0E0E0"/>
<path d="M159.264 72.09C159.264 72.13 157.044 72.16 154.294 72.16C151.554 72.16 149.324 72.13 149.324 72.09C149.324 72.05 151.554 72.02 154.294 72.02C157.044 72.02 159.264 72.05 159.264 72.09Z" fill="#E0E0E0"/>
<path d="M153.254 74.1899H154.934V77.74H153.254V74.1899Z" fill="#E0E0E0"/>
<path d="M159.264 79.13C159.264 79.17 157.044 79.2 154.294 79.2C151.554 79.2 149.324 79.17 149.324 79.13C149.324 79.1 151.554 79.0699 154.294 79.0699C157.044 79.0699 159.264 79.1 159.264 79.13Z" fill="#E0E0E0"/>
<path d="M153.254 81.45H154.934V85H153.254V81.45Z" fill="#E0E0E0"/>
<path d="M159.264 86.39C159.264 86.43 157.044 86.46 154.294 86.46C151.554 86.46 149.324 86.43 149.324 86.39C149.324 86.35 151.554 86.3199 154.294 86.3199C157.044 86.3199 159.264 86.35 159.264 86.39Z" fill="#E0E0E0"/>
<path d="M153.254 88.7H154.934V92.25H153.254V88.7Z" fill="#E0E0E0"/>
<path d="M159.264 93.64C159.264 93.68 157.044 93.71 154.294 93.71C151.554 93.71 149.324 93.68 149.324 93.64C149.324 93.61 151.554 93.5699 154.294 93.5699C157.044 93.5699 159.264 93.61 159.264 93.64Z" fill="#E0E0E0"/>
<path d="M153.254 95.75H154.934V99.3H153.254V95.75Z" fill="#E0E0E0"/>
<path d="M159.264 100.69C159.264 100.73 157.044 100.76 154.294 100.76C151.554 100.76 149.324 100.73 149.324 100.69C149.324 100.65 151.554 100.62 154.294 100.62C157.044 100.62 159.264 100.65 159.264 100.69Z" fill="#E0E0E0"/>
<path d="M153.254 102.83H154.934V106.37H153.254V102.83Z" fill="#E0E0E0"/>
<path d="M153.254 109.99H154.934V113.54H153.254V109.99Z" fill="#E0E0E0"/>
<path d="M159.264 107.76C159.264 107.8 157.044 107.83 154.294 107.83C151.554 107.83 149.324 107.8 149.324 107.76C149.324 107.73 151.554 107.7 154.294 107.7C157.044 107.7 159.264 107.73 159.264 107.76Z" fill="#E0E0E0"/>
<path d="M143.224 74.3H144.914V77.85H143.224V74.3Z" fill="#FAFAFA"/>
<path d="M149.244 79.24C149.244 79.28 147.014 79.3101 144.274 79.3101C141.524 79.3101 139.304 79.28 139.304 79.24C139.304 79.2 141.524 79.17 144.274 79.17C147.014 79.17 149.244 79.2 149.244 79.24Z" fill="#E0E0E0"/>
<path d="M143.224 81.45H144.914V85H143.224V81.45Z" fill="#FAFAFA"/>
<path d="M149.244 86.39C149.244 86.43 147.014 86.46 144.274 86.46C141.524 86.46 139.304 86.43 139.304 86.39C139.304 86.35 141.524 86.3199 144.274 86.3199C147.014 86.3199 149.244 86.35 149.244 86.39Z" fill="#E0E0E0"/>
<path d="M143.224 88.6H144.914V92.15H143.224V88.6Z" fill="#FAFAFA"/>
<path d="M149.244 93.54C149.244 93.58 147.014 93.61 144.274 93.61C141.524 93.61 139.304 93.58 139.304 93.54C139.304 93.5 141.524 93.47 144.274 93.47C147.014 93.47 149.244 93.5 149.244 93.54Z" fill="#E0E0E0"/>
<path d="M143.224 95.75H144.914V99.3H143.224V95.75Z" fill="#FAFAFA"/>
<path d="M149.244 100.69C149.244 100.73 147.014 100.76 144.274 100.76C141.524 100.76 139.304 100.73 139.304 100.69C139.304 100.65 141.524 100.62 144.274 100.62C147.014 100.62 149.244 100.65 149.244 100.69Z" fill="#E0E0E0"/>
<path d="M143.224 102.9H144.914V106.45H143.224V102.9Z" fill="#FAFAFA"/>
<path d="M149.244 107.84C149.244 107.88 147.014 107.91 144.274 107.91C141.524 107.91 139.304 107.88 139.304 107.84C139.304 107.8 141.524 107.77 144.274 107.77C147.014 107.77 149.244 107.8 149.244 107.84Z" fill="#E0E0E0"/>
<path d="M143.224 110.05H144.914V113.6H143.224V110.05Z" fill="#FAFAFA"/>
<path d="M38.124 86.83H59.5142V127.44H38.124V86.83Z" fill="#E0E0E0"/>
<path d="M49.4839 86.83H59.5142V127.44H49.4839V86.83Z" fill="#EBEBEB"/>
<path d="M42.604 90.65H44.5342V95.33H42.604V90.65Z" fill="#F5F5F5"/>
<path d="M42.604 108.94H44.5342V113.62H42.604V108.94Z" fill="#F5F5F5"/>
<path d="M49.4839 97.16C49.4839 97.2 46.9442 97.23 43.8042 97.23C40.6642 97.23 38.124 97.2 38.124 97.16C38.124 97.12 40.6642 97.09 43.8042 97.09C46.9442 97.09 49.4839 97.12 49.4839 97.16Z" fill="#F5F5F5"/>
<path d="M42.604 99.87H44.5342V104.54H42.604V99.87Z" fill="#F5F5F5"/>
<path d="M49.4839 106.38C49.4839 106.42 46.9442 106.45 43.8042 106.45C40.6642 106.45 38.124 106.42 38.124 106.38C38.124 106.34 40.6642 106.3 43.8042 106.3C46.9442 106.3 49.4839 106.34 49.4839 106.38Z" fill="#F5F5F5"/>
<path d="M51.6138 90.65H53.5342V95.33H51.6138V90.65Z" fill="#E0E0E0"/>
<path d="M55.7842 90.65H57.7139V95.33H55.7842V90.65Z" fill="#E0E0E0"/>
<path d="M51.6138 99.52H53.5342V104.19H51.6138V99.52Z" fill="#E0E0E0"/>
<path d="M55.7842 99.52H57.7139V104.19H55.7842V99.52Z" fill="#E0E0E0"/>
<path d="M51.6138 108.39H53.5342V113.06H51.6138V108.39Z" fill="#E0E0E0"/>
<path d="M55.7842 108.39H57.7139V113.06H55.7842V108.39Z" fill="#E0E0E0"/>
<path d="M36.5142 85.85H61.124V86.87H36.5142V85.85Z" fill="#E0E0E0"/>
<path d="M59.6641 86.96C59.6641 87 54.8839 87.04 48.9839 87.04C43.0839 87.04 38.3042 87 38.3042 86.96C38.3042 86.92 43.0839 86.89 48.9839 86.89C54.8839 86.89 59.6641 86.92 59.6641 86.96Z" fill="#EBEBEB"/>
<path d="M38.3638 127.41H3.91406L3.76416 72.95H38.2139L38.3638 127.41Z" fill="#EBEBEB"/>
<path d="M20.9839 72.95H38.2139V127.41H20.9839V72.95Z" fill="#E0E0E0"/>
<path d="M7.69385 62.23H19.8638V72.95H7.69385V62.23Z" fill="#EBEBEB"/>
<path d="M16.9639 62.23H19.8638V72.95H16.9639V62.23Z" fill="#E0E0E0"/>
<path d="M0.883789 72.33H39.2241V72.95H0.883789V72.33Z" fill="#E0E0E0"/>
<path d="M10.564 77.63H13.4741V83.78H10.564V77.63Z" fill="white"/>
<path d="M20.9839 86.1899C20.9839 86.2599 17.134 86.3101 12.374 86.3101C7.61402 86.3101 3.76416 86.2599 3.76416 86.1899C3.76416 86.1299 7.61402 86.0699 12.374 86.0699C17.134 86.0699 20.9839 86.1299 20.9839 86.1899Z" fill="#E0E0E0"/>
<path d="M27.9438 77.63H30.854V83.78H27.9438V77.63Z" fill="#F5F5F5"/>
<path d="M38.3638 86.1899C38.3638 86.2599 34.5139 86.3101 29.7539 86.3101C24.9939 86.3101 21.1338 86.2599 21.1338 86.1899C21.1338 86.1299 24.9939 86.0699 29.7539 86.0699C34.5139 86.0699 38.3638 86.1299 38.3638 86.1899Z" fill="#EBEBEB"/>
<path d="M27.9438 89.84H30.854V95.99H27.9438V89.84Z" fill="#F5F5F5"/>
<path d="M38.3638 98.4C38.3638 98.47 34.5139 98.52 29.7539 98.52C24.9939 98.52 21.1338 98.47 21.1338 98.4C21.1338 98.34 24.9939 98.28 29.7539 98.28C34.5139 98.28 38.3638 98.34 38.3638 98.4Z" fill="#EBEBEB"/>
<path d="M27.9438 102.42H30.854V108.57H27.9438V102.42Z" fill="#F5F5F5"/>
<path d="M38.3638 110.98C38.3638 111.04 34.5139 111.1 29.7539 111.1C24.9939 111.1 21.1338 111.04 21.1338 110.98C21.1338 110.92 24.9939 110.86 29.7539 110.86C34.5139 110.86 38.3638 110.92 38.3638 110.98Z" fill="#EBEBEB"/>
<path d="M27.9438 114.99H30.854V121.14H27.9438V114.99Z" fill="#F5F5F5"/>
<path d="M38.3638 123.56C38.3638 123.62 34.5139 123.68 29.7539 123.68C24.9939 123.68 21.1338 123.62 21.1338 123.56C21.1338 123.49 24.9939 123.44 29.7539 123.44C34.5139 123.44 38.3638 123.49 38.3638 123.56Z" fill="#EBEBEB"/>
<path d="M10.564 90.02H13.4741V96.17H10.564V90.02Z" fill="white"/>
<path d="M20.9839 98.59C20.9839 98.65 17.134 98.71 12.374 98.71C7.61402 98.71 3.76416 98.65 3.76416 98.59C3.76416 98.52 7.61402 98.47 12.374 98.47C17.134 98.47 20.9839 98.52 20.9839 98.59Z" fill="#E0E0E0"/>
<path d="M10.564 102.42H13.4741V108.57H10.564V102.42Z" fill="white"/>
<path d="M20.9839 110.98C20.9839 111.05 17.134 111.1 12.374 111.1C7.61402 111.1 3.76416 111.05 3.76416 110.98C3.76416 110.92 7.61402 110.87 12.374 110.87C17.134 110.87 20.9839 110.92 20.9839 110.98Z" fill="#E0E0E0"/>
<path d="M10.564 114.82H13.4741V120.97H10.564V114.82Z" fill="white"/>
<path d="M20.9839 123.38C20.9839 123.45 17.134 123.5 12.374 123.5C7.61402 123.5 3.76416 123.45 3.76416 123.38C3.76416 123.32 7.61402 123.26 12.374 123.26C17.134 123.26 20.9839 123.32 20.9839 123.38Z" fill="#E0E0E0"/>
<path d="M201.704 43.0899C201.944 41.2799 199.394 39.79 197.474 39.63C196.564 39.56 195.614 39.7 194.744 39.4C192.864 38.74 192.114 36.32 190.284 35.54C188.914 34.96 187.334 35.48 186.004 36.15C184.674 36.82 183.364 37.6599 181.884 37.7499C180.584 37.8399 179.184 37.3599 178.054 37.9899C177.214 38.4599 176.774 39.4299 176.004 39.9999C175.244 40.5599 174.254 40.6799 173.304 40.7299C172.364 40.7799 171.394 40.79 170.534 41.18C169.674 41.57 168.964 42.48 169.144 43.41L201.704 43.0899Z" fill="#F5F5F5"/>
<path d="M181.614 107.51H250.334V127.44H181.614V107.51Z" fill="#EBEBEB"/>
<path d="M197.654 107.51C197.694 107.51 197.654 111.72 197.654 111.72H195.604V107.51H197.654Z" fill="#F5F5F5"/>
<path d="M250.334 127.44H236.474V107.51H250.334V127.44Z" fill="#E0E0E0"/>
<path d="M182.464 123.54H186.174V126.16H182.464V123.54Z" fill="white"/>
<path d="M195.164 123.54H197.014V126.16H195.164V123.54Z" fill="white"/>
<path d="M188.654 94.53H229.204V107.51H188.654V94.53Z" fill="#EBEBEB"/>
<path d="M198.214 94.53C198.244 94.53 198.214 97.27 198.214 97.27H196.884V94.53H198.214Z" fill="#F5F5F5"/>
<path d="M229.204 107.51H220.184V94.53H229.204V107.51Z" fill="#E0E0E0"/>
<path d="M189.204 104.97H191.624V106.68H189.204V104.97Z" fill="white"/>
<path d="M196.624 104.97H197.834V106.68H196.624V104.97Z" fill="white"/>
<path d="M22.2137 8.3C22.3637 7.28 20.914 6.43992 19.824 6.34992C19.304 6.30992 18.7737 6.38991 18.2737 6.20991C17.2137 5.83991 16.7937 4.46998 15.7537 4.02998C14.9737 3.69998 14.0838 3.99994 13.3338 4.36994C12.5738 4.74994 11.834 5.22998 10.994 5.27998C10.264 5.32998 9.4738 5.05999 8.8338 5.41999C8.3538 5.67999 8.10387 6.23001 7.66387 6.56001C7.23387 6.87001 6.67385 6.93992 6.14385 6.96992C5.60385 6.99992 5.05403 6.99993 4.57403 7.22993C4.08403 7.44993 3.68399 7.95994 3.78399 8.48994L22.2137 8.3Z" fill="#EBEBEB"/>
<path d="M206.734 29.11C206.874 28.11 205.464 27.28 204.404 27.2C203.894 27.16 203.374 27.23 202.894 27.07C201.854 26.71 201.444 25.37 200.424 24.94C199.674 24.62 198.804 24.9001 198.064 25.2701C197.334 25.6401 196.604 26.1101 195.784 26.1601C195.074 26.2101 194.304 25.9401 193.674 26.2901C193.214 26.5501 192.964 27.0801 192.534 27.4001C192.124 27.7101 191.574 27.7701 191.054 27.8001C190.534 27.8301 189.994 27.8401 189.524 28.0501C189.044 28.2701 188.654 28.7701 188.754 29.2801L206.734 29.11Z" fill="#EBEBEB"/>
<path d="M53.9542 15.6108C54.2142 13.5179 51.5739 11.7943 49.5939 11.6152C48.6439 11.5257 47.6643 11.6824 46.7643 11.3354C44.8243 10.5856 44.0442 7.7765 42.1442 6.88116C40.7342 6.20966 39.1043 6.80281 37.7243 7.57504C36.3543 8.34727 34.9942 9.32099 33.4542 9.43291C32.1242 9.53363 30.674 8.97403 29.504 9.7015C28.634 10.2499 28.1742 11.369 27.3742 12.0293C26.5942 12.6784 25.5639 12.824 24.5939 12.8799C23.6239 12.9359 22.6143 12.9472 21.7243 13.406C20.8343 13.8537 20.1043 14.9056 20.2843 15.98L53.9542 15.6108Z" fill="#F5F5F5"/>
<path d="M209.234 127.44C209.234 127.48 163.644 127.51 107.414 127.51C51.1741 127.51 5.59375 127.48 5.59375 127.44C5.59375 127.39 51.1741 127.36 107.414 127.36C163.644 127.36 209.234 127.39 209.234 127.44Z" fill="#263238"/>
<path d="M87.0543 115.93C87.6843 116.06 88.234 116.5 88.584 117.05C88.924 117.6 89.0839 118.25 89.1539 118.9C89.2839 120.15 88.864 121.53 88.334 122.67C87.104 122 86.5242 120.49 86.2842 119.7C85.8942 118.46 85.9443 115.98 87.0543 115.93Z" fill="#33B5FF"/>
<path d="M89.9638 124.42C89.6538 123.77 89.7738 122.95 90.1938 122.36C90.6238 121.77 91.3241 121.41 92.0341 121.31C92.3741 121.26 92.7441 121.28 92.9941 121.51C93.2241 121.72 93.2738 122.08 93.1938 122.38C93.1138 122.68 92.914 122.94 92.684 123.16C91.924 123.91 91.0438 124.5 89.9638 124.42Z" fill="#33B5FF"/>
<path d="M89.4743 128.45C89.4643 128.45 89.4643 128.36 89.4543 128.19C89.4443 128.01 89.4443 127.77 89.4343 127.49C89.4143 126.9 89.384 126.05 89.654 125.17C89.914 124.29 90.394 123.58 90.844 123.18C91.064 122.98 91.2643 122.84 91.4143 122.76C91.4843 122.72 91.5442 122.69 91.5842 122.67C91.6242 122.65 91.654 122.65 91.654 122.65C91.664 122.67 91.314 122.81 90.884 123.22C90.454 123.63 89.9944 124.33 89.7444 125.2C89.4744 126.06 89.5044 126.9 89.4944 127.49C89.4944 127.78 89.4944 128.03 89.4944 128.19C89.4844 128.36 89.4743 128.45 89.4743 128.45Z" fill="#263238"/>
<path d="M87.1738 117.83C87.1838 117.83 87.1939 117.86 87.2139 117.93C87.2339 118.01 87.2642 118.12 87.3042 118.24C87.3742 118.51 87.484 118.91 87.604 119.39C87.844 120.36 88.1741 121.71 88.4941 123.2C88.8141 124.69 89.0739 126.05 89.2539 127.04C89.3339 127.53 89.4038 127.93 89.4438 128.21C89.4638 128.34 89.4841 128.45 89.4941 128.53C89.5041 128.6 89.5039 128.64 89.5039 128.64C89.5039 128.64 89.4941 128.6 89.4741 128.53C89.4641 128.45 89.4441 128.35 89.4141 128.22C89.3541 127.93 89.2841 127.53 89.1841 127.05C88.9941 126.07 88.7238 124.71 88.4038 123.22C88.0838 121.73 87.7739 120.38 87.5439 119.41C87.4239 118.93 87.3342 118.54 87.2642 118.25C87.2342 118.12 87.2138 118.02 87.1938 117.94C87.1838 117.87 87.1738 117.83 87.1738 117.83Z" fill="#263238"/>
<path d="M88.3541 125.55C87.7941 124.13 86.5042 123.01 85.0142 122.66C84.6342 122.58 84.1639 122.57 83.9439 122.88C83.7139 123.2 83.8738 123.65 84.0938 123.97C84.9938 125.32 86.7741 126.03 88.3541 125.66" fill="#33B5FF"/>
<path d="M85.4341 123.79C85.4441 123.78 85.5238 123.8 85.6738 123.83C85.7538 123.85 85.8441 123.87 85.9541 123.91C86.0541 123.95 86.1842 123.98 86.3042 124.04C86.4342 124.09 86.5841 124.15 86.7241 124.23C86.8741 124.3 87.0241 124.39 87.1841 124.49C87.4941 124.7 87.8138 124.95 88.1138 125.26C88.4138 125.58 88.644 125.92 88.834 126.24C88.914 126.4 89.004 126.56 89.064 126.71C89.134 126.87 89.1741 127.01 89.2241 127.15C89.2741 127.28 89.2942 127.4 89.3242 127.51C89.3542 127.62 89.364 127.72 89.374 127.79C89.394 127.95 89.404 128.03 89.394 128.04C89.374 128.04 89.3441 127.69 89.1641 127.17C89.1141 127.04 89.0641 126.89 88.9941 126.75C88.9341 126.59 88.8439 126.44 88.7539 126.28C88.5739 125.97 88.3342 125.64 88.0542 125.33C87.7542 125.02 87.444 124.77 87.144 124.56C86.984 124.46 86.8338 124.37 86.6938 124.3C86.5538 124.21 86.4142 124.15 86.2842 124.1C85.7742 123.88 85.4341 123.8 85.4341 123.79Z" fill="#263238"/>
<path d="M182.124 124.31C182.234 123.87 181.944 123.43 181.624 123.11C181.304 122.8 180.924 122.51 180.754 122.09C180.484 121.41 180.844 120.53 180.384 119.96C180.114 119.63 179.624 119.51 179.384 119.16C179.254 118.97 179.214 118.74 179.164 118.52C178.904 117.4 178.344 116.34 177.554 115.51C177.494 116.51 177.714 117.52 178.184 118.41C178.374 118.77 178.604 119.12 178.664 119.51C178.764 120.16 178.404 120.83 178.564 121.46C178.744 122.19 179.564 122.68 179.604 123.42C179.634 124.06 179.084 124.61 179.124 125.24C179.144 125.51 179.264 125.76 179.404 125.99C179.894 126.81 180.614 127.36 181.694 127.35L183.034 127.39L182.124 124.31Z" fill="#033EFF"/>
<g opacity="0.302">
<g opacity="0.302">
<g opacity="0.302">
<g opacity="0.302">
<g opacity="0.302">
<g opacity="0.302">
<path opacity="0.302" d="M182.124 124.31C182.234 123.87 181.944 123.43 181.624 123.11C181.304 122.8 180.924 122.51 180.754 122.09C180.484 121.41 180.844 120.53 180.384 119.96C180.114 119.63 179.624 119.51 179.384 119.16C179.254 118.97 179.214 118.74 179.164 118.52C178.904 117.4 178.344 116.34 177.554 115.51C177.494 116.51 177.714 117.52 178.184 118.41C178.374 118.77 178.604 119.12 178.664 119.51C178.764 120.16 178.404 120.83 178.564 121.46C178.744 122.19 179.564 122.68 179.604 123.42C179.634 124.06 179.084 124.61 179.124 125.24C179.144 125.51 179.264 125.76 179.404 125.99C179.894 126.81 180.614 127.36 181.694 127.35L183.034 127.39L182.124 124.31Z" fill="black"/>
</g>
</g>
</g>
</g>
</g>
</g>
<path d="M183.304 127.43C183.304 127.43 183.424 127.46 183.664 127.42C183.784 127.4 183.934 127.37 184.104 127.31C184.264 127.25 184.454 127.16 184.634 127.02C184.724 126.94 184.814 126.85 184.854 126.73C184.904 126.6 184.914 126.47 184.924 126.33C184.924 126.19 184.924 126.04 184.954 125.9C184.974 125.75 185.034 125.6 185.114 125.47C185.274 125.19 185.534 124.93 185.614 124.55C185.704 124.19 185.644 123.79 185.584 123.39C185.514 122.99 185.454 122.55 185.614 122.13C185.754 121.72 186.044 121.34 186.194 120.87C186.334 120.4 186.274 119.88 186.304 119.38C186.314 119.13 186.364 118.87 186.474 118.64C186.584 118.4 186.734 118.18 186.854 117.93C187.084 117.43 187.124 116.86 187.194 116.3C187.224 116.02 187.254 115.74 187.284 115.45C187.324 115.16 187.344 114.88 187.434 114.6C187.514 114.32 187.634 114.05 187.754 113.77C187.814 113.64 187.874 113.5 187.914 113.34C187.934 113.19 187.944 113.04 187.954 112.89C187.964 112.58 187.954 112.27 187.914 111.96C187.884 111.65 187.824 111.35 187.794 111.04L187.784 110.99V110.93L187.724 110.95C187.444 111.1 187.194 111.31 187.004 111.56C186.814 111.81 186.674 112.09 186.564 112.37C186.344 112.95 186.264 113.55 186.154 114.12C186.044 114.69 185.894 115.25 185.604 115.73C185.454 115.97 185.284 116.18 185.124 116.42C184.974 116.65 184.834 116.9 184.794 117.18C184.714 117.74 185.024 118.24 184.964 118.74C184.944 118.98 184.844 119.22 184.714 119.43C184.594 119.64 184.454 119.84 184.324 120.04C184.184 120.23 184.054 120.44 183.964 120.65C183.864 120.87 183.814 121.09 183.804 121.32C183.764 121.77 183.834 122.2 183.794 122.6C183.774 123 183.624 123.37 183.464 123.69C183.304 124.02 183.124 124.32 182.974 124.61C182.904 124.75 182.834 124.89 182.774 125.03C182.714 125.17 182.684 125.32 182.654 125.45C182.614 125.73 182.614 125.99 182.644 126.21C182.704 126.67 182.874 127 183.034 127.18C183.064 127.23 183.104 127.27 183.134 127.3C183.174 127.33 183.204 127.36 183.224 127.38C183.274 127.41 183.304 127.43 183.304 127.43C183.304 127.42 183.194 127.36 183.044 127.17C182.894 126.99 182.734 126.66 182.684 126.21C182.654 125.98 182.654 125.73 182.694 125.46C182.724 125.33 182.754 125.18 182.814 125.05C182.874 124.91 182.944 124.77 183.024 124.63C183.174 124.34 183.354 124.05 183.514 123.72C183.684 123.39 183.824 123.02 183.854 122.6C183.894 122.19 183.834 121.76 183.864 121.32C183.884 121.11 183.934 120.89 184.024 120.68C184.114 120.47 184.244 120.27 184.384 120.08C184.514 119.88 184.654 119.68 184.784 119.46C184.904 119.25 185.014 119.01 185.034 118.74C185.104 118.21 184.794 117.71 184.874 117.19C184.914 116.93 185.044 116.69 185.194 116.46C185.344 116.23 185.524 116.02 185.674 115.77C185.974 115.28 186.124 114.71 186.234 114.13C186.344 113.56 186.424 112.96 186.644 112.4C186.754 112.12 186.894 111.85 187.074 111.61C187.254 111.37 187.494 111.17 187.764 111.03L187.704 111V111.05C187.744 111.36 187.794 111.67 187.834 111.97C187.874 112.28 187.884 112.58 187.864 112.88C187.854 113.03 187.854 113.19 187.824 113.33C187.794 113.47 187.734 113.6 187.674 113.74C187.564 114.02 187.444 114.29 187.354 114.58C187.264 114.86 187.234 115.16 187.204 115.44C187.174 115.73 187.144 116.01 187.114 116.29C187.044 116.86 187.004 117.42 186.774 117.9C186.664 118.14 186.514 118.36 186.404 118.61C186.294 118.85 186.244 119.12 186.224 119.38C186.194 119.89 186.264 120.39 186.124 120.85C185.984 121.3 185.694 121.68 185.544 122.11C185.394 122.55 185.454 123 185.524 123.39C185.584 123.8 185.654 124.19 185.564 124.54C185.484 124.9 185.234 125.16 185.074 125.44C184.984 125.58 184.934 125.74 184.904 125.89C184.884 126.04 184.884 126.19 184.874 126.32C184.874 126.46 184.864 126.6 184.824 126.71C184.784 126.83 184.694 126.92 184.614 126.99C184.444 127.14 184.254 127.23 184.094 127.29C183.934 127.35 183.784 127.38 183.664 127.4C183.544 127.42 183.454 127.43 183.394 127.43C183.334 127.43 183.304 127.43 183.304 127.43Z" fill="#263238"/>
<path d="M187.514 111.72C187.514 111.72 187.504 111.74 187.504 111.76L187.474 111.88C187.444 111.99 187.414 112.15 187.364 112.34C187.314 112.54 187.194 112.76 187.084 113.04C186.984 113.31 186.874 113.63 186.774 113.99C186.664 114.34 186.574 114.74 186.484 115.16C186.384 115.58 186.294 116.03 186.054 116.46C185.944 116.68 185.824 116.9 185.724 117.14C185.624 117.38 185.574 117.64 185.534 117.9C185.474 118.43 185.374 118.97 185.244 119.51C184.984 120.61 184.724 121.65 184.494 122.6C184.254 123.54 184.044 124.39 183.864 125.11C183.684 125.82 183.544 126.4 183.444 126.8C183.394 127 183.364 127.15 183.334 127.27L183.304 127.39C183.304 127.41 183.304 127.43 183.304 127.43C183.304 127.43 183.304 127.42 183.314 127.39L183.354 127.27C183.384 127.16 183.424 127.01 183.474 126.81C183.584 126.41 183.734 125.83 183.924 125.12C184.104 124.41 184.324 123.56 184.574 122.62C184.804 121.67 185.064 120.63 185.334 119.53C185.454 118.99 185.554 118.44 185.614 117.91C185.654 117.65 185.704 117.4 185.804 117.17C185.894 116.93 186.014 116.72 186.124 116.5C186.364 116.06 186.464 115.6 186.554 115.18C186.644 114.75 186.734 114.36 186.824 114C186.924 113.65 187.034 113.33 187.134 113.06C187.234 112.78 187.344 112.56 187.394 112.35C187.444 112.15 187.464 111.99 187.484 111.89C187.494 111.84 187.504 111.8 187.514 111.76C187.514 111.74 187.514 111.72 187.514 111.72Z" fill="#263238"/>
<path d="M183.534 127.43C184.404 126.91 184.654 125.34 184.294 124.4C183.934 123.45 183.294 122.59 183.194 121.58C183.124 120.81 183.374 120.01 183.194 119.25C182.954 118.23 181.954 117.44 181.964 116.39C181.974 115.8 182.304 115.24 182.284 114.65C182.244 113.93 181.694 113.36 181.354 112.72C180.824 111.75 180.784 110.59 180.614 109.5C180.434 108.41 180.014 107.24 179.044 106.7C178.904 107.63 178.654 108.27 178.734 109.52C178.764 109.97 179.284 110.84 179.354 111.83C179.404 112.42 179.434 113.01 179.464 113.6C179.504 114.18 179.534 114.76 179.744 115.3C179.904 115.71 180.154 116.09 180.274 116.51C180.494 117.32 180.204 118.18 180.384 119C180.534 119.68 181.014 120.28 181.104 120.97C181.244 121.95 180.614 122.97 180.934 123.91C181.094 124.37 181.474 124.74 181.584 125.22C181.674 125.59 181.574 125.99 181.654 126.36C181.774 126.96 182.924 127.43 183.534 127.39" fill="#33B5FF"/>
<path d="M179.284 107.62C179.284 107.62 179.284 107.64 179.284 107.68L179.304 107.83C179.324 107.96 179.354 108.16 179.394 108.41C179.444 108.67 179.574 108.96 179.684 109.3C179.794 109.65 179.904 110.05 180.004 110.5C180.104 110.94 180.184 111.44 180.274 111.97C180.364 112.5 180.454 113.08 180.714 113.64C180.844 113.92 180.974 114.19 181.084 114.49C181.184 114.79 181.234 115.1 181.264 115.43C181.304 116.09 181.394 116.77 181.514 117.46C181.784 118.83 182.044 120.14 182.274 121.33C182.514 122.52 182.734 123.59 182.914 124.49C183.104 125.38 183.254 126.11 183.364 126.62C183.414 126.86 183.454 127.06 183.484 127.19L183.524 127.34C183.534 127.38 183.534 127.39 183.534 127.39C183.534 127.39 183.534 127.38 183.534 127.34L183.504 127.19C183.474 127.05 183.444 126.86 183.394 126.61C183.294 126.1 183.154 125.37 182.974 124.48C182.794 123.58 182.584 122.51 182.344 121.32C182.114 120.13 181.864 118.82 181.604 117.45C181.484 116.76 181.394 116.08 181.344 115.42C181.314 115.09 181.264 114.77 181.154 114.46C181.054 114.16 180.914 113.88 180.794 113.6C180.524 113.06 180.434 112.49 180.344 111.96C180.254 111.43 180.164 110.93 180.064 110.48C179.954 110.04 179.844 109.64 179.724 109.29C179.614 108.94 179.484 108.66 179.424 108.41C179.384 108.16 179.354 107.96 179.324 107.83C179.314 107.76 179.304 107.71 179.294 107.68C179.294 107.64 179.284 107.62 179.284 107.62Z" fill="#263238"/>
<path d="M25.5239 88.03H158.114V101.28H25.5239V88.03Z" fill="#033EFF"/>
<g opacity="0.4">
<g opacity="0.4">
<path opacity="0.4" d="M25.5239 88.03H158.114V101.28H25.5239V88.03Z" fill="black"/>
</g>
</g>
<path d="M90.2539 102.95H129.384V115.23H90.2539V102.95Z" fill="#455A64"/>
<path d="M62.9038 97.4V113.62H76.2642L81.624 105.86H179.194V97.4H62.9038Z" fill="#263238"/>
<path d="M62.064 46.0401C62.034 45.4901 61.5743 45.07 61.0343 45.1C55.7543 45.31 30.684 46.46 25.524 48.94C21.574 50.84 17.2542 57.93 14.2042 62.7C12.0242 66.12 7.19394 73.72 6.21394 77.6C5.38394 80.89 4.89392 87.72 4.94392 91.11L6.32429 109.04H29.0543L31.3243 103.12C32.8143 99.25 36.5241 96.71 40.6641 96.71H63.2442V66.95L62.064 46.0401Z" fill="#33B5FF"/>
<path d="M22.834 50.9301C19.704 53.9101 16.5741 59 14.2041 62.7C12.1841 65.87 7.89414 72.6201 6.49414 76.6801C6.46414 76.7601 6.44383 76.83 6.42383 76.9C7.11383 76.71 8.17391 76.32 8.50391 75.66C9.00391 74.67 9.64395 71.26 17.5439 58.4C19.9439 54.48 22.294 52.1901 22.834 50.9301Z" fill="#033EFF"/>
<path d="M50.394 49.6C44.584 49.93 31.9939 50.7801 27.9639 52.1601C22.7239 53.9601 16.834 67.83 16.564 68.44L12.5938 78.59C12.4938 78.88 12.7142 79.1701 13.0142 79.1701H23.2642C23.6542 79.1701 24.034 79.1 24.394 78.97L51.354 68.9201C52.574 68.4701 53.3838 67.3 53.3838 66V52.4301C53.3838 50.8001 52.024 49.51 50.394 49.6Z" fill="#263238"/>
<path d="M13.7339 78.1801C13.7339 78.1801 17.534 69.65 18.814 66.87C20.744 62.65 25.2442 54.01 28.2842 53.1C31.0842 52.26 39.1341 51.24 50.4541 50.59C50.4841 50.59 50.524 50.59 50.564 50.59C51.574 50.59 52.394 51.4101 52.394 52.4301V66.3101C52.394 67.0101 51.9542 67.64 51.3042 67.88L31.3838 70.34C29.7638 70.54 28.3238 71.44 27.4238 72.8L23.9741 78.0601C23.7741 78.1401 23.5637 78.1801 23.3438 78.1801H13.7339Z" fill="#455A64"/>
<path d="M30.6641 70.5L23.874 78.04L27.624 53L28.564 52.67L26.7241 71.22C26.6741 71.63 27.0839 71.94 27.4639 71.78L30.6641 70.5Z" fill="#263238"/>
<path d="M4.50413 92.85C4.47413 92.52 4.59413 92.26 4.75413 92.24L8.38401 91.9101C8.69401 91.8801 8.96413 92.44 9.00413 93.12L9.16428 95.9001C9.19428 96.3501 9.05423 96.7301 8.85423 96.7601L5.15403 97.4001C4.98403 97.4301 4.82442 97.18 4.80442 96.85L4.50413 92.85Z" fill="#EBEBEB"/>
<path d="M4.50391 105.86H30.6641V116.35H4.50391V105.86Z" fill="#263238"/>
<path d="M48.1338 127.3C40.2238 127.61 33.5842 121.46 33.2842 113.55C32.9742 105.64 39.1242 99 47.0342 98.7C54.9442 98.4 61.5738 104.54 61.8838 112.45C62.1838 120.36 56.0438 127 48.1338 127.3Z" fill="#263238"/>
<path d="M33.2741 112.76C33.2741 112.77 33.2741 112.78 33.2741 112.8C33.1541 120.7 39.4742 127.2 47.3742 127.31C55.2742 127.43 61.7743 121.11 61.8943 113.21C61.8943 113.2 61.8943 113.18 61.8943 113.17L33.2741 112.76Z" fill="#263238"/>
<path d="M37.5343 112.86C37.4543 118.41 41.8842 122.97 47.4342 123.05C52.9842 123.13 57.5441 118.7 57.6241 113.15C57.7041 107.6 53.2742 103.04 47.7242 102.96C42.1742 102.88 37.6143 107.31 37.5343 112.86Z" fill="#FAFAFA"/>
<path d="M47.7241 102.96C42.1741 102.88 37.6142 107.31 37.5342 112.86L57.624 113.15C57.704 107.6 53.2741 103.04 47.7241 102.96Z" fill="#E0E0E0"/>
<path d="M41.4641 112.91C41.4141 116.29 44.1143 119.07 47.4943 119.12C50.8743 119.17 53.6543 116.47 53.7043 113.09C53.7543 109.71 51.0443 106.93 47.6643 106.88C44.2943 106.83 41.5141 109.53 41.4641 112.91Z" fill="#263238"/>
<path d="M18.2642 58.6899H20.2041C21.3141 58.6899 22.2041 59.5799 22.2041 60.6899V70.9301C22.2041 72.0401 21.3141 72.9301 20.2041 72.9301H18.2642C17.1642 72.9301 16.2739 72.0401 16.2739 70.9301V60.6899C16.2739 59.5799 17.1642 58.6899 18.2642 58.6899Z" fill="#263238"/>
<path d="M13.814 81.73H13.5142V66.6801C13.5142 65.1801 14.7341 63.97 16.2241 63.97H16.9438V64.27H16.2241C14.8941 64.27 13.814 65.3501 13.814 66.6801V81.73Z" fill="#263238"/>
<path d="M15.8439 81.75L15.0143 67.67C14.9943 67.18 15.1643 66.71 15.4943 66.35C15.8343 65.99 16.2943 65.79 16.7843 65.79V66.09C16.3743 66.09 15.994 66.2601 15.714 66.5601C15.434 66.8501 15.2941 67.24 15.3141 67.65L16.1442 81.73L15.8439 81.75Z" fill="#263238"/>
<path d="M12.7642 80.37H16.7842V85.04H12.7642V80.37Z" fill="#263238"/>
<path d="M13.6641 71.53H15.3042V71.83H13.6641V71.53Z" fill="#263238"/>
<path d="M28.9541 50C28.9541 50 29.074 49.9799 29.314 49.9599C29.554 49.9299 29.9038 49.8899 30.3638 49.8299C31.2838 49.7199 32.6538 49.57 34.4238 49.36C37.9638 48.96 43.1042 48.37 49.5542 47.64C50.3542 47.55 51.1739 47.45 52.0239 47.37C52.4539 47.32 52.8942 47.3799 53.3242 47.4599C53.7542 47.5599 54.1742 47.71 54.5742 47.93C55.3542 48.36 56.0341 49.04 56.4541 49.88C56.6641 50.3 56.8238 50.76 56.8838 51.23C56.9338 51.47 56.9341 51.7099 56.9541 51.9499C56.9541 52.1899 56.9541 52.43 56.9541 52.67C56.9541 56.52 56.9541 60.66 56.9541 65.05C56.9641 73.82 56.9639 83.58 56.9639 94V94.0699H56.894C53.534 94.0699 50.084 94.0699 46.564 94.0699C44.814 94.0699 43.0341 94.0699 41.2441 94.0699C40.3441 94.0799 39.444 94.0499 38.564 94.1999C37.674 94.3099 36.8141 94.6 35.9741 94.92C33.3741 96.04 31.304 98.22 30.314 100.79C30.204 101.12 30.0539 101.43 29.9839 101.77C29.9039 102.1 29.7939 102.43 29.7539 102.77L29.6738 103.28L29.644 103.53L29.624 103.78L29.604 104.29L29.584 104.55V104.58C29.654 104.51 29.4939 104.68 29.5039 104.66H29.4941H29.4839H29.4141H29.2939C27.9239 104.66 26.5639 104.66 25.2139 104.66C19.8239 104.66 14.614 104.66 9.64404 104.66H9.57422V104.59C9.57422 100.09 9.57422 95.75 9.57422 91.6C9.57422 89.53 9.57398 87.51 9.58398 85.53C9.58398 84.55 9.58398 83.58 9.58398 82.62C9.58398 82.13 9.57398 81.66 9.58398 81.18C9.59398 80.71 9.63408 80.24 9.68408 79.77C9.91408 77.91 10.524 76.16 11.374 74.63C12.204 73.08 12.9942 71.59 13.7642 70.15C15.2942 67.28 16.7039 64.63 17.9839 62.22C19.2639 59.82 20.4138 57.67 21.4238 55.79C21.6738 55.32 21.914 54.86 22.144 54.43C22.264 54.21 22.3641 53.99 22.4941 53.79C22.6241 53.59 22.754 53.4 22.894 53.22C23.464 52.51 24.0941 51.96 24.7041 51.54C25.9441 50.7 27.0542 50.3699 27.8042 50.1899C28.5542 50.0199 28.9541 50 28.9541 50C28.9541 50 28.8641 50.02 28.6641 50.05C28.4741 50.08 28.184 50.1299 27.814 50.2099C27.064 50.3999 25.9539 50.7399 24.7339 51.5799C24.1339 51.9999 23.5038 52.55 22.9438 53.26C22.8038 53.43 22.6739 53.6199 22.5439 53.8199C22.4239 54.0199 22.3241 54.2399 22.2041 54.4599C21.9741 54.8999 21.7339 55.3499 21.4839 55.8199C20.4839 57.6999 19.344 59.86 18.064 62.27C16.794 64.67 15.384 67.3299 13.854 70.2099C13.094 71.6399 12.3039 73.14 11.4839 74.68C10.6339 76.21 10.034 77.94 9.81397 79.79C9.75397 80.25 9.72387 80.7199 9.71387 81.1899C9.70387 81.6599 9.7141 82.14 9.7041 82.62C9.7041 83.58 9.71387 84.55 9.71387 85.53C9.71387 87.51 9.71387 89.53 9.71387 91.6C9.71387 95.75 9.71387 100.09 9.71387 104.59L9.64404 104.51C14.614 104.51 19.8239 104.51 25.2139 104.51C26.5639 104.51 27.9239 104.51 29.2939 104.51H29.4141H29.4839H29.4941H29.5039C29.5239 104.49 29.3641 104.65 29.4341 104.58V104.55L29.4438 104.29L29.4741 103.77L29.4839 103.51L29.5239 103.26L29.604 102.74C29.644 102.4 29.754 102.06 29.834 101.73C29.904 101.38 30.0541 101.06 30.1641 100.73C31.1741 98.13 33.2741 95.91 35.9141 94.78C36.7641 94.45 37.6339 94.15 38.5439 94.05C39.4439 93.9 40.3541 93.92 41.2441 93.92C43.0341 93.92 44.814 93.92 46.564 93.92C50.084 93.92 53.534 93.92 56.894 93.92L56.814 94C56.824 83.58 56.8242 73.82 56.8242 65.05C56.8342 60.66 56.834 56.52 56.834 52.67C56.834 52.19 56.8539 51.71 56.7739 51.25C56.7139 50.79 56.554 50.34 56.354 49.93C55.944 49.11 55.2839 48.45 54.5239 48.02C54.1339 47.8 53.7242 47.66 53.3042 47.56C52.8842 47.48 52.4542 47.43 52.0342 47.47C51.1942 47.55 50.364 47.65 49.564 47.74C43.114 48.45 37.9638 49.02 34.4238 49.41C32.6538 49.61 31.2938 49.76 30.3638 49.86C29.9038 49.91 29.554 49.94 29.314 49.97C29.074 49.99 28.9541 50 28.9541 50Z" fill="#263238"/>
<path d="M52.2042 83C52.2042 82.99 52.2841 82.99 52.4341 82.96C52.5841 82.94 52.8043 82.88 53.0543 82.72C53.2843 82.56 53.5439 82.29 53.6739 81.91C53.7439 81.71 53.764 81.5 53.754 81.26C53.744 81.03 53.6943 80.7899 53.5743 80.5699C53.3443 80.1199 52.8342 79.75 52.2242 79.75C51.6142 79.75 50.954 79.75 50.254 79.75C48.864 79.76 47.3442 79.76 45.7442 79.76C45.3642 79.76 44.9839 79.91 44.7139 80.16C44.4339 80.41 44.2642 80.76 44.2242 81.12C44.1842 81.48 44.2341 81.84 44.4141 82.15C44.5841 82.45 44.8541 82.6801 45.1641 82.8101C45.4641 82.9501 45.7938 82.9301 46.1338 82.9301C46.4638 82.9301 46.774 82.9299 47.084 82.9399C47.704 82.9399 48.2743 82.9399 48.8043 82.9399C49.8443 82.9499 50.684 82.96 51.294 82.97C51.574 82.97 51.7939 82.98 51.9639 82.98C52.1239 82.99 52.2042 82.99 52.2042 83C52.2042 83 52.1239 83.01 51.9639 83.01C51.7939 83.02 51.574 83.02 51.294 83.03C50.684 83.03 49.8443 83.04 48.8043 83.05C48.2743 83.05 47.704 83.0601 47.084 83.0601C46.774 83.0601 46.4638 83.0599 46.1338 83.0699C45.9638 83.0599 45.8041 83.0701 45.6241 83.0601C45.4541 83.0501 45.2741 83.0099 45.1041 82.9399C44.7741 82.7999 44.4742 82.55 44.2842 82.22C44.0942 81.89 44.0343 81.48 44.0743 81.1C44.1143 80.71 44.3138 80.32 44.6138 80.05C44.9138 79.77 45.3242 79.61 45.7442 79.61C47.3442 79.61 48.864 79.61 50.254 79.61C50.954 79.62 51.6139 79.62 52.2339 79.62C52.8839 79.63 53.4241 80.04 53.6641 80.52C53.7941 80.76 53.8541 81.02 53.8541 81.26C53.8541 81.5 53.834 81.7301 53.754 81.9301C53.614 82.3401 53.334 82.61 53.084 82.77C52.824 82.93 52.5939 82.98 52.4439 82.99C52.2839 83.01 52.2042 83 52.2042 83Z" fill="#263238"/>
<path d="M51.6538 79.25C51.6538 79.29 50.5037 79.3199 49.0938 79.3199C47.6738 79.3199 46.5342 79.29 46.5342 79.25C46.5342 79.21 47.6738 79.17 49.0938 79.17C50.5037 79.17 51.6538 79.21 51.6538 79.25Z" fill="white"/>
<path d="M31.854 116.44L29.4639 116.27C30.0939 107.71 31.0042 102.59 32.2642 100.62C34.6742 96.8299 37.0739 96.1499 39.7339 95.6899C42.2039 95.2699 44.7038 95.3699 47.1138 95.4699L47.7041 95.4899C52.6841 95.6899 63.1141 95.51 63.2241 95.51L63.2642 97.9C63.1542 97.9 52.6538 98.07 47.6138 97.88L47.0142 97.8499C44.7242 97.7599 42.3638 97.67 40.1338 98.05C37.7638 98.45 36.1839 98.91 34.2739 101.9C33.7039 102.81 32.614 105.9 31.854 116.44Z" fill="#263238"/>
<path d="M64.4941 19H182.124V97.3199H64.4941V19Z" fill="#33B5FF"/>
<path d="M180.714 95.77C180.714 95.27 180.684 66.54 180.654 20.77L180.714 20.83C149.194 20.83 109.184 20.84 65.7642 20.85H65.7539L65.834 20.77C65.824 47.43 65.8242 72.8 65.8242 95.77L65.7539 95.7C133.384 95.74 180.074 95.77 180.714 95.77C180.074 95.77 133.384 95.8 65.7539 95.84H65.6841V95.77C65.6841 72.8 65.6738 47.43 65.6738 20.77V20.6899H65.7539H65.7642C109.184 20.6999 149.194 20.7 180.714 20.71H180.774V20.77C180.734 66.54 180.714 95.27 180.714 95.77Z" fill="#263238"/>
<path d="M47.7642 56.0899C47.7642 56.0899 47.7238 56.12 47.6538 56.18C47.5638 56.24 47.4542 56.32 47.3242 56.42C47.0342 56.62 46.6137 56.91 46.0938 57.26C45.0538 57.97 43.6039 58.9299 41.9839 59.9599C40.3639 60.9999 38.884 61.9199 37.814 62.5699C37.274 62.8999 36.8342 63.1599 36.5342 63.3299C36.3942 63.4099 36.2738 63.48 36.1738 63.53C36.0938 63.58 36.0539 63.6 36.0439 63.6C36.0439 63.59 36.0841 63.56 36.1641 63.51C36.2541 63.45 36.3641 63.37 36.4941 63.28C36.8141 63.08 37.2339 62.81 37.7539 62.48C38.8339 61.79 40.2938 60.8599 41.9038 59.8299C43.5038 58.7999 44.9542 57.86 46.0342 57.17C46.5442 56.84 46.9739 56.57 47.2939 56.37C47.4239 56.28 47.5438 56.21 47.6338 56.15C47.7138 56.11 47.7542 56.0799 47.7642 56.0899Z" fill="#FAFAFA"/>
<path d="M42.6738 57.44C42.6738 57.44 42.634 57.4701 42.564 57.5301C42.474 57.5901 42.3639 57.6701 42.2339 57.7701C41.9439 57.9701 41.5239 58.26 41.0039 58.61C39.9639 59.32 38.514 60.2801 36.894 61.3101C35.274 62.3501 33.7941 63.2701 32.7241 63.9201C32.1841 64.2501 31.7441 64.5101 31.4341 64.6801C31.2941 64.7601 31.184 64.8301 31.084 64.8801C31.004 64.9301 30.9641 64.95 30.9541 64.94C30.9541 64.94 30.994 64.91 31.064 64.86C31.164 64.79 31.2738 64.7201 31.4038 64.6301C31.7238 64.4301 32.1441 64.16 32.6641 63.83C33.7441 63.14 35.1942 62.2101 36.8042 61.1801C38.4142 60.1501 39.8638 59.2101 40.9438 58.5201C41.4538 58.1901 41.8838 57.92 42.1938 57.71C42.3338 57.63 42.4439 57.5601 42.5439 57.5001C42.6239 57.4501 42.6638 57.43 42.6738 57.44Z" fill="#FAFAFA"/>
<path d="M17.5341 66.13C17.5241 66.13 17.4938 66.04 17.4438 65.87C17.3938 65.69 17.3238 65.44 17.2538 65.13C17.1138 64.51 16.9338 63.64 16.9438 62.66C16.9438 61.67 17.1938 60.7899 17.5038 60.2299C17.6638 59.9399 17.814 59.7299 17.934 59.5899C18.044 59.4599 18.1237 59.39 18.1337 59.4C18.1537 59.42 17.8739 59.71 17.6039 60.27C17.3339 60.84 17.1037 61.7 17.0937 62.66C17.0837 63.62 17.2437 64.49 17.3637 65.11C17.4837 65.74 17.5541 66.12 17.5341 66.13Z" fill="#FAFAFA"/>
<path d="M5.38379 87.29C5.37379 87.29 5.36377 87.18 5.36377 86.96C5.36377 86.75 5.37379 86.44 5.38379 86.05C5.41379 85.29 5.4642 84.2301 5.5542 83.0601C5.6542 81.8901 5.764 80.84 5.854 80.08C5.904 79.7 5.94389 79.3901 5.98389 79.1801C6.01389 78.9701 6.0342 78.85 6.0542 78.85C6.0642 78.85 6.05395 78.9699 6.04395 79.1899L5.96387 80.09C5.89387 80.89 5.81387 81.9299 5.71387 83.0699C5.63387 84.2199 5.55414 85.2601 5.49414 86.0601C5.47414 86.4101 5.44383 86.72 5.42383 86.96C5.41383 87.18 5.39379 87.3 5.38379 87.29Z" fill="#FAFAFA"/>
<path d="M38.0939 93.0899C38.1039 93.1199 37.5241 93.21 36.6241 93.49C36.1841 93.63 35.6641 93.84 35.1041 94.11C34.5541 94.39 33.9639 94.74 33.3839 95.16C32.8139 95.58 32.3041 96.04 31.8741 96.49C31.4441 96.94 31.0943 97.37 30.8243 97.76C30.2843 98.52 30.034 99.05 30.004 99.04C29.994 99.03 30.0542 98.9 30.1642 98.66C30.2242 98.54 30.2941 98.4 30.3941 98.24C30.4941 98.07 30.594 97.8899 30.734 97.6899C30.994 97.2999 31.3443 96.85 31.7643 96.39C32.2043 95.93 32.714 95.46 33.294 95.03C33.874 94.61 34.474 94.26 35.044 93.98C35.614 93.72 36.1339 93.52 36.5939 93.39C36.8239 93.31 37.034 93.27 37.214 93.23C37.394 93.18 37.5542 93.16 37.6842 93.14C37.9542 93.1 38.0939 93.0799 38.0939 93.0899Z" fill="#FAFAFA"/>
<path d="M67.4941 75.0699C67.4941 75.0699 67.4941 75.0199 67.4941 74.9399C67.4841 74.8499 67.4839 74.7201 67.4839 74.5601C67.4739 74.2201 67.4739 73.74 67.4639 73.11C67.4439 71.85 67.4138 70.03 67.3838 67.79C67.3038 63.28 67.1942 57.07 67.0742 50.22C66.9442 43.35 66.8442 37.14 66.8042 32.64C66.7842 30.39 66.7739 28.5699 66.7739 27.3199C66.7839 26.6899 66.7842 26.21 66.7842 25.87L66.7939 25.49C66.7939 25.41 66.8042 25.36 66.8042 25.36C66.8042 25.36 66.804 25.41 66.814 25.49C66.814 25.58 66.8142 25.71 66.8242 25.87C66.8242 26.21 66.8338 26.6899 66.8438 27.3199C66.8537 28.5799 66.8841 30.4 66.9141 32.64C66.9941 37.15 67.1041 43.35 67.2241 50.21C67.3541 57.08 67.4541 63.29 67.4941 67.79C67.5141 70.03 67.5239 71.85 67.5239 73.11C67.5139 73.74 67.5142 74.2201 67.5142 74.5601C67.5142 74.7201 67.5039 74.8499 67.5039 74.9399C67.5039 75.0199 67.5041 75.0699 67.4941 75.0699Z" fill="#FAFAFA"/>
<path d="M153.874 127.3C145.964 127.62 139.314 121.48 139.004 113.57C138.684 105.66 144.824 99.02 152.734 98.7C160.644 98.39 167.284 104.52 167.604 112.43C167.914 120.34 161.784 126.99 153.874 127.3Z" fill="#263238"/>
<path d="M138.994 112.76C138.994 112.77 138.994 112.78 138.994 112.8C138.874 120.7 145.194 127.2 153.094 127.31C161.004 127.43 167.494 121.11 167.614 113.21C167.614 113.2 167.614 113.18 167.614 113.17L138.994 112.76Z" fill="#263238"/>
<path d="M143.254 112.86C143.174 118.41 147.614 122.97 153.154 123.05C158.704 123.13 163.274 118.7 163.354 113.15C163.434 107.6 158.994 103.04 153.444 102.96C147.894 102.88 143.334 107.31 143.254 112.86Z" fill="#FAFAFA"/>
<path d="M153.444 102.96C147.894 102.88 143.334 107.31 143.254 112.86L163.354 113.15C163.434 107.6 158.994 103.04 153.444 102.96Z" fill="#E0E0E0"/>
<path d="M147.184 112.91C147.134 116.29 149.834 119.07 153.214 119.12C156.594 119.17 159.374 116.47 159.424 113.09C159.474 109.71 156.774 106.93 153.394 106.88C150.014 106.83 147.234 109.53 147.184 112.91Z" fill="#263238"/>
<path d="M134.484 116.92C134.484 116.92 132.304 96.63 153.344 96.63C172.754 96.63 172.324 114.09 172.144 116.79H169.094C169.094 116.79 170.644 99.58 153.344 99.58C136.044 99.58 137.554 117.14 137.554 117.14C137.554 117.14 136.274 117.07 134.484 116.92Z" fill="#455A64"/>
<path d="M145.754 98.72C145.754 98.73 145.704 98.75 145.594 98.78C145.484 98.82 145.324 98.8601 145.114 98.9301C144.704 99.0601 144.104 99.27 143.404 99.6C142.004 100.24 140.154 101.42 138.634 103.23C137.104 105.05 136.264 107.07 135.874 108.56C135.674 109.31 135.574 109.93 135.514 110.36C135.474 110.58 135.464 110.75 135.454 110.86C135.434 110.97 135.424 111.03 135.424 111.03C135.414 111.03 135.414 110.97 135.414 110.86C135.424 110.74 135.424 110.57 135.454 110.36C135.494 109.92 135.584 109.3 135.764 108.54C136.134 107.03 136.974 104.97 138.514 103.13C140.054 101.3 141.934 100.12 143.354 99.5C144.074 99.18 144.674 98.99 145.094 98.87C145.304 98.81 145.474 98.78 145.584 98.75C145.694 98.73 145.754 98.72 145.754 98.72Z" fill="#FAFAFA"/>
<g opacity="0.698">
<path opacity="0.698" fill-rule="evenodd" clip-rule="evenodd" d="M122.004 59.91C122.004 60.32 121.674 60.65 121.264 60.65C121.214 60.65 121.164 60.64 121.124 60.63L119.934 64.36C119.994 64.44 120.024 64.55 120.024 64.66C120.024 64.94 119.794 65.17 119.514 65.17C119.504 65.17 119.504 65.17 119.504 65.17L118.074 67.09C118.084 67.13 118.094 67.17 118.094 67.21C118.094 67.43 117.914 67.61 117.694 67.61C117.664 67.61 117.634 67.61 117.604 67.6L114.294 70.02C114.304 70.06 114.314 70.11 114.314 70.15C114.314 70.43 114.084 70.66 113.804 70.66C113.644 70.66 113.514 70.59 113.414 70.49L110.104 71.5601C110.114 71.5701 110.114 71.59 110.114 71.6C110.114 71.89 109.884 72.12 109.604 72.12C109.354 72.12 109.154 71.95 109.104 71.72L106.644 71.73C106.594 72.09 106.284 72.36 105.914 72.36C105.514 72.36 105.184 72.03 105.184 71.62C105.184 71.57 105.184 71.53 105.194 71.48L102.114 70.48C102.014 70.59 101.884 70.66 101.724 70.66C101.444 70.66 101.214 70.43 101.214 70.15C101.214 70.11 101.214 70.07 101.224 70.03L97.854 67.55C97.844 67.55 97.844 67.55 97.834 67.55C97.644 67.55 97.4941 67.4 97.4941 67.21C97.4941 67.19 97.4939 67.17 97.5039 67.15L96.0239 65.17H96.0142C95.7342 65.17 95.5039 64.94 95.5039 64.66C95.5039 64.55 95.5338 64.45 95.5938 64.37L94.3838 60.5601C94.3438 60.5701 94.3139 60.5699 94.2739 60.5699C93.8739 60.5699 93.5439 60.24 93.5439 59.84C93.5439 59.46 93.8241 59.15 94.1841 59.11L94.4141 55.04C94.1841 54.99 94.0142 54.79 94.0142 54.54C94.0142 54.26 94.2442 54.03 94.5342 54.03C94.5442 54.03 94.5442 54.03 94.5542 54.03L95.4839 52.11C95.4039 52.05 95.354 51.95 95.354 51.84C95.354 51.66 95.5041 51.51 95.6841 51.51C95.7341 51.51 95.774 51.52 95.814 51.53L97.1538 49.47C97.0438 49.38 96.9639 49.2299 96.9639 49.0699C96.9639 48.7899 97.1941 48.5601 97.4741 48.5601C97.6141 48.5601 97.7342 48.6099 97.8242 48.6899L99.7842 47.03C99.7542 46.98 99.7339 46.92 99.7339 46.86C99.7339 46.67 99.8842 46.52 100.074 46.52C100.184 46.52 100.274 46.58 100.334 46.66L103.294 45.17C103.274 45.12 103.264 45.08 103.264 45.02C103.264 44.84 103.414 44.6899 103.594 44.6899C103.754 44.6899 103.884 44.7999 103.924 44.9399L106.674 44.42C106.714 44.04 107.024 43.75 107.404 43.75C107.814 43.75 108.144 44.08 108.144 44.49L111.594 44.96C111.624 44.81 111.764 44.6899 111.924 44.6899C112.114 44.6899 112.264 44.84 112.264 45.02C112.264 45.07 112.254 45.12 112.234 45.17L115.184 46.66C115.244 46.58 115.344 46.52 115.454 46.52C115.644 46.52 115.794 46.67 115.794 46.86C115.794 46.92 115.774 46.98 115.744 47.03L117.694 48.7C117.784 48.61 117.914 48.5601 118.044 48.5601C118.334 48.5601 118.564 48.7899 118.564 49.0699C118.564 49.2299 118.484 49.37 118.374 49.47L119.714 51.53C119.754 51.52 119.794 51.51 119.844 51.51C120.024 51.51 120.174 51.66 120.174 51.84C120.174 51.95 120.124 52.05 120.044 52.11L120.964 54.03C120.974 54.03 120.984 54.03 120.994 54.03C121.274 54.03 121.504 54.26 121.504 54.54C121.504 54.79 121.344 54.99 121.114 55.04L121.344 59.1801C121.714 59.2201 122.004 59.53 122.004 59.91ZM118.944 53.86C119.544 54.02 120.144 54.18 120.554 54.29C120.584 54.23 120.624 54.19 120.674 54.15L119.824 52.1801C119.814 52.1801 119.814 52.1801 119.804 52.1801C119.634 52.5101 119.304 53.16 118.944 53.86ZM118.994 64.66C118.994 64.59 119.014 64.53 119.034 64.47L116.984 62.92L117.354 64.87L119.004 64.67L118.994 64.66ZM114.634 64.78C114.724 64.78 114.814 64.81 114.884 64.85L116.414 62.78C116.364 62.72 116.334 62.64 116.334 62.55C116.334 62.34 116.514 62.17 116.724 62.17L117.544 59.47C117.424 59.41 117.334 59.28 117.334 59.13C117.334 58.96 117.454 58.81 117.614 58.76L117.494 56.53C117.354 56.49 117.244 56.36 117.244 56.21C117.244 56.1 117.304 55.9999 117.384 55.9399L116.744 53.83C116.704 53.83 116.664 53.84 116.634 53.84C116.344 53.84 116.114 53.61 116.114 53.33C116.114 53.19 116.174 53.07 116.254 52.97L114.124 50.45C114.104 50.45 114.074 50.45 114.054 50.45C113.874 50.45 113.724 50.3 113.724 50.12C113.724 50.11 113.724 50.11 113.724 50.11L109.434 48.29C109.364 48.38 109.254 48.4399 109.124 48.4399C108.954 48.4399 108.814 48.3399 108.754 48.1899H106.774C106.714 48.3399 106.564 48.4399 106.394 48.4399C106.274 48.4399 106.164 48.38 106.084 48.29L101.944 50.05C101.944 50.08 101.944 50.11 101.944 50.13C101.944 50.42 101.714 50.65 101.434 50.65C101.374 50.65 101.314 50.64 101.264 50.62L99.0742 53.21C99.0842 53.25 99.0938 53.29 99.0938 53.33C99.0938 53.5 98.984 53.63 98.834 53.66L98.1938 55.76C98.3338 55.85 98.4238 56.0099 98.4238 56.1899C98.4238 56.4399 98.2539 56.6399 98.0239 56.6899L97.9141 58.76C98.0741 58.81 98.1841 58.96 98.1841 59.13C98.1841 59.28 98.1039 59.41 97.9839 59.47L98.7939 62.17H98.8042C99.0142 62.17 99.1841 62.34 99.1841 62.55C99.1841 62.64 99.154 62.72 99.104 62.78L100.634 64.85C100.714 64.81 100.794 64.78 100.884 64.78C101.174 64.78 101.404 65.01 101.404 65.29C101.404 65.38 101.384 65.45 101.344 65.52L103.654 66.99C103.714 66.91 103.814 66.86 103.924 66.86C104.114 66.86 104.264 67.0099 104.264 67.1899C104.264 67.2099 104.264 67.22 104.254 67.24L106.984 67.79C107.024 67.54 107.234 67.35 107.494 67.35C107.744 67.35 107.964 67.54 107.994 67.79L111.264 67.22C111.264 67.21 111.264 67.1999 111.264 67.1899C111.264 67.0099 111.414 66.86 111.604 66.86C111.714 66.86 111.804 66.91 111.874 66.99L114.174 65.52C114.144 65.45 114.124 65.38 114.124 65.29C114.124 65.01 114.354 64.78 114.634 64.78ZM114.314 65.6899L111.994 67.16H114.214L114.464 65.78C114.414 65.76 114.364 65.7299 114.314 65.6899ZM111.364 67.4301L107.984 68.02C107.974 68.02 107.974 68.03 107.974 68.04L110.684 68.99L111.414 67.48C111.394 67.46 111.374 67.4501 111.364 67.4301ZM104.164 67.4301C104.144 67.4501 104.124 67.46 104.114 67.48L104.794 68.88L106.994 68.02L104.164 67.4301ZM101.214 65.6899C101.164 65.7299 101.114 65.76 101.064 65.78L101.314 67.16H103.514L101.214 65.6899ZM96.5239 64.66V64.67L98.1641 64.87L98.5439 62.92L96.4941 64.47C96.5141 64.53 96.5239 64.59 96.5239 64.66ZM95.0439 54.54C95.0439 54.66 95.0038 54.76 94.9438 54.85L96.6641 57.3199L97.4941 56.48C97.4341 56.4 97.4038 56.2999 97.4038 56.1899C97.4038 56.0399 97.4742 55.9001 97.5742 55.8101C97.3442 55.3601 97.0141 54.7001 96.6841 54.0601C96.1041 54.2101 95.5039 54.37 95.0439 54.49C95.0439 54.51 95.0439 54.53 95.0439 54.54ZM97.9141 55.6801C97.9441 55.6801 97.9639 55.6801 97.9839 55.6801L98.6138 53.64C98.5838 53.62 98.5542 53.6 98.5342 53.58C98.1742 53.67 97.554 53.83 96.894 54.01C97.214 54.63 97.5442 55.26 97.7642 55.7C97.8142 55.69 97.8641 55.6801 97.9141 55.6801ZM97.6538 56.63L96.7842 57.5L97.6641 58.77C97.6741 58.77 97.6838 58.77 97.6938 58.76L97.8042 56.6899C97.7542 56.6799 97.7038 56.66 97.6538 56.63ZM96.6338 57.66L94.8838 59.4301C94.9338 59.5001 94.9639 59.57 94.9839 59.66L97.4141 59.15C97.4141 59.14 97.4141 59.14 97.4141 59.13C97.4141 59.04 97.4441 58.97 97.4941 58.9L96.6338 57.66ZM94.9238 60.1801L96.9341 61.39L97.5742 59.45C97.5442 59.42 97.5139 59.39 97.4839 59.36L95.0142 59.87C95.0042 59.99 94.9738 60.0901 94.9238 60.1801ZM97.124 61.5L98.4941 62.3199C98.5141 62.2899 98.554 62.25 98.584 62.23L97.7739 59.54L97.124 61.5ZM98.3838 64.89L100.404 65.13C100.424 65.08 100.444 65.03 100.474 64.99L98.9341 62.91C98.8941 62.93 98.8542 62.9399 98.8042 62.9399C98.7842 62.9399 98.7742 62.9401 98.7642 62.9301L98.3838 64.89ZM98.8438 53.01C98.8737 53.02 98.9038 53.03 98.9238 53.04L101.074 50.5C101.064 50.49 101.054 50.48 101.044 50.47L98.3042 51.24L98.8438 53.01ZM101.864 49.85L105.934 48.12L102.684 47.5L101.744 49.73C101.794 49.76 101.834 49.8 101.864 49.85ZM113.794 49.91C113.804 49.89 113.824 49.87 113.834 49.86L112.844 47.5L109.594 48.12L113.794 49.91ZM116.424 52.85C116.494 52.83 116.554 52.8101 116.634 52.8101C116.664 52.8101 116.704 52.8199 116.734 52.8199L117.224 51.24L114.404 50.45L116.424 52.85ZM118.624 54.01C118.004 53.84 117.434 53.69 117.064 53.6C117.034 53.65 116.994 53.69 116.944 53.73L117.594 55.87C117.614 55.87 117.644 55.88 117.664 55.88C117.884 55.45 118.264 54.73 118.624 54.01ZM117.714 56.52L117.834 58.76C117.844 58.77 117.854 58.77 117.854 58.77L118.734 57.5L117.744 56.5C117.734 56.51 117.724 56.51 117.714 56.52ZM115.044 64.99C115.084 65.03 115.104 65.08 115.124 65.13L117.144 64.89L116.764 62.9301C116.754 62.9401 116.734 62.9399 116.724 62.9399C116.674 62.9399 116.634 62.93 116.594 62.91L115.044 64.99ZM117.034 62.3199L118.404 61.5L117.754 59.54L116.934 62.23C116.974 62.25 117.004 62.2799 117.034 62.3199ZM118.594 61.39L120.584 60.1899C120.554 60.1099 120.534 60.01 120.534 59.91C120.534 59.9 120.534 59.89 120.534 59.88L118.044 59.36C118.014 59.39 117.984 59.42 117.954 59.45L118.594 61.39ZM120.684 59.47L118.894 57.66L118.034 58.9C118.084 58.97 118.114 59.04 118.114 59.13C118.114 59.14 118.114 59.14 118.114 59.15L120.574 59.66C120.604 59.59 120.634 59.53 120.684 59.47ZM120.584 54.85C120.514 54.76 120.484 54.66 120.484 54.54C120.484 54.53 120.484 54.51 120.484 54.49C120.024 54.37 119.424 54.2101 118.844 54.0601C118.464 54.8001 118.074 55.56 117.844 56C117.894 56.06 117.924 56.13 117.924 56.21C117.924 56.26 117.914 56.3 117.894 56.34L118.864 57.3199L120.584 54.85ZM119.604 52.08C119.554 52.03 119.514 51.96 119.504 51.88L117.434 51.3L116.934 52.92C117.064 53.01 117.144 53.16 117.144 53.33C117.144 53.35 117.144 53.37 117.134 53.39C117.524 53.49 118.114 53.6401 118.734 53.8101C119.094 53.1001 119.434 52.42 119.604 52.08ZM117.964 49.58L117.504 51.09L119.534 51.66L118.174 49.5699C118.134 49.5799 118.094 49.58 118.044 49.58C118.024 49.58 117.994 49.58 117.964 49.58ZM117.584 49.28L114.414 50.22L117.294 51.03L117.764 49.5C117.684 49.44 117.624 49.37 117.584 49.28ZM114.254 49.84C114.304 49.88 114.354 49.94 114.374 50.01L117.534 49.0601C117.534 49.0001 117.544 48.93 117.574 48.87L115.574 47.17C115.534 47.19 115.494 47.2 115.454 47.2C115.444 47.2 115.424 47.1899 115.414 47.1899L114.254 49.84ZM115.184 47.05L113.064 47.46L114.044 49.78L115.214 47.09C115.204 47.08 115.194 47.07 115.184 47.05ZM112.194 45.39L112.974 47.25L115.084 46.85L112.194 45.39ZM109.454 47.8199C109.474 47.8499 109.494 47.88 109.504 47.92L112.754 47.29L111.944 45.36C111.934 45.36 111.934 45.36 111.924 45.36C111.884 45.36 111.844 45.35 111.804 45.33C111.304 45.86 110.064 47.1799 109.454 47.8199ZM107.854 45.0699C108.174 45.8199 108.694 46.99 109.044 47.65C109.074 47.65 109.094 47.64 109.124 47.64C109.184 47.64 109.244 47.6601 109.294 47.6801C109.884 47.0501 111.134 45.7199 111.634 45.1899V45.1801L108.114 44.7C108.064 44.85 107.974 44.9799 107.854 45.0699ZM107.314 45.21C107.114 45.91 106.804 47 106.604 47.7C106.704 47.76 106.774 47.86 106.794 47.97H108.734C108.754 47.89 108.794 47.81 108.854 47.75C108.504 47.08 107.984 45.9301 107.664 45.1801C107.584 45.2001 107.494 45.22 107.404 45.22C107.374 45.22 107.344 45.22 107.314 45.21ZM103.884 45.1899C104.384 45.7199 105.644 47.0501 106.234 47.6801C106.284 47.6601 106.334 47.64 106.394 47.64C106.594 46.94 106.904 45.85 107.104 45.16C106.894 45.06 106.734 44.87 106.684 44.64L103.904 45.17C103.894 45.18 103.894 45.1799 103.884 45.1899ZM102.764 47.29L106.024 47.92C106.034 47.88 106.044 47.8499 106.064 47.8199C105.464 47.1799 104.224 45.86 103.724 45.33C103.684 45.35 103.644 45.36 103.594 45.36H103.584L102.764 47.29ZM100.444 46.85L102.544 47.25L103.334 45.39L100.444 46.85ZM100.314 47.09L101.414 49.62C101.424 49.62 101.424 49.62 101.434 49.62C101.474 49.62 101.514 49.63 101.544 49.63L102.464 47.46L100.344 47.05C100.334 47.07 100.324 47.08 100.314 47.09ZM97.9541 48.87C97.9741 48.93 97.9941 49.0001 97.9941 49.0601L100.954 49.95C101.004 49.83 101.094 49.7301 101.204 49.6801L100.114 47.1899C100.104 47.1899 100.084 47.2 100.074 47.2C100.024 47.2 99.9838 47.19 99.9438 47.17L97.9541 48.87ZM97.7642 49.5L98.2339 51.03L100.944 50.27C100.934 50.24 100.924 50.2 100.924 50.17L97.9438 49.28C97.9038 49.37 97.8442 49.44 97.7642 49.5ZM95.9941 51.66L98.0239 51.09L97.5542 49.58C97.5342 49.58 97.5041 49.58 97.4741 49.58C97.4341 49.58 97.394 49.5799 97.354 49.5699L95.9941 51.66ZM95.9238 52.08C96.0938 52.42 96.4339 53.1001 96.7939 53.8101C97.4339 53.6401 98.0438 53.48 98.4238 53.38C98.4238 53.37 98.4238 53.35 98.4238 53.33C98.4238 53.2 98.504 53.08 98.624 53.03L98.0938 51.3L96.0239 51.88C96.0139 51.96 95.9738 52.03 95.9238 52.08ZM94.854 54.15C94.904 54.19 94.9441 54.23 94.9741 54.29C95.3841 54.18 95.984 54.02 96.584 53.86C96.224 53.16 95.8941 52.5101 95.7241 52.1801C95.7141 52.1801 95.7041 52.1801 95.7041 52.1801L94.854 54.15ZM94.4038 59.11C94.5338 59.14 94.6439 59.19 94.7339 59.27L96.5039 57.48L94.7739 54.99C94.7339 55.02 94.6838 55.04 94.6338 55.05L94.4038 59.11ZM96.8638 61.6L94.7939 60.36C94.7339 60.42 94.6638 60.46 94.5938 60.5L95.7739 64.21C95.8439 64.17 95.9242 64.14 96.0142 64.14H96.0239L96.8638 61.6ZM96.2339 64.2C96.2839 64.22 96.334 64.25 96.374 64.29L98.4541 62.72C98.4241 62.67 98.4141 62.61 98.4141 62.55C98.4141 62.55 98.4141 62.54 98.4141 62.53L97.0542 61.72L96.2339 64.2ZM98.124 65.08L96.4741 64.89C96.4241 64.98 96.3439 65.06 96.2539 65.11L97.624 66.95C97.664 66.92 97.7242 66.89 97.7842 66.88L98.124 65.08ZM98.1641 67.16H101.094L100.844 65.8C100.594 65.78 100.404 65.59 100.384 65.35L98.3438 65.11L97.9941 66.92C98.0841 66.97 98.1441 67.06 98.1641 67.16ZM101.544 69.67L101.134 67.38H98.124C98.104 67.4 98.0942 67.4199 98.0742 67.4399L101.324 69.83C101.384 69.76 101.454 69.7 101.544 69.67ZM101.914 69.67L103.674 67.41C103.664 67.4 103.654 67.39 103.644 67.38H101.354L101.764 69.64C101.814 69.64 101.864 69.65 101.914 69.67ZM102.174 69.91L104.584 68.96L103.894 67.53C103.884 67.53 103.874 67.53 103.864 67.52L102.094 69.79C102.124 69.83 102.154 69.86 102.174 69.91ZM105.564 70.98L104.684 69.16L102.234 70.12C102.234 70.13 102.234 70.14 102.234 70.15C102.234 70.2 102.224 70.25 102.214 70.29L105.274 71.28C105.334 71.15 105.444 71.05 105.564 70.98ZM106.104 70.91L107.194 68.29C107.164 68.27 107.134 68.24 107.114 68.21L104.884 69.08L105.774 70.9C105.824 70.89 105.864 70.89 105.914 70.89C105.984 70.89 106.044 70.9 106.104 70.91ZM109.254 71.22L107.634 68.36C107.584 68.37 107.544 68.38 107.494 68.38C107.454 68.38 107.434 68.38 107.404 68.37L106.304 71C106.484 71.11 106.604 71.29 106.644 71.51L109.094 71.5C109.114 71.39 109.174 71.3 109.254 71.22ZM109.654 71.1L110.584 69.1801L107.854 68.23C107.844 68.24 107.834 68.25 107.824 68.25L109.444 71.12C109.494 71.1 109.544 71.09 109.604 71.09C109.624 71.09 109.634 71.09 109.654 71.1ZM113.314 70.29C113.294 70.25 113.284 70.2 113.284 70.15C113.284 70.14 113.284 70.14 113.284 70.13L110.794 69.26L109.864 71.17C109.944 71.21 110.004 71.27 110.044 71.35L113.314 70.29ZM113.434 69.79L111.664 67.52C111.654 67.53 111.644 67.53 111.634 67.53L110.894 69.0601L113.344 69.92C113.364 69.87 113.394 69.83 113.434 69.79ZM114.174 67.38H111.884C111.874 67.39 111.864 67.4 111.854 67.41L113.614 69.67C113.654 69.65 113.714 69.64 113.764 69.64L114.174 67.38ZM117.394 67.48C117.374 67.45 117.344 67.42 117.334 67.38H114.394L113.974 69.67C114.064 69.7 114.144 69.76 114.204 69.83L117.394 67.48ZM117.514 66.85L117.184 65.11L115.144 65.35C115.124 65.59 114.924 65.78 114.684 65.8L114.434 67.16H117.294C117.314 67.03 117.404 66.91 117.514 66.85ZM119.274 65.11C119.184 65.06 119.104 64.98 119.054 64.89L117.394 65.08L117.734 66.8199C117.814 66.8199 117.884 66.85 117.944 66.9L119.274 65.11ZM119.294 64.2L118.474 61.72L117.114 62.53C117.114 62.54 117.114 62.55 117.114 62.55C117.114 62.61 117.094 62.67 117.074 62.72L119.154 64.29C119.194 64.25 119.244 64.22 119.294 64.2ZM120.914 60.55C120.834 60.51 120.764 60.45 120.704 60.38L118.664 61.6L119.504 64.14C119.504 64.14 119.504 64.14 119.514 64.14C119.604 64.14 119.684 64.17 119.754 64.21L120.914 60.55ZM121.124 59.1899L120.894 55.05C120.844 55.04 120.794 55.02 120.744 54.99L119.024 57.48L120.834 59.3199C120.924 59.2499 121.014 59.2099 121.124 59.1899Z" fill="white"/>
<g opacity="0.698">
<path opacity="0.698" d="M112.684 59.24C112.684 60.02 112.694 60.8099 112.684 61.5899C112.684 62.0999 112.454 62.38 112.094 62.38C111.744 62.37 111.524 62.0899 111.524 61.5799C111.514 60.0399 111.534 58.4999 111.514 56.9599C111.504 55.6299 110.534 54.74 109.224 54.79C108.144 54.84 107.264 55.73 107.224 56.89C107.184 58.14 107.214 59.39 107.214 60.64C107.214 61 107.364 61.29 107.754 61.3C108.184 61.31 108.334 61 108.334 60.62C108.344 59.39 108.334 58.15 108.344 56.92C108.344 56.76 108.334 56.5999 108.354 56.4399C108.394 56.1299 108.554 55.92 108.874 55.9C109.214 55.89 109.424 56.09 109.484 56.4C109.524 56.65 109.514 56.91 109.514 57.17C109.514 58.33 109.514 59.48 109.504 60.64C109.494 61.67 108.824 62.42 107.854 62.48C106.974 62.54 106.124 61.8299 106.074 60.8299C106.004 59.3699 105.934 57.8999 106.124 56.4499C106.344 54.7099 107.824 53.54 109.614 53.63C111.244 53.71 112.634 55.1499 112.684 56.8299C112.704 57.6299 112.684 58.43 112.684 59.24Z" fill="white"/>
<path opacity="0.698" d="M102.864 59.04C102.914 58.24 102.754 57.26 102.944 56.29C103.154 55.21 103.794 54.4399 104.764 53.9399C104.944 53.8499 105.144 53.78 105.344 53.74C105.684 53.67 105.964 53.77 106.074 54.12C106.174 54.46 105.994 54.7 105.694 54.81C104.404 55.26 103.964 56.19 104.014 57.5C104.074 58.85 104.034 60.2 104.034 61.54C104.024 62.09 103.824 62.38 103.454 62.38C103.104 62.37 102.864 62.04 102.864 61.53C102.854 60.76 102.864 59.99 102.864 59.04Z" fill="white"/>
</g>
<path opacity="0.698" d="M125.214 63.5V55.66H126.794L128.794 61L130.804 55.66H132.384V63.5H131.354V56.62L129.334 61.99H128.264L126.244 56.62V63.5H125.214ZM138.554 60.61L137.114 56.71L135.674 60.61H138.554ZM133.524 63.5L136.514 55.66H137.714L140.704 63.5H139.604L138.884 61.49H135.354L134.644 63.5H133.524ZM145.564 59.83C145.791 59.9033 146.011 60.0666 146.224 60.3199C146.444 60.5733 146.661 60.92 146.874 61.36L147.954 63.5H146.814L145.814 61.49C145.554 60.9633 145.301 60.6166 145.054 60.45C144.814 60.2766 144.484 60.1899 144.064 60.1899H142.904V63.5H141.844V55.66H144.244C145.137 55.66 145.804 55.8466 146.244 56.22C146.684 56.6 146.904 57.1667 146.904 57.92C146.904 58.4134 146.791 58.8234 146.564 59.15C146.337 59.4767 146.004 59.7033 145.564 59.83ZM144.244 56.53H142.904V59.3199H144.244C144.751 59.3199 145.134 59.2 145.394 58.96C145.661 58.7266 145.794 58.38 145.794 57.92C145.794 57.46 145.661 57.1167 145.394 56.89C145.134 56.65 144.751 56.53 144.244 56.53ZM149.314 63.5V55.66H150.374V58.98L153.894 55.66H155.254L151.374 59.3199L155.534 63.5H154.144L150.374 59.73V63.5H149.314ZM154.444 56.5601V55.66H161.074V56.5601H158.294V63.5H157.224V56.5601H154.444Z" fill="white"/>
</g>
<path d="M197.424 119.38L199.974 123.21L201.114 126.82C201.194 127.08 201.484 127.21 201.734 127.11C201.884 127.06 201.984 126.94 202.024 126.79C202.254 125.85 203.094 122.37 202.894 122.1C202.654 121.79 200.474 117.89 200.474 117.89L197.424 119.38Z" fill="#455A64"/>
<g opacity="0.6">
<g opacity="0.6">
<g opacity="0.6">
<g opacity="0.6">
<path opacity="0.6" d="M201.734 127.11L202.724 121.84L202.834 122C202.924 122.15 202.954 122.32 202.934 122.48C202.874 122.93 202.674 124.16 202.034 126.78C201.994 126.94 201.884 127.06 201.734 127.11Z" fill="white"/>
</g>
</g>
</g>
</g>
<g opacity="0.6">
<g opacity="0.6">
<g opacity="0.6">
<g opacity="0.6">
<g opacity="0.6">
<path opacity="0.6" d="M201.134 121.09C201.084 121.22 201.144 121.39 201.274 121.45C201.394 121.51 201.564 121.45 201.624 121.32C201.684 121.19 201.614 120.99 201.484 120.94C201.344 120.9 201.154 120.98 201.124 121.12" fill="white"/>
</g>
</g>
</g>
</g>
</g>
<path d="M201.554 124.85C201.534 124.88 201.324 124.73 201.024 124.77C200.714 124.8 200.534 124.99 200.514 124.97C200.504 124.96 200.534 124.9 200.624 124.83C200.704 124.76 200.844 124.69 201.004 124.67C201.174 124.65 201.324 124.69 201.424 124.74C201.514 124.79 201.554 124.85 201.554 124.85Z" fill="#263238"/>
<path d="M201.604 125.55C201.594 125.58 201.394 125.53 201.154 125.6C200.914 125.67 200.764 125.81 200.744 125.79C200.724 125.78 200.854 125.58 201.124 125.5C201.394 125.43 201.614 125.53 201.604 125.55Z" fill="#263238"/>
<path d="M201.644 123.86C201.634 123.89 201.324 123.82 200.944 123.89C200.564 123.96 200.304 124.15 200.284 124.12C200.264 124.11 200.514 123.87 200.924 123.79C201.334 123.71 201.654 123.84 201.644 123.86Z" fill="#263238"/>
<path d="M200.964 122.63C200.974 122.66 200.704 122.71 200.414 122.88C200.124 123.04 199.954 123.25 199.924 123.23C199.904 123.22 200.054 122.96 200.364 122.79C200.674 122.61 200.964 122.61 200.964 122.63Z" fill="#263238"/>
<path d="M200.244 121.49C200.254 121.52 199.954 121.53 199.664 121.73C199.374 121.92 199.264 122.2 199.234 122.18C199.224 122.18 199.234 122.1 199.294 122C199.344 121.89 199.454 121.75 199.614 121.65C199.764 121.54 199.934 121.49 200.054 121.48C200.174 121.46 200.244 121.48 200.244 121.49Z" fill="#263238"/>
<path d="M199.534 121.51C199.534 121.51 199.494 121.46 199.434 121.36C199.384 121.26 199.324 121.11 199.314 120.91C199.304 120.81 199.294 120.69 199.364 120.57C199.404 120.51 199.494 120.47 199.574 120.49C199.644 120.51 199.704 120.56 199.744 120.62C199.894 120.87 199.834 121.25 199.584 121.46C199.324 121.66 198.964 121.66 198.724 121.52C198.664 121.48 198.604 121.42 198.594 121.34C198.584 121.25 198.644 121.18 198.704 121.15C198.834 121.1 198.944 121.12 199.044 121.12C199.244 121.15 199.404 121.21 199.504 121.26C199.604 121.31 199.644 121.35 199.644 121.35C199.634 121.37 199.424 121.23 199.034 121.19C198.944 121.19 198.834 121.18 198.744 121.23C198.704 121.25 198.674 121.29 198.684 121.33C198.684 121.37 198.724 121.41 198.774 121.44C198.974 121.56 199.304 121.56 199.514 121.38C199.734 121.2 199.784 120.88 199.664 120.67C199.634 120.63 199.594 120.59 199.544 120.57C199.504 120.56 199.464 120.58 199.434 120.62C199.384 120.69 199.384 120.81 199.384 120.9C199.394 121.29 199.554 121.5 199.534 121.51Z" fill="#263238"/>
<path d="M195.014 121.57L194.724 125.41C194.724 125.41 198.534 126.72 198.544 127.43L191.074 127.42L191.284 121.41L195.014 121.57Z" fill="#455A64"/>
<g opacity="0.6">
<g opacity="0.6">
<g opacity="0.6">
<g opacity="0.6">
<g opacity="0.6">
<g opacity="0.6">
<g opacity="0.6">
<path opacity="0.6" d="M192.424 125C192.274 125.03 192.174 125.19 192.194 125.34C192.224 125.49 192.384 125.59 192.534 125.56C192.684 125.53 192.814 125.35 192.764 125.2C192.724 125.06 192.534 124.94 192.394 125.01" fill="white"/>
</g>
</g>
</g>
</g>
</g>
</g>
</g>
<g opacity="0.6">
<g opacity="0.6">
<g opacity="0.6">
<g opacity="0.6">
<g opacity="0.6">
<g opacity="0.6">
<path opacity="0.6" d="M191.074 127.42L191.094 126.81L198.314 127.08C198.314 127.08 198.554 127.19 198.584 127.49L191.074 127.42Z" fill="white"/>
</g>
</g>
</g>
</g>
</g>
</g>
<path d="M194.844 125.38C194.834 125.42 194.654 125.43 194.474 125.54C194.284 125.64 194.184 125.8 194.154 125.78C194.124 125.77 194.184 125.56 194.404 125.43C194.634 125.29 194.854 125.35 194.844 125.38Z" fill="#263238"/>
<path d="M195.614 125.74C195.614 125.77 195.454 125.83 195.324 125.98C195.194 126.12 195.154 126.29 195.124 126.28C195.084 126.29 195.064 126.07 195.234 125.89C195.394 125.71 195.614 125.7 195.614 125.74Z" fill="#263238"/>
<path d="M196.024 126.69C195.984 126.7 195.944 126.51 196.044 126.32C196.144 126.12 196.324 126.05 196.334 126.08C196.354 126.11 196.234 126.21 196.154 126.37C196.074 126.53 196.054 126.69 196.024 126.69Z" fill="#263238"/>
<path d="M194.814 124.5C194.794 124.53 194.624 124.47 194.424 124.48C194.214 124.48 194.054 124.54 194.034 124.51C194.014 124.48 194.174 124.36 194.424 124.35C194.664 124.35 194.834 124.47 194.814 124.5Z" fill="#263238"/>
<g opacity="0.302">
<g opacity="0.302">
<g opacity="0.302">
<g opacity="0.302">
<g opacity="0.302">
<g opacity="0.302">
<path opacity="0.302" d="M194.954 122.33L194.904 123.02L191.234 122.84L191.254 122.22L194.954 122.33Z" fill="black"/>
</g>
</g>
</g>
</g>
</g>
</g>
<path d="M194.854 123.72C194.854 123.74 194.714 123.75 194.484 123.7C194.364 123.68 194.234 123.64 194.094 123.57C194.024 123.53 193.954 123.49 193.884 123.45C193.854 123.42 193.814 123.4 193.774 123.35C193.734 123.31 193.714 123.22 193.764 123.16C193.804 123.1 193.874 123.08 193.934 123.08C193.984 123.08 194.024 123.1 194.064 123.11C194.154 123.13 194.224 123.16 194.294 123.2C194.434 123.27 194.554 123.35 194.634 123.44C194.804 123.6 194.854 123.74 194.844 123.75C194.824 123.76 194.744 123.64 194.574 123.5C194.484 123.43 194.384 123.36 194.244 123.3C194.184 123.27 194.114 123.25 194.034 123.23C193.954 123.2 193.894 123.2 193.864 123.23C193.864 123.25 193.864 123.25 193.874 123.28C193.894 123.3 193.924 123.32 193.954 123.34C194.024 123.39 194.084 123.43 194.144 123.46C194.274 123.53 194.404 123.58 194.504 123.62C194.714 123.69 194.854 123.7 194.854 123.72Z" fill="#263238"/>
<path d="M194.804 123.77C194.794 123.78 194.724 123.64 194.724 123.41C194.724 123.29 194.734 123.15 194.784 123C194.814 122.93 194.844 122.85 194.894 122.78C194.944 122.7 194.994 122.61 195.134 122.6C195.214 122.6 195.274 122.66 195.294 122.71C195.314 122.76 195.314 122.8 195.324 122.85C195.334 122.93 195.334 123.02 195.314 123.1C195.284 123.26 195.214 123.39 195.144 123.48C194.984 123.67 194.834 123.7 194.824 123.69C194.814 123.67 194.944 123.61 195.064 123.42C195.124 123.34 195.174 123.22 195.194 123.08C195.214 123.01 195.214 122.94 195.204 122.86C195.194 122.78 195.164 122.72 195.134 122.72C195.094 122.72 195.034 122.78 195.004 122.84C194.954 122.91 194.924 122.97 194.894 123.04C194.844 123.17 194.824 123.3 194.814 123.41C194.794 123.63 194.824 123.77 194.804 123.77Z" fill="#263238"/>
<path d="M197.744 89.95C197.744 89.95 199.114 92.76 199.464 94.76C199.574 95.33 195.544 124.13 195.544 124.13L190.784 123.95L193.014 97.15L192.224 91.77L197.744 89.95Z" fill="#263238"/>
<path d="M186.184 91.7C186.184 91.7 186.104 94.38 186.494 97.53C186.844 100.35 187.654 103.56 187.914 105.36C188.494 109.34 189.634 110.09 189.634 110.09L198.764 121.77L202.344 118.55L194.294 105.67C194.294 105.67 192.144 91.39 192.224 91.77C192.294 92.16 186.184 91.7 186.184 91.7Z" fill="#263238"/>
<path d="M189.814 110.25C189.804 110.26 189.834 110.3 189.894 110.38C189.964 110.46 190.044 110.57 190.154 110.71C190.394 111.01 190.714 111.43 191.114 111.95C191.924 113 193.024 114.45 194.244 116.05C195.464 117.65 196.574 119.09 197.404 120.13C197.814 120.64 198.154 121.06 198.384 121.34C198.504 121.48 198.594 121.58 198.664 121.66C198.724 121.74 198.764 121.78 198.764 121.77C198.764 121.77 198.734 121.73 198.674 121.65C198.614 121.57 198.524 121.46 198.414 121.32C198.184 121.02 197.854 120.6 197.454 120.08C196.654 119.02 195.544 117.58 194.324 115.98C193.104 114.38 191.994 112.93 191.174 111.9C190.764 111.39 190.424 110.97 190.184 110.69C190.074 110.55 189.984 110.45 189.914 110.36C189.854 110.29 189.814 110.25 189.814 110.25Z" fill="#455A64"/>
<path d="M188.794 93.8901C188.804 93.9001 188.784 94.08 188.664 94.35C188.544 94.62 188.324 94.9701 188.004 95.2701C187.674 95.5801 187.304 95.7801 187.034 95.8801C186.754 95.9801 186.574 95.99 186.574 95.97C186.554 95.93 187.264 95.7601 187.894 95.1601C188.534 94.5701 188.744 93.8701 188.794 93.8901Z" fill="#455A64"/>
<path d="M198.644 92.26C198.654 92.3 198.344 92.4199 197.944 92.3599C197.544 92.2999 197.284 92.1 197.304 92.06C197.334 92.02 197.604 92.1499 197.974 92.2099C198.334 92.2599 198.634 92.22 198.644 92.26Z" fill="#455A64"/>
<path d="M193.504 96.23C193.514 96.23 193.524 96.3 193.534 96.42C193.554 96.56 193.574 96.74 193.604 96.97C193.664 97.47 193.744 98.16 193.834 99.02C194.024 100.78 194.274 103.21 194.564 105.99L194.554 105.96C194.984 106.64 195.424 107.35 195.884 108.07C197.674 110.95 199.294 113.56 200.474 115.47C201.054 116.41 201.524 117.17 201.854 117.72C202.004 117.97 202.124 118.18 202.224 118.33C202.304 118.47 202.344 118.55 202.344 118.55C202.334 118.55 202.284 118.48 202.194 118.35C202.094 118.2 201.964 118 201.804 117.75C201.454 117.21 200.974 116.45 200.384 115.52C199.194 113.63 197.554 111.03 195.754 108.15C195.294 107.43 194.854 106.72 194.424 106.04V106.02L194.414 106C194.144 103.23 193.914 100.79 193.734 99.03C193.664 98.17 193.594 97.47 193.554 96.98C193.534 96.75 193.524 96.56 193.514 96.42C193.504 96.3 193.504 96.23 193.504 96.23Z" fill="#455A64"/>
<path d="M192.124 71.13L194.974 72.05L195.184 78.09C195.184 78.09 196.724 85.1699 197.054 86.0699C197.704 87.8399 197.924 89.38 197.924 89.38C197.924 89.38 197.374 93.39 193.374 93.86C189.364 94.33 185.644 92.03 185.644 92.03C185.644 92.03 184.304 86.06 183.084 80.7C181.914 75.61 182.864 72.5699 182.864 72.5699L187.244 70.99L192.124 71.13Z" fill="#455A64"/>
<path d="M191.614 74.8101L194.234 74.49L194.314 75.17L191.704 75.48L191.614 74.8101Z" fill="#FAFAFA"/>
<path d="M194.864 67.26C194.814 66.96 194.524 66.73 194.234 66.76C194.524 66.58 194.484 66.06 194.164 65.92C194.454 65.51 194.364 64.8701 193.954 64.5601L190.944 68.71C191.394 69.09 192.014 69.23 192.604 69.16C193.194 69.1 193.744 68.8599 194.264 68.5699C194.394 68.4999 194.534 68.41 194.594 68.27C194.644 68.13 194.564 67.92 194.414 67.92C194.704 67.86 194.914 67.55 194.864 67.26Z" fill="#263238"/>
<path d="M187.394 65.01C187.284 64.97 187.154 65.0099 187.084 65.1099C187.014 65.2099 187.014 65.3499 187.084 65.4499C186.904 65.4199 186.714 65.5 186.614 65.65C186.504 65.79 186.484 66 186.564 66.16C186.354 66.15 186.134 66.1899 185.954 66.3199C185.784 66.4499 185.674 66.67 185.714 66.88C185.764 67.09 185.994 67.2499 186.194 67.1899C186.104 67.3799 186.094 67.62 186.224 67.78C186.364 67.94 186.644 67.97 186.774 67.8C186.654 67.95 186.664 68.1799 186.784 68.3299C186.914 68.4699 187.134 68.5199 187.304 68.4399C187.254 68.6299 187.344 68.8399 187.514 68.9499C187.674 69.0499 187.914 69.04 188.064 68.91L187.394 65.01Z" fill="#263238"/>
<path d="M187.584 64.21L187.454 71.5501C187.434 72.7501 188.344 73.76 189.534 73.87C190.854 73.98 191.994 72.9601 192.014 71.6401C192.034 70.9501 192.044 70.37 192.044 70.37C192.044 70.37 193.834 70.25 194.014 68.49C194.114 67.47 194.144 65.14 194.154 63.36C194.154 62.15 193.234 61.1401 192.024 61.0301L190.964 60.94C189.114 60.88 187.584 62.36 187.584 64.21Z" fill="#FFBE9D"/>
<path d="M192.044 70.37C192.044 70.37 190.924 70.34 189.804 69.49C189.804 69.49 190.264 70.8299 192.034 70.8199L192.044 70.37Z" fill="#EB996E"/>
<path d="M193.654 65.15C193.624 65.18 193.444 65.02 193.174 65C192.904 64.97 192.694 65.09 192.664 65.06C192.654 65.04 192.684 64.98 192.784 64.93C192.874 64.87 193.024 64.8199 193.194 64.8399C193.364 64.8499 193.494 64.93 193.574 65C193.654 65.07 193.674 65.13 193.654 65.15Z" fill="#263238"/>
<path d="M190.774 65.27C190.764 65.4 190.644 65.5 190.504 65.5C190.364 65.49 190.264 65.38 190.264 65.25C190.274 65.12 190.394 65.01 190.534 65.02C190.674 65.02 190.784 65.13 190.774 65.27Z" fill="#263238"/>
<path d="M193.414 65.5C193.404 65.64 193.284 65.74 193.144 65.74C193.014 65.73 192.904 65.62 192.904 65.49C192.914 65.35 193.034 65.25 193.174 65.25C193.314 65.26 193.424 65.37 193.414 65.5Z" fill="#263238"/>
<path d="M191.014 64.91C190.984 64.94 190.804 64.79 190.534 64.76C190.264 64.74 190.054 64.8599 190.024 64.8199C190.014 64.8099 190.044 64.7499 190.144 64.6899C190.234 64.6399 190.384 64.59 190.554 64.61C190.724 64.62 190.854 64.7 190.934 64.77C191.014 64.84 191.034 64.9 191.014 64.91Z" fill="#263238"/>
<path d="M191.824 67.01C191.824 67 191.994 66.98 192.274 66.97C192.344 66.97 192.404 66.96 192.424 66.92C192.444 66.87 192.424 66.79 192.394 66.71C192.344 66.53 192.294 66.35 192.234 66.16C192.024 65.39 191.864 64.75 191.894 64.74C191.934 64.73 192.134 65.36 192.354 66.13C192.404 66.32 192.454 66.51 192.504 66.68C192.524 66.76 192.554 66.85 192.514 66.96C192.484 67.01 192.434 67.04 192.394 67.05C192.344 67.06 192.304 67.05 192.274 67.05C191.994 67.04 191.824 67.03 191.824 67.01Z" fill="#263238"/>
<path d="M191.004 67.13C191.054 67.13 191.024 67.43 191.264 67.66C191.494 67.89 191.814 67.8801 191.814 67.9301C191.814 67.9501 191.734 67.98 191.604 67.97C191.474 67.96 191.284 67.9 191.144 67.76C191.004 67.62 190.944 67.4399 190.954 67.3199C190.944 67.1999 190.984 67.13 191.004 67.13Z" fill="#263238"/>
<path d="M191.164 64.04C191.134 64.11 190.864 64.0501 190.544 64.0601C190.224 64.0601 189.954 64.1399 189.914 64.0699C189.904 64.0299 189.954 63.97 190.064 63.9C190.174 63.84 190.344 63.79 190.534 63.78C190.724 63.78 190.904 63.83 191.014 63.88C191.124 63.94 191.184 64 191.164 64.04Z" fill="#263238"/>
<path d="M193.684 64.37C193.634 64.42 193.454 64.34 193.224 64.32C193.004 64.29 192.814 64.3301 192.774 64.2601C192.754 64.2201 192.794 64.17 192.884 64.11C192.964 64.06 193.104 64.0301 193.264 64.0501C193.414 64.0601 193.544 64.13 193.614 64.2C193.694 64.27 193.714 64.34 193.684 64.37Z" fill="#263238"/>
<path d="M188.064 65.59C188.034 65.57 186.874 65.12 186.814 66.33C186.744 67.54 187.974 67.36 187.974 67.33C187.984 67.29 188.064 65.59 188.064 65.59Z" fill="#FFBE9D"/>
<path d="M187.634 66.85C187.624 66.84 187.614 66.86 187.574 66.88C187.534 66.89 187.474 66.9 187.414 66.87C187.294 66.82 187.194 66.61 187.204 66.39C187.204 66.28 187.234 66.17 187.274 66.09C187.314 66 187.384 65.9499 187.444 65.9399C187.514 65.9299 187.554 65.97 187.564 66C187.584 66.04 187.574 66.0601 187.574 66.0601C187.584 66.0701 187.604 66.04 187.594 65.99C187.594 65.97 187.584 65.94 187.554 65.92C187.524 65.89 187.484 65.88 187.444 65.88C187.344 65.88 187.254 65.96 187.204 66.05C187.154 66.15 187.124 66.26 187.114 66.39C187.114 66.63 187.224 66.8701 187.394 66.9301C187.474 66.9501 187.554 66.93 187.594 66.91C187.624 66.88 187.634 66.85 187.634 66.85Z" fill="#EB996E"/>
<path d="M187.394 65.49C187.584 65.46 187.884 65.6599 187.944 65.8399C188.014 66.0199 188.014 66.21 188.074 66.39C188.134 66.57 188.304 66.74 188.484 66.72C188.614 66.7 188.724 66.5899 188.764 66.4599C188.804 66.3399 188.804 66.2099 188.804 66.0699C188.784 65.4999 188.714 64.93 188.744 64.37C188.764 63.8 188.904 63.21 189.244 62.75C189.584 62.3 190.164 61.9899 190.724 62.0899C191.094 62.1499 191.424 62.3799 191.794 62.4599C192.224 62.5599 192.704 62.45 193.054 62.16C193.094 62.12 193.294 62.02 193.294 62.02C193.294 61.99 193.294 61.73 193.204 61.63C192.524 60.88 191.204 60.57 190.204 60.73C189.214 60.89 188.234 61.5 187.734 62.38C187.234 63.26 187.244 64.54 187.394 65.49Z" fill="#263238"/>
<path d="M194.374 63.0501C194.184 63.4101 193.754 63.58 193.354 63.59C192.954 63.59 192.564 63.4601 192.194 63.3101C191.814 63.1701 190.804 62.91 190.404 62.89C190.344 62.88 190.274 62.87 190.244 62.82C190.204 62.75 190.284 62.68 190.344 62.63C190.914 62.27 192.204 62.1301 192.874 62.1601C193.544 62.1901 194.224 62.54 194.534 63.13" fill="#263238"/>
<path d="M194.194 63.0799C194.194 63.0799 193.724 62.41 192.774 62.29C191.414 62.1 188.794 62.65 187.334 65.02C187.334 65.02 187.124 63.9899 187.174 63.4499C187.204 63.0899 187.604 60.97 189.864 60.49C189.864 60.49 193.294 59.5199 194.194 63.0799Z" fill="#455A64"/>
<path d="M187.564 64.5601C188.344 63.5701 189.374 62.79 190.494 62.22C191.624 61.65 193.434 61.1401 194.684 60.9301C195.054 60.8601 195.444 60.8101 195.804 60.9101C196.174 61.0101 196.514 61.2901 196.574 61.6601C196.654 62.1301 195.774 62.7601 195.364 63.0101C194.964 63.2501 194.144 63.59 194.144 63.59C194.144 63.59 194.234 62.74 192.894 62.45C191.064 62.04 187.564 64.5601 187.564 64.5601Z" fill="#455A64"/>
<path d="M196.044 60.97C196.034 60.99 195.904 60.9201 195.654 60.9101C195.404 60.8901 195.034 60.91 194.594 60.98C193.694 61.12 192.474 61.43 191.194 61.95C189.904 62.45 188.854 63.1701 188.204 63.8001C187.874 64.1101 187.654 64.4 187.524 64.61C187.394 64.83 187.344 64.96 187.324 64.96C187.324 64.95 187.334 64.92 187.354 64.86C187.374 64.79 187.414 64.7 187.474 64.58C187.594 64.36 187.804 64.04 188.124 63.72C188.764 63.06 189.824 62.3101 191.134 61.8001C192.424 61.2801 193.664 60.99 194.574 60.87C195.034 60.81 195.404 60.82 195.664 60.85C195.794 60.87 195.884 60.8901 195.954 60.9201C196.014 60.9501 196.044 60.96 196.044 60.97Z" fill="#263238"/>
<path d="M191.674 61.4399C191.674 61.4399 192.374 61.13 193.054 61.1C192.924 60.99 192.854 60.93 192.704 60.85C192.354 60.89 192.004 60.94 191.634 61.11L191.674 61.4399Z" fill="#FAFAFA"/>
<path d="M194.394 63.69C194.504 63.53 194.524 63.3201 194.444 63.1501C194.364 62.9801 194.184 62.85 194.004 62.84C194.264 62.76 194.384 62.4101 194.254 62.1701C194.134 61.9301 193.814 61.8201 193.554 61.8901C193.284 61.9701 193.084 62.2 192.994 62.46C192.884 62.29 192.694 62.19 192.494 62.2C192.294 62.21 192.104 62.32 192.004 62.5C191.974 62.34 191.784 62.2701 191.624 62.3001C191.474 62.3301 191.344 62.4401 191.224 62.5401C191.094 62.6401 190.954 62.73 190.794 62.73L190.694 62.7801C190.854 63.0601 191.244 63.1801 191.534 63.0301C191.534 63.2301 191.674 63.43 191.864 63.49C192.064 63.55 192.284 63.4601 192.394 63.2901C192.444 63.6101 192.894 63.7601 193.134 63.5501C193.244 63.9101 193.774 64.0601 194.054 63.8101C194.214 64.0401 194.254 64.35 194.174 64.62C194.364 64.58 194.534 64.42 194.574 64.23C194.624 64.03 194.554 63.81 194.394 63.69Z" fill="#263238"/>
<path d="M189.344 63.4C188.934 63.59 188.514 63.7901 188.144 64.0601C187.774 64.3201 187.444 64.67 187.264 65.09L187.854 65.66C188.014 65.71 188.144 65.77 188.274 65.66C188.404 65.55 188.474 65.37 188.454 65.2C188.614 65.25 188.804 65.1901 188.914 65.0601C189.024 64.9301 189.044 64.73 188.964 64.58C189.084 64.55 189.184 64.45 189.214 64.34C189.244 64.22 189.214 64.09 189.124 64C189.264 64 189.394 63.9 189.444 63.77C189.494 63.64 189.454 63.49 189.344 63.4Z" fill="#263238"/>
<path d="M194.974 72.05C194.974 72.05 196.734 73.11 197.264 74.05C197.794 74.99 200.624 81.88 200.504 83C200.384 84.12 197.744 84.83 197.744 84.83L194.974 81.23L196.234 80.48L194.974 78.05V72.05Z" fill="#455A64"/>
<path d="M197.744 84.83C197.744 84.83 191.324 86.11 188.994 83.35L189.674 81C189.674 81 193.914 81.9999 195.234 81.5699L197.744 84.83Z" fill="#FFBE9D"/>
<path d="M198.404 79.13C198.424 79.18 197.654 79.5 196.844 80.12C196.034 80.74 195.524 81.41 195.484 81.37C195.464 81.36 195.574 81.18 195.794 80.92C196.004 80.66 196.334 80.31 196.744 80C197.164 79.68 197.574 79.45 197.884 79.31C198.194 79.17 198.394 79.11 198.404 79.13Z" fill="#263238"/>
<path d="M196.344 80.39C196.304 80.41 196.064 79.89 195.764 79.25C195.474 78.61 195.204 78.0999 195.244 78.0799C195.284 78.0599 195.614 78.54 195.914 79.18C196.204 79.83 196.384 80.38 196.344 80.39Z" fill="#263238"/>
<path d="M195.184 77.51C195.214 77.5 195.144 77.06 195.024 76.51C194.914 75.96 194.794 75.53 194.764 75.53C194.744 75.54 194.814 75.99 194.924 76.53C195.044 77.08 195.154 77.52 195.184 77.51Z" fill="#263238"/>
<path d="M183.664 72.9301C183.794 73.0601 185.554 74.23 186.144 76.23C186.734 78.23 187.374 80.2901 187.374 80.2901L189.674 80.59L188.374 85.89C188.374 85.89 185.614 85.5901 184.084 83.0601C182.554 80.5301 181.604 77.4101 181.604 77.4101C181.604 77.4101 181.804 70.9901 183.664 72.9301Z" fill="#455A64"/>
<path d="M188.884 80.49C188.884 80.49 187.914 78.3 187.784 78.28C187.654 78.25 185.774 77.59 185.774 77.59C185.774 77.59 185.664 77.8401 185.774 78.0601L185.094 78.15C185.094 78.15 185.194 78.56 185.424 78.62L185.184 78.84C185.184 78.84 185.384 79.11 185.644 79.23C185.894 79.34 186.084 79.23 186.084 79.23C186.084 79.23 186.004 79.38 186.384 79.63C186.774 79.87 187.434 80.23 187.434 80.23L188.884 80.49Z" fill="#FFBE9D"/>
<path fill-rule="evenodd" clip-rule="evenodd" d="M187.434 80.23C187.424 80.23 186.764 79.87 186.384 79.63C186.054 79.42 186.064 79.28 186.074 79.24C186.034 79.26 185.864 79.33 185.634 79.23C185.384 79.12 185.174 78.84 185.174 78.84L185.414 78.62C185.194 78.56 185.094 78.16 185.094 78.15L185.084 78.14L185.764 78.0601C185.664 77.8401 185.764 77.59 185.764 77.58H185.774C185.794 77.59 187.654 78.24 187.784 78.27C187.914 78.3 188.854 80.39 188.894 80.48V80.49L187.434 80.23ZM185.774 78.0601L185.104 78.15C185.114 78.2 185.214 78.56 185.424 78.62H185.434L185.184 78.84C185.214 78.87 185.404 79.12 185.644 79.22C185.894 79.33 186.084 79.22 186.084 79.22L186.094 79.21V79.23C186.084 79.23 186.014 79.38 186.394 79.62C186.764 79.86 187.414 80.21 187.434 80.23L188.874 80.48C188.534 79.72 187.884 78.3 187.784 78.28C187.654 78.25 185.874 77.63 185.774 77.59C185.764 77.63 185.684 77.8601 185.774 78.0601Z" fill="#EB996E"/>
<path d="M185.834 78.07C185.824 78.1 186.374 78.3101 187.064 78.5501C187.234 78.6101 187.404 78.66 187.534 78.72C187.674 78.78 187.764 78.89 187.824 78.99C187.934 79.19 187.974 79.34 187.994 79.33C188.004 79.33 187.984 79.18 187.884 78.95C187.834 78.84 187.734 78.71 187.584 78.64C187.434 78.56 187.264 78.51 187.094 78.45C186.404 78.21 185.834 78.04 185.834 78.07Z" fill="#EB996E"/>
<path d="M185.394 78.62C185.384 78.63 185.514 78.69 185.734 78.75C185.944 78.8 186.254 78.8499 186.574 78.9399C186.894 79.0299 187.164 79.1601 187.334 79.3001C187.504 79.4301 187.584 79.55 187.594 79.54C187.604 79.53 187.554 79.4 187.384 79.24C187.214 79.09 186.934 78.93 186.604 78.84C186.264 78.75 185.964 78.71 185.744 78.67C185.524 78.64 185.394 78.61 185.394 78.62Z" fill="#EB996E"/>
<path d="M187.114 79.61C187.134 79.6 186.954 79.4101 186.664 79.3101C186.374 79.2001 186.114 79.2301 186.124 79.2601C186.124 79.2901 186.354 79.3101 186.634 79.4101C186.904 79.5001 187.094 79.64 187.114 79.61Z" fill="#EB996E"/>
<path d="M189.474 81.15L195.254 78.23L196.324 80.39C196.324 80.39 190.984 85.68 188.484 85.61" fill="#FFBE9D"/>
<path d="M185.954 75.03C185.944 75.03 185.974 75.2 186.034 75.46C186.094 75.72 186.184 76.08 186.294 76.47C186.404 76.87 186.504 77.22 186.584 77.48C186.664 77.73 186.714 77.89 186.734 77.89C186.744 77.88 186.714 77.72 186.654 77.46C186.594 77.2 186.504 76.8399 186.394 76.4399C186.284 76.0499 186.184 75.6899 186.104 75.4399C186.024 75.1799 185.974 75.03 185.954 75.03Z" fill="#263238"/>
<path d="M186.204 82.22C186.224 82.22 186.274 81.9501 186.414 81.5401C186.484 81.3301 186.584 81.09 186.764 80.87C186.934 80.65 187.194 80.4501 187.514 80.4001C187.824 80.3501 188.144 80.45 188.424 80.5C188.704 80.56 188.964 80.6101 189.184 80.6501C189.294 80.6701 189.394 80.69 189.464 80.72C189.534 80.76 189.584 80.81 189.604 80.87C189.644 80.98 189.584 81.0401 189.594 81.0401C189.594 81.0501 189.674 80.99 189.644 80.86C189.624 80.79 189.574 80.7201 189.494 80.6701C189.404 80.6301 189.304 80.61 189.204 80.58C188.974 80.53 188.724 80.4701 188.444 80.4101C188.164 80.3501 187.844 80.2501 187.494 80.2901C187.144 80.3501 186.864 80.5801 186.684 80.8101C186.504 81.0501 186.404 81.3101 186.344 81.5201C186.284 81.7301 186.244 81.9101 186.224 82.0301C186.204 82.1501 186.204 82.22 186.204 82.22Z" fill="#263238"/>
<path d="M185.424 81.06C185.444 81.07 185.604 80.6399 186.044 80.3299C186.484 80.0299 186.934 79.9799 186.924 79.9499C186.924 79.9299 186.814 79.9299 186.634 79.9699C186.464 79.9999 186.214 80.0899 185.984 80.2499C185.754 80.4099 185.594 80.62 185.514 80.78C185.434 80.94 185.404 81.05 185.424 81.06Z" fill="#263238"/>
<path d="M181.604 77.41C181.604 77.41 181.614 77.45 181.634 77.52C181.664 77.6 181.704 77.71 181.744 77.84C181.844 78.12 181.984 78.52 182.144 79C182.314 79.49 182.514 80.08 182.804 80.7C183.104 81.32 183.424 81.9999 183.834 82.6899C184.244 83.3699 184.744 83.96 185.274 84.4C185.804 84.85 186.354 85.17 186.834 85.37C187.314 85.58 187.734 85.67 188.014 85.71C188.164 85.72 188.274 85.73 188.354 85.74C188.434 85.74 188.474 85.74 188.474 85.74C188.474 85.72 188.314 85.72 188.024 85.67C187.744 85.62 187.334 85.5101 186.864 85.3101C185.924 84.9001 184.724 84.01 183.924 82.64C183.524 81.96 183.194 81.28 182.894 80.66C182.604 80.04 182.394 79.46 182.214 78.98C182.034 78.49 181.884 78.0899 181.784 77.8199C181.734 77.6999 181.694 77.59 181.654 77.51C181.624 77.44 181.614 77.41 181.604 77.41Z" fill="#263238"/>
<path d="M183.264 73.07C183.254 73.1 183.714 73.2601 184.214 73.5601C184.724 73.8601 185.084 74.1801 185.104 74.1501C185.124 74.1401 184.784 73.78 184.264 73.47C183.754 73.17 183.274 73.05 183.264 73.07Z" fill="#263238"/>
<path d="M187.664 87.1401C187.654 87.1401 187.764 87.2001 187.954 87.2901C188.054 87.3301 188.174 87.39 188.314 87.44C188.454 87.5 188.614 87.5701 188.794 87.6301C189.154 87.7601 189.594 87.88 190.084 88C190.584 88.11 191.134 88.2001 191.714 88.2601C192.294 88.3101 192.854 88.3101 193.364 88.2901C193.864 88.2601 194.324 88.2101 194.704 88.1501C194.884 88.1201 195.054 88.0801 195.204 88.0501C195.354 88.0201 195.484 87.99 195.584 87.96C195.794 87.91 195.904 87.87 195.904 87.87C195.904 87.86 195.784 87.8801 195.574 87.9201C195.474 87.9401 195.344 87.97 195.194 87.99C195.044 88.02 194.874 88.05 194.684 88.08C194.314 88.13 193.864 88.17 193.354 88.19C192.854 88.21 192.304 88.2001 191.724 88.1501C191.144 88.1001 190.604 88.0101 190.114 87.9101C189.614 87.8001 189.184 87.6801 188.824 87.5601C188.634 87.5001 188.474 87.4401 188.334 87.3901C188.194 87.3401 188.074 87.29 187.974 87.25C187.774 87.17 187.664 87.1301 187.664 87.1401Z" fill="#263238"/>
<path d="M192.364 90.15C192.364 90.17 192.904 90.07 193.534 89.85C194.174 89.64 194.654 89.41 194.644 89.38C194.634 89.36 194.134 89.55 193.504 89.76C192.874 89.97 192.354 90.12 192.364 90.15Z" fill="#263238"/>
<g opacity="0.302">
<g opacity="0.302">
<path opacity="0.302" d="M196.784 84.98C195.414 85.2 194.124 85.3101 192.774 85.0401C192.274 84.9501 191.784 84.79 191.284 84.86C190.884 84.92 190.514 85.1401 190.134 85.3001C188.774 85.8701 187.124 85.7 185.904 84.86C186.294 85.71 187.184 86.24 188.094 86.4C189.014 86.56 189.954 86.39 190.844 86.15C191.384 86.01 191.924 85.84 192.474 85.82C193.184 85.81 193.874 86.0301 194.574 86.0501C195.354 86.0601 196.244 85.84 196.864 85.36L196.784 84.98Z" fill="black"/>
</g>
</g>
<g opacity="0.302">
<g opacity="0.302">
<g opacity="0.302">
<g opacity="0.302">
<path opacity="0.302" d="M194.494 89.58C193.904 90.57 192.824 91.26 191.674 91.36C191.424 91.38 191.164 91.38 190.924 91.3C190.684 91.22 190.474 91.06 190.364 90.83C190.624 90.64 190.934 90.55 191.244 90.47C192.314 90.18 193.384 89.88 194.454 89.59" fill="black"/>
</g>
</g>
</g>
</g>
<path d="M196.234 80.48C196.244 80.49 196.154 80.58 195.974 80.75C195.804 80.91 195.554 81.1499 195.254 81.4599C194.964 81.7599 194.614 82.14 194.184 82.51C193.754 82.88 193.264 83.27 192.744 83.67C192.224 84.07 191.714 84.4299 191.224 84.7099C190.724 84.9999 190.254 85.21 189.844 85.35C189.444 85.49 189.094 85.5499 188.854 85.5899C188.614 85.6199 188.484 85.62 188.484 85.61C188.474 85.58 189.014 85.54 189.814 85.25C190.204 85.1 190.664 84.8799 191.144 84.5899C191.624 84.2999 192.134 83.94 192.654 83.55C193.164 83.15 193.654 82.77 194.084 82.4C194.514 82.04 194.874 81.68 195.184 81.38C195.494 81.08 195.754 80.8499 195.934 80.6999C196.124 80.5499 196.234 80.47 196.234 80.48Z" fill="#EB996E"/>
</svg>
