<svg width="40" height="40" viewBox="0 0 40 40" fill="none" xmlns="http://www.w3.org/2000/svg">
<path d="M23.0039 15.14L37.1338 17.95C38.2738 18.19 39.0439 19.15 39.0439 20.29V36.66C39.0439 37.99 37.974 39.0699 36.644 39.0699H22.1938C22.6438 39.0699 23.0039 38.71 23.0039 38.26V37.46H36.644C37.074 37.46 37.4438 37.11 37.4438 36.66V20.29C37.4438 19.92 37.184 19.59 36.814 19.51L23.0039 16.78V15.14Z" fill="#33B5FF"/>
<path d="M31.8242 23.02C32.2742 23.02 32.624 23.3699 32.624 23.8199C32.624 24.2699 32.2742 24.62 31.8242 24.62H28.6138C28.1638 24.62 27.814 24.2699 27.814 23.8199C27.814 23.3699 28.1638 23.02 28.6138 23.02H31.8242Z" fill="#33B5FF"/>
<path d="M31.8242 27.83C32.2742 27.83 32.624 28.19 32.624 28.64C32.624 29.09 32.2742 29.4399 31.8242 29.4399H28.6138C28.1638 29.4399 27.814 29.09 27.814 28.64C27.814 28.19 28.1638 27.83 28.6138 27.83H31.8242Z" fill="#33B5FF"/>
<path d="M31.8242 32.65C32.2742 32.65 32.624 33 32.624 33.45C32.624 33.9 32.2742 34.25 31.8242 34.25H28.6138C28.1638 34.25 27.814 33.9 27.814 33.45C27.814 33 28.1638 32.65 28.6138 32.65H31.8242Z" fill="#33B5FF"/>
<path d="M23.0039 38.26C23.0039 38.71 22.6438 39.0699 22.1938 39.0699C21.7538 39.0699 21.394 38.71 21.394 38.26V37.4599V15.8C21.394 15.56 21.5041 15.33 21.6841 15.17C21.8741 15.03 22.1138 14.97 22.3638 15.01L23.0039 15.14V16.78V37.4599V38.26Z" fill="#33B5FF"/>
<path d="M21.394 37.46V38.26C21.394 38.71 21.7538 39.0699 22.1938 39.0699H15.7842C16.2342 39.0699 16.584 38.71 16.584 38.26V37.46H21.394Z" fill="#33B5FF"/>
<path d="M17.3838 8.57996C17.8338 8.57996 18.1841 8.93 18.1841 9.38C18.1841 9.83 17.8338 10.1801 17.3838 10.1801H14.1738C13.7238 10.1801 13.374 9.83 13.374 9.38C13.374 8.93 13.7238 8.57996 14.1738 8.57996H17.3838Z" fill="#33B5FF"/>
<path d="M18.1841 14.2C18.1841 14.64 17.8338 15 17.3838 15H14.1738C13.7238 15 13.374 14.64 13.374 14.2C13.374 13.75 13.7238 13.39 14.1738 13.39H17.3838C17.8338 13.39 18.1841 13.75 18.1841 14.2Z" fill="#33B5FF"/>
<path d="M17.3838 18.21C17.8338 18.21 18.1841 18.56 18.1841 19.01C18.1841 19.46 17.8338 19.8101 17.3838 19.8101H14.1738C13.7238 19.8101 13.374 19.46 13.374 19.01C13.374 18.56 13.7238 18.21 14.1738 18.21H17.3838Z" fill="#33B5FF"/>
<path d="M17.3838 23.02C17.8338 23.02 18.1841 23.3699 18.1841 23.8199C18.1841 24.2699 17.8338 24.62 17.3838 24.62H14.1738C13.7238 24.62 13.374 24.2699 13.374 23.8199C13.374 23.3699 13.7238 23.02 14.1738 23.02H17.3838Z" fill="#33B5FF"/>
<path d="M10.1641 23.8199C10.1641 24.2699 9.81377 24.62 9.36377 24.62H6.15381C5.70381 24.62 5.354 24.2699 5.354 23.8199C5.354 23.3699 5.70381 23.02 6.15381 23.02H9.36377C9.81377 23.02 10.1641 23.3699 10.1641 23.8199Z" fill="#33B5FF"/>
<path d="M9.36377 8.57996C9.81377 8.57996 10.1641 8.93 10.1641 9.38C10.1641 9.83 9.81377 10.1801 9.36377 10.1801H6.15381C5.70381 10.1801 5.354 9.83 5.354 9.38C5.354 8.93 5.70381 8.57996 6.15381 8.57996H9.36377Z" fill="#33B5FF"/>
<path d="M9.36377 13.39C9.81377 13.39 10.1641 13.75 10.1641 14.2C10.1641 14.64 9.81377 15 9.36377 15H6.15381C5.70381 15 5.354 14.64 5.354 14.2C5.354 13.75 5.70381 13.39 6.15381 13.39H9.36377Z" fill="#33B5FF"/>
<path d="M9.36377 18.21C9.81377 18.21 10.1641 18.56 10.1641 19.01C10.1641 19.46 9.81377 19.8101 9.36377 19.8101H6.15381C5.70381 19.8101 5.354 19.46 5.354 19.01C5.354 18.56 5.70381 18.21 6.15381 18.21H9.36377Z" fill="#33B5FF"/>
<path d="M14.9741 30.24C14.9741 29.79 14.6138 29.4399 14.1738 29.4399H9.36377C8.91377 29.4399 8.56396 29.79 8.56396 30.24V37.46H6.9541V30.24C6.9541 28.91 8.03377 27.83 9.36377 27.83H14.1738C15.5038 27.83 16.584 28.91 16.584 30.24V37.46H14.9741V30.24Z" fill="#33B5FF"/>
<path d="M8.56396 37.46H14.9741H16.584V38.26C16.584 38.71 16.2342 39.0699 15.7842 39.0699H7.75391C7.30391 39.0699 6.9541 38.71 6.9541 38.26V37.46H8.56396Z" fill="#33B5FF"/>
<path d="M3.34375 0.880043L20.9839 3.5601C22.1539 3.7501 23.0039 4.74009 23.0039 5.93009V15.1401L22.3638 15.01C22.1138 14.97 21.8741 15.0301 21.6841 15.1701C21.5041 15.3301 21.394 15.5601 21.394 15.8001V5.93009C21.394 5.53009 21.1041 5.19004 20.7241 5.13004L3.08398 2.47001C3.04398 2.45001 2.99385 2.44999 2.94385 2.44999C2.75385 2.44999 2.57408 2.51005 2.43408 2.64005C2.23408 2.80005 2.14404 3.01004 2.14404 3.25004V36.6601C2.14404 37.1101 2.51385 37.46 2.94385 37.46H6.9541V38.26C6.9541 38.71 7.30391 39.07 7.75391 39.07H2.94385C1.61385 39.07 0.53418 37.9901 0.53418 36.6601V3.25004C0.53418 2.55004 0.843789 1.87008 1.38379 1.42008C1.93379 0.960082 2.64375 0.770043 3.34375 0.880043Z" fill="#33B5FF"/>
<path d="M1.42383 7.93994V1.77002L13.5938 2.92004L21.394 4.87L21.9639 10.95L21.394 25.58L1.83398 25.03L1.42383 7.93994Z" fill="#33B5FF"/>
<path fill-rule="evenodd" clip-rule="evenodd" d="M20.4238 14.53C20.4238 14.78 20.2241 14.98 19.9741 14.98C19.9441 14.98 19.9138 14.98 19.8838 14.97L19.1538 17.26C19.1938 17.31 19.2139 17.3799 19.2139 17.4399C19.2139 17.6199 19.074 17.76 18.894 17.76L18.0142 18.9301C18.0242 18.9601 18.0239 18.98 18.0239 19.01C18.0239 19.15 17.9142 19.26 17.7842 19.26C17.7642 19.26 17.7441 19.25 17.7241 19.25L15.6938 20.74C15.7038 20.76 15.7041 20.7901 15.7041 20.8101C15.7041 20.9901 15.564 21.13 15.394 21.13C15.304 21.13 15.2138 21.09 15.1538 21.02L13.124 21.6801C13.124 21.6901 13.1338 21.7 13.1338 21.71C13.1338 21.88 12.994 22.02 12.814 22.02C12.664 22.02 12.5439 21.92 12.5039 21.78H11.0039C10.9639 22 10.7842 22.17 10.5542 22.17C10.3042 22.17 10.104 21.97 10.104 21.72C10.104 21.69 10.1038 21.66 10.1138 21.63L8.22412 21.02C8.16412 21.09 8.07389 21.13 7.98389 21.13C7.80389 21.13 7.66406 20.9901 7.66406 20.8101C7.66406 20.7901 7.67383 20.76 7.67383 20.74L5.604 19.22C5.604 19.22 5.60375 19.22 5.59375 19.22C5.48375 19.22 5.38379 19.13 5.38379 19.01C5.38379 19 5.39404 18.99 5.39404 18.98L4.48389 17.76C4.48389 17.76 4.48412 17.76 4.47412 17.76C4.30412 17.76 4.16406 17.6199 4.16406 17.4399C4.16406 17.3799 4.18412 17.32 4.22412 17.27L3.47412 14.9301C3.45412 14.9401 3.43406 14.9399 3.41406 14.9399C3.16406 14.9399 2.96387 14.74 2.96387 14.49C2.96387 14.26 3.134 14.07 3.354 14.04L3.50391 11.55C3.35391 11.51 3.25391 11.39 3.25391 11.24C3.25391 11.06 3.39422 10.92 3.57422 10.92L3.58398 10.9301L4.15381 9.73999C4.10381 9.70999 4.07422 9.64996 4.07422 9.57996C4.07422 9.46996 4.16393 9.38 4.27393 9.38C4.30393 9.38 4.334 9.38001 4.354 9.39001L5.18408 8.13C5.11408 8.07 5.06396 7.98 5.06396 7.88C5.06396 7.71 5.20402 7.56006 5.37402 7.56006C5.46402 7.56006 5.53375 7.60002 5.59375 7.65002L6.79395 6.63C6.77395 6.6 6.76416 6.56002 6.76416 6.52002C6.76416 6.41002 6.85387 6.31995 6.96387 6.31995C7.03387 6.31995 7.09379 6.35002 7.13379 6.40002L8.94385 5.48999C8.93385 5.45999 8.92383 5.43002 8.92383 5.40002C8.92383 5.28002 9.01379 5.18994 9.13379 5.18994C9.23379 5.18994 9.31398 5.25998 9.33398 5.34998L11.0239 5.02002C11.0439 4.80002 11.2341 4.62 11.4741 4.62C11.7241 4.62 11.9238 4.81995 11.9238 5.06995L14.0439 5.35999C14.0539 5.25999 14.1441 5.18994 14.2441 5.18994C14.3541 5.18994 14.4541 5.28002 14.4541 5.40002C14.4541 5.43002 14.4441 5.45998 14.4341 5.47998L16.2441 6.40002C16.2841 6.35002 16.3438 6.31995 16.4038 6.31995C16.5238 6.31995 16.6138 6.41002 16.6138 6.52002C16.6138 6.56002 16.604 6.6 16.584 6.63L17.7842 7.65002C17.8442 7.60002 17.9139 7.56006 18.0039 7.56006C18.1739 7.56006 18.314 7.71 18.314 7.88C18.314 7.98 18.2638 8.07 18.1938 8.12L19.0239 9.39001C19.0439 9.38001 19.0738 9.38 19.0938 9.38C19.2137 9.38 19.3042 9.46996 19.3042 9.57996C19.3042 9.64996 19.2741 9.70999 19.2241 9.73999L19.7939 10.9301L19.8042 10.92C19.9842 10.92 20.124 11.06 20.124 11.24C20.124 11.39 20.0238 11.51 19.8838 11.54L20.0239 14.08C20.2439 14.11 20.4238 14.3 20.4238 14.53ZM18.5542 10.8199C18.9142 10.9199 19.2842 11.01 19.5342 11.08C19.5542 11.05 19.584 11.02 19.604 11L19.084 9.79004C19.084 9.79004 19.0842 9.79004 19.0742 9.79004C18.9742 9.99004 18.7642 10.3899 18.5542 10.8199ZM18.584 17.4399C18.584 17.3999 18.594 17.36 18.604 17.33L17.3438 16.38L17.5742 17.5699L18.584 17.46C18.584 17.45 18.584 17.4499 18.584 17.4399ZM15.9038 17.52C15.9638 17.52 16.014 17.5401 16.064 17.5601L16.9941 16.29C16.9641 16.25 16.9541 16.21 16.9541 16.15C16.9541 16.02 17.0541 15.92 17.1841 15.92H17.1938L17.6938 14.26C17.6138 14.22 17.564 14.15 17.564 14.05C17.564 13.95 17.6339 13.86 17.7339 13.83L17.6538 12.46C17.5738 12.43 17.5039 12.35 17.5039 12.26C17.5039 12.19 17.5437 12.13 17.5938 12.09L17.1938 10.8C17.1738 10.8 17.154 10.8101 17.124 10.8101C16.954 10.8101 16.814 10.67 16.814 10.49C16.814 10.41 16.8438 10.33 16.9038 10.28L15.5938 8.71997C15.5738 8.72997 15.5642 8.72998 15.5542 8.72998C15.4342 8.72998 15.3438 8.64002 15.3438 8.52002L12.7139 7.40002C12.6739 7.46002 12.6039 7.48999 12.5239 7.48999C12.4239 7.48999 12.3339 7.42997 12.2939 7.33997H11.084C11.044 7.42997 10.954 7.48999 10.854 7.48999C10.774 7.48999 10.7041 7.46002 10.6641 7.40002L8.11377 8.47998C8.11377 8.49998 8.12402 8.52003 8.12402 8.53003C8.12402 8.71003 7.9742 8.84998 7.8042 8.84998C7.7642 8.84998 7.73385 8.83996 7.69385 8.82996L6.354 10.42C6.364 10.44 6.37402 10.47 6.37402 10.5C6.37402 10.6 6.3041 10.68 6.2041 10.7L5.81396 11.98C5.90396 12.04 5.96387 12.14 5.96387 12.25C5.96387 12.4 5.85387 12.5301 5.71387 12.5601L5.64404 13.83C5.74404 13.86 5.81396 13.95 5.81396 14.05C5.81396 14.15 5.76408 14.22 5.68408 14.26L6.18408 15.92H6.19385C6.32385 15.92 6.42383 16.02 6.42383 16.15C6.42383 16.21 6.40402 16.25 6.37402 16.29L7.31396 17.5601C7.36396 17.5401 7.41412 17.52 7.47412 17.52C7.64412 17.52 7.78418 17.66 7.78418 17.83C7.78418 17.88 7.77391 17.93 7.75391 17.97L9.16406 18.88C9.20406 18.83 9.26398 18.79 9.33398 18.79C9.44398 18.79 9.54395 18.89 9.54395 19C9.54395 19.01 9.53418 19.02 9.53418 19.03L11.2139 19.37C11.2339 19.22 11.3639 19.1 11.5239 19.1C11.6839 19.1 11.814 19.22 11.834 19.37L13.834 19.02C13.834 19.01 13.834 19.01 13.834 19C13.834 18.89 13.9239 18.79 14.0439 18.79C14.1139 18.79 14.1741 18.83 14.2041 18.88L15.624 17.97C15.604 17.93 15.5938 17.88 15.5938 17.83C15.5938 17.66 15.7338 17.52 15.9038 17.52ZM15.7041 18.08L14.2842 18.98H15.644L15.8042 18.13C15.7642 18.12 15.7341 18.1 15.7041 18.08ZM13.894 19.15L11.8242 19.51C11.8242 19.51 11.814 19.51 11.814 19.52L13.4839 20.1L13.9341 19.17C13.9141 19.17 13.904 19.16 13.894 19.15ZM9.48389 19.15C9.47389 19.16 9.45385 19.17 9.44385 19.17L9.86377 20.04L11.2139 19.51L9.48389 19.15ZM7.67383 18.08C7.64383 18.1 7.61422 18.12 7.57422 18.13L7.73389 18.98H9.08398L7.67383 18.08ZM4.79395 17.4399C4.79395 17.4499 4.79395 17.45 4.79395 17.46L5.8042 17.5699L6.03418 16.38L4.77393 17.33C4.78393 17.36 4.79395 17.3999 4.79395 17.4399ZM3.88379 11.24C3.88379 11.31 3.86422 11.3701 3.82422 11.4301L4.87402 12.9399L5.38379 12.4301C5.35379 12.3801 5.33398 12.32 5.33398 12.25C5.33398 12.15 5.37408 12.07 5.43408 12.01C5.29408 11.74 5.09379 11.3399 4.88379 10.9399C4.53379 11.0399 4.16379 11.13 3.88379 11.21C3.88379 11.22 3.88379 11.23 3.88379 11.24ZM5.64404 11.9301C5.66404 11.9301 5.67385 11.9399 5.69385 11.9399L6.07422 10.6801C6.05422 10.6701 6.03393 10.66 6.02393 10.65C5.80393 10.7 5.42393 10.8 5.02393 10.91C5.21393 11.29 5.4142 11.68 5.5542 11.95C5.5842 11.94 5.61404 11.9301 5.64404 11.9301ZM5.48389 12.52L4.9541 13.05L5.49414 13.83H5.50391L5.58398 12.5601C5.54398 12.5501 5.51389 12.54 5.48389 12.52ZM4.854 13.15L3.78418 14.23C3.81418 14.28 3.834 14.32 3.854 14.38L5.33398 14.0601C5.33398 14.0601 5.33398 14.06 5.33398 14.05C5.33398 14 5.35379 13.95 5.38379 13.91L4.854 13.15ZM3.81396 14.7L5.04395 15.4399L5.43408 14.25C5.41408 14.23 5.39379 14.2099 5.38379 14.1899L3.86377 14.51C3.86377 14.58 3.84396 14.64 3.81396 14.7ZM5.16406 15.51L5.99414 16.01C6.01414 15.99 6.0342 15.97 6.0542 15.95L5.5542 14.3101L5.16406 15.51ZM5.93408 17.59L7.17383 17.73C7.18383 17.7 7.19387 17.67 7.21387 17.65L6.27393 16.37C6.24393 16.38 6.21385 16.39 6.19385 16.39C6.18385 16.39 6.17406 16.39 6.16406 16.39L5.93408 17.59ZM6.21387 10.3C6.23387 10.3 6.25416 10.3099 6.26416 10.3199L7.58398 8.76001C7.57398 8.75001 7.57396 8.73999 7.56396 8.73999L5.88379 9.20996L6.21387 10.3ZM8.06396 8.35999L10.564 7.30005L8.57422 6.92004L7.99414 8.28003C8.02414 8.30003 8.04396 8.32999 8.06396 8.35999ZM15.394 8.39001C15.394 8.38001 15.4041 8.37 15.4141 8.37L14.8042 6.92004L12.814 7.30005L15.394 8.39001ZM17.0039 10.2C17.0439 10.18 17.084 10.1801 17.124 10.1801C17.154 10.1801 17.1738 10.1801 17.1938 10.1801L17.4941 9.20996L15.7642 8.71997L17.0039 10.2ZM18.354 10.91C17.974 10.81 17.624 10.72 17.394 10.66C17.374 10.69 17.3542 10.72 17.3242 10.74L17.7241 12.05C17.7341 12.05 17.7442 12.0601 17.7642 12.0601C17.9042 11.8001 18.124 11.35 18.354 10.91ZM17.7939 12.45L17.8638 13.83C17.8738 13.83 17.8738 13.83 17.8838 13.83L18.4238 13.05L17.814 12.4399C17.804 12.4399 17.8039 12.45 17.7939 12.45ZM16.1538 17.65C16.1738 17.67 16.1941 17.7 16.2041 17.73L17.4438 17.59L17.2139 16.39C17.2039 16.39 17.1941 16.39 17.1841 16.39C17.1541 16.39 17.134 16.38 17.104 16.37L16.1538 17.65ZM17.374 16.01L18.2139 15.51L17.814 14.3101L17.314 15.95C17.334 15.97 17.364 15.99 17.374 16.01ZM18.334 15.4399L19.5542 14.71C19.5342 14.65 19.5239 14.59 19.5239 14.53C19.5239 14.52 19.5239 14.52 19.5239 14.51L17.9941 14.1899C17.9841 14.2099 17.9641 14.23 17.9341 14.25L18.334 15.4399ZM19.6138 14.26L18.5142 13.15L17.9941 13.91C18.0241 13.95 18.0342 14 18.0342 14.05C18.0342 14.06 18.0342 14.0601 18.0342 14.0601L19.5542 14.38C19.5642 14.34 19.5838 14.3 19.6138 14.26ZM19.5542 11.4301C19.5142 11.3701 19.4941 11.31 19.4941 11.24C19.4941 11.23 19.4941 11.22 19.4941 11.21C19.2041 11.13 18.8439 11.0399 18.4839 10.9399C18.2539 11.3999 18.014 11.86 17.874 12.13C17.904 12.17 17.9238 12.21 17.9238 12.26C17.9238 12.29 17.9138 12.32 17.9038 12.34L18.5039 12.9399L19.5542 11.4301ZM18.9541 9.72998C18.9241 9.69998 18.894 9.64998 18.894 9.59998L17.624 9.25L17.314 10.24C17.394 10.3 17.4438 10.39 17.4438 10.49C17.4438 10.5 17.4438 10.52 17.4438 10.53C17.6738 10.59 18.0441 10.69 18.4141 10.79C18.6441 10.35 18.8441 9.93998 18.9541 9.72998ZM17.9541 8.18994L17.6641 9.12L18.9141 9.46997L18.0742 8.18005C18.0542 8.19005 18.0239 8.19995 18.0039 8.19995C17.9839 8.19995 17.9641 8.18994 17.9541 8.18994ZM17.7139 8.01001L15.7739 8.58997L17.5342 9.07996L17.8242 8.14001C17.7742 8.11001 17.7339 8.06001 17.7139 8.01001ZM15.6738 8.34998C15.7038 8.37998 15.7341 8.40995 15.7441 8.44995L17.6841 7.88C17.6841 7.83 17.6941 7.80001 17.7041 7.76001L16.4839 6.71997C16.4639 6.71997 16.4338 6.72998 16.4038 6.72998C16.4038 6.72998 16.3938 6.72998 16.3838 6.72998L15.6738 8.34998ZM16.2441 6.64001L14.9438 6.89001L15.5439 8.31995L16.2642 6.67004C16.2542 6.66004 16.2441 6.65001 16.2441 6.64001ZM14.4038 5.62L14.8838 6.76001L16.1841 6.52002L14.4038 5.62ZM12.7241 7.10999C12.7441 7.12999 12.7539 7.15004 12.7539 7.17004L14.7539 6.79004L14.2539 5.59998H14.2441C14.2141 5.59998 14.1941 5.59997 14.1641 5.58997C13.8641 5.90997 13.0941 6.71999 12.7241 7.10999ZM11.7441 5.43005C11.9441 5.89005 12.2641 6.60001 12.4741 7.01001C12.4941 7.01001 12.5039 7 12.5239 7C12.5639 7 12.594 7.01003 12.624 7.03003C12.994 6.64003 13.764 5.82 14.064 5.5V5.48999L11.9038 5.19995C11.8738 5.28995 11.8141 5.37005 11.7441 5.43005ZM11.4141 5.51001C11.2941 5.94001 11.1041 6.61004 10.9741 7.04004C11.0341 7.08004 11.0838 7.12995 11.0938 7.19995H12.2842C12.2942 7.14995 12.324 7.10995 12.354 7.06995C12.144 6.65995 11.824 5.94999 11.624 5.48999C11.574 5.50999 11.5241 5.52002 11.4741 5.52002C11.4541 5.52002 11.4341 5.52001 11.4141 5.51001ZM9.31396 5.5C9.61396 5.82 10.3839 6.64003 10.7539 7.03003C10.7839 7.01003 10.8138 7 10.8438 7C10.9737 6.57 11.1642 5.89998 11.2842 5.47998C11.1542 5.41998 11.0539 5.30003 11.0239 5.16003L9.31396 5.48999V5.5ZM8.62402 6.79004L10.624 7.17004C10.624 7.15004 10.634 7.12999 10.644 7.10999C10.274 6.71999 9.51387 5.90997 9.21387 5.58997C9.18387 5.59997 9.16379 5.59998 9.13379 5.59998H9.12402L8.62402 6.79004ZM7.19385 6.52002L8.48389 6.76001L8.97412 5.62L7.19385 6.52002ZM7.11377 6.67004L7.79395 8.21997H7.8042C7.8242 8.21997 7.85402 8.21998 7.87402 8.22998L8.43408 6.89001L7.13379 6.64001C7.13379 6.65001 7.12377 6.66004 7.11377 6.67004ZM5.66406 7.76001C5.68406 7.80001 5.69385 7.83 5.69385 7.88L7.51416 8.42004C7.54416 8.35004 7.59406 8.29 7.66406 8.25L6.99414 6.72998C6.98414 6.72998 6.97387 6.72998 6.96387 6.72998C6.94387 6.72998 6.91404 6.71997 6.89404 6.71997L5.66406 7.76001ZM5.5542 8.14001L5.84375 9.07996L7.50391 8.62C7.49391 8.6 7.49414 8.57005 7.49414 8.55005L5.66406 8.01001C5.64406 8.06001 5.6042 8.11001 5.5542 8.14001ZM4.46387 9.46997L5.71387 9.12L5.42383 8.18994C5.41383 8.18994 5.39402 8.19995 5.37402 8.19995C5.35402 8.19995 5.3242 8.19005 5.3042 8.18005L4.46387 9.46997ZM4.42383 9.72998C4.52383 9.93998 4.73387 10.35 4.96387 10.79C5.35387 10.68 5.72387 10.58 5.96387 10.52C5.96387 10.52 5.9541 10.51 5.9541 10.5C5.9541 10.41 6.00398 10.3401 6.08398 10.3101L5.75391 9.25L4.48389 9.59998C4.47389 9.64998 4.45383 9.69998 4.42383 9.72998ZM3.76416 11C3.79416 11.02 3.82375 11.05 3.84375 11.08C4.09375 11.01 4.45422 10.9199 4.82422 10.8199C4.60422 10.3899 4.4042 9.99004 4.3042 9.79004C4.2942 9.79004 4.29418 9.79004 4.28418 9.79004L3.76416 11ZM3.49414 14.04C3.57414 14.06 3.63385 14.09 3.69385 14.14L4.78418 13.04L3.72412 11.51C3.69412 11.53 3.66379 11.54 3.63379 11.55L3.49414 14.04ZM5.00391 15.5699L3.73389 14.8101C3.69389 14.8401 3.654 14.87 3.604 14.89L4.32422 17.17C4.37422 17.14 4.42412 17.13 4.47412 17.13C4.48412 17.13 4.48389 17.13 4.48389 17.13L5.00391 15.5699ZM4.61377 17.16C4.64377 17.18 4.67385 17.19 4.69385 17.22L5.97412 16.25C5.96412 16.22 5.9541 16.19 5.9541 16.15V16.14L5.11377 15.64L4.61377 17.16ZM5.77393 17.71L4.75391 17.59C4.73391 17.64 4.68402 17.69 4.62402 17.72L5.46387 18.85C5.49387 18.83 5.52396 18.8101 5.56396 18.8101L5.77393 17.71ZM5.79395 18.98H7.59375L7.44385 18.15C7.29385 18.13 7.17381 18.02 7.15381 17.87L5.90381 17.72L5.69385 18.83C5.75385 18.86 5.78395 18.92 5.79395 18.98ZM7.87402 20.52L7.61377 19.12H5.77393C5.76393 19.13 5.75414 19.14 5.74414 19.15L7.73389 20.62C7.77389 20.57 7.82402 20.54 7.87402 20.52ZM8.104 20.52L9.17383 19.14C9.17383 19.13 9.16406 19.12 9.16406 19.12H7.75391L8.00391 20.5C8.04391 20.5 8.074 20.51 8.104 20.52ZM8.25391 20.66L9.74414 20.09L9.31396 19.21C9.30396 19.2 9.30395 19.2 9.29395 19.2L8.21387 20.6C8.23387 20.62 8.24391 20.64 8.25391 20.66ZM10.3438 21.3199L9.79395 20.21L8.29395 20.79C8.29395 20.8 8.29395 20.8101 8.29395 20.8101C8.29395 20.8501 8.29418 20.87 8.28418 20.9L10.1538 21.51C10.2038 21.43 10.2638 21.3599 10.3438 21.3199ZM10.6738 21.28L11.3438 19.67C11.3238 19.66 11.3042 19.64 11.2842 19.62L9.92383 20.16L10.4639 21.28C10.4939 21.27 10.5242 21.27 10.5542 21.27C10.5942 21.27 10.6338 21.27 10.6738 21.28ZM12.604 21.47L11.604 19.72C11.584 19.72 11.5539 19.73 11.5239 19.73C11.5039 19.73 11.4839 19.73 11.4639 19.72L10.7939 21.34C10.9039 21.4 10.9839 21.52 11.0039 21.65L12.5039 21.64C12.5239 21.58 12.554 21.52 12.604 21.47ZM12.854 21.4L13.4238 20.22L11.7441 19.64C11.7341 19.64 11.7341 19.65 11.7241 19.65L12.7241 21.41C12.7541 21.4 12.784 21.39 12.814 21.39C12.824 21.39 12.844 21.39 12.854 21.4ZM15.0938 20.9C15.0838 20.87 15.0742 20.8501 15.0742 20.8101C15.0742 20.8101 15.074 20.81 15.084 20.8L13.5439 20.27L12.9741 21.4399C13.0241 21.4699 13.064 21.5 13.084 21.55L15.0938 20.9ZM15.1641 20.6L14.084 19.2C14.074 19.2 14.074 19.2 14.064 19.21L13.604 20.15L15.1138 20.67C15.1238 20.65 15.1441 20.62 15.1641 20.6ZM15.624 19.12H14.2139C14.2139 19.12 14.2038 19.13 14.1938 19.14L15.2739 20.52C15.3039 20.51 15.334 20.5 15.374 20.5L15.624 19.12ZM17.604 19.1801C17.584 19.1601 17.574 19.14 17.564 19.12H15.7539L15.5039 20.52C15.5539 20.54 15.6038 20.57 15.6338 20.62L17.604 19.1801ZM17.6738 18.79L17.4639 17.72L16.2139 17.87C16.2039 18.02 16.0841 18.13 15.9341 18.15L15.7842 18.98H17.5439C17.5539 18.9 17.6038 18.83 17.6738 18.79ZM18.7539 17.72C18.6939 17.69 18.6438 17.64 18.6138 17.59L17.604 17.71L17.8042 18.77C17.8542 18.77 17.8941 18.7899 17.9341 18.8199L18.7539 17.72ZM18.7642 17.16L18.2539 15.64L17.4238 16.14V16.15C17.4238 16.19 17.4138 16.22 17.4038 16.25L18.6841 17.22C18.7041 17.19 18.7342 17.18 18.7642 17.16ZM19.7642 14.9301C19.7142 14.9001 19.664 14.8599 19.624 14.8199L18.374 15.5699L18.894 17.13C18.954 17.13 19.0039 17.14 19.0439 17.17L19.7642 14.9301ZM19.8838 14.09L19.7441 11.55C19.7141 11.54 19.6838 11.53 19.6538 11.51L18.5938 13.04L19.7041 14.17C19.7641 14.13 19.8238 14.1 19.8838 14.09Z" fill="white"/>
<path d="M14.714 14.1199C14.714 14.5999 14.7143 15.08 14.7043 15.56C14.7043 15.87 14.5739 16.05 14.3439 16.05C14.1339 16.04 13.9943 15.87 13.9943 15.56C13.9943 14.61 14.0043 13.6699 13.9943 12.7199C13.9843 11.9099 13.3941 11.36 12.5841 11.39C11.9241 11.42 11.3842 11.96 11.3542 12.68C11.3342 13.44 11.3542 14.2099 11.3542 14.9799C11.3542 15.1999 11.4442 15.38 11.6842 15.38C11.9442 15.39 12.0341 15.1999 12.0441 14.9699C12.0441 14.2099 12.0441 13.4499 12.0441 12.6999C12.0441 12.5999 12.0444 12.5 12.0544 12.4C12.0744 12.21 12.1742 12.0799 12.3742 12.0699C12.5742 12.0599 12.7043 12.19 12.7443 12.38C12.7743 12.53 12.7643 12.6899 12.7643 12.8499C12.7643 13.5599 12.7641 14.2699 12.7541 14.9799C12.7541 15.6099 12.3443 16.0699 11.7443 16.1099C11.2043 16.1499 10.684 15.7099 10.654 15.0899C10.614 14.1999 10.5642 13.3 10.6842 12.41C10.8142 11.34 11.7244 10.62 12.8244 10.68C13.8244 10.72 14.6743 11.61 14.7043 12.64C14.7243 13.13 14.714 13.6299 14.714 14.1199Z" fill="white"/>
<path d="M8.68427 14C8.71427 13.51 8.61407 12.91 8.73407 12.31C8.86407 11.65 9.25393 11.18 9.84393 10.87C9.95393 10.81 10.0843 10.77 10.2043 10.74C10.4143 10.7 10.584 10.7599 10.654 10.9799C10.714 11.1899 10.604 11.34 10.424 11.4C9.62401 11.68 9.36423 12.25 9.39423 13.05C9.42423 13.88 9.39423 14.71 9.39423 15.53C9.39423 15.87 9.27413 16.05 9.04413 16.05C8.83413 16.04 8.68427 15.84 8.68427 15.52C8.67427 15.05 8.68427 14.58 8.68427 14Z" fill="white"/>
</svg>
