<svg width="11" height="8" viewBox="0 0 11 8" fill="none" xmlns="http://www.w3.org/2000/svg">
<path d="M1.03024 1.56999H9.72025C9.88025 1.56999 10.0103 1.43999 10.0103 1.27999C10.0103 1.11999 9.88025 0.98999 9.72025 0.98999H1.03024C0.870243 0.98999 0.740234 1.11999 0.740234 1.27999C0.740234 1.43999 0.870243 1.56999 1.03024 1.56999Z" fill="white" stroke="white"/>
<path d="M9.72025 3.45996H1.03024C0.870243 3.45996 0.740234 3.58996 0.740234 3.74996C0.740234 3.90996 0.870243 4.03996 1.03024 4.03996H9.72025C9.88025 4.03996 10.0103 3.90996 10.0103 3.74996C10.0103 3.58996 9.88025 3.45996 9.72025 3.45996Z" fill="white" stroke="white"/>
<path d="M9.72037 5.92993H3.92038C3.76038 5.92993 3.63037 6.05993 3.63037 6.21993C3.63037 6.37993 3.76038 6.50993 3.92038 6.50993H9.72037C9.88037 6.50993 10.0104 6.37993 10.0104 6.21993C10.0104 6.05993 9.88037 5.92993 9.72037 5.92993Z" fill="white" stroke="white"/>
</svg>
