<svg width="175" height="82" viewBox="0 0 175 82" fill="none" xmlns="http://www.w3.org/2000/svg">
<path d="M104.66 36.75L95.3999 60.5699L137.82 72.59C141.89 69.04 144.23 64.9399 144.23 60.5699V47.4L104.66 36.75Z" fill="#058582"/>
<path d="M95.3998 52.25H53.8398V60.5699C53.8398 68.2099 62.2198 74.8699 74.6498 78.4399L95.3998 52.25Z" fill="#055A9E"/>
<path d="M131.44 70.78L131.48 62.5699L117.88 66.9399L95.3999 60.5699L99.7599 81.08C113.34 80.38 124.96 76.43 131.44 70.83C131.45 70.82 131.47 70.8 131.48 70.79L131.44 70.78Z" fill="#273D57"/>
<path d="M74.6499 70.12V78.4399C80.7599 80.1899 87.8399 81.2 95.3999 81.2C96.8699 81.2 98.3299 81.16 99.7599 81.08V72.77L74.6499 70.12Z" fill="#EB8000"/>
<path d="M103.27 27.15C100.72 26.91 98.0899 26.78 95.3999 26.78C85.9099 26.78 77.1599 28.36 70.1699 31.02L95.3999 47.4L103.27 27.15Z" fill="#FF2D00"/>
<path d="M70.1699 35.87C60.2499 39.64 53.8398 45.57 53.8398 52.25C53.8398 59.89 62.2198 66.56 74.6498 70.12L95.3998 52.25L70.1699 35.87Z" fill="#0664AE"/>
<path d="M74.6499 70.12C80.7599 71.87 87.8399 72.88 95.3999 72.88C96.8699 72.88 98.3299 72.84 99.7599 72.77L95.3999 52.25L74.6499 70.12Z" fill="#FF8B00"/>
<path d="M95.3999 52.25L99.7599 72.77C113.36 72.06 125.01 68.1 131.48 62.47L95.3999 52.25Z" fill="#2D4866"/>
<path d="M131.48 70.79V62.47L95.3999 52.25V47.4L137.82 59.42V72.59L131.48 70.79Z" fill="#057A78"/>
<path d="M137.82 59.42C141.89 55.87 144.23 51.77 144.23 47.4C144.23 35.57 127.2 25.73 104.66 23.58L95.3999 47.4L137.82 59.42Z" fill="#06928F"/>
<path d="M70.1699 31.02V35.87L95.3999 52.25V47.4L70.1699 31.02Z" fill="#D92600"/>
<path d="M122.85 38.47C122.85 39.31 121.49 39.99 119.81 39.99C118.14 39.99 116.78 39.31 116.78 38.47C116.78 37.63 118.14 36.95 119.81 36.95C121.49 36.95 122.85 37.63 122.85 38.47Z" fill="#07B2AE"/>
<path d="M119.81 38.8199C119.62 38.8199 119.47 38.66 119.47 38.47V8.65002H148.41C148.61 8.65002 148.76 8.8 148.76 9C148.76 9.19 148.61 9.33997 148.41 9.33997H120.16V38.47C120.16 38.66 120.01 38.8199 119.81 38.8199Z" fill="#057573"/>
<path d="M93.27 33.01C93.27 33.85 91.91 34.53 90.24 34.53C88.56 34.53 87.21 33.85 87.21 33.01C87.21 32.17 88.56 31.49 90.24 31.49C91.91 31.49 93.27 32.17 93.27 33.01Z" fill="#FF8369"/>
<path d="M90.2401 33.36C90.0501 33.36 89.8901 33.2 89.8901 33.01V8.73999H61.9701C61.7801 8.73999 61.6201 8.58001 61.6201 8.39001C61.6201 8.20001 61.7801 8.04004 61.9701 8.04004H90.5901V33.01C90.5901 33.2 90.4301 33.36 90.2401 33.36Z" fill="#D12500"/>
<path d="M69.6699 51.83C69.6699 52.66 68.3099 53.34 66.6399 53.34C64.9599 53.34 63.6099 52.66 63.6099 51.83C63.6099 50.99 64.9599 50.3101 66.6399 50.3101C68.3099 50.3101 69.6699 50.99 69.6699 51.83Z" fill="#077AD4"/>
<path d="M66.64 52.17C66.45 52.17 66.29 52.02 66.29 51.83V28.16H36.55C36.36 28.16 36.21 28.0001 36.21 27.8101C36.21 27.6201 36.36 27.46 36.55 27.46H66.99V51.83C66.99 52.02 66.83 52.17 66.64 52.17Z" fill="#044B82"/>
<path d="M92.2502 67.28C92.2502 68.12 90.8902 68.8 89.2102 68.8C87.5402 68.8 86.1802 68.12 86.1802 67.28C86.1802 66.44 87.5402 65.76 89.2102 65.76C90.8902 65.76 92.2502 66.44 92.2502 67.28Z" fill="#FFB359"/>
<path d="M89.2101 67.63C89.0201 67.63 88.8601 67.47 88.8601 67.28V61.92H28.7602C28.5602 61.92 28.4102 61.7599 28.4102 61.5699C28.4102 61.3799 28.5602 61.22 28.7602 61.22H89.5602V67.28C89.5602 67.47 89.4101 67.63 89.2101 67.63Z" fill="#CC6F00"/>
<path d="M114.14 66.04C114.14 66.88 112.79 67.5601 111.11 67.5601C109.44 67.5601 108.08 66.88 108.08 66.04C108.08 65.21 109.44 64.53 111.11 64.53C112.79 64.53 114.14 65.21 114.14 66.04Z" fill="#3A5C82"/>
<path d="M111.11 66.39C110.92 66.39 110.76 66.24 110.76 66.04V59.99H171.6C171.79 59.99 171.95 60.14 171.95 60.33C171.95 60.53 171.79 60.6801 171.6 60.6801H111.46V66.04C111.46 66.24 111.3 66.39 111.11 66.39Z" fill="#23384F"/>
<path d="M0.290039 25V21.35H0.780029V25H0.290039ZM4.02002 23.35V25H3.57004V23.36C3.57004 23.1067 3.52004 22.9134 3.42004 22.78C3.32004 22.6534 3.16669 22.59 2.96002 22.59C2.72002 22.59 2.53005 22.6666 2.39005 22.8199C2.25005 22.9733 2.18002 23.1833 2.18002 23.45V25H1.73004V22.27H2.18002V22.6899C2.28669 22.5233 2.41336 22.3999 2.56003 22.3199C2.70669 22.2399 2.87336 22.2 3.06003 22.2C3.37336 22.2 3.61336 22.2967 3.78003 22.49C3.94003 22.6833 4.02002 22.97 4.02002 23.35ZM4.91003 21.49H5.36002V22.27H6.28003V22.61H5.36002V24.1C5.36002 24.32 5.39004 24.4634 5.45004 24.53C5.51004 24.59 5.63337 24.62 5.82004 24.62H6.28003V25H5.82004C5.47337 25 5.23337 24.9367 5.10004 24.8101C4.97337 24.6767 4.91003 24.44 4.91003 24.1V22.61H4.58002V22.27H4.91003V21.49ZM6.87003 25V22.27H7.32004V25H6.87003ZM6.87003 21.77V21.2H7.32004V21.77H6.87003ZM9.95004 23.63H9.51004C9.14337 23.63 8.89003 23.67 8.75003 23.75C8.61003 23.83 8.54004 23.97 8.54004 24.17C8.54004 24.33 8.59338 24.4601 8.70004 24.5601C8.80671 24.6467 8.95004 24.6899 9.13004 24.6899C9.3767 24.6899 9.57671 24.6034 9.73004 24.4301C9.87671 24.2567 9.95004 24.0233 9.95004 23.73V23.63ZM10.4 23.4399V25H9.95004V24.58C9.85004 24.7466 9.72337 24.87 9.57004 24.95C9.4167 25.03 9.23004 25.0699 9.01004 25.0699C8.73004 25.0699 8.50669 24.9933 8.34003 24.84C8.17336 24.68 8.09003 24.4666 8.09003 24.2C8.09003 23.8933 8.19336 23.6633 8.40002 23.51C8.60669 23.35 8.91337 23.27 9.32004 23.27H9.95004V23.23C9.95004 23.0233 9.88336 22.8633 9.75003 22.75C9.6167 22.6367 9.42669 22.58 9.18002 22.58C9.02002 22.58 8.8667 22.6 8.72003 22.64C8.57337 22.6733 8.43004 22.7301 8.29004 22.8101V22.39C8.45671 22.3233 8.61669 22.2767 8.77002 22.25C8.92335 22.2167 9.07337 22.2 9.22003 22.2C9.62003 22.2 9.91668 22.3033 10.11 22.51C10.3033 22.71 10.4 23.0199 10.4 23.4399ZM11.33 25V21.2H11.78V25H11.33ZM15.61 23.26H14.82V24.59H15.61C15.8767 24.59 16.0734 24.5367 16.2 24.4301C16.3267 24.3234 16.39 24.1567 16.39 23.9301C16.39 23.6967 16.3267 23.5267 16.2 23.42C16.0734 23.3134 15.8767 23.26 15.61 23.26ZM15.55 21.76H14.82V22.86H15.55C15.79 22.86 15.97 22.8133 16.09 22.72C16.2034 22.6333 16.26 22.4967 16.26 22.3101C16.26 22.1234 16.2034 21.9867 16.09 21.9C15.97 21.8067 15.79 21.76 15.55 21.76ZM14.33 25V21.35H15.59C15.9634 21.35 16.25 21.43 16.45 21.59C16.6567 21.7433 16.76 21.9667 16.76 22.26C16.76 22.48 16.7067 22.6567 16.6 22.79C16.5 22.9234 16.3467 23.0034 16.14 23.03C16.3867 23.0834 16.5767 23.1933 16.71 23.36C16.8434 23.5267 16.91 23.7333 16.91 23.98C16.91 24.3066 16.8 24.5566 16.58 24.73C16.36 24.91 16.0434 25 15.63 25H14.33ZM17.69 23.92V22.27H18.14V23.9C18.14 24.16 18.19 24.3567 18.29 24.49C18.39 24.6167 18.54 24.6801 18.74 24.6801C18.9867 24.6801 19.18 24.6033 19.32 24.45C19.46 24.2966 19.53 24.0866 19.53 23.8199V22.27H19.98V25H19.53V24.58C19.4234 24.7466 19.2967 24.87 19.15 24.95C19.01 25.03 18.8434 25.0699 18.65 25.0699C18.3367 25.0699 18.0967 24.9734 17.93 24.78C17.77 24.58 17.69 24.2934 17.69 23.92ZM22.49 22.22V22.6899C22.4367 22.6566 22.38 22.6333 22.32 22.62C22.2667 22.6067 22.2034 22.6 22.13 22.6C21.8767 22.6 21.68 22.6833 21.54 22.85C21.4067 23.0166 21.34 23.2534 21.34 23.5601V25H20.89V22.27H21.34V22.6899C21.4334 22.5233 21.5567 22.3999 21.71 22.3199C21.8634 22.2399 22.0467 22.2 22.26 22.2C22.2934 22.2 22.3267 22.2033 22.36 22.21C22.4 22.21 22.4434 22.2133 22.49 22.22ZM25.15 23.35V25H24.7V23.36C24.7 23.1067 24.65 22.9134 24.55 22.78C24.4434 22.6534 24.29 22.59 24.09 22.59C23.85 22.59 23.66 22.6666 23.52 22.8199C23.38 22.9733 23.31 23.1833 23.31 23.45V25H22.86V22.27H23.31V22.6899C23.4167 22.5233 23.5434 22.3999 23.69 22.3199C23.8367 22.2399 24.0034 22.2 24.19 22.2C24.5034 22.2 24.74 22.2967 24.9 22.49C25.0667 22.6833 25.15 22.97 25.15 23.35ZM29.67 24.37L28.38 23.04C28.2267 23.1734 28.1167 23.3066 28.05 23.4399C27.9834 23.5666 27.95 23.7033 27.95 23.85C27.95 24.0833 28.0367 24.2799 28.21 24.4399C28.3767 24.5999 28.59 24.6801 28.85 24.6801C29.01 24.6801 29.1567 24.6533 29.29 24.6C29.4234 24.5466 29.55 24.47 29.67 24.37ZM28.72 22.77L29.96 24.04C30.0534 23.8934 30.13 23.7366 30.19 23.5699C30.2434 23.4033 30.2734 23.2267 30.28 23.04H30.73C30.7167 23.26 30.6667 23.4734 30.58 23.6801C30.4934 23.8934 30.3734 24.1 30.22 24.3L30.91 25H30.29L29.94 24.64C29.7734 24.7867 29.5967 24.8966 29.41 24.97C29.2234 25.0366 29.0234 25.0699 28.81 25.0699C28.4167 25.0699 28.0967 24.96 27.85 24.74C27.6034 24.5133 27.48 24.2233 27.48 23.87C27.48 23.6633 27.5334 23.47 27.64 23.29C27.7467 23.1034 27.91 22.93 28.13 22.77C28.05 22.67 27.99 22.57 27.95 22.47C27.91 22.3633 27.89 22.2634 27.89 22.17C27.89 21.9034 27.98 21.69 28.16 21.53C28.34 21.37 28.58 21.29 28.88 21.29C29.0134 21.29 29.1467 21.3033 29.28 21.33C29.42 21.3633 29.5567 21.4066 29.69 21.46V21.91C29.55 21.83 29.4167 21.7733 29.29 21.74C29.1634 21.6933 29.0434 21.67 28.93 21.67C28.7567 21.67 28.6167 21.7167 28.51 21.8101C28.4034 21.9034 28.35 22.02 28.35 22.16C28.35 22.2467 28.3734 22.33 28.42 22.41C28.4734 22.4967 28.5734 22.6167 28.72 22.77ZM34.87 23.29C34.9767 23.3234 35.08 23.4 35.18 23.52C35.28 23.64 35.38 23.8 35.48 24L35.98 25H35.45L34.98 24.0601C34.86 23.8201 34.7434 23.66 34.63 23.58C34.5167 23.5 34.3634 23.46 34.17 23.46H33.63V25H33.14V21.35H34.25C34.67 21.35 34.9834 21.44 35.19 21.62C35.39 21.7933 35.49 22.0534 35.49 22.4C35.49 22.6334 35.4367 22.8266 35.33 22.98C35.2234 23.1266 35.07 23.23 34.87 23.29ZM34.25 21.76H33.63V23.05H34.25C34.49 23.05 34.67 22.9967 34.79 22.89C34.91 22.7767 34.97 22.6134 34.97 22.4C34.97 22.1867 34.91 22.0267 34.79 21.92C34.67 21.8134 34.49 21.76 34.25 21.76ZM38.71 23.52V23.74H36.64C36.66 24.0467 36.7534 24.2833 36.92 24.45C37.0867 24.61 37.32 24.6899 37.62 24.6899C37.7934 24.6899 37.96 24.67 38.12 24.63C38.28 24.5833 38.44 24.5199 38.6 24.4399V24.86C38.44 24.9267 38.2767 24.98 38.11 25.02C37.9367 25.0534 37.7634 25.0699 37.59 25.0699C37.1567 25.0699 36.81 24.9433 36.55 24.6899C36.2967 24.4366 36.17 24.0934 36.17 23.66C36.17 23.2134 36.2934 22.86 36.54 22.6C36.78 22.3333 37.1034 22.2 37.51 22.2C37.8834 22.2 38.1767 22.3201 38.39 22.5601C38.6034 22.7934 38.71 23.1134 38.71 23.52ZM36.66 23.39H38.26C38.2534 23.1433 38.1834 22.9467 38.05 22.8C37.9167 22.6534 37.74 22.58 37.52 22.58C37.2667 22.58 37.0667 22.65 36.92 22.79C36.7667 22.9367 36.68 23.1367 36.66 23.39ZM39.9 25L39.18 22.27H39.63L40.19 24.4L40.75 22.27H41.28L41.85 24.4L42.4 22.27H42.85L42.14 25H41.61L41.02 22.76L40.43 25H39.9ZM45.22 23.63H44.78C44.4134 23.63 44.16 23.67 44.02 23.75C43.88 23.83 43.81 23.97 43.81 24.17C43.81 24.33 43.8634 24.4601 43.97 24.5601C44.0767 24.6467 44.22 24.6899 44.4 24.6899C44.6467 24.6899 44.8467 24.6034 45 24.4301C45.1467 24.2567 45.22 24.0233 45.22 23.73V23.63ZM45.67 23.4399V25H45.22V24.58C45.12 24.7466 44.9934 24.87 44.84 24.95C44.6867 25.03 44.5 25.0699 44.28 25.0699C44 25.0699 43.7767 24.9933 43.61 24.84C43.4433 24.68 43.36 24.4666 43.36 24.2C43.36 23.8933 43.4634 23.6633 43.67 23.51C43.8767 23.35 44.1834 23.27 44.59 23.27H45.22V23.23C45.22 23.0233 45.1534 22.8633 45.02 22.75C44.8867 22.6367 44.6967 22.58 44.45 22.58C44.29 22.58 44.1367 22.6 43.99 22.64C43.8434 22.6733 43.7 22.7301 43.56 22.8101V22.39C43.7267 22.3233 43.8867 22.2767 44.04 22.25C44.1934 22.2167 44.3434 22.2 44.49 22.2C44.89 22.2 45.1867 22.3033 45.38 22.51C45.5734 22.71 45.67 23.0199 45.67 23.4399ZM48.18 22.22V22.6899C48.1334 22.6566 48.08 22.6333 48.02 22.62C47.96 22.6067 47.8934 22.6 47.82 22.6C47.5667 22.6 47.3734 22.6833 47.24 22.85C47.1 23.0166 47.03 23.2534 47.03 23.5601V25H46.58V22.27H47.03V22.6899C47.1234 22.5233 47.2467 22.3999 47.4 22.3199C47.5534 22.2399 47.7367 22.2 47.95 22.2C47.9834 22.2 48.02 22.2033 48.06 22.21C48.0934 22.21 48.1334 22.2133 48.18 22.22ZM50.37 22.6801V21.2H50.82V25H50.37V24.59C50.27 24.75 50.15 24.87 50.01 24.95C49.8634 25.03 49.69 25.0699 49.49 25.0699C49.1567 25.0699 48.8867 24.9401 48.68 24.6801C48.4734 24.4134 48.37 24.0667 48.37 23.64C48.37 23.2067 48.4734 22.86 48.68 22.6C48.8867 22.3333 49.1567 22.2 49.49 22.2C49.69 22.2 49.8634 22.2399 50.01 22.3199C50.15 22.3999 50.27 22.5201 50.37 22.6801ZM48.84 23.64C48.84 23.9667 48.9067 24.2234 49.04 24.41C49.1734 24.5967 49.36 24.6899 49.6 24.6899C49.84 24.6899 50.0267 24.5967 50.16 24.41C50.3 24.2234 50.37 23.9667 50.37 23.64C50.37 23.3067 50.3 23.0467 50.16 22.86C50.0267 22.6733 49.84 22.58 49.6 22.58C49.36 22.58 49.1734 22.6733 49.04 22.86C48.9067 23.0467 48.84 23.3067 48.84 23.64ZM53.48 22.35V22.77C53.3534 22.7034 53.2234 22.6533 53.09 22.62C52.95 22.5933 52.8067 22.58 52.66 22.58C52.44 22.58 52.2734 22.6134 52.16 22.6801C52.0467 22.7467 51.99 22.85 51.99 22.99C51.99 23.09 52.03 23.17 52.11 23.23C52.19 23.29 52.35 23.3467 52.59 23.4L52.75 23.4399C53.07 23.5066 53.2967 23.6033 53.43 23.73C53.5634 23.85 53.63 24.0233 53.63 24.25C53.63 24.5033 53.53 24.7033 53.33 24.85C53.13 24.9966 52.8534 25.0699 52.5 25.0699C52.3534 25.0699 52.2 25.0567 52.04 25.03C51.88 25.0034 51.7134 24.96 51.54 24.9V24.4399C51.7067 24.5266 51.87 24.59 52.03 24.63C52.19 24.67 52.35 24.6899 52.51 24.6899C52.7234 24.6899 52.8867 24.6566 53 24.59C53.1134 24.5166 53.17 24.4134 53.17 24.28C53.17 24.16 53.1267 24.0667 53.04 24C52.96 23.9333 52.78 23.8701 52.5 23.8101L52.35 23.77C52.07 23.7167 51.87 23.63 51.75 23.51C51.6234 23.3833 51.56 23.2167 51.56 23.01C51.56 22.75 51.65 22.55 51.83 22.41C52.0167 22.27 52.2767 22.2 52.61 22.2C52.7767 22.2 52.9333 22.2133 53.08 22.24C53.2267 22.26 53.36 22.2966 53.48 22.35ZM57.07 21.76H56.45V23.13H57.07C57.2967 23.13 57.4734 23.07 57.6 22.95C57.7267 22.83 57.79 22.6599 57.79 22.4399C57.79 22.2266 57.7267 22.0599 57.6 21.9399C57.4734 21.8199 57.2967 21.76 57.07 21.76ZM55.95 25V21.35H57.07C57.4767 21.35 57.7834 21.4433 57.99 21.63C58.2034 21.8167 58.31 22.0866 58.31 22.4399C58.31 22.7999 58.2034 23.0733 57.99 23.26C57.7834 23.4467 57.4767 23.54 57.07 23.54H56.45V25H55.95ZM59.83 22.58C59.59 22.58 59.4 22.6733 59.26 22.86C59.12 23.0467 59.05 23.3067 59.05 23.64C59.05 23.9667 59.12 24.2234 59.26 24.41C59.4 24.5967 59.59 24.6899 59.83 24.6899C60.07 24.6899 60.26 24.5967 60.4 24.41C60.54 24.2167 60.61 23.96 60.61 23.64C60.61 23.3133 60.54 23.0567 60.4 22.87C60.26 22.6767 60.07 22.58 59.83 22.58ZM59.83 22.2C60.2234 22.2 60.53 22.3266 60.75 22.58C60.9767 22.8333 61.09 23.1867 61.09 23.64C61.09 24.0867 60.9767 24.4366 60.75 24.6899C60.53 24.9433 60.2234 25.0699 59.83 25.0699C59.4367 25.0699 59.13 24.9433 58.91 24.6899C58.69 24.4366 58.58 24.0867 58.58 23.64C58.58 23.1867 58.69 22.8333 58.91 22.58C59.13 22.3266 59.4367 22.2 59.83 22.2ZM62.89 22.58C62.65 22.58 62.46 22.6733 62.32 22.86C62.18 23.0467 62.11 23.3067 62.11 23.64C62.11 23.9667 62.18 24.2234 62.32 24.41C62.46 24.5967 62.65 24.6899 62.89 24.6899C63.13 24.6899 63.32 24.5967 63.46 24.41C63.6 24.2167 63.67 23.96 63.67 23.64C63.67 23.3133 63.6 23.0567 63.46 22.87C63.32 22.6767 63.13 22.58 62.89 22.58ZM62.89 22.2C63.2834 22.2 63.59 22.3266 63.81 22.58C64.0367 22.8333 64.15 23.1867 64.15 23.64C64.15 24.0867 64.0367 24.4366 63.81 24.6899C63.59 24.9433 63.2834 25.0699 62.89 25.0699C62.4967 25.0699 62.19 24.9433 61.97 24.6899C61.75 24.4366 61.64 24.0867 61.64 23.64C61.64 23.1867 61.75 22.8333 61.97 22.58C62.19 22.3266 62.4967 22.2 62.89 22.2ZM64.89 25V21.2H65.34V25H64.89Z" fill="white"/>
<path d="M50.9098 34.58H52.6298V35H50.3198V34.58C50.5065 34.3866 50.7598 34.1301 51.0798 33.8101C51.4065 33.4834 51.6098 33.27 51.6898 33.17C51.8498 32.9967 51.9598 32.8466 52.0198 32.72C52.0865 32.6 52.1198 32.48 52.1198 32.36C52.1198 32.1667 52.0498 32.01 51.9098 31.89C51.7765 31.7633 51.5998 31.7 51.3798 31.7C51.2265 31.7 51.0632 31.7267 50.8898 31.78C50.7232 31.84 50.5398 31.9234 50.3398 32.03V31.53C50.5398 31.45 50.7265 31.39 50.8998 31.35C51.0731 31.31 51.2298 31.29 51.3698 31.29C51.7498 31.29 52.0531 31.3833 52.2798 31.5699C52.4998 31.7633 52.6098 32.0166 52.6098 32.33C52.6098 32.4766 52.5831 32.62 52.5298 32.76C52.4698 32.8933 52.3665 33.05 52.2198 33.23C52.1798 33.2766 52.0498 33.4133 51.8298 33.64C51.6165 33.8667 51.3098 34.18 50.9098 34.58ZM53.6698 35V34.38H54.1798V35H53.6698ZM56.3098 31.6801C56.0565 31.6801 55.8665 31.8067 55.7398 32.0601C55.6131 32.3067 55.5498 32.6801 55.5498 33.1801C55.5498 33.6801 55.6131 34.0567 55.7398 34.3101C55.8665 34.5567 56.0565 34.6801 56.3098 34.6801C56.5698 34.6801 56.7632 34.5567 56.8898 34.3101C57.0165 34.0567 57.0798 33.6801 57.0798 33.1801C57.0798 32.6801 57.0165 32.3067 56.8898 32.0601C56.7632 31.8067 56.5698 31.6801 56.3098 31.6801ZM56.3098 31.29C56.7165 31.29 57.0298 31.45 57.2498 31.77C57.4632 32.0967 57.5698 32.5667 57.5698 33.1801C57.5698 33.7934 57.4632 34.2633 57.2498 34.59C57.0298 34.91 56.7165 35.0699 56.3098 35.0699C55.9031 35.0699 55.5898 34.91 55.3698 34.59C55.1565 34.2633 55.0498 33.7934 55.0498 33.1801C55.0498 32.5667 55.1565 32.0967 55.3698 31.77C55.5898 31.45 55.9031 31.29 56.3098 31.29ZM61.5398 33.4C61.3998 33.4 61.2865 33.46 61.1998 33.58C61.1265 33.7 61.0898 33.8666 61.0898 34.08C61.0898 34.2933 61.1265 34.46 61.1998 34.58C61.2865 34.7 61.3998 34.76 61.5398 34.76C61.6798 34.76 61.7898 34.7 61.8698 34.58C61.9498 34.46 61.9898 34.2933 61.9898 34.08C61.9898 33.8666 61.9498 33.7 61.8698 33.58C61.7898 33.46 61.6798 33.4 61.5398 33.4ZM61.5398 33.09C61.7932 33.09 61.9965 33.1766 62.1498 33.35C62.3031 33.53 62.3798 33.7733 62.3798 34.08C62.3798 34.3866 62.3031 34.6267 62.1498 34.8C61.9965 34.98 61.7932 35.0699 61.5398 35.0699C61.2798 35.0699 61.0732 34.98 60.9198 34.8C60.7665 34.6267 60.6898 34.3866 60.6898 34.08C60.6898 33.7733 60.7665 33.53 60.9198 33.35C61.0732 33.1766 61.2798 33.09 61.5398 33.09ZM59.0198 31.6C58.8798 31.6 58.7698 31.66 58.6898 31.78C58.6098 31.9 58.5698 32.0667 58.5698 32.28C58.5698 32.4934 58.6098 32.66 58.6898 32.78C58.7698 32.9 58.8798 32.96 59.0198 32.96C59.1598 32.96 59.2698 32.9 59.3498 32.78C59.4298 32.66 59.4698 32.4934 59.4698 32.28C59.4698 32.0734 59.4298 31.9067 59.3498 31.78C59.2698 31.66 59.1598 31.6 59.0198 31.6ZM58.9398 35.0699L61.2198 31.29H61.6098L59.3298 35.0699H58.9398ZM59.0198 31.29C59.2798 31.29 59.4832 31.3801 59.6298 31.5601C59.7832 31.7334 59.8598 31.9734 59.8598 32.28C59.8598 32.5867 59.7832 32.83 59.6298 33.01C59.4832 33.1833 59.2798 33.27 59.0198 33.27C58.7598 33.27 58.5531 33.1833 58.3998 33.01C58.2531 32.83 58.1798 32.5867 58.1798 32.28C58.1798 31.98 58.2565 31.7401 58.4098 31.5601C58.5565 31.3801 58.7598 31.29 59.0198 31.29Z" fill="white"/>
<path d="M133.12 1.76001H132.5V3.13H133.12C133.347 3.13 133.523 3.06995 133.65 2.94995C133.777 2.82995 133.84 2.65994 133.84 2.43994C133.84 2.22661 133.777 2.05994 133.65 1.93994C133.523 1.81994 133.347 1.76001 133.12 1.76001ZM132 5V1.34998H133.12C133.527 1.34998 133.833 1.44334 134.04 1.63C134.253 1.81667 134.36 2.08661 134.36 2.43994C134.36 2.79994 134.253 3.07334 134.04 3.26001C133.833 3.44668 133.527 3.54004 133.12 3.54004H132.5V5H132ZM136.49 2.21997V2.68994C136.443 2.65661 136.39 2.63333 136.33 2.62C136.27 2.60666 136.203 2.59998 136.13 2.59998C135.877 2.59998 135.683 2.68331 135.55 2.84998C135.41 3.01664 135.34 3.25339 135.34 3.56006V5H134.89V2.27002H135.34V2.68994C135.44 2.52327 135.563 2.39995 135.71 2.31995C135.863 2.23995 136.05 2.19995 136.27 2.19995C136.297 2.19995 136.33 2.20329 136.37 2.20996C136.403 2.20996 136.443 2.2133 136.49 2.21997ZM139.19 3.52002V3.73999H137.13C137.15 4.04666 137.243 4.28328 137.41 4.44995C137.577 4.60995 137.81 4.68994 138.11 4.68994C138.277 4.68994 138.443 4.67 138.61 4.63C138.77 4.58334 138.93 4.51994 139.09 4.43994V4.85999C138.93 4.92665 138.763 4.98002 138.59 5.02002C138.423 5.05335 138.253 5.06995 138.08 5.06995C137.64 5.06995 137.293 4.94327 137.04 4.68994C136.787 4.43661 136.66 4.09337 136.66 3.66003C136.66 3.21337 136.78 2.85998 137.02 2.59998C137.267 2.33331 137.593 2.19995 138 2.19995C138.367 2.19995 138.657 2.32006 138.87 2.56006C139.083 2.79339 139.19 3.11335 139.19 3.52002ZM137.14 3.39001H138.75C138.743 3.14335 138.673 2.94672 138.54 2.80005C138.407 2.65338 138.23 2.57996 138.01 2.57996C137.757 2.57996 137.553 2.65004 137.4 2.79004C137.253 2.93671 137.167 3.13668 137.14 3.39001ZM141.68 2.34998V2.77002C141.553 2.70335 141.42 2.65333 141.28 2.62C141.14 2.59333 141 2.57996 140.86 2.57996C140.633 2.57996 140.463 2.61339 140.35 2.68005C140.243 2.74672 140.19 2.84999 140.19 2.98999C140.19 3.08999 140.23 3.16998 140.31 3.22998C140.39 3.28998 140.55 3.34669 140.79 3.40002L140.94 3.43994C141.26 3.50661 141.487 3.60331 141.62 3.72998C141.753 3.84998 141.82 4.02333 141.82 4.25C141.82 4.50333 141.72 4.70331 141.52 4.84998C141.32 4.99664 141.043 5.06995 140.69 5.06995C140.543 5.06995 140.39 5.0567 140.23 5.03003C140.077 5.00336 139.91 4.96002 139.73 4.90002V4.43994C139.897 4.52661 140.06 4.59 140.22 4.63C140.38 4.67 140.54 4.68994 140.7 4.68994C140.913 4.68994 141.077 4.65663 141.19 4.58997C141.303 4.51663 141.36 4.41336 141.36 4.28003C141.36 4.16003 141.32 4.06667 141.24 4C141.153 3.93333 140.973 3.87006 140.7 3.81006L140.54 3.77002C140.26 3.71669 140.06 3.63001 139.94 3.51001C139.813 3.38334 139.75 3.21668 139.75 3.01001C139.75 2.75001 139.843 2.55003 140.03 2.41003C140.21 2.27003 140.467 2.19995 140.8 2.19995C140.967 2.19995 141.123 2.21332 141.27 2.23999C141.417 2.25999 141.553 2.29664 141.68 2.34998ZM144.23 3.63H143.78C143.42 3.63 143.17 3.67 143.03 3.75C142.89 3.83 142.82 3.97004 142.82 4.17004C142.82 4.33004 142.87 4.46006 142.97 4.56006C143.077 4.64673 143.22 4.68994 143.4 4.68994C143.653 4.68994 143.853 4.60339 144 4.43005C144.153 4.25672 144.23 4.02331 144.23 3.72998V3.63ZM144.68 3.43994V5H144.23V4.57996C144.123 4.74662 143.993 4.86995 143.84 4.94995C143.687 5.02995 143.5 5.06995 143.28 5.06995C143 5.06995 142.777 4.9933 142.61 4.83997C142.45 4.67997 142.37 4.46662 142.37 4.19995C142.37 3.89328 142.47 3.66334 142.67 3.51001C142.877 3.35001 143.187 3.27002 143.6 3.27002H144.23V3.22998C144.23 3.02331 144.16 2.86333 144.02 2.75C143.887 2.63667 143.697 2.57996 143.45 2.57996C143.297 2.57996 143.143 2.60001 142.99 2.64001C142.843 2.67335 142.703 2.73006 142.57 2.81006V2.39001C142.73 2.32335 142.89 2.27667 143.05 2.25C143.203 2.21667 143.353 2.19995 143.5 2.19995C143.893 2.19995 144.187 2.30334 144.38 2.51001C144.58 2.71001 144.68 3.01994 144.68 3.43994ZM145.6 5V1.19995H146.05V5H145.6ZM149.33 3.52002V3.73999H147.26C147.28 4.04666 147.373 4.28328 147.54 4.44995C147.707 4.60995 147.94 4.68994 148.24 4.68994C148.413 4.68994 148.58 4.67 148.74 4.63C148.907 4.58334 149.067 4.51994 149.22 4.43994V4.85999C149.06 4.92665 148.897 4.98002 148.73 5.02002C148.557 5.05335 148.383 5.06995 148.21 5.06995C147.777 5.06995 147.433 4.94327 147.18 4.68994C146.927 4.43661 146.8 4.09337 146.8 3.66003C146.8 3.21337 146.92 2.85998 147.16 2.59998C147.4 2.33331 147.727 2.19995 148.14 2.19995C148.507 2.19995 148.797 2.32006 149.01 2.56006C149.223 2.79339 149.33 3.11335 149.33 3.52002ZM147.28 3.39001H148.88C148.88 3.14335 148.81 2.94672 148.67 2.80005C148.537 2.65338 148.36 2.57996 148.14 2.57996C147.887 2.57996 147.687 2.65004 147.54 2.79004C147.387 2.93671 147.3 3.13668 147.28 3.39001Z" fill="white"/>
<path d="M137.5 14.73V12.78L136.26 14.73H137.5ZM135.86 14.66L137.37 12.35H137.99V14.73H138.51V15.14H137.99V16H137.5V15.14H135.86V14.66ZM140.38 12.6801C140.127 12.6801 139.937 12.8067 139.81 13.0601C139.683 13.3067 139.62 13.6801 139.62 14.1801C139.62 14.6801 139.683 15.0567 139.81 15.3101C139.937 15.5567 140.127 15.6801 140.38 15.6801C140.64 15.6801 140.833 15.5567 140.96 15.3101C141.087 15.0567 141.15 14.6801 141.15 14.1801C141.15 13.6801 141.087 13.3067 140.96 13.0601C140.833 12.8067 140.64 12.6801 140.38 12.6801ZM140.38 12.29C140.793 12.29 141.107 12.45 141.32 12.77C141.533 13.0967 141.64 13.5667 141.64 14.1801C141.64 14.7934 141.533 15.2633 141.32 15.59C141.107 15.91 140.793 16.0699 140.38 16.0699C139.973 16.0699 139.66 15.91 139.44 15.59C139.227 15.2633 139.12 14.7934 139.12 14.1801C139.12 13.5667 139.227 13.0967 139.44 12.77C139.66 12.45 139.973 12.29 140.38 12.29ZM142.51 16V15.38H143.02V16H142.51ZM145.15 12.6801C144.897 12.6801 144.707 12.8067 144.58 13.0601C144.453 13.3067 144.39 13.6801 144.39 14.1801C144.39 14.6801 144.453 15.0567 144.58 15.3101C144.707 15.5567 144.897 15.6801 145.15 15.6801C145.41 15.6801 145.603 15.5567 145.73 15.3101C145.857 15.0567 145.92 14.6801 145.92 14.1801C145.92 13.6801 145.857 13.3067 145.73 13.0601C145.603 12.8067 145.41 12.6801 145.15 12.6801ZM145.15 12.29C145.563 12.29 145.877 12.45 146.09 12.77C146.303 13.0967 146.41 13.5667 146.41 14.1801C146.41 14.7934 146.303 15.2633 146.09 15.59C145.877 15.91 145.563 16.0699 145.15 16.0699C144.743 16.0699 144.433 15.91 144.22 15.59C144 15.2633 143.89 14.7934 143.89 14.1801C143.89 13.5667 144 13.0967 144.22 12.77C144.433 12.45 144.743 12.29 145.15 12.29ZM150.38 14.4C150.24 14.4 150.13 14.46 150.05 14.58C149.97 14.7 149.93 14.8666 149.93 15.08C149.93 15.2933 149.97 15.46 150.05 15.58C150.13 15.7 150.24 15.76 150.38 15.76C150.52 15.76 150.63 15.7 150.71 15.58C150.79 15.46 150.83 15.2933 150.83 15.08C150.83 14.8666 150.79 14.7 150.71 14.58C150.63 14.46 150.52 14.4 150.38 14.4ZM150.38 14.09C150.64 14.09 150.843 14.1766 150.99 14.35C151.143 14.53 151.22 14.7733 151.22 15.08C151.22 15.3866 151.143 15.6267 150.99 15.8C150.837 15.98 150.633 16.0699 150.38 16.0699C150.12 16.0699 149.913 15.98 149.76 15.8C149.613 15.6267 149.54 15.3866 149.54 15.08C149.54 14.7733 149.613 14.53 149.76 14.35C149.913 14.1766 150.12 14.09 150.38 14.09ZM147.86 12.6C147.72 12.6 147.61 12.66 147.53 12.78C147.45 12.9 147.41 13.0667 147.41 13.28C147.41 13.4934 147.45 13.66 147.53 13.78C147.61 13.9 147.72 13.96 147.86 13.96C148 13.96 148.11 13.9 148.19 13.78C148.27 13.66 148.31 13.4934 148.31 13.28C148.31 13.0734 148.27 12.9067 148.19 12.78C148.11 12.66 148 12.6 147.86 12.6ZM147.78 16.0699L150.06 12.29H150.46L148.18 16.0699H147.78ZM147.86 12.29C148.12 12.29 148.327 12.3801 148.48 12.5601C148.627 12.7334 148.7 12.9734 148.7 13.28C148.7 13.5867 148.627 13.83 148.48 14.01C148.327 14.1833 148.12 14.27 147.86 14.27C147.6 14.27 147.397 14.1833 147.25 14.01C147.097 13.83 147.02 13.5867 147.02 13.28C147.02 12.98 147.097 12.7401 147.25 12.5601C147.397 12.3801 147.6 12.29 147.86 12.29Z" fill="white"/>
<path d="M13.5698 58V54.35H14.0598V58H13.5698ZM17.2898 56.35V58H16.8498V56.36C16.8498 56.1067 16.7965 55.9134 16.6898 55.78C16.5898 55.6534 16.4398 55.59 16.2398 55.59C15.9998 55.59 15.8098 55.6666 15.6698 55.8199C15.5298 55.9733 15.4598 56.1833 15.4598 56.45V58H14.9998V55.27H15.4598V55.6899C15.5665 55.5233 15.6898 55.3999 15.8298 55.3199C15.9765 55.2399 16.1465 55.2 16.3398 55.2C16.6531 55.2 16.8898 55.2967 17.0498 55.49C17.2098 55.6833 17.2898 55.97 17.2898 56.35ZM18.1798 54.49H18.6398V55.27H19.5598V55.61H18.6398V57.1C18.6398 57.32 18.6698 57.4634 18.7298 57.53C18.7898 57.59 18.9132 57.62 19.0998 57.62H19.5598V58H19.0998C18.7532 58 18.5132 57.9367 18.3798 57.8101C18.2465 57.6767 18.1798 57.44 18.1798 57.1V55.61H17.8498V55.27H18.1798V54.49ZM20.1498 58V55.27H20.5998V58H20.1498ZM20.1498 54.77V54.2H20.5998V54.77H20.1498ZM23.2298 56.63H22.7798C22.4198 56.63 22.1698 56.67 22.0298 56.75C21.8898 56.83 21.8198 56.97 21.8198 57.17C21.8198 57.33 21.8732 57.4601 21.9798 57.5601C22.0798 57.6467 22.2198 57.6899 22.3998 57.6899C22.6531 57.6899 22.8532 57.6034 22.9998 57.4301C23.1532 57.2567 23.2298 57.0233 23.2298 56.73V56.63ZM23.6798 56.4399V58H23.2298V57.58C23.1298 57.7466 23.0032 57.87 22.8498 57.95C22.6965 58.03 22.5098 58.0699 22.2898 58.0699C22.0098 58.0699 21.7865 57.9933 21.6198 57.84C21.4531 57.68 21.3698 57.4666 21.3698 57.2C21.3698 56.8933 21.4731 56.6633 21.6798 56.51C21.8865 56.35 22.1932 56.27 22.5998 56.27H23.2298V56.23C23.2298 56.0233 23.1598 55.8633 23.0198 55.75C22.8865 55.6367 22.6965 55.58 22.4498 55.58C22.2965 55.58 22.1465 55.6 21.9998 55.64C21.8465 55.6733 21.7032 55.7301 21.5698 55.8101V55.39C21.7365 55.3233 21.8965 55.2767 22.0498 55.25C22.2031 55.2167 22.3532 55.2 22.4998 55.2C22.8932 55.2 23.1898 55.3033 23.3898 55.51C23.5832 55.71 23.6798 56.0199 23.6798 56.4399ZM24.5998 58V54.2H25.0498V58H24.5998ZM27.5998 58V54.35H28.3398L29.2698 56.84L30.1998 54.35H30.9398V58H30.4598V54.8L29.5198 57.3H29.0198L28.0798 54.8V58H27.5998ZM33.5898 56.63H33.1398C32.7798 56.63 32.5298 56.67 32.3898 56.75C32.2498 56.83 32.1798 56.97 32.1798 57.17C32.1798 57.33 32.2298 57.4601 32.3298 57.5601C32.4365 57.6467 32.5798 57.6899 32.7598 57.6899C33.0065 57.6899 33.2065 57.6034 33.3598 57.4301C33.5131 57.2567 33.5898 57.0233 33.5898 56.73V56.63ZM34.0398 56.4399V58H33.5898V57.58C33.4831 57.7466 33.3532 57.87 33.1998 57.95C33.0465 58.03 32.8598 58.0699 32.6398 58.0699C32.3598 58.0699 32.1365 57.9933 31.9698 57.84C31.8098 57.68 31.7298 57.4666 31.7298 57.2C31.7298 56.8933 31.8298 56.6633 32.0298 56.51C32.2365 56.35 32.5465 56.27 32.9598 56.27H33.5898V56.23C33.5898 56.0233 33.5198 55.8633 33.3798 55.75C33.2465 55.6367 33.0565 55.58 32.8098 55.58C32.6565 55.58 32.5032 55.6 32.3498 55.64C32.2032 55.6733 32.0631 55.7301 31.9298 55.8101V55.39C32.0898 55.3233 32.2465 55.2767 32.3998 55.25C32.5598 55.2167 32.7131 55.2 32.8598 55.2C33.2531 55.2 33.5465 55.3033 33.7398 55.51C33.9398 55.71 34.0398 56.0199 34.0398 56.4399ZM36.5398 55.22L36.5498 55.6899C36.4965 55.6566 36.4398 55.6333 36.3798 55.62C36.3198 55.6067 36.2531 55.6 36.1798 55.6C35.9265 55.6 35.7332 55.6833 35.5998 55.85C35.4665 56.0166 35.3998 56.2534 35.3998 56.5601V58H34.9398V55.27H35.3998V55.6899C35.4931 55.5233 35.6132 55.3999 35.7598 55.3199C35.9132 55.2399 36.0998 55.2 36.3198 55.2C36.3465 55.2 36.3798 55.2033 36.4198 55.21C36.4532 55.21 36.4932 55.2133 36.5398 55.22ZM36.9998 58V54.2H37.4498V56.4399L38.7898 55.27H39.3698L37.9098 56.54L39.4298 58H38.8398L37.4498 56.66V58H36.9998ZM42.0698 56.52V56.74H40.0098C40.0298 57.0467 40.1232 57.2833 40.2898 57.45C40.4565 57.61 40.6865 57.6899 40.9798 57.6899C41.1532 57.6899 41.3198 57.67 41.4798 57.63C41.6465 57.5833 41.8098 57.5199 41.9698 57.4399V57.86C41.8098 57.9267 41.6432 57.98 41.4698 58.02C41.3032 58.0534 41.1331 58.0699 40.9598 58.0699C40.5198 58.0699 40.1732 57.9433 39.9198 57.6899C39.6665 57.4366 39.5398 57.0934 39.5398 56.66C39.5398 56.2134 39.6598 55.86 39.8998 55.6C40.1398 55.3333 40.4665 55.2 40.8798 55.2C41.2465 55.2 41.5365 55.3201 41.7498 55.5601C41.9632 55.7934 42.0698 56.1134 42.0698 56.52ZM40.0198 56.39H41.6198C41.6198 56.1433 41.5532 55.9467 41.4198 55.8C41.2865 55.6534 41.1065 55.58 40.8798 55.58C40.6332 55.58 40.4331 55.65 40.2798 55.79C40.1331 55.9367 40.0465 56.1367 40.0198 56.39ZM42.7998 54.49H43.2498V55.27H44.1798V55.61H43.2498V57.1C43.2498 57.32 43.2798 57.4634 43.3398 57.53C43.4065 57.59 43.5332 57.62 43.7198 57.62H44.1798V58H43.7198C43.3732 58 43.1332 57.9367 42.9998 57.8101C42.8665 57.6767 42.7998 57.44 42.7998 57.1V55.61H42.4698V55.27H42.7998V54.49ZM44.7698 58V55.27H45.2198V58H44.7698ZM44.7698 54.77V54.2H45.2198V54.77H44.7698ZM48.4298 56.35V58H47.9798V56.36C47.9798 56.1067 47.9298 55.9134 47.8298 55.78C47.7298 55.6534 47.5798 55.59 47.3798 55.59C47.1332 55.59 46.9398 55.6666 46.7998 55.8199C46.6598 55.9733 46.5898 56.1833 46.5898 56.45V58H46.1398V55.27H46.5898V55.6899C46.7031 55.5233 46.8298 55.3999 46.9698 55.3199C47.1165 55.2399 47.2865 55.2 47.4798 55.2C47.7932 55.2 48.0298 55.2967 48.1898 55.49C48.3498 55.6833 48.4298 55.97 48.4298 56.35ZM51.1298 56.6C51.1298 56.2733 51.0631 56.02 50.9298 55.84C50.7965 55.6666 50.6065 55.58 50.3598 55.58C50.1198 55.58 49.9331 55.6666 49.7998 55.84C49.6665 56.02 49.5998 56.2733 49.5998 56.6C49.5998 56.9266 49.6665 57.18 49.7998 57.36C49.9331 57.5333 50.1198 57.62 50.3598 57.62C50.6065 57.62 50.7965 57.5333 50.9298 57.36C51.0631 57.18 51.1298 56.9266 51.1298 56.6ZM51.5798 55.27V57.66C51.5798 58.1267 51.4765 58.4733 51.2698 58.7C51.0631 58.9266 50.7465 59.04 50.3198 59.04C50.1598 59.04 50.0098 59.03 49.8698 59.01C49.7298 58.9833 49.5931 58.9467 49.4598 58.9V58.46C49.5931 58.5333 49.7232 58.5867 49.8498 58.62C49.9832 58.6533 50.1165 58.67 50.2498 58.67C50.5432 58.67 50.7632 58.5933 50.9098 58.4399C51.0565 58.2866 51.1298 58.0533 51.1298 57.74V57.52C51.0365 57.68 50.9165 57.8 50.7698 57.88C50.6231 57.96 50.4498 58 50.2498 58C49.9165 58 49.6465 57.8733 49.4398 57.62C49.2332 57.36 49.1298 57.02 49.1298 56.6C49.1298 56.18 49.2332 55.84 49.4398 55.58C49.6465 55.3266 49.9165 55.2 50.2498 55.2C50.4498 55.2 50.6231 55.2399 50.7698 55.3199C50.9165 55.3999 51.0365 55.5201 51.1298 55.6801V55.27H51.5798Z" fill="white"/>
<path d="M37.07 68.58H38.79V69H36.48V68.58C36.6666 68.3866 36.92 68.1301 37.24 67.8101C37.5666 67.4834 37.77 67.27 37.85 67.17C38.01 66.9967 38.12 66.8466 38.18 66.72C38.2466 66.6 38.28 66.48 38.28 66.36C38.28 66.1667 38.21 66.01 38.07 65.89C37.9366 65.7633 37.76 65.7 37.54 65.7C37.3866 65.7 37.2233 65.7267 37.05 65.78C36.8833 65.84 36.7 65.9234 36.5 66.03V65.53C36.7 65.45 36.8866 65.39 37.06 65.35C37.2333 65.31 37.39 65.29 37.53 65.29C37.91 65.29 38.2133 65.3833 38.44 65.5699C38.66 65.7633 38.77 66.0166 38.77 66.33C38.77 66.4766 38.7433 66.62 38.69 66.76C38.63 66.8933 38.5266 67.05 38.38 67.23C38.34 67.2766 38.21 67.4133 37.99 67.64C37.7766 67.8667 37.47 68.18 37.07 68.58ZM41.32 67.03C41.56 67.0834 41.7433 67.19 41.87 67.35C42.0033 67.51 42.07 67.7066 42.07 67.9399C42.07 68.2999 41.9466 68.58 41.7 68.78C41.4533 68.9734 41.1033 69.0699 40.65 69.0699C40.4966 69.0699 40.3366 69.0567 40.17 69.03C40.01 68.9967 39.8433 68.95 39.67 68.89V68.41C39.81 68.49 39.96 68.55 40.12 68.59C40.2866 68.6366 40.4566 68.66 40.63 68.66C40.9433 68.66 41.18 68.5966 41.34 68.47C41.5 68.35 41.58 68.1733 41.58 67.9399C41.58 67.7266 41.5066 67.5599 41.36 67.4399C41.2066 67.3133 40.9966 67.25 40.73 67.25H40.3V66.85H40.75C40.99 66.85 41.1733 66.8033 41.3 66.71C41.4333 66.61 41.5 66.47 41.5 66.29C41.5 66.0967 41.4333 65.9533 41.3 65.86C41.1666 65.7533 40.9766 65.7 40.73 65.7C40.5966 65.7 40.45 65.7167 40.29 65.75C40.1366 65.7767 39.9666 65.82 39.78 65.88V65.45C39.9666 65.3966 40.1433 65.3566 40.31 65.33C40.4766 65.3033 40.63 65.29 40.77 65.29C41.1433 65.29 41.44 65.3767 41.66 65.55C41.88 65.7167 41.99 65.9433 41.99 66.23C41.99 66.4366 41.93 66.61 41.81 66.75C41.6966 66.8833 41.5333 66.9767 41.32 67.03ZM43.01 69V68.38H43.52V69H43.01ZM45.65 65.6801C45.3966 65.6801 45.2066 65.8067 45.08 66.0601C44.9533 66.3067 44.89 66.6801 44.89 67.1801C44.89 67.6801 44.9533 68.0567 45.08 68.3101C45.2066 68.5567 45.3966 68.6801 45.65 68.6801C45.91 68.6801 46.1033 68.5567 46.23 68.3101C46.3566 68.0567 46.42 67.6801 46.42 67.1801C46.42 66.6801 46.3566 66.3067 46.23 66.0601C46.1033 65.8067 45.91 65.6801 45.65 65.6801ZM45.65 65.29C46.0633 65.29 46.3766 65.45 46.59 65.77C46.8033 66.0967 46.91 66.5667 46.91 67.1801C46.91 67.7934 46.8033 68.2633 46.59 68.59C46.3766 68.91 46.0633 69.0699 45.65 69.0699C45.2433 69.0699 44.9333 68.91 44.72 68.59C44.5 68.2633 44.39 67.7934 44.39 67.1801C44.39 66.5667 44.5 66.0967 44.72 65.77C44.9333 65.45 45.2433 65.29 45.65 65.29ZM50.88 67.4C50.74 67.4 50.63 67.46 50.55 67.58C50.47 67.7 50.43 67.8666 50.43 68.08C50.43 68.2933 50.47 68.46 50.55 68.58C50.63 68.7 50.74 68.76 50.88 68.76C51.02 68.76 51.13 68.7 51.21 68.58C51.29 68.46 51.33 68.2933 51.33 68.08C51.33 67.8666 51.29 67.7 51.21 67.58C51.13 67.46 51.02 67.4 50.88 67.4ZM50.88 67.09C51.14 67.09 51.3433 67.1766 51.49 67.35C51.6433 67.53 51.72 67.7733 51.72 68.08C51.72 68.3866 51.6433 68.6267 51.49 68.8C51.3366 68.98 51.1333 69.0699 50.88 69.0699C50.62 69.0699 50.4133 68.98 50.26 68.8C50.1133 68.6267 50.04 68.3866 50.04 68.08C50.04 67.7733 50.1133 67.53 50.26 67.35C50.4133 67.1766 50.62 67.09 50.88 67.09ZM48.36 65.6C48.22 65.6 48.11 65.66 48.03 65.78C47.95 65.9 47.91 66.0667 47.91 66.28C47.91 66.4934 47.95 66.66 48.03 66.78C48.11 66.9 48.22 66.96 48.36 66.96C48.5 66.96 48.61 66.9 48.69 66.78C48.77 66.66 48.81 66.4934 48.81 66.28C48.81 66.0734 48.77 65.9067 48.69 65.78C48.61 65.66 48.5 65.6 48.36 65.6ZM48.28 69.0699L50.56 65.29H50.96L48.68 69.0699H48.28ZM48.36 65.29C48.62 65.29 48.8266 65.3801 48.98 65.5601C49.1266 65.7334 49.2 65.9734 49.2 66.28C49.2 66.5867 49.1266 66.83 48.98 67.01C48.8266 67.1833 48.62 67.27 48.36 67.27C48.1 67.27 47.8966 67.1833 47.75 67.01C47.5966 66.83 47.52 66.5867 47.52 66.28C47.52 65.98 47.5966 65.7401 47.75 65.5601C47.8966 65.3801 48.1 65.29 48.36 65.29Z" fill="white"/>
<path d="M146.55 51.76H145.93V53.13H146.55C146.777 53.13 146.954 53.07 147.08 52.95C147.207 52.83 147.27 52.6599 147.27 52.4399C147.27 52.2266 147.207 52.0599 147.08 51.9399C146.954 51.8199 146.777 51.76 146.55 51.76ZM145.43 55V51.35H146.55C146.957 51.35 147.264 51.4433 147.47 51.63C147.684 51.8167 147.79 52.0866 147.79 52.4399C147.79 52.7999 147.684 53.0733 147.47 53.26C147.264 53.4467 146.957 53.54 146.55 53.54H145.93V55H145.43ZM149.92 52.22V52.6899C149.874 52.6566 149.82 52.6333 149.76 52.62C149.7 52.6067 149.634 52.6 149.56 52.6C149.307 52.6 149.114 52.6833 148.98 52.85C148.84 53.0166 148.77 53.2534 148.77 53.5601V55H148.32V52.27H148.77V52.6899C148.87 52.5233 148.994 52.3999 149.14 52.3199C149.294 52.2399 149.477 52.2 149.69 52.2C149.724 52.2 149.76 52.2033 149.8 52.21C149.834 52.21 149.874 52.2133 149.92 52.22ZM150.4 55V52.27H150.84V55H150.4ZM150.4 51.77V51.2H150.84V51.77H150.4ZM152.49 55L151.46 52.27H151.94L152.79 54.5601L153.65 52.27H154.12L153.1 55H152.49ZM156.43 53.63H155.99C155.624 53.63 155.37 53.67 155.23 53.75C155.09 53.83 155.02 53.97 155.02 54.17C155.02 54.33 155.074 54.4601 155.18 54.5601C155.287 54.6467 155.43 54.6899 155.61 54.6899C155.857 54.6899 156.057 54.6034 156.21 54.4301C156.357 54.2567 156.43 54.0233 156.43 53.73V53.63ZM156.88 53.4399V55H156.43V54.58C156.33 54.7466 156.204 54.87 156.05 54.95C155.897 55.03 155.71 55.0699 155.49 55.0699C155.21 55.0699 154.987 54.9933 154.82 54.84C154.654 54.68 154.57 54.4666 154.57 54.2C154.57 53.8933 154.674 53.6633 154.88 53.51C155.087 53.35 155.394 53.27 155.8 53.27H156.43V53.23C156.43 53.0233 156.364 52.8633 156.23 52.75C156.097 52.6367 155.907 52.58 155.66 52.58C155.5 52.58 155.347 52.6 155.2 52.64C155.054 52.6733 154.91 52.7301 154.77 52.8101V52.39C154.937 52.3233 155.097 52.2767 155.25 52.25C155.404 52.2167 155.554 52.2 155.7 52.2C156.1 52.2 156.397 52.3033 156.59 52.51C156.784 52.71 156.88 53.0199 156.88 53.4399ZM157.8 51.49H158.25V52.27H159.18V52.61H158.25V54.1C158.25 54.32 158.28 54.4634 158.34 54.53C158.407 54.59 158.534 54.62 158.72 54.62H159.18V55H158.72C158.374 55 158.134 54.9367 158 54.8101C157.867 54.6767 157.8 54.44 157.8 54.1V52.61H157.47V52.27H157.8V51.49ZM162.11 53.52V53.74H160.04C160.06 54.0467 160.154 54.2833 160.32 54.45C160.487 54.61 160.72 54.6899 161.02 54.6899C161.194 54.6899 161.36 54.67 161.52 54.63C161.68 54.5833 161.84 54.5199 162 54.4399V54.86C161.84 54.9267 161.677 54.98 161.51 55.02C161.337 55.0534 161.164 55.0699 160.99 55.0699C160.557 55.0699 160.21 54.9433 159.95 54.6899C159.697 54.4366 159.57 54.0934 159.57 53.66C159.57 53.2134 159.69 52.86 159.93 52.6C160.177 52.3333 160.504 52.2 160.91 52.2C161.277 52.2 161.567 52.3201 161.78 52.5601C162 52.7934 162.11 53.1134 162.11 53.52ZM160.06 53.39H161.66C161.654 53.1433 161.584 52.9467 161.45 52.8C161.317 52.6534 161.14 52.58 160.92 52.58C160.667 52.58 160.467 52.65 160.32 52.79C160.167 52.9367 160.08 53.1367 160.06 53.39ZM166.64 51.47V51.96C166.454 51.8666 166.277 51.8 166.11 51.76C165.944 51.7133 165.784 51.6899 165.63 51.6899C165.357 51.6899 165.15 51.7433 165.01 51.85C164.864 51.95 164.79 52.0967 164.79 52.29C164.79 52.45 164.837 52.5734 164.93 52.66C165.03 52.74 165.214 52.8033 165.48 52.85L165.78 52.92C166.147 52.9867 166.417 53.11 166.59 53.29C166.77 53.4634 166.86 53.6967 166.86 53.99C166.86 54.3433 166.74 54.6134 166.5 54.8C166.267 54.98 165.92 55.0699 165.46 55.0699C165.287 55.0699 165.104 55.05 164.91 55.01C164.717 54.97 164.517 54.9133 164.31 54.84V54.33C164.51 54.4433 164.707 54.5266 164.9 54.58C165.087 54.64 165.274 54.67 165.46 54.67C165.74 54.67 165.957 54.6133 166.11 54.5C166.264 54.3933 166.34 54.2367 166.34 54.03C166.34 53.85 166.287 53.71 166.18 53.61C166.067 53.51 165.887 53.4333 165.64 53.38L165.34 53.33C164.974 53.2566 164.707 53.14 164.54 52.98C164.374 52.8266 164.29 52.61 164.29 52.33C164.29 52.01 164.404 51.7566 164.63 51.5699C164.857 51.3833 165.17 51.29 165.57 51.29C165.744 51.29 165.917 51.3066 166.09 51.34C166.27 51.3666 166.454 51.41 166.64 51.47ZM169.3 53.63H168.85C168.49 53.63 168.24 53.67 168.1 53.75C167.96 53.83 167.89 53.97 167.89 54.17C167.89 54.33 167.94 54.4601 168.04 54.5601C168.147 54.6467 168.29 54.6899 168.47 54.6899C168.724 54.6899 168.924 54.6034 169.07 54.4301C169.224 54.2567 169.3 54.0233 169.3 53.73V53.63ZM169.75 53.4399V55H169.3V54.58C169.194 54.7466 169.064 54.87 168.91 54.95C168.757 55.03 168.57 55.0699 168.35 55.0699C168.07 55.0699 167.847 54.9933 167.68 54.84C167.52 54.68 167.44 54.4666 167.44 54.2C167.44 53.8933 167.54 53.6633 167.74 53.51C167.947 53.35 168.257 53.27 168.67 53.27H169.3V53.23C169.3 53.0233 169.23 52.8633 169.09 52.75C168.957 52.6367 168.767 52.58 168.52 52.58C168.367 52.58 168.214 52.6 168.06 52.64C167.914 52.6733 167.774 52.7301 167.64 52.8101V52.39C167.8 52.3233 167.96 52.2767 168.12 52.25C168.274 52.2167 168.424 52.2 168.57 52.2C168.964 52.2 169.257 52.3033 169.45 52.51C169.65 52.71 169.75 53.0199 169.75 53.4399ZM170.67 55V51.2H171.12V55H170.67ZM174.4 53.52V53.74H172.33C172.35 54.0467 172.444 54.2833 172.61 54.45C172.777 54.61 173.01 54.6899 173.31 54.6899C173.484 54.6899 173.65 54.67 173.81 54.63C173.977 54.5833 174.137 54.5199 174.29 54.4399V54.86C174.13 54.9267 173.967 54.98 173.8 55.02C173.634 55.0534 173.46 55.0699 173.28 55.0699C172.847 55.0699 172.504 54.9433 172.25 54.6899C171.997 54.4366 171.87 54.0934 171.87 53.66C171.87 53.2134 171.99 52.86 172.23 52.6C172.47 52.3333 172.797 52.2 173.21 52.2C173.577 52.2 173.867 52.3201 174.08 52.5601C174.294 52.7934 174.4 53.1134 174.4 53.52ZM172.35 53.39H173.95C173.95 53.1433 173.88 52.9467 173.74 52.8C173.607 52.6534 173.43 52.58 173.21 52.58C172.957 52.58 172.757 52.65 172.61 52.79C172.457 52.9367 172.37 53.1367 172.35 53.39Z" fill="white"/>
<path d="M157.57 65.58H159.29V66H156.98V65.58C157.167 65.3866 157.42 65.1301 157.74 64.8101C158.067 64.4834 158.27 64.27 158.35 64.17C158.51 63.9967 158.62 63.8466 158.68 63.72C158.747 63.6 158.78 63.48 158.78 63.36C158.78 63.1667 158.71 63.01 158.57 62.89C158.437 62.7633 158.26 62.7 158.04 62.7C157.887 62.7 157.723 62.7267 157.55 62.78C157.383 62.84 157.2 62.9234 157 63.03V62.53C157.2 62.45 157.387 62.39 157.56 62.35C157.733 62.31 157.89 62.29 158.03 62.29C158.41 62.29 158.713 62.3833 158.94 62.5699C159.16 62.7633 159.27 63.0166 159.27 63.33C159.27 63.4766 159.243 63.62 159.19 63.76C159.13 63.8933 159.027 64.05 158.88 64.23C158.84 64.2766 158.71 64.4133 158.49 64.64C158.277 64.8667 157.97 65.18 157.57 65.58ZM160.33 64.1899V62.35H162.27V62.77H160.78V63.66C160.853 63.64 160.927 63.6233 161 63.61C161.073 63.5967 161.143 63.59 161.21 63.59C161.617 63.59 161.94 63.7 162.18 63.92C162.42 64.1467 162.54 64.45 162.54 64.83C162.54 65.2233 162.417 65.53 162.17 65.75C161.923 65.9633 161.58 66.0699 161.14 66.0699C160.987 66.0699 160.83 66.0567 160.67 66.03C160.51 66.0034 160.347 65.9634 160.18 65.91V65.42C160.327 65.5 160.477 65.56 160.63 65.6C160.79 65.64 160.957 65.66 161.13 65.66C161.41 65.66 161.633 65.5834 161.8 65.4301C161.96 65.2834 162.04 65.0833 162.04 64.83C162.04 64.5766 161.96 64.3766 161.8 64.23C161.633 64.0833 161.41 64.01 161.13 64.01C160.997 64.01 160.863 64.0234 160.73 64.05C160.603 64.0767 160.47 64.1233 160.33 64.1899ZM163.51 66V65.38H164.02V66H163.51ZM166.15 62.6801C165.897 62.6801 165.707 62.8067 165.58 63.0601C165.453 63.3067 165.39 63.6801 165.39 64.1801C165.39 64.6801 165.453 65.0567 165.58 65.3101C165.707 65.5567 165.897 65.6801 166.15 65.6801C166.41 65.6801 166.603 65.5567 166.73 65.3101C166.857 65.0567 166.92 64.6801 166.92 64.1801C166.92 63.6801 166.857 63.3067 166.73 63.0601C166.603 62.8067 166.41 62.6801 166.15 62.6801ZM166.15 62.29C166.563 62.29 166.877 62.45 167.09 62.77C167.303 63.0967 167.41 63.5667 167.41 64.1801C167.41 64.7934 167.303 65.2633 167.09 65.59C166.877 65.91 166.563 66.0699 166.15 66.0699C165.743 66.0699 165.433 65.91 165.22 65.59C165 65.2633 164.89 64.7934 164.89 64.1801C164.89 63.5667 165 63.0967 165.22 62.77C165.433 62.45 165.743 62.29 166.15 62.29ZM171.38 64.4C171.24 64.4 171.13 64.46 171.05 64.58C170.97 64.7 170.93 64.8666 170.93 65.08C170.93 65.2933 170.97 65.46 171.05 65.58C171.13 65.7 171.24 65.76 171.38 65.76C171.52 65.76 171.63 65.7 171.71 65.58C171.79 65.46 171.83 65.2933 171.83 65.08C171.83 64.8666 171.79 64.7 171.71 64.58C171.63 64.46 171.52 64.4 171.38 64.4ZM171.38 64.09C171.64 64.09 171.843 64.1766 171.99 64.35C172.143 64.53 172.22 64.7733 172.22 65.08C172.22 65.3866 172.143 65.6267 171.99 65.8C171.837 65.98 171.633 66.0699 171.38 66.0699C171.12 66.0699 170.913 65.98 170.76 65.8C170.613 65.6267 170.54 65.3866 170.54 65.08C170.54 64.7733 170.613 64.53 170.76 64.35C170.913 64.1766 171.12 64.09 171.38 64.09ZM168.86 62.6C168.72 62.6 168.61 62.66 168.53 62.78C168.45 62.9 168.41 63.0667 168.41 63.28C168.41 63.4934 168.45 63.66 168.53 63.78C168.61 63.9 168.72 63.96 168.86 63.96C169 63.96 169.11 63.9 169.19 63.78C169.27 63.66 169.31 63.4934 169.31 63.28C169.31 63.0734 169.27 62.9067 169.19 62.78C169.11 62.66 169 62.6 168.86 62.6ZM168.78 66.0699L171.06 62.29H171.46L169.18 66.0699H168.78ZM168.86 62.29C169.12 62.29 169.327 62.3801 169.48 62.5601C169.627 62.7334 169.7 62.9734 169.7 63.28C169.7 63.5867 169.627 63.83 169.48 64.01C169.327 64.1833 169.12 64.27 168.86 64.27C168.6 64.27 168.397 64.1833 168.25 64.01C168.097 63.83 168.02 63.5867 168.02 63.28C168.02 62.98 168.097 62.7401 168.25 62.5601C168.397 62.3801 168.6 62.29 168.86 62.29Z" fill="white"/>
<path d="M39.1001 4V0.349976H39.5901V4H39.1001ZM42.8301 2.34998V4H42.3801V2.35999C42.3801 2.10665 42.3301 1.91336 42.2301 1.78003C42.1301 1.65336 41.9767 1.58997 41.7701 1.58997C41.5301 1.58997 41.3401 1.66661 41.2001 1.81995C41.0601 1.97328 40.9901 2.18328 40.9901 2.44995V4H40.5401V1.27002H40.9901V1.68994C41.0967 1.52327 41.2234 1.39995 41.3701 1.31995C41.5168 1.23995 41.6834 1.19995 41.8701 1.19995C42.1901 1.19995 42.4301 1.29666 42.5901 1.48999C42.7501 1.68332 42.8301 1.96998 42.8301 2.34998ZM43.7201 0.48999H44.1701V1.27002H45.1001V1.60999H44.1701V3.09998C44.1701 3.31998 44.2001 3.46336 44.2601 3.53003C44.3201 3.59003 44.4434 3.62 44.6301 3.62H45.1001V4H44.6301C44.2834 4 44.0468 3.93673 43.9201 3.81006C43.7868 3.67673 43.7201 3.43998 43.7201 3.09998V1.60999H43.3901V1.27002H43.7201V0.48999ZM47.3801 2.63H46.9301C46.5634 2.63 46.3101 2.67 46.1701 2.75C46.0301 2.83 45.9601 2.97004 45.9601 3.17004C45.9601 3.33004 46.0134 3.46006 46.1201 3.56006C46.2268 3.64673 46.3701 3.68994 46.5501 3.68994C46.7967 3.68994 46.9968 3.60339 47.1501 3.43005C47.3034 3.25672 47.3801 3.02331 47.3801 2.72998V2.63ZM47.8201 2.43994V4H47.3801V3.57996C47.2734 3.74662 47.1434 3.86995 46.9901 3.94995C46.8367 4.02995 46.6501 4.06995 46.4301 4.06995C46.1501 4.06995 45.9268 3.9933 45.7601 3.83997C45.6001 3.67997 45.5201 3.46662 45.5201 3.19995C45.5201 2.89328 45.6201 2.66334 45.8201 2.51001C46.0268 2.35001 46.3368 2.27002 46.7501 2.27002H47.3801V2.22998C47.3801 2.02331 47.3101 1.86333 47.1701 1.75C47.0368 1.63667 46.8468 1.57996 46.6001 1.57996C46.4401 1.57996 46.2868 1.60001 46.1401 1.64001C45.9934 1.67335 45.8534 1.73006 45.7201 1.81006V1.39001C45.8801 1.32335 46.0368 1.27667 46.1901 1.25C46.3501 1.21667 46.5034 1.19995 46.6501 1.19995C47.0434 1.19995 47.3368 1.30334 47.5301 1.51001C47.7234 1.71001 47.8201 2.01994 47.8201 2.43994ZM48.7501 4V1.27002H49.2001V4H48.7501ZM48.7501 0.77002V0.199951H49.2001V0.77002H48.7501ZM50.1401 4V0.199951H50.5901V4H50.1401ZM53.0801 2.63V0.349976H53.5801V2.56995C53.5801 2.96328 53.6501 3.24337 53.7901 3.41003C53.9301 3.58337 54.1601 3.67004 54.4801 3.67004C54.7934 3.67004 55.0201 3.58337 55.1601 3.41003C55.3068 3.24337 55.3801 2.96328 55.3801 2.56995V0.349976H55.8701V2.63C55.8701 3.10334 55.7534 3.46329 55.5201 3.70996C55.2867 3.94996 54.9401 4.06995 54.4801 4.06995C54.0201 4.06995 53.6701 3.94996 53.4301 3.70996C53.1968 3.46329 53.0801 3.10334 53.0801 2.63ZM59.0501 2.34998V4H58.6001V2.35999C58.6001 2.10665 58.5501 1.91336 58.4501 1.78003C58.3501 1.65336 58.2001 1.58997 58.0001 1.58997C57.7534 1.58997 57.5601 1.66661 57.4201 1.81995C57.2801 1.97328 57.2101 2.18328 57.2101 2.44995V4H56.7601V1.27002H57.2101V1.68994C57.3167 1.52327 57.4434 1.39995 57.5901 1.31995C57.7368 1.23995 57.9068 1.19995 58.1001 1.19995C58.4134 1.19995 58.6501 1.29666 58.8101 1.48999C58.9701 1.68332 59.0501 1.96998 59.0501 2.34998ZM61.6901 1.34998V1.77002C61.5634 1.70335 61.4301 1.65333 61.2901 1.62C61.1568 1.59333 61.0168 1.57996 60.8701 1.57996C60.6434 1.57996 60.4768 1.61339 60.3701 1.68005C60.2568 1.74672 60.2001 1.84999 60.2001 1.98999C60.2001 2.08999 60.2401 2.16998 60.3201 2.22998C60.4001 2.28998 60.5601 2.34669 60.8001 2.40002L60.9501 2.43994C61.2701 2.50661 61.4968 2.60331 61.6301 2.72998C61.7701 2.84998 61.8401 3.02333 61.8401 3.25C61.8401 3.50333 61.7368 3.70331 61.5301 3.84998C61.3301 3.99664 61.0567 4.06995 60.7101 4.06995C60.5634 4.06995 60.4101 4.0567 60.2501 4.03003C60.0901 4.00336 59.9234 3.96002 59.7501 3.90002V3.43994C59.9168 3.52661 60.0801 3.59 60.2401 3.63C60.4001 3.67 60.5601 3.68994 60.7201 3.68994C60.9268 3.68994 61.0868 3.65663 61.2001 3.58997C61.3134 3.51663 61.3701 3.41336 61.3701 3.28003C61.3701 3.16003 61.3301 3.06667 61.2501 3C61.1701 2.93333 60.9901 2.87006 60.7101 2.81006L60.5501 2.77002C60.2767 2.71669 60.0768 2.63001 59.9501 2.51001C59.8301 2.38334 59.7701 2.21668 59.7701 2.01001C59.7701 1.75001 59.8601 1.55003 60.0401 1.41003C60.2201 1.27003 60.4801 1.19995 60.8201 1.19995C60.9801 1.19995 61.1334 1.21332 61.2801 1.23999C61.4268 1.25999 61.5634 1.29664 61.6901 1.34998ZM63.0101 4L62.2901 1.27002H62.7401L63.3001 3.40002L63.8601 1.27002H64.3901L64.9501 3.40002L65.5101 1.27002H65.9601L65.2401 4H64.7101L64.1301 1.76001L63.5401 4H63.0101ZM68.3301 2.63H67.8801C67.5201 2.63 67.2701 2.67 67.1301 2.75C66.9901 2.83 66.9201 2.97004 66.9201 3.17004C66.9201 3.33004 66.9734 3.46006 67.0801 3.56006C67.1801 3.64673 67.3201 3.68994 67.5001 3.68994C67.7534 3.68994 67.9534 3.60339 68.1001 3.43005C68.2534 3.25672 68.3301 3.02331 68.3301 2.72998V2.63ZM68.7801 2.43994V4H68.3301V3.57996C68.2301 3.74662 68.1034 3.86995 67.9501 3.94995C67.7968 4.02995 67.6101 4.06995 67.3901 4.06995C67.1101 4.06995 66.8868 3.9933 66.7201 3.83997C66.5534 3.67997 66.4701 3.46662 66.4701 3.19995C66.4701 2.89328 66.5734 2.66334 66.7801 2.51001C66.9868 2.35001 67.2934 2.27002 67.7001 2.27002H68.3301V2.22998C68.3301 2.02331 68.2601 1.86333 68.1201 1.75C67.9868 1.63667 67.7967 1.57996 67.5501 1.57996C67.3967 1.57996 67.2468 1.60001 67.1001 1.64001C66.9468 1.67335 66.8034 1.73006 66.6701 1.81006V1.39001C66.8368 1.32335 66.9968 1.27667 67.1501 1.25C67.3034 1.21667 67.4534 1.19995 67.6001 1.19995C67.9934 1.19995 68.2901 1.30334 68.4901 1.51001C68.6834 1.71001 68.7801 2.01994 68.7801 2.43994ZM70.1401 3.58997V5.04004H69.6901V1.27002H70.1401V1.68005C70.2334 1.52005 70.3534 1.39995 70.5001 1.31995C70.6401 1.23995 70.8101 1.19995 71.0101 1.19995C71.3434 1.19995 71.6134 1.33331 71.8201 1.59998C72.0268 1.85998 72.1301 2.20668 72.1301 2.64001C72.1301 3.06668 72.0268 3.41339 71.8201 3.68005C71.6134 3.94005 71.3434 4.06995 71.0101 4.06995C70.8101 4.06995 70.6401 4.02995 70.5001 3.94995C70.3534 3.86995 70.2334 3.74997 70.1401 3.58997ZM71.6701 2.64001C71.6701 2.30668 71.6001 2.04665 71.4601 1.85999C71.3267 1.67332 71.1401 1.57996 70.9001 1.57996C70.6668 1.57996 70.4801 1.67332 70.3401 1.85999C70.2068 2.04665 70.1401 2.30668 70.1401 2.64001C70.1401 2.96668 70.2068 3.22337 70.3401 3.41003C70.4801 3.5967 70.6668 3.68994 70.9001 3.68994C71.1401 3.68994 71.3267 3.5967 71.4601 3.41003C71.6001 3.22337 71.6701 2.96668 71.6701 2.64001ZM74.4901 4V0.349976H74.9801V3.57996H76.7601V4H74.4901ZM77.2501 4V1.27002H77.7001V4H77.2501ZM77.2501 0.77002V0.199951H77.7001V0.77002H77.2501ZM78.9101 2.64001C78.9101 2.96668 78.9767 3.22337 79.1101 3.41003C79.2501 3.5967 79.4401 3.68994 79.6801 3.68994C79.9134 3.68994 80.1001 3.5967 80.2401 3.41003C80.3734 3.22337 80.4401 2.96668 80.4401 2.64001C80.4401 2.30668 80.3734 2.04665 80.2401 1.85999C80.1001 1.67332 79.9134 1.57996 79.6801 1.57996C79.4401 1.57996 79.2501 1.67332 79.1101 1.85999C78.9767 2.04665 78.9101 2.30668 78.9101 2.64001ZM80.4401 5.04004V3.58997C80.3468 3.74997 80.2267 3.86995 80.0801 3.94995C79.9401 4.02995 79.7701 4.06995 79.5701 4.06995C79.2368 4.06995 78.9668 3.94005 78.7601 3.68005C78.5534 3.41339 78.4501 3.06668 78.4501 2.64001C78.4501 2.20668 78.5534 1.85998 78.7601 1.59998C78.9668 1.33331 79.2368 1.19995 79.5701 1.19995C79.7701 1.19995 79.9401 1.23995 80.0801 1.31995C80.2267 1.39995 80.3468 1.52005 80.4401 1.68005V1.27002H80.8901V5.04004H80.4401ZM81.7701 2.92004V1.27002H82.2201V2.90002C82.2201 3.16002 82.2701 3.35666 82.3701 3.48999C82.4701 3.61666 82.6201 3.68005 82.8201 3.68005C83.0668 3.68005 83.2601 3.60328 83.4001 3.44995C83.5401 3.29662 83.6101 3.08661 83.6101 2.81995V1.27002H84.0601V4H83.6101V3.57996C83.5034 3.74662 83.3768 3.86995 83.2301 3.94995C83.0901 4.02995 82.9234 4.06995 82.7301 4.06995C82.4168 4.06995 82.1768 3.97336 82.0101 3.78003C81.8501 3.58003 81.7701 3.29338 81.7701 2.92004ZM86.7801 1.68005V0.199951H87.2301V4H86.7801V3.58997C86.6868 3.74997 86.5701 3.86995 86.4301 3.94995C86.2834 4.02995 86.1101 4.06995 85.9101 4.06995C85.5768 4.06995 85.3068 3.94005 85.1001 3.68005C84.8934 3.41339 84.7901 3.06668 84.7901 2.64001C84.7901 2.20668 84.8934 1.85998 85.1001 1.59998C85.3068 1.33331 85.5768 1.19995 85.9101 1.19995C86.1101 1.19995 86.2834 1.23995 86.4301 1.31995C86.5701 1.39995 86.6868 1.52005 86.7801 1.68005ZM85.2501 2.64001C85.2501 2.96668 85.3201 3.22337 85.4601 3.41003C85.5934 3.5967 85.7801 3.68994 86.0201 3.68994C86.2534 3.68994 86.4401 3.5967 86.5801 3.41003C86.7134 3.22337 86.7801 2.96668 86.7801 2.64001C86.7801 2.30668 86.7134 2.04665 86.5801 1.85999C86.4401 1.67332 86.2534 1.57996 86.0201 1.57996C85.7801 1.57996 85.5934 1.67332 85.4601 1.85999C85.3201 2.04665 85.2501 2.30668 85.2501 2.64001ZM88.1601 4V1.27002H88.6101V4H88.1601ZM88.1601 0.77002V0.199951H88.6101V0.77002H88.1601ZM89.5401 0.48999H89.9901V1.27002H90.9201V1.60999H89.9901V3.09998C89.9901 3.31998 90.0201 3.46336 90.0801 3.53003C90.1467 3.59003 90.2734 3.62 90.4601 3.62H90.9201V4H90.4601C90.1134 4 89.8734 3.93673 89.7401 3.81006C89.6067 3.67673 89.5401 3.43998 89.5401 3.09998V1.60999H89.2101V1.27002H89.5401V0.48999ZM93.8501 1.27002L92.6501 4.25C92.5234 4.57667 92.4001 4.79001 92.2801 4.89001C92.1534 4.99001 91.9901 5.04004 91.7901 5.04004H91.4301V4.66003H91.7001C91.8201 4.66003 91.9134 4.63329 91.9801 4.57996C92.0534 4.51996 92.1301 4.38003 92.2101 4.16003L92.2901 3.95996L91.1901 1.27002H91.6601L92.5201 3.40002L93.3701 1.27002H93.8501Z" fill="white"/>
<path d="M74.7302 15V14.58H75.5402V11.8L74.6602 11.98V11.53L75.5302 11.35H76.0302V14.58H76.8301V15H74.7302ZM78.8802 11.6801C78.6268 11.6801 78.4368 11.8067 78.3102 12.0601C78.1835 12.3067 78.1201 12.6801 78.1201 13.1801C78.1201 13.6801 78.1835 14.0567 78.3102 14.3101C78.4368 14.5567 78.6268 14.6801 78.8802 14.6801C79.1402 14.6801 79.3335 14.5567 79.4601 14.3101C79.5868 14.0567 79.6501 13.6801 79.6501 13.1801C79.6501 12.6801 79.5868 12.3067 79.4601 12.0601C79.3335 11.8067 79.1402 11.6801 78.8802 11.6801ZM78.8802 11.29C79.2935 11.29 79.6068 11.45 79.8202 11.77C80.0335 12.0967 80.1402 12.5667 80.1402 13.1801C80.1402 13.7934 80.0335 14.2633 79.8202 14.59C79.6068 14.91 79.2935 15.0699 78.8802 15.0699C78.4735 15.0699 78.1602 14.91 77.9402 14.59C77.7268 14.2633 77.6201 13.7934 77.6201 13.1801C77.6201 12.5667 77.7268 12.0967 77.9402 11.77C78.1602 11.45 78.4735 11.29 78.8802 11.29ZM81.0102 15V14.38H81.5201V15H81.0102ZM83.6501 11.6801C83.3968 11.6801 83.2068 11.8067 83.0801 12.0601C82.9535 12.3067 82.8902 12.6801 82.8902 13.1801C82.8902 13.6801 82.9535 14.0567 83.0801 14.3101C83.2068 14.5567 83.3968 14.6801 83.6501 14.6801C83.9101 14.6801 84.1035 14.5567 84.2302 14.3101C84.3568 14.0567 84.4202 13.6801 84.4202 13.1801C84.4202 12.6801 84.3568 12.3067 84.2302 12.0601C84.1035 11.8067 83.9101 11.6801 83.6501 11.6801ZM83.6501 11.29C84.0635 11.29 84.3768 11.45 84.5901 11.77C84.8035 12.0967 84.9102 12.5667 84.9102 13.1801C84.9102 13.7934 84.8035 14.2633 84.5901 14.59C84.3768 14.91 84.0635 15.0699 83.6501 15.0699C83.2435 15.0699 82.9335 14.91 82.7202 14.59C82.5002 14.2633 82.3902 13.7934 82.3902 13.1801C82.3902 12.5667 82.5002 12.0967 82.7202 11.77C82.9335 11.45 83.2435 11.29 83.6501 11.29ZM88.8802 13.4C88.7402 13.4 88.6301 13.46 88.5501 13.58C88.4701 13.7 88.4301 13.8666 88.4301 14.08C88.4301 14.2933 88.4701 14.46 88.5501 14.58C88.6301 14.7 88.7402 14.76 88.8802 14.76C89.0202 14.76 89.1301 14.7 89.2101 14.58C89.2901 14.46 89.3301 14.2933 89.3301 14.08C89.3301 13.8666 89.2901 13.7 89.2101 13.58C89.1301 13.46 89.0202 13.4 88.8802 13.4ZM88.8802 13.09C89.1402 13.09 89.3435 13.1766 89.4901 13.35C89.6435 13.53 89.7202 13.7733 89.7202 14.08C89.7202 14.3866 89.6435 14.6267 89.4901 14.8C89.3368 14.98 89.1335 15.0699 88.8802 15.0699C88.6202 15.0699 88.4135 14.98 88.2602 14.8C88.1135 14.6267 88.0402 14.3866 88.0402 14.08C88.0402 13.7733 88.1135 13.53 88.2602 13.35C88.4135 13.1766 88.6202 13.09 88.8802 13.09ZM86.3601 11.6C86.2201 11.6 86.1102 11.66 86.0302 11.78C85.9502 11.9 85.9102 12.0667 85.9102 12.28C85.9102 12.4934 85.9502 12.66 86.0302 12.78C86.1102 12.9 86.2201 12.96 86.3601 12.96C86.5001 12.96 86.6102 12.9 86.6902 12.78C86.7702 12.66 86.8102 12.4934 86.8102 12.28C86.8102 12.0734 86.7702 11.9067 86.6902 11.78C86.6102 11.66 86.5001 11.6 86.3601 11.6ZM86.2802 15.0699L88.5602 11.29H88.9601L86.6801 15.0699H86.2802ZM86.3601 11.29C86.6201 11.29 86.8268 11.3801 86.9802 11.5601C87.1268 11.7334 87.2002 11.9734 87.2002 12.28C87.2002 12.5867 87.1268 12.83 86.9802 13.01C86.8268 13.1833 86.6201 13.27 86.3601 13.27C86.1001 13.27 85.8968 13.1833 85.7502 13.01C85.5968 12.83 85.5201 12.5867 85.5201 12.28C85.5201 11.98 85.5968 11.7401 85.7502 11.5601C85.8968 11.3801 86.1001 11.29 86.3601 11.29Z" fill="white"/>
</svg>
