<svg width="20" height="20" viewBox="0 0 20 20" fill="none" xmlns="http://www.w3.org/2000/svg">
<path fill-rule="evenodd" clip-rule="evenodd" d="M19.5901 11.61C19.5901 11.88 19.3702 12.1 19.1002 12.1C19.0602 12.1 19.0302 12.1 19.0002 12.09L18.2001 14.61C18.2402 14.67 18.2601 14.73 18.2601 14.81C18.2601 15 18.1002 15.15 17.9102 15.15L16.9402 16.45C16.9502 16.47 16.9602 16.5 16.9602 16.53C16.9602 16.68 16.8402 16.8 16.6902 16.8C16.6702 16.8 16.6502 16.8 16.6302 16.79L14.4001 18.43C14.4101 18.45 14.4102 18.48 14.4102 18.51C14.4102 18.7 14.2601 18.86 14.0602 18.86C13.9601 18.86 13.8702 18.81 13.8102 18.74L11.5802 19.46C11.5802 19.47 11.5802 19.48 11.5802 19.49C11.5802 19.68 11.4201 19.84 11.2301 19.84C11.0701 19.84 10.9301 19.72 10.9001 19.57L9.24016 19.58C9.20016 19.82 9.00015 20 8.75015 20C8.48015 20 8.25015 19.78 8.25015 19.5C8.25015 19.47 8.26015 19.44 8.26015 19.41L6.18015 18.74C6.12015 18.81 6.03015 18.86 5.92015 18.86C5.73015 18.86 5.58015 18.7 5.58015 18.51C5.58015 18.48 5.58015 18.45 5.59015 18.43L3.32016 16.76C3.31016 16.76 3.31016 16.76 3.30016 16.76C3.17016 16.76 3.07016 16.66 3.07016 16.53C3.07016 16.52 3.08015 16.5 3.08015 16.49L2.08015 15.15C2.08015 15.15 2.08016 15.15 2.07016 15.15C1.88016 15.15 1.73015 15 1.73015 14.81C1.73015 14.74 1.75015 14.67 1.79015 14.61L0.980148 12.05C0.950148 12.05 0.930146 12.06 0.900146 12.06C0.630146 12.06 0.410156 11.83 0.410156 11.56C0.410156 11.31 0.600149 11.1 0.840149 11.07L1.00015 8.32996C0.840153 8.28996 0.730148 8.15996 0.730148 7.98996C0.730148 7.79996 0.880154 7.64996 1.08015 7.64996H1.09015L1.72015 6.34998C1.66015 6.30998 1.63016 6.23998 1.63016 6.16998C1.63016 6.04998 1.73016 5.93997 1.85016 5.93997C1.88016 5.93997 1.91016 5.94996 1.94016 5.95996L2.85016 4.56998C2.77016 4.50998 2.71016 4.40996 2.71016 4.29996C2.71016 4.10996 2.87015 3.95996 3.06015 3.95996C3.15015 3.95996 3.23016 3.98996 3.30016 4.04996L4.61015 2.92996C4.59015 2.88996 4.58015 2.85997 4.58015 2.80997C4.58015 2.68997 4.68015 2.58997 4.81015 2.58997C4.88015 2.58997 4.95016 2.61996 4.99016 2.67996L6.98015 1.66998C6.97015 1.63998 6.96016 1.60998 6.96016 1.56998C6.96016 1.44998 7.06015 1.34998 7.19016 1.34998C7.29015 1.34998 7.38016 1.41996 7.41016 1.51996L9.26015 1.16998C9.29015 0.909983 9.50015 0.719971 9.75015 0.719971C10.0302 0.719971 10.2502 0.939961 10.2502 1.20996L12.5802 1.52997C12.6002 1.42997 12.6902 1.34998 12.8002 1.34998C12.9302 1.34998 13.0302 1.44998 13.0302 1.56998C13.0302 1.60998 13.0201 1.63998 13.0101 1.66998L15.0002 2.67996C15.0402 2.61996 15.1101 2.58997 15.1801 2.58997C15.3001 2.58997 15.4102 2.68997 15.4102 2.80997C15.4102 2.84997 15.3901 2.88996 15.3701 2.92996L16.6902 4.04996C16.7502 3.98996 16.8301 3.95996 16.9301 3.95996C17.1201 3.95996 17.2702 4.10996 17.2702 4.29996C17.2702 4.40996 17.2202 4.50998 17.1402 4.56998L18.0502 5.95996C18.0802 5.94996 18.1002 5.93997 18.1302 5.93997C18.2602 5.93997 18.3602 6.04998 18.3602 6.16998C18.3602 6.23998 18.3302 6.30998 18.2702 6.34998L18.9001 7.64996H18.9102C19.1002 7.64996 19.2601 7.79996 19.2601 7.98996C19.2601 8.15996 19.1502 8.28996 18.9902 8.32996L19.1501 11.12C19.4001 11.14 19.5901 11.35 19.5901 11.61ZM17.5302 7.52997C17.9402 7.63997 18.3402 7.73998 18.6102 7.81998C18.6402 7.77998 18.6602 7.74998 18.6902 7.72998L18.1201 6.39996H18.1102C18.0002 6.61996 17.7702 7.05997 17.5302 7.52997ZM17.5702 14.81C17.5702 14.76 17.5801 14.72 17.5901 14.68L16.2102 13.64L16.4602 14.95L17.5702 14.82V14.81ZM14.6302 14.89C14.6902 14.89 14.7502 14.91 14.8002 14.94L15.8302 13.55C15.7902 13.5 15.7702 13.45 15.7702 13.39C15.7702 13.25 15.8902 13.13 16.0302 13.13H16.0401L16.5901 11.31C16.5101 11.27 16.4501 11.18 16.4501 11.08C16.4501 10.97 16.5302 10.87 16.6302 10.84L16.5502 9.32996C16.4602 9.29996 16.3902 9.21995 16.3902 9.10995C16.3902 9.03996 16.4201 8.96996 16.4801 8.92996L16.0502 7.50998C16.0202 7.50998 16.0002 7.51996 15.9702 7.51996C15.7802 7.51996 15.6201 7.35998 15.6201 7.16998C15.6201 7.07998 15.6602 6.99996 15.7202 6.92996L14.2802 5.22998C14.2702 5.22998 14.2502 5.22998 14.2402 5.22998C14.1102 5.22998 14.0101 5.12998 14.0101 5.00998V4.99997L11.1201 3.77997C11.0701 3.83997 11.0002 3.87997 10.9102 3.87997C10.8002 3.87997 10.7002 3.80996 10.6602 3.70996H9.33015C9.29015 3.80996 9.19016 3.87997 9.07016 3.87997C8.99016 3.87997 8.91015 3.83997 8.87015 3.77997L6.07016 4.95996C6.07016 4.97996 6.07016 4.99996 6.07016 5.01996C6.07016 5.20996 5.92015 5.36996 5.73015 5.36996C5.69015 5.36996 5.65015 5.35997 5.61015 5.33997L4.14015 7.08997C4.15015 7.11997 4.15015 7.14996 4.15015 7.17996C4.15015 7.28996 4.08015 7.37996 3.97015 7.39996L3.54015 8.80997C3.64015 8.86997 3.70015 8.97998 3.70015 9.09998C3.70015 9.26998 3.59015 9.40997 3.43015 9.43997L3.35016 10.84C3.46016 10.87 3.54015 10.97 3.54015 11.08C3.54015 11.18 3.48015 11.27 3.40015 11.31L3.95015 13.13C4.10015 13.13 4.21016 13.25 4.21016 13.39C4.21016 13.45 4.19016 13.5 4.16016 13.55L5.19016 14.94C5.24016 14.91 5.30015 14.89 5.36015 14.89C5.55015 14.89 5.71016 15.05 5.71016 15.24C5.71016 15.29 5.69015 15.34 5.67015 15.39L7.23015 16.38C7.27015 16.33 7.33016 16.29 7.41016 16.29C7.53016 16.29 7.63016 16.39 7.63016 16.52C7.63016 16.53 7.63016 16.54 7.63016 16.55L9.47015 16.92C9.49015 16.75 9.64015 16.63 9.81015 16.63C9.98015 16.63 10.1301 16.75 10.1501 16.92L12.3602 16.54C12.3602 16.53 12.3502 16.53 12.3502 16.52C12.3502 16.39 12.4602 16.29 12.5802 16.29C12.6502 16.29 12.7201 16.33 12.7601 16.38L14.3202 15.39C14.3002 15.34 14.2802 15.29 14.2802 15.24C14.2802 15.05 14.4402 14.89 14.6302 14.89ZM14.4102 15.5L12.8502 16.5H14.3401L14.5101 15.56C14.4701 15.55 14.4402 15.53 14.4102 15.5ZM12.4202 16.68L10.1402 17.07C10.1402 17.08 10.1402 17.08 10.1402 17.09L11.9602 17.73L12.4602 16.71C12.4402 16.7 12.4302 16.69 12.4202 16.68ZM7.57016 16.68C7.56016 16.69 7.54015 16.7 7.53015 16.71L7.99016 17.66L9.48015 17.07L7.57016 16.68ZM5.58015 15.5C5.55015 15.53 5.51015 15.55 5.48015 15.56L5.65015 16.5H7.13016L5.58015 15.5ZM2.42015 14.81V14.82L3.53015 14.95L3.78015 13.64L2.40015 14.68C2.41015 14.72 2.42015 14.76 2.42015 14.81ZM1.42015 7.98996C1.42015 8.06996 1.40016 8.13998 1.35016 8.19998L2.51015 9.85995L3.07016 9.29996C3.03016 9.23996 3.01015 9.16998 3.01015 9.09998C3.01015 8.99998 3.06016 8.90997 3.13016 8.83997C2.97016 8.53997 2.75016 8.09998 2.52016 7.66998C2.13016 7.76998 1.73015 7.86996 1.42015 7.95996C1.42015 7.96996 1.42015 7.97996 1.42015 7.98996ZM3.36015 8.75998C3.37015 8.75998 3.39016 8.75998 3.41016 8.75998L3.83015 7.37997C3.81015 7.36997 3.79016 7.35997 3.77016 7.33997C3.53016 7.39997 3.11015 7.50997 2.67015 7.62997C2.89015 8.04997 3.10015 8.47996 3.26015 8.76996C3.29015 8.75996 3.32015 8.75998 3.36015 8.75998ZM3.18015 9.39996L2.60016 9.98996L3.19016 10.84C3.19016 10.84 3.20016 10.84 3.21016 10.84L3.28015 9.43997C3.25015 9.42997 3.21015 9.41996 3.18015 9.39996ZM2.49016 10.09L1.32016 11.28C1.35016 11.33 1.37016 11.38 1.38016 11.44L3.02016 11.09C3.02016 11.09 3.02016 11.09 3.02016 11.08C3.02016 11.03 3.04016 10.97 3.07016 10.93L2.49016 10.09ZM1.34015 11.79L2.69016 12.61L3.13016 11.3C3.10016 11.28 3.08016 11.26 3.07016 11.23L1.40015 11.58C1.39015 11.66 1.37015 11.73 1.34015 11.79ZM2.82016 12.68L3.74016 13.24C3.76016 13.21 3.78015 13.19 3.81015 13.17L3.26015 11.36L2.82016 12.68ZM3.67015 14.97L5.03015 15.13C5.04015 15.09 5.06015 15.06 5.08015 15.03L4.05016 13.63C4.02016 13.64 3.99015 13.65 3.95015 13.65C3.94015 13.65 3.94015 13.65 3.93015 13.65L3.67015 14.97ZM3.99016 6.95996C4.00016 6.95996 4.02015 6.96998 4.04015 6.97998L5.48015 5.26996C5.48015 5.25996 5.47015 5.24996 5.47015 5.23996L3.62015 5.75998L3.99016 6.95996ZM6.02016 4.82996L8.76015 3.65997L6.57016 3.23996L5.94016 4.74997C5.97016 4.76997 5.99016 4.79996 6.02016 4.82996ZM14.0602 4.85995C14.0702 4.84995 14.0801 4.83997 14.0901 4.83997L13.4202 3.23996L11.2301 3.65997L14.0602 4.85995ZM15.8401 6.84998C15.8801 6.82998 15.9202 6.81998 15.9702 6.81998C15.9902 6.81998 16.0201 6.82996 16.0401 6.82996L16.3701 5.75998L14.4702 5.22998L15.8401 6.84998ZM17.3202 7.62997C16.9002 7.51997 16.5101 7.41998 16.2601 7.34998C16.2401 7.38998 16.2101 7.41997 16.1801 7.43997L16.6201 8.88998C16.6401 8.88998 16.6502 8.88998 16.6702 8.88998C16.8202 8.59998 17.0702 8.11997 17.3202 7.62997ZM16.7001 9.31998L16.7802 10.84C16.7902 10.84 16.7902 10.84 16.8002 10.84L17.3902 9.98996L16.7202 9.30997C16.7202 9.31997 16.7101 9.31998 16.7001 9.31998ZM14.9001 15.03C14.9301 15.06 14.9401 15.09 14.9501 15.13L16.3102 14.97L16.0602 13.65C16.0501 13.65 16.0402 13.65 16.0302 13.65C16.0002 13.65 15.9702 13.64 15.9402 13.63L14.9001 15.03ZM16.2402 13.24L17.1602 12.68L16.7301 11.36L16.1702 13.17C16.2002 13.19 16.2202 13.21 16.2402 13.24ZM17.2901 12.61L18.6402 11.8C18.6102 11.74 18.6002 11.68 18.6002 11.61C18.6002 11.6 18.6002 11.59 18.6002 11.59L16.9202 11.23C16.9002 11.26 16.8802 11.28 16.8602 11.3L17.2901 12.61ZM18.7001 11.31L17.5002 10.09L16.9202 10.93C16.9502 10.97 16.9702 11.03 16.9702 11.08C16.9702 11.09 16.9702 11.09 16.9702 11.09L18.6302 11.44C18.6502 11.4 18.6701 11.35 18.7001 11.31ZM18.6302 8.19998C18.5902 8.13998 18.5702 8.06996 18.5702 7.98996C18.5702 7.97996 18.5702 7.96996 18.5702 7.95996C18.2602 7.86996 17.8502 7.76998 17.4602 7.66998C17.2102 8.16998 16.9501 8.67997 16.7901 8.96997C16.8201 9.00997 16.8401 9.05995 16.8401 9.10995C16.8401 9.14995 16.8302 9.16998 16.8202 9.19998L17.4801 9.85995L18.6302 8.19998ZM17.9801 6.32996C17.9401 6.29996 17.9102 6.24997 17.9102 6.18997L16.5101 5.79996L16.1801 6.88998C16.2601 6.95998 16.3202 7.05998 16.3202 7.16998C16.3202 7.18998 16.3102 7.19996 16.3102 7.20996C16.5702 7.27996 16.9702 7.38996 17.3902 7.48996C17.6302 7.01996 17.8601 6.55996 17.9801 6.32996ZM16.8701 4.63998L16.5602 5.65997L17.9301 6.04996L17.0101 4.63998C16.9801 4.63998 16.9601 4.64996 16.9301 4.64996C16.9101 4.64996 16.8901 4.64998 16.8701 4.63998ZM16.6102 4.43997L14.4801 5.07996L16.4202 5.61996L16.7301 4.58997C16.6801 4.54997 16.6402 4.49997 16.6102 4.43997ZM14.3701 4.81998C14.4001 4.84998 14.4301 4.88996 14.4501 4.92996L16.5802 4.29996C16.5802 4.24996 16.5902 4.20998 16.6102 4.16998L15.2601 3.01996C15.2401 3.02996 15.2101 3.03998 15.1801 3.03998C15.1701 3.03998 15.1601 3.03998 15.1501 3.03998L14.3701 4.81998ZM14.9902 2.93997L13.5702 3.21997L14.2202 4.77997L15.0202 2.96997C15.0102 2.95997 15.0002 2.94997 14.9902 2.93997ZM12.9801 1.81998L13.5101 3.07996L14.9301 2.80997L12.9801 1.81998ZM11.1402 3.45996C11.1502 3.47996 11.1602 3.49997 11.1702 3.52997L13.3602 3.10995L12.8102 1.79996H12.8002C12.7702 1.79996 12.7402 1.78997 12.7202 1.77997C12.3802 2.13997 11.5402 3.02996 11.1402 3.45996ZM10.0502 1.60995C10.2702 2.10995 10.6202 2.89998 10.8602 3.34998C10.8802 3.33998 10.8902 3.33997 10.9102 3.33997C10.9502 3.33997 10.9902 3.34995 11.0202 3.35995C11.4202 2.93995 12.2702 2.03997 12.6102 1.68997L12.6002 1.67996L10.2301 1.35995C10.2001 1.45995 10.1402 1.53995 10.0502 1.60995ZM9.69016 1.69998C9.56015 2.16998 9.35016 2.90997 9.21016 3.37997C9.28016 3.41997 9.32015 3.47997 9.34015 3.55997H10.6501C10.6601 3.49997 10.6901 3.44997 10.7301 3.40997C10.4901 2.95997 10.1402 2.17996 9.92015 1.67996C9.87015 1.69996 9.81015 1.70996 9.75015 1.70996C9.73015 1.70996 9.71016 1.70998 9.69016 1.69998ZM7.38016 1.68997C7.72016 2.03997 8.56016 2.93995 8.96016 3.35995C9.00016 3.34995 9.03016 3.33997 9.07016 3.33997C9.21016 2.86997 9.42016 2.12997 9.55016 1.65997C9.41016 1.59997 9.30016 1.46997 9.27016 1.30997L7.39015 1.66998C7.39015 1.67998 7.38016 1.67997 7.38016 1.68997ZM6.63016 3.10995L8.82016 3.52997C8.83016 3.49997 8.84016 3.47996 8.85016 3.45996C8.44016 3.02996 7.61016 2.13997 7.27016 1.77997C7.25016 1.78997 7.22016 1.79996 7.19016 1.79996C7.18015 1.79996 7.18015 1.79996 7.18015 1.79996L6.63016 3.10995ZM5.06015 2.80997L6.48015 3.07996L7.01015 1.81998L5.06015 2.80997ZM4.97015 2.96997L5.72015 4.66998C5.72015 4.66998 5.72015 4.66998 5.73015 4.66998C5.75015 4.66998 5.78016 4.67996 5.80016 4.67996L6.42015 3.21997L4.99016 2.93997C4.99016 2.94997 4.98015 2.95997 4.97015 2.96997ZM3.38016 4.16998C3.40016 4.20998 3.41016 4.24996 3.41016 4.29996L5.41016 4.88998C5.44016 4.80998 5.50016 4.74996 5.57016 4.70996L4.84015 3.03998C4.83015 3.03998 4.82015 3.03998 4.81015 3.03998C4.78015 3.03998 4.75015 3.02996 4.73015 3.01996L3.38016 4.16998ZM3.25015 4.58997L3.57016 5.61996L5.40015 5.10995C5.39015 5.08995 5.39016 5.06998 5.38016 5.03998L3.38016 4.43997C3.35016 4.49997 3.31015 4.54997 3.25015 4.58997ZM2.06015 6.04996L3.43015 5.65997L3.12015 4.63998C3.10015 4.64998 3.08015 4.64996 3.06015 4.64996C3.03015 4.64996 3.00015 4.63998 2.98015 4.63998L2.06015 6.04996ZM2.01015 6.32996C2.13015 6.55996 2.36016 7.01996 2.60016 7.48996C3.03016 7.37996 3.45015 7.26996 3.70015 7.20996C3.70015 7.19996 3.70015 7.18996 3.70015 7.17996C3.70015 7.07996 3.75015 6.99997 3.83015 6.96997L3.47015 5.79996L2.08015 6.18997C2.07015 6.24997 2.05015 6.29996 2.01015 6.32996ZM1.29015 7.72998C1.33015 7.74998 1.35015 7.77998 1.37015 7.81998C1.65015 7.73998 2.05016 7.63997 2.46016 7.52997C2.22016 7.05997 1.99016 6.61996 1.88016 6.39996C1.87016 6.39996 1.87015 6.39996 1.86015 6.39996L1.29015 7.72998ZM0.990158 11.07C1.08016 11.09 1.15015 11.12 1.22015 11.18L2.41016 9.96997L1.24016 8.28998C1.21016 8.30998 1.18015 8.31996 1.14015 8.32996L0.990158 11.07ZM2.65015 12.75L1.25015 11.91C1.21015 11.95 1.17015 11.98 1.12015 12.01L1.91016 14.51C1.96016 14.48 2.01016 14.46 2.07016 14.46C2.08016 14.46 2.08015 14.46 2.08015 14.46L2.65015 12.75ZM2.22015 14.5C2.26015 14.51 2.29015 14.53 2.31015 14.56L3.72015 13.5C3.70015 13.47 3.69016 13.43 3.69016 13.39C3.69016 13.38 3.69016 13.38 3.69016 13.38L2.78015 12.83L2.22015 14.5ZM3.50015 15.1L2.38016 14.96C2.35016 15.03 2.30015 15.08 2.23015 15.11L3.16016 16.36C3.19016 16.33 3.22015 16.31 3.26015 16.31L3.50015 15.1ZM3.52016 16.5H5.50015L5.33015 15.58C5.16015 15.57 5.03016 15.44 5.02016 15.27L3.65015 15.11L3.41016 16.33C3.47016 16.37 3.51016 16.43 3.52016 16.5ZM5.80016 18.19L5.52016 16.64H3.50015C3.49015 16.66 3.48016 16.67 3.46016 16.69L5.65015 18.29C5.69015 18.25 5.74016 18.21 5.80016 18.19ZM6.05016 18.19L7.24016 16.67C7.23016 16.66 7.22015 16.65 7.22015 16.64H5.67015L5.95015 18.17C5.99015 18.17 6.02016 18.18 6.05016 18.19ZM6.23015 18.35L7.85016 17.71L7.38016 16.74C7.38016 16.74 7.37015 16.74 7.36015 16.74L6.17015 18.27C6.19015 18.29 6.21015 18.32 6.23015 18.35ZM8.51015 19.07L7.92015 17.84L6.27016 18.49C6.27016 18.5 6.27016 18.5 6.27016 18.51C6.27016 18.54 6.26015 18.58 6.25015 18.61L8.31015 19.27C8.36015 19.19 8.43015 19.12 8.51015 19.07ZM8.88016 19.03L9.61015 17.26C9.59015 17.24 9.57016 17.22 9.55016 17.2L8.06015 17.79L8.65015 19.02C8.68015 19.01 8.72015 19.01 8.75015 19.01C8.79015 19.01 8.84016 19.01 8.88016 19.03ZM11.0002 19.23L9.91016 17.3C9.87016 17.31 9.84015 17.32 9.81015 17.32C9.79015 17.32 9.77015 17.32 9.75015 17.31L9.01015 19.08C9.13015 19.16 9.22016 19.28 9.24016 19.43L10.8902 19.42C10.9102 19.35 10.9502 19.28 11.0002 19.23ZM11.2702 19.15L11.9001 17.86L10.0602 17.22C10.0501 17.22 10.0402 17.23 10.0302 17.23L11.1302 19.16C11.1602 19.15 11.2001 19.14 11.2301 19.14C11.2501 19.14 11.2602 19.15 11.2702 19.15ZM13.7301 18.61C13.7201 18.58 13.7202 18.54 13.7202 18.51V18.5L12.0401 17.91L11.4102 19.2C11.4602 19.23 11.5002 19.27 11.5302 19.32L13.7301 18.61ZM13.8102 18.27L12.6201 16.74C12.6201 16.74 12.6102 16.74 12.6002 16.74L12.1002 17.78L13.7601 18.36C13.7701 18.32 13.7901 18.3 13.8102 18.27ZM14.3102 16.64H12.7702C12.7602 16.65 12.7602 16.66 12.7502 16.67L13.9402 18.19C13.9702 18.18 14.0001 18.17 14.0401 18.17L14.3102 16.64ZM16.4902 16.71C16.4702 16.69 16.4602 16.67 16.4402 16.64H14.4602L14.1801 18.19C14.2401 18.21 14.2902 18.25 14.3302 18.3L16.4902 16.71ZM16.5702 16.29L16.3401 15.11L14.9702 15.27C14.9502 15.44 14.8202 15.57 14.6602 15.58L14.4902 16.5H16.4202C16.4302 16.41 16.4902 16.33 16.5702 16.29ZM17.7502 15.11C17.6902 15.08 17.6402 15.03 17.6102 14.96L16.4902 15.1L16.7102 16.26C16.7702 16.27 16.8202 16.29 16.8502 16.32L17.7502 15.11ZM17.7601 14.5L17.2102 12.83L16.2901 13.38C16.2901 13.38 16.3002 13.38 16.3002 13.39C16.3002 13.43 16.2902 13.47 16.2702 13.5L17.6702 14.56C17.7002 14.53 17.7301 14.51 17.7601 14.5ZM18.8602 12.04C18.8002 12.01 18.7602 11.97 18.7202 11.92L17.3401 12.75L17.9102 14.46C17.9702 14.46 18.0302 14.48 18.0802 14.51L18.8602 12.04ZM19.0002 11.12L18.8502 8.32996C18.8102 8.31996 18.7802 8.30998 18.7502 8.28998L17.5802 9.96997L18.8002 11.21C18.8602 11.17 18.9302 11.14 19.0002 11.12Z" fill="url(#paint0_linear)"/>
<path d="M13.3103 11.1499C13.3103 11.6799 13.3203 12.2099 13.3103 12.7399C13.3103 13.0799 13.1603 13.2699 12.9203 13.2699C12.6803 13.2699 12.5303 13.0799 12.5303 12.7399C12.5203 11.6999 12.5303 10.6599 12.5203 9.61995C12.5103 8.72995 11.8603 8.11996 10.9803 8.15996C10.2503 8.18996 9.66033 8.78996 9.63033 9.56996C9.60033 10.41 9.62032 11.26 9.62032 12.1C9.63032 12.34 9.72033 12.54 9.99033 12.54C10.2803 12.55 10.3803 12.3499 10.3803 12.0899C10.3803 11.2599 10.3803 10.4199 10.3803 9.58995C10.3803 9.47995 10.3803 9.36994 10.3903 9.26994C10.4203 9.05994 10.5303 8.91996 10.7403 8.90996C10.9703 8.89996 11.1103 9.02995 11.1503 9.24995C11.1803 9.40995 11.1703 9.58996 11.1703 9.75996C11.1703 10.54 11.1803 11.32 11.1703 12.1C11.1603 12.8 10.7103 13.2999 10.0603 13.3399C9.46032 13.3799 8.89032 12.9 8.86032 12.23C8.81032 11.24 8.76032 10.26 8.89032 9.27995C9.04032 8.09995 10.0403 7.31995 11.2403 7.36995C12.3403 7.42995 13.2803 8.39995 13.3103 9.52995C13.3303 10.07 13.3103 10.6099 13.3103 11.1499Z" fill="url(#paint1_linear)"/>
<path d="M6.6904 11.02C6.7204 10.49 6.6204 9.82002 6.7504 9.17002C6.8904 8.44002 7.3204 7.91999 7.9704 7.57999C8.0904 7.51999 8.23039 7.48002 8.37039 7.45002C8.59039 7.40002 8.7804 7.47 8.8604 7.71C8.9204 7.93 8.8004 8.10002 8.6004 8.17002C7.7304 8.47002 7.4404 9.09999 7.4704 9.98999C7.5004 10.89 7.48039 11.8 7.48039 12.71C7.48039 13.08 7.34039 13.28 7.09039 13.27C6.85039 13.27 6.6904 13.04 6.6904 12.7C6.6904 12.18 6.6904 11.66 6.6904 11.02Z" fill="url(#paint2_linear)"/>
<defs>
<linearGradient id="paint0_linear" x1="0.407156" y1="3.34097" x2="18.7542" y2="16.301" gradientUnits="userSpaceOnUse">
<stop stop-color="#033EFF"/>
<stop offset="1" stop-color="#33B5FF"/>
</linearGradient>
<linearGradient id="paint1_linear" x1="8.80832" y1="8.18395" x2="13.1213" y2="12.1989" gradientUnits="userSpaceOnUse">
<stop stop-color="#033EFF"/>
<stop offset="1" stop-color="#33B5FF"/>
</linearGradient>
<linearGradient id="paint2_linear" x1="6.6824" y1="8.22901" x2="8.77939" y2="12.152" gradientUnits="userSpaceOnUse">
<stop stop-color="#033EFF"/>
<stop offset="1" stop-color="#33B5FF"/>
</linearGradient>
</defs>
</svg>
