<svg width="284" height="169" viewBox="0 0 284 169" fill="none" xmlns="http://www.w3.org/2000/svg">
<path fill-rule="evenodd" clip-rule="evenodd" d="M40.3998 3.95996C40.7798 3.95996 41.1598 3.98001 41.5398 4.01001L271.38 24C278.63 24.63 283.96 31.05 283.26 38.28L272.78 146.35C272.13 153.13 266.41 158.16 259.79 158.16C259.18 158.16 258.55 158.12 257.93 158.03L11.8498 122.86C3.99985 121.74 -1.05016 113.94 1.13984 106.31L27.8498 13.42C29.4698 7.78004 34.6198 3.95996 40.3998 3.95996ZM40.3998 5.25C35.1798 5.25 30.5298 8.75003 29.0798 13.78L2.37984 106.66C1.42984 109.94 1.95984 113.47 3.80984 116.33C5.65984 119.19 8.65983 121.11 12.0398 121.59L258.11 156.75C258.67 156.83 259.24 156.88 259.79 156.88C265.88 156.88 270.92 152.3 271.51 146.22L281.98 38.16C282.29 35 281.34 31.92 279.31 29.48C277.29 27.05 274.43 25.55 271.27 25.28L41.4298 5.29004C41.0898 5.26004 40.7398 5.25 40.3998 5.25Z" fill="url(#paint0_linear)"/>
<path d="M262.69 22.6L252.12 130.4C251.48 136.94 246.74 142.14 240.7 142.93L47.2898 168.27C40.5498 169.16 34.3098 164.31 32.9198 157.13L6.04982 17.76C4.32982 8.84001 10.7498 0.53 19.1698 0.75L250.01 6.98999C257.65 7.19999 263.49 14.4 262.69 22.6Z" fill="url(#paint1_linear)"/>
<path d="M256 134.39C256.36 134.39 256.64 134.68 256.64 135.03V138.89C256.64 139.24 256.36 139.53 256 139.53C255.65 139.53 255.36 139.24 255.36 138.89V135.03C255.36 134.68 255.65 134.39 256 134.39Z" fill="white"/>
<path d="M256 144.67C256.36 144.67 256.64 144.96 256.64 145.31V149.17C256.64 149.52 256.36 149.81 256 149.81C255.65 149.81 255.36 149.52 255.36 149.17V145.31C255.36 144.96 255.65 144.67 256 144.67Z" fill="white"/>
<path d="M250.2 138.01L253.54 139.94C253.85 140.11 253.95 140.51 253.78 140.81C253.6 141.12 253.21 141.23 252.9 141.05L249.56 139.12C249.25 138.94 249.15 138.55 249.32 138.24C249.5 137.94 249.89 137.83 250.2 138.01Z" fill="white"/>
<path d="M259.1 143.15L262.44 145.08C262.75 145.25 262.85 145.65 262.68 145.95C262.5 146.26 262.11 146.37 261.8 146.19L258.46 144.26C258.15 144.08 258.05 143.69 258.22 143.38H258.23C258.4 143.07 258.8 142.97 259.1 143.15Z" fill="white"/>
<path d="M262.68 138.24C262.85 138.55 262.75 138.94 262.44 139.12L259.1 141.05C258.79 141.23 258.4 141.12 258.22 140.81C258.05 140.51 258.15 140.11 258.46 139.94L261.8 138.01C262.11 137.83 262.5 137.94 262.68 138.24Z" fill="white"/>
<path d="M253.78 143.38C253.95 143.69 253.85 144.08 253.54 144.26L250.2 146.19C249.89 146.37 249.5 146.26 249.32 145.95C249.15 145.65 249.25 145.25 249.56 145.08L252.9 143.15C253.21 142.97 253.6 143.07 253.78 143.38Z" fill="white"/>
<path d="M243.49 12.3101C243.84 12.3101 244.13 12.6 244.13 12.96V16.8101C244.13 17.1701 243.84 17.45 243.49 17.45C243.13 17.45 242.85 17.1701 242.85 16.8101V12.96C242.85 12.6 243.13 12.3101 243.49 12.3101Z" fill="white"/>
<path d="M243.49 22.59C243.84 22.59 244.13 22.88 244.13 23.24V27.09C244.13 27.45 243.84 27.73 243.49 27.73C243.13 27.73 242.85 27.45 242.85 27.09V23.24C242.85 22.88 243.13 22.59 243.49 22.59Z" fill="white"/>
<path d="M246.53 19.38H250.72C250.99 19.38 251.2 19.6 251.2 19.86V20.1899C251.2 20.4499 250.99 20.67 250.72 20.67H246.53C246.27 20.67 246.06 20.4499 246.06 20.1899V19.86C246.06 19.6 246.27 19.38 246.53 19.38Z" fill="white"/>
<path d="M236.26 19.38H240.44C240.71 19.38 240.92 19.6 240.92 19.86V20.1899C240.92 20.4499 240.71 20.67 240.44 20.67H236.26C235.99 20.67 235.78 20.4499 235.78 20.1899V19.86C235.78 19.6 235.99 19.38 236.26 19.38Z" fill="white"/>
<path d="M31.4697 69.5C35.0497 69.5 38.1997 71.77 39.3497 75.09C39.4797 75.45 39.2697 75.8301 38.9097 75.9301C38.5897 76.0101 38.2497 75.84 38.1397 75.53C37.1697 72.71 34.4997 70.78 31.4697 70.78C28.4297 70.78 25.7697 72.71 24.7897 75.53C24.6797 75.84 24.3497 76.0101 24.0297 75.9301C23.6597 75.8301 23.4597 75.45 23.5797 75.09C24.7397 71.77 27.8897 69.5 31.4697 69.5Z" fill="white"/>
<path d="M24.0297 79.77C24.3497 79.69 24.6797 79.8601 24.7897 80.1701C25.7697 82.9901 28.4297 84.9201 31.4697 84.9201C34.4997 84.9201 37.1697 82.9901 38.1397 80.1701C38.2497 79.8601 38.5897 79.69 38.9097 79.77C39.2697 79.86 39.4797 80.25 39.3497 80.6C38.1997 83.93 35.0497 86.2 31.4697 86.2C27.8897 86.2 24.7397 83.93 23.5797 80.6C23.4597 80.25 23.6597 79.86 24.0297 79.77Z" fill="white"/>
<defs>
<linearGradient id="paint0_linear" x1="283.322" y1="168.897" x2="43.1418" y2="20.9651" gradientUnits="userSpaceOnUse">
<stop stop-color="#033EFF"/>
<stop offset="1" stop-color="#33B5FF"/>
</linearGradient>
<linearGradient id="paint1_linear" x1="262.761" y1="180.049" x2="44.4178" y2="19.237" gradientUnits="userSpaceOnUse">
<stop stop-color="#033EFF"/>
<stop offset="1" stop-color="#33B5FF"/>
</linearGradient>
</defs>
</svg>
