<svg width="62" height="16" viewBox="0 0 62 16" fill="none" xmlns="http://www.w3.org/2000/svg">
<path d="M5.56402 5.87C5.51402 6.12 5.47388 6.36999 5.42388 6.60999C5.28388 7.31999 5.10413 8.01997 4.93413 8.71997C4.65413 9.84997 4.38406 10.98 4.10406 12.1C4.08406 12.2 4.0339 12.24 3.9439 12.25C3.6339 12.3 3.33398 12.33 3.02398 12.29C2.53398 12.23 2.21398 11.96 2.02398 11.52C1.85398 11.14 1.78414 10.73 1.68414 10.33C1.32414 8.85996 0.964057 7.39003 0.604057 5.91003C0.444057 5.23003 0.274057 4.55 0.104057 3.87C0.0840571 3.77 0.114155 3.76001 0.204155 3.76001C0.764155 3.76001 1.31408 3.76001 1.87408 3.76001C1.95408 3.76001 2.00398 3.78 2.02398 3.87C2.21398 4.87 2.41406 5.88 2.60406 6.88C2.82406 7.98 3.02392 9.07994 3.21392 10.1899C3.21392 10.2199 3.22419 10.26 3.24419 10.29C3.27419 10.13 3.30404 9.96005 3.33404 9.80005C3.45404 9.14005 3.60396 8.47995 3.75396 7.81995C4.06396 6.50995 4.37388 5.19 4.67388 3.88C4.69388 3.78 4.73427 3.76001 4.82427 3.76001C5.36427 3.76001 5.9039 3.76001 6.4439 3.76001C6.5539 3.76001 6.60408 3.79002 6.62408 3.90002C6.82408 4.86002 7.03394 5.81002 7.23394 6.77002C7.45394 7.77002 7.65427 8.78004 7.82427 9.79004C7.84427 9.94004 7.86386 10.09 7.90386 10.24C7.93386 10.04 7.96396 9.85002 8.00396 9.65002C8.20396 8.56002 8.4241 7.48002 8.6441 6.40002C8.8241 5.56002 9.00388 4.72 9.17388 3.88C9.19388 3.79 9.23427 3.76001 9.32427 3.76001C9.84427 3.76001 10.3741 3.76001 10.8941 3.76001C11.0141 3.76001 11.0142 3.77 10.9942 3.88C10.3342 6.35 9.68423 8.81003 9.03423 11.28C8.96423 11.56 8.88402 11.84 8.81402 12.12C8.79402 12.18 8.77392 12.23 8.71392 12.24C8.37392 12.31 8.04415 12.34 7.70415 12.28C7.18415 12.18 6.8639 11.86 6.6939 11.37C6.5639 10.99 6.50388 10.59 6.42388 10.2C6.20388 9.19995 5.97398 8.19005 5.77398 7.18005C5.69398 6.75005 5.63402 6.31 5.56402 5.87Z" fill="#33B5FF"/>
<path d="M21.854 6.69995C21.944 6.58995 22.0238 6.49002 22.1138 6.39002C22.4338 6.00002 22.864 5.79999 23.354 5.73999C23.754 5.68999 24.1339 5.72001 24.5039 5.88001C24.9039 6.04001 25.194 6.31995 25.394 6.69995C25.484 6.85995 25.4738 6.85995 25.5938 6.69995C25.9538 6.22995 26.4139 5.90003 27.0039 5.78003C27.6739 5.64003 28.2937 5.73005 28.8438 6.17005C29.1238 6.40005 29.3138 6.70004 29.4438 7.04004C29.5938 7.43004 29.6638 7.85003 29.6738 8.28003C29.7038 9.55003 29.6741 10.82 29.6841 12.09C29.6841 12.22 29.6842 12.23 29.5542 12.23C29.0642 12.23 28.5838 12.23 28.0938 12.23C27.9338 12.23 27.9341 12.2299 27.9341 12.0699C27.9341 10.9399 27.9341 9.80994 27.9341 8.68994C27.9341 8.38994 27.8939 8.09006 27.7939 7.81006C27.5139 7.04006 26.6541 7.04005 26.2241 7.42005C25.9441 7.67005 25.814 7.98999 25.814 8.35999C25.814 9.55999 25.814 10.77 25.814 11.98C25.814 12.02 25.804 12.06 25.814 12.1C25.824 12.19 25.7841 12.23 25.6841 12.23C25.1841 12.22 24.6941 12.23 24.2041 12.23C24.0641 12.23 24.064 12.22 24.064 12.09C24.064 10.87 24.0642 9.65994 24.0542 8.43994C24.0542 8.15994 23.994 7.88001 23.854 7.63001C23.574 7.12001 22.9141 7.03998 22.4941 7.34998C22.1341 7.60998 21.9341 7.96004 21.9341 8.41004C21.9341 9.62004 21.9341 10.8401 21.9341 12.0601C21.9341 12.2301 21.9342 12.23 21.7642 12.23C21.2842 12.23 20.794 12.22 20.314 12.23C20.214 12.23 20.1841 12.2 20.1841 12.1C20.1841 10.06 20.1841 8.02999 20.1841 5.98999C20.1841 5.88999 20.214 5.85999 20.314 5.85999C20.784 5.86999 21.2439 5.86999 21.7139 5.85999C21.8039 5.85999 21.844 5.88999 21.834 5.98999C21.834 6.19999 21.834 6.42001 21.834 6.63001C21.834 6.65001 21.834 6.67995 21.854 6.69995Z" fill="#33B5FF"/>
<path fill-rule="evenodd" clip-rule="evenodd" d="M16.1441 9.76005C16.1441 10.12 16.1441 10.49 16.1441 10.85C16.1441 11.26 16.1642 11.68 16.2242 12.08C16.2442 12.22 16.2441 12.23 16.1041 12.26C15.8641 12.32 15.6241 12.3501 15.3741 12.3001C14.9841 12.2301 14.7043 12.01 14.5543 11.64C14.5143 11.55 14.4939 11.55 14.4239 11.62C14.0439 12.06 13.544 12.27 12.984 12.35C12.544 12.41 12.114 12.3701 11.714 12.1801C11.054 11.8701 10.6939 11.34 10.6139 10.62C10.5839 10.26 10.6343 9.92001 10.7643 9.60001C10.9543 9.14001 11.2842 8.80999 11.7042 8.57999C12.2442 8.26999 12.8339 8.13998 13.4439 8.06998C13.7139 8.04998 13.9742 8.03006 14.2442 8.03006C14.3342 8.03006 14.3541 8.00008 14.3541 7.92008C14.3541 7.42008 14.014 7.06004 13.484 7.00004C12.774 6.91004 12.124 7.07007 11.504 7.41007C11.424 7.45007 11.3939 7.44002 11.3639 7.36002C11.2739 7.03002 11.1741 6.70004 11.0841 6.38004C11.0641 6.31004 11.0841 6.27003 11.1441 6.24003C11.6641 5.97003 12.2143 5.83005 12.7843 5.76005C13.2443 5.70005 13.7139 5.70006 14.1739 5.78006C14.7139 5.88006 15.2041 6.10006 15.5641 6.53006C15.8541 6.87006 16.0041 7.28001 16.0841 7.72001C16.1341 7.99001 16.1441 8.27008 16.1441 8.55008C16.1441 8.95008 16.1441 9.35005 16.1441 9.76005ZM14.4142 9.68998C14.4142 9.52998 14.4042 9.39005 14.4142 9.26005C14.4142 9.18005 14.3743 9.16008 14.3043 9.17008C14.1943 9.18008 14.0842 9.18009 13.9742 9.18009C13.6542 9.20009 13.3343 9.25003 13.0343 9.37003C12.7043 9.51003 12.4539 9.73002 12.3839 10.11C12.3139 10.51 12.5039 10.9001 12.8639 11.0401C13.0839 11.1201 13.324 11.1201 13.544 11.0501C13.914 10.9401 14.1841 10.73 14.3341 10.37C14.4341 10.14 14.4042 9.89998 14.4142 9.68998Z" fill="#33B5FF"/>
<path fill-rule="evenodd" clip-rule="evenodd" d="M35.8839 9.46C35.8839 9.92 35.8739 10.27 35.8839 10.63C35.8839 11.13 35.8942 11.63 35.9742 12.13C35.9842 12.19 35.9739 12.23 35.9039 12.25C35.6139 12.32 35.324 12.3601 35.024 12.2801C34.694 12.1901 34.4641 12 34.3141 11.7C34.2441 11.54 34.2439 11.5401 34.1339 11.6601C33.7539 12.0701 33.2642 12.28 32.7242 12.35C32.2042 12.42 31.7143 12.35 31.2643 12.08C30.6743 11.72 30.3741 11.19 30.3541 10.5C30.3141 9.51004 30.8642 8.81999 31.7042 8.44999C32.2642 8.19999 32.8642 8.09009 33.4742 8.05009C33.6542 8.04009 33.8242 8.03007 33.9942 8.03007C34.0842 8.03007 34.1038 8.00008 34.0938 7.92008C34.0738 7.30008 33.6542 7.05004 33.2042 7.00004C32.5142 6.91004 31.884 7.07005 31.274 7.39005C31.134 7.46005 31.1438 7.4601 31.0938 7.3101C31.0038 7.0101 30.9241 6.71007 30.8341 6.41007C30.8041 6.31007 30.8239 6.27001 30.9039 6.22001C31.4239 5.97001 31.974 5.83005 32.544 5.76005C33.034 5.70005 33.534 5.70009 34.024 5.80009C34.674 5.94009 35.194 6.26001 35.524 6.85001C35.724 7.19001 35.8241 7.55999 35.8541 7.94999C35.9041 8.48999 35.8639 9.03 35.8839 9.46ZM34.1441 9.68998C34.1441 9.54998 34.1441 9.40005 34.1441 9.26005C34.1441 9.19005 34.1243 9.16008 34.0543 9.17008C33.8543 9.19008 33.654 9.16999 33.464 9.19999C33.124 9.25999 32.784 9.32006 32.504 9.52006C32.064 9.83006 31.9738 10.49 32.3438 10.87C32.5238 11.05 32.7643 11.11 33.0143 11.09C33.6443 11.07 34.1741 10.56 34.1441 9.96C34.1441 9.87 34.1441 9.77998 34.1441 9.68998Z" fill="#33B5FF"/>
<path d="M43.1538 8.73999C43.1538 9.12999 43.1438 9.52002 43.1538 9.90002C43.1538 10.12 43.1842 10.33 43.2642 10.52C43.3842 10.79 43.604 10.89 43.874 10.91C44.074 10.91 44.2639 10.89 44.4639 10.85C44.5439 10.83 44.584 10.84 44.584 10.95C44.594 11.32 44.604 11.6899 44.604 12.0699C44.604 12.1399 44.6039 12.19 44.5239 12.21C43.9439 12.36 43.3639 12.44 42.7739 12.3C42.1239 12.14 41.7242 11.7199 41.5542 11.0699C41.4742 10.7499 41.4438 10.42 41.4438 10.08C41.4338 8.01996 41.4341 5.96002 41.4341 3.90002C41.4341 3.79002 41.4642 3.76001 41.5742 3.76001C42.0542 3.76001 42.5339 3.76001 43.0039 3.76001C43.1439 3.76001 43.1538 3.76002 43.1538 3.90002C43.1538 4.47002 43.1538 5.04 43.1538 5.62C43.1538 5.76 43.1539 5.76001 43.2939 5.76001C43.7039 5.76001 44.1042 5.76001 44.5142 5.76001C44.6242 5.76001 44.6538 5.79002 44.6538 5.90002C44.6438 6.35002 44.6438 6.81001 44.6538 7.26001C44.6538 7.36001 44.6239 7.39001 44.5239 7.39001C44.1039 7.39001 43.6942 7.39001 43.2842 7.39001C43.1842 7.39001 43.144 7.42002 43.144 7.52002C43.154 7.93002 43.1538 8.32999 43.1538 8.73999Z" fill="#33B5FF"/>
<path d="M17.2642 7.98999C17.2642 6.62999 17.2642 5.28004 17.2642 3.92004C17.2642 3.76004 17.2638 3.76001 17.4238 3.76001C17.9038 3.76001 18.3838 3.76001 18.8638 3.76001C18.9738 3.76001 19.0039 3.79001 19.0039 3.89001C19.0039 6.63001 19.0039 9.35997 19.0039 12.09C19.0039 12.2 18.9738 12.23 18.8638 12.23C18.3838 12.22 17.8938 12.23 17.4038 12.23C17.2738 12.23 17.2642 12.22 17.2642 12.09C17.2642 10.72 17.2642 9.35999 17.2642 7.98999Z" fill="#33B5FF"/>
<path d="M38.604 7.04007C38.654 7.01007 38.6538 6.96008 38.6738 6.92008C38.9638 6.25008 39.4441 5.83001 40.1841 5.73001C40.3441 5.71001 40.5041 5.72002 40.6641 5.74002C40.7241 5.75002 40.7539 5.79 40.7539 5.84C40.7539 6.34 40.7539 6.84 40.7539 7.34C40.7539 7.42 40.714 7.44009 40.644 7.43009C40.394 7.39009 40.1338 7.37009 39.8838 7.43009C39.2638 7.56009 38.874 8.01007 38.814 8.66007C38.804 8.81007 38.7939 8.96003 38.7939 9.12003C38.7939 10.1 38.7939 11.09 38.7939 12.07C38.7939 12.23 38.794 12.23 38.644 12.23C38.144 12.23 37.644 12.22 37.144 12.23C37.054 12.23 37.0142 12.2 37.0142 12.1C37.0142 10.06 37.0142 8.03002 37.0142 5.99002C37.0142 5.90002 37.044 5.86002 37.144 5.86002C37.584 5.87002 38.0141 5.87002 38.4541 5.86002C38.5641 5.86002 38.584 5.90003 38.584 6.00003C38.584 6.30003 38.584 6.61007 38.584 6.91007C38.584 6.95007 38.574 6.99007 38.604 7.04007Z" fill="#33B5FF"/>
<path d="M51.9839 9.52008C51.9839 9.78008 51.9142 9.92008 51.7642 10.0201C50.7942 10.7001 49.824 11.3801 48.854 12.0601C48.494 12.3101 48.104 12.2501 47.794 11.9001C47.594 11.6701 47.4638 11.41 47.4238 11.11C47.3838 10.77 47.5338 10.5 47.8438 10.36C48.6138 10 49.374 9.6401 50.144 9.2901C50.464 9.1401 50.7838 8.99002 51.0938 8.84002C51.2538 8.76002 51.4142 8.78005 51.5542 8.87005C51.8242 9.03005 51.9539 9.28008 51.9839 9.52008Z" fill="#33B5FF"/>
<path d="M60.4039 11.12C60.3739 11.52 60.1439 11.9 59.6939 12.15C59.4639 12.27 59.244 12.25 59.024 12.09C58.184 11.49 57.3342 10.9101 56.4942 10.3101C56.3642 10.2201 56.2341 10.1301 56.1041 10.0401C55.9141 9.92006 55.8341 9.76007 55.8541 9.55007C55.8941 9.22007 56.0541 8.97998 56.3541 8.82998C56.4741 8.76998 56.5939 8.77999 56.7139 8.83999C57.3839 9.14999 58.0542 9.46004 58.7242 9.77004C59.1742 9.98004 59.614 10.19 60.064 10.39C60.294 10.5 60.4039 10.7 60.4039 11.12Z" fill="#33B5FF"/>
<path d="M51.9839 6.34001C51.9839 6.75001 51.7141 7.1001 51.3941 7.1801C51.2841 7.2101 51.1838 7.19006 51.0938 7.14006C50.5638 6.90006 50.0442 6.65008 49.5142 6.41008C48.9542 6.14008 48.3942 5.88004 47.8242 5.62004C47.5342 5.49004 47.3838 5.21006 47.4238 4.89006C47.4938 4.42006 47.7141 4.06001 48.1441 3.84001C48.3641 3.72001 48.584 3.74006 48.794 3.89006C49.794 4.59006 50.7842 5.29003 51.7842 5.98003C51.9242 6.09003 51.9839 6.23001 51.9839 6.34001Z" fill="#33B5FF"/>
<path d="M60.4038 4.87995C60.4038 5.27995 60.2839 5.49995 59.9839 5.62995C58.9039 6.11995 57.8339 6.62996 56.7539 7.13996C56.5539 7.22996 56.3741 7.19989 56.2041 7.06989C55.9841 6.88989 55.854 6.65993 55.854 6.35993C55.854 6.19993 55.9139 6.07994 56.0439 5.98994C56.5339 5.64994 57.0242 5.29991 57.5142 4.95991C58.0142 4.60991 58.5139 4.26998 59.0039 3.90998C59.2939 3.69998 59.5442 3.71998 59.8242 3.90998C60.1842 4.15998 60.3838 4.51995 60.4038 4.87995Z" fill="#33B5FF"/>
<path d="M53.9237 10.37C54.1037 10.38 54.2839 10.41 54.4339 10.54C54.5939 10.67 54.5938 10.85 54.6038 11.02C54.6738 11.72 54.7338 12.42 54.7938 13.13C54.8338 13.6 54.8739 14.06 54.9139 14.53C54.9339 14.79 54.8038 14.96 54.6038 15.09C54.1638 15.38 53.5036 15.34 53.1136 15C52.9436 14.86 52.9037 14.68 52.9237 14.46C52.9637 14.01 53.0038 13.56 53.0438 13.11C53.0838 12.68 53.1239 12.2499 53.1639 11.8199C53.1939 11.5099 53.224 11.19 53.244 10.87C53.254 10.65 53.374 10.5299 53.554 10.4399C53.674 10.3899 53.7837 10.37 53.9237 10.37Z" fill="#33B5FF"/>
<path d="M53.9142 5.62003C53.7642 5.62003 53.6243 5.58005 53.4943 5.51005C53.3043 5.41005 53.244 5.23007 53.234 5.03007C53.184 4.40007 53.1241 3.78006 53.0641 3.15006C53.0141 2.60006 52.974 2.04003 52.924 1.49003C52.894 1.22003 53.014 1.02006 53.234 0.900062C53.684 0.640062 54.1542 0.630062 54.6042 0.900062C54.8442 1.04006 54.9442 1.25008 54.9142 1.54008C54.8542 2.05008 54.8141 2.55998 54.7741 3.06998C54.7341 3.48998 54.694 3.92001 54.654 4.35001C54.634 4.60001 54.6039 4.85001 54.5939 5.10001C54.5839 5.32001 54.4741 5.46008 54.2741 5.54008C54.1641 5.60008 54.0442 5.62003 53.9142 5.62003Z" fill="#33B5FF"/>
<path fill-rule="evenodd" clip-rule="evenodd" d="M61.374 11.9201C61.384 12.0901 61.2239 12.25 61.0439 12.26C60.8739 12.27 60.7038 12.12 60.6938 11.95C60.6838 11.78 60.8341 11.61 61.0141 11.6C61.1941 11.59 61.364 11.7301 61.374 11.9201ZM61.0937 11.71C60.9737 11.68 60.884 11.72 60.834 11.82C60.784 11.92 60.814 12.06 60.894 12.12C60.984 12.18 61.1038 12.17 61.1938 12.1C61.3138 11.95 61.2537 11.74 61.0937 11.71Z" fill="#33B5FF"/>
<path d="M61.1938 12.0999C61.1338 12.0999 61.094 12.09 61.064 12.03C61.044 11.98 61.0139 11.97 61.0039 12.03C60.9939 12.07 60.9838 12.0899 60.9438 12.0899C60.8938 12.0799 60.894 12.05 60.894 12.01C60.894 11.98 60.894 11.95 60.894 11.92C60.894 11.77 60.9838 11.72 61.1138 11.78C61.1738 11.8 61.2041 11.84 61.1641 11.9C61.1241 11.97 61.2138 12.0299 61.1938 12.0999Z" fill="#33B5FF"/>
</svg>
